<svg width="123" height="124" viewBox="0 0 123 124" fill="none" xmlns="http://www.w3.org/2000/svg">
<g clip-path="url(#clip0_100_6)">
<path d="M11.0362 52.2876L6.33211 42.7727C4.42131 38.9077 6.42521 34.2507 10.5456 32.9809L21.0318 29.7492C23.6534 28.9413 25.5615 26.6764 25.9126 23.9557L27.3179 13.0669C27.9201 8.40075 32.862 5.6454 37.1479 7.58621L47.0392 12.0653C49.6853 13.2636 52.7965 12.7031 54.8581 10.6568L62.3026 3.26735C65.7176 -0.122408 71.4555 0.864468 73.5417 5.20041L77.6702 13.7808C79.0344 16.616 82.1226 18.1927 85.2191 17.6348L98.2376 15.2896C102.93 14.4442 107.077 18.4359 106.41 23.1575L104.715 35.1599C104.28 38.2376 105.927 41.2332 108.759 42.5154L117.635 46.5348C122.101 48.5572 123.158 54.4257 119.678 57.8795L112.131 65.3706C110.239 67.2487 109.578 70.0383 110.426 72.5657L114.722 85.3678C116.081 89.416 113.53 93.7268 109.327 94.4838L99.3281 96.2851C96.2589 96.838 93.9257 99.3546 93.606 102.457L92.772 110.552C92.2639 115.483 86.9321 118.338 82.5462 116.027L73.3055 111.159C70.4627 109.661 66.9654 110.291 64.824 112.687L57.5908 120.779C54.3615 124.391 48.5273 123.709 46.2181 119.449L41.9157 111.513C40.4758 108.857 37.4942 107.424 34.5207 107.96L25.2283 109.634C20.7291 110.445 16.6731 106.795 17.0058 102.236L17.9315 89.547C18.1409 86.6765 16.5719 83.9703 13.9767 82.7258L5.04157 78.4413C0.737785 76.3776 -0.283875 70.7065 3.02917 67.2706L9.80009 60.2487C11.851 58.1218 12.3456 54.9362 11.0362 52.2876Z" fill="#FBDC00" stroke="black" stroke-width="2"/>
</g>
<defs>
<clipPath id="clip0_100_6">
<rect width="123" height="124" fill="white"/>
</clipPath>
</defs>
</svg>
