<svg width="145" height="140" viewBox="0 0 145 140" fill="none" xmlns="http://www.w3.org/2000/svg">
<g clip-path="url(#clip0_94_82)">
<path fill-rule="evenodd" clip-rule="evenodd" d="M43.6903 42.5739L31.0976 12.8126L57.4966 32.3037L63.7472 4.17665L76.34 33.938L95.7364 3.75208L94.7684 37.573L124.432 21.2174L107.774 49.2609L140.736 47.1607L112.682 67.8179L143.712 78.0472L115.224 83.1504L135.925 95.0865L104.066 91.4578L120.067 119.534L91.5617 103.278L88.6575 131.945L72.6568 103.868L56.9396 136.123L54.5235 109.077L51.7211 110.416L22.4986 126.655L34.9592 102.875L39.0024 93.7798L5.46747 96.1764L23.5604 83.2385L32.5875 74.4906L31.8933 74.0651L0.790283 62.4305L38.3983 60.0469L12.4786 35.2289L43.6903 42.5739Z" fill="#F65052"/>
<path d="M31.0976 12.8126L31.6915 12.0081L28.7535 9.83886L30.1766 13.2023L31.0976 12.8126ZM43.6903 42.5739L43.4612 43.5473L45.379 43.9986L44.6113 42.1842L43.6903 42.5739ZM57.4966 32.3037L56.9026 33.1082L58.1393 34.0212L58.4728 32.5206L57.4966 32.3037ZM63.7472 4.17665L64.6682 3.78697L63.4495 0.906775L62.7711 3.95971L63.7472 4.17665ZM76.34 33.938L75.419 34.3276L76.1572 36.0722L77.1813 34.4785L76.34 33.938ZM95.7364 3.75208L96.736 3.78069L96.8388 0.186523L94.8951 3.2115L95.7364 3.75208ZM94.7684 37.573L93.7688 37.5444L93.7188 39.2937L95.2513 38.4487L94.7684 37.573ZM124.432 21.2174L125.292 21.7282L127.17 18.5657L123.949 20.3417L124.432 21.2174ZM107.774 49.2609L106.914 48.7502L105.946 50.3794L107.837 50.2589L107.774 49.2609ZM140.736 47.1607L141.329 47.966L144.072 45.9461L140.672 46.1627L140.736 47.1607ZM112.682 67.8179L112.089 67.0126L110.529 68.1612L112.369 68.7676L112.682 67.8179ZM143.712 78.0472L143.889 79.0316L144.026 77.0975L143.712 78.0472ZM115.224 83.1504L115.048 82.1661L112.352 82.6489L114.725 84.0167L115.224 83.1504ZM135.925 95.0865L135.812 96.0801L136.424 94.2202L135.925 95.0865ZM104.066 91.4578L104.18 90.4642L102.222 90.2412L103.198 91.9529L104.066 91.4578ZM120.067 119.534L119.572 120.403L122.744 122.212L120.936 119.039L120.067 119.534ZM91.5617 103.278L92.0571 102.41L90.7218 101.648L90.5668 103.177L91.5617 103.278ZM88.6575 131.945L87.7887 132.44L89.3372 135.157L89.6524 132.045L88.6575 131.945ZM72.6568 103.868L73.5256 103.373L72.5877 101.727L71.7579 103.43L72.6568 103.868ZM56.9396 136.123L55.9435 136.212L56.2635 139.793L57.8385 136.561L56.9396 136.123ZM54.5235 109.077L55.5195 108.988L55.3914 107.555L54.0925 108.175L54.5235 109.077ZM51.7211 110.416L51.29 109.514L51.2622 109.527L51.2353 109.542L51.7211 110.416ZM22.4986 126.655L21.6128 126.191L20.0601 129.154L22.9843 127.529L22.4986 126.655ZM34.9592 102.875L35.8449 103.339L35.8599 103.311L35.8729 103.281L34.9592 102.875ZM39.0024 93.7798L39.9162 94.186L40.593 92.6636L38.9311 92.7824L39.0024 93.7798ZM5.46748 96.1764L4.88582 95.363L1.9997 97.4268L5.53877 97.1739L5.46748 96.1764ZM23.5604 83.2385L24.142 84.052L24.2027 84.0086L24.2563 83.9567L23.5604 83.2385ZM32.5875 74.4906L33.2835 75.2088L34.2091 74.3117L33.1102 73.6381L32.5875 74.4906ZM31.8933 74.0651L32.4159 73.2125L32.3338 73.1622L32.2436 73.1284L31.8933 74.0651ZM0.790297 62.4305L0.727046 61.4325L0.439941 63.3671L0.790297 62.4305ZM38.3983 60.0469L38.4616 61.0449L40.736 60.9008L39.0899 59.3247L38.3983 60.0469ZM12.4786 35.2289L12.7077 34.2555L9.13894 33.4157L11.787 35.9512L12.4786 35.2289ZM30.1766 13.2023L42.7694 42.9636L44.6113 42.1842L32.0185 12.4229L30.1766 13.2023ZM58.0906 31.4992L31.6915 12.0081L30.5036 13.6171L56.9026 33.1082L58.0906 31.4992ZM62.7711 3.95971L56.5204 32.0867L58.4728 32.5206L64.7234 4.39358L62.7711 3.95971ZM77.261 33.5483L64.6682 3.78697L62.8263 4.56632L75.419 34.3276L77.261 33.5483ZM94.8951 3.2115L75.4987 33.3974L77.1813 34.4785L96.5777 4.29266L94.8951 3.2115ZM95.768 37.6016L96.736 3.78069L94.7368 3.72347L93.7688 37.5444L95.768 37.6016ZM123.949 20.3417L94.2856 36.6973L95.2513 38.4487L124.915 22.0932L123.949 20.3417ZM108.633 49.7716L125.292 21.7282L123.572 20.7067L106.914 48.7502L108.633 49.7716ZM140.672 46.1627L107.71 48.2629L107.837 50.2589L140.799 48.1587L140.672 46.1627ZM113.275 68.6231L141.329 47.966L140.143 46.3555L112.089 67.0126L113.275 68.6231ZM144.026 77.0975L112.995 66.8682L112.369 68.7676L143.399 78.997L144.026 77.0975ZM115.4 84.1347L143.889 79.0316L143.536 77.0629L115.048 82.1661L115.4 84.1347ZM136.424 94.2202L115.724 82.2841L114.725 84.0167L135.425 95.9528L136.424 94.2202ZM103.953 92.4513L135.812 96.0801L136.038 94.0929L104.18 90.4642L103.953 92.4513ZM120.936 119.039L104.935 90.9626L103.198 91.9529L119.198 120.029L120.936 119.039ZM91.0664 104.147L119.572 120.403L120.562 118.666L92.0571 102.41L91.0664 104.147ZM89.6524 132.045L92.5566 103.379L90.5668 103.177L87.6626 131.844L89.6524 132.045ZM71.788 104.363L87.7887 132.44L89.5263 131.45L73.5256 103.373L71.788 104.363ZM57.8385 136.561L73.5558 104.306L71.7579 103.43L56.0406 135.685L57.8385 136.561ZM53.5275 109.166L55.9435 136.212L57.9356 136.034L55.5195 108.988L53.5275 109.166ZM52.1521 111.318L54.9545 109.98L54.0925 108.175L51.29 109.514L52.1521 111.318ZM22.9843 127.529L52.2068 111.29L51.2353 109.542L22.0129 125.781L22.9843 127.529ZM34.0734 102.411L21.6128 126.191L23.3844 127.119L35.8449 103.339L34.0734 102.411ZM38.0886 93.3736L34.0454 102.469L35.8729 103.281L39.9162 94.186L38.0886 93.3736ZM5.53877 97.1739L39.0737 94.7773L38.9311 92.7824L5.3962 95.179L5.53877 97.1739ZM22.9787 82.4251L4.88582 95.363L6.04915 96.9899L24.142 84.052L22.9787 82.4251ZM31.8916 73.7725L22.8645 82.5204L24.2563 83.9567L33.2835 75.2088L31.8916 73.7725ZM31.3707 74.9176L32.0649 75.3432L33.1102 73.6381L32.4159 73.2125L31.3707 74.9176ZM0.439941 63.3671L31.5429 75.0017L32.2436 73.1284L1.14065 61.4939L0.439941 63.3671ZM38.3351 59.049L0.727046 61.4325L0.853549 63.4285L38.4616 61.0449L38.3351 59.049ZM11.787 35.9512L37.7067 60.7692L39.0899 59.3247L13.1702 34.5066L11.787 35.9512ZM43.9194 41.6005L12.7077 34.2555L12.2495 36.2023L43.4612 43.5473L43.9194 41.6005Z" fill="black"/>
</g>
</svg>
