<svg xmlns="http://www.w3.org/2000/svg" width="256" height="256" viewBox="0 0 256 256" fill="none">
<path d="M39.981 39.9826H109.998V0H35.1838C15.7526 0 0 15.7532 0 35.1852V110.003H39.9675V39.9826H39.981Z" fill="#00FF00"/>
<path d="M156.702 128.008C156.702 143.856 143.86 156.711 128 156.711C112.14 156.711 99.2979 143.869 99.2979 128.008C99.2979 112.147 112.153 99.3047 128 99.3047C143.847 99.3047 156.702 112.147 156.702 128.008Z" fill="#00FF00"/>
<path d="M220.809 0H145.994V39.9691H216.011V109.989H255.979V35.1852C255.979 15.7532 240.226 0 220.795 0" fill="#00FF00"/>
<path d="M216.019 145.998V216.018H146.002V255.987H220.816C240.248 255.987 256 240.234 256 220.802V145.984H216.033L216.019 145.998Z" fill="#00FF00"/>
<path d="M39.9832 216.016V145.996H0.015625V220.814C0.015625 240.246 15.7681 255.999 35.1994 255.999H110.014V216.03H39.9966L39.9832 216.016Z" fill="#00FF00"/>
</svg>