<svg width="319" height="245" viewBox="0 0 319 245" fill="none" xmlns="http://www.w3.org/2000/svg">
<g clip-path="url(#clip0_63_75)">
<mask id="mask0_63_75" style="mask-type:luminance" maskUnits="userSpaceOnUse" x="0" y="0" width="319" height="245">
<path d="M317.857 14.3526C318.427 14.3526 318.923 13.9186 318.923 13.3485V9.33203C318.923 8.76175 318.427 8.32795 317.857 8.32795C313.612 8.32795 310.035 5.47919 308.929 1.59306C308.676 0.706043 307.922 0 306.999 0H305.234C305.216 0 305.201 0.0144294 305.201 0.0322289C305.201 0.0500285 305.187 0.0644579 305.169 0.0644579H302.612C302.041 0.0644579 301.608 0.560079 301.608 1.13016C301.608 6.25241 297.455 10.4078 292.327 10.4078C287.199 10.4078 283.046 6.25671 283.046 1.13016C283.046 0.560331 282.612 0.0644579 282.043 0.0644579H278.552C277.982 0.0644579 277.548 0.56008 277.548 1.13016C277.548 6.25241 273.396 10.4078 268.268 10.4078C263.14 10.4078 258.987 6.25671 258.987 1.13016C258.987 0.56033 258.553 0.0644579 257.983 0.0644579H253.908C253.338 0.0644579 252.905 0.560079 252.905 1.13016C252.905 6.25241 248.752 10.4078 243.624 10.4078C238.496 10.4078 234.343 6.25671 234.343 1.13016C234.343 0.560331 233.909 0.0644579 233.339 0.0644579H229.797C229.227 0.0644579 228.794 0.56008 228.794 1.13016C228.794 6.25241 224.641 10.4078 219.513 10.4078C214.385 10.4078 210.232 6.25671 210.232 1.13016C210.232 0.560331 209.798 0.0644579 209.228 0.0644579H205.209C204.639 0.0644579 204.206 0.560079 204.206 1.13016C204.206 6.25241 200.053 10.4078 194.925 10.4078C189.797 10.4078 185.644 6.25671 185.644 1.13016C185.644 0.56033 185.21 0.0644579 184.64 0.0644579H181.042C180.472 0.0644579 180.039 0.560079 180.039 1.13016C180.039 6.25241 175.886 10.4078 170.758 10.4078C165.63 10.4078 161.477 6.25671 161.477 1.13016C161.477 0.560331 161.043 0.0644579 160.474 0.0644579H156.983C156.413 0.0644579 155.979 0.560079 155.979 1.13016C155.979 6.25241 151.827 10.4078 146.699 10.4078C141.57 10.4078 137.418 6.25671 137.418 1.13016C137.418 0.560331 136.984 0.0644579 136.414 0.0644579H132.339C131.769 0.0644579 131.335 0.560079 131.335 1.13016C131.335 6.25241 127.183 10.4078 122.055 10.4078C116.927 10.4078 112.774 6.25671 112.774 1.13016C112.774 0.560331 112.34 0.0644579 111.77 0.0644579H108.512C107.942 0.0644579 107.508 0.560079 107.508 1.13016C107.508 6.25241 103.356 10.4078 98.2276 10.4078C93.0993 10.4078 88.9469 6.25671 88.9469 1.13016C88.9469 0.560331 88.513 0.0644579 87.9432 0.0644579H83.9239C83.3539 0.0644579 82.9202 0.560079 82.9202 1.13016C82.9202 6.25241 78.7678 10.4078 73.6395 10.4078C68.5113 10.4078 64.3588 6.25671 64.3588 1.13016C64.3588 0.560331 63.9249 0.0644579 63.3551 0.0644579H59.7571C59.1871 0.0644579 58.7534 0.560079 58.7534 1.13016C58.7534 6.25241 54.601 10.4078 49.4727 10.4078C44.3445 10.4078 40.192 6.25671 40.192 1.13016C40.192 0.560331 39.7581 0.0644579 39.1883 0.0644579H35.6978C35.1277 0.0644579 34.6941 0.560079 34.6941 1.13016C34.6941 6.25241 30.5416 10.4078 25.4134 10.4078C20.2851 10.4078 16.2058 6.26101 16.2058 1.13446C16.2058 0.564628 15.7719 0.068755 15.202 0.068755H11.1269C10.5569 0.068755 10.1232 0.564376 10.1232 1.13446C10.1232 1.49542 10.1017 1.81771 10.0631 2.15289C9.06147 6.19225 5.41625 9.19169 1.06606 9.19169C0.496025 9.19169 0 9.62575 0 10.1958V14.2123C0 14.7825 0.495774 15.2163 1.06606 15.2163C6.19 15.2163 10.3468 19.3674 10.3468 24.494C10.3468 29.6205 6.1943 33.7716 1.06606 33.7716C0.496025 33.7716 0 34.2057 0 34.7757V38.0316C0 38.6019 0.495773 39.0357 1.06606 39.0357C6.19 39.0357 10.3468 43.1868 10.3468 48.3133C10.3468 53.4399 6.1943 57.5909 1.06606 57.5909C0.496025 57.5909 0 58.025 0 58.595V62.6674C0 63.2377 0.495774 63.6715 1.06606 63.6715C6.19 63.6715 10.3468 67.8225 10.3468 72.9491C10.3468 78.0756 6.1943 82.2267 1.06606 82.2267C0.496025 82.2267 0 82.6608 0 83.2308V86.7188C0 87.289 0.495774 87.7228 1.06606 87.7228C6.19 87.7228 10.3468 91.8739 10.3468 97.0005C10.3468 102.127 6.1943 106.278 1.06606 106.278C0.496025 106.278 0 106.712 0 107.282V110.878C0 111.448 0.495774 111.882 1.06606 111.882C6.19 111.882 10.3468 116.033 10.3468 121.159C10.3468 126.286 6.1943 130.437 1.06606 130.437C0.496025 130.437 0 130.871 0 131.441V135.457C0 136.028 0.495773 136.462 1.06606 136.462C6.19 136.462 10.3468 140.613 10.3468 145.739C10.3468 150.866 6.1943 155.017 1.06606 155.017C0.496024 155.017 0 155.451 0 156.021V159.56C0 160.131 0.495774 160.565 1.06606 160.565C6.19 160.565 10.3468 164.716 10.3468 169.842C10.3468 174.969 6.1943 179.12 1.06606 179.12C0.496025 179.12 0 179.554 0 180.124V184.196C0 184.766 0.495774 185.2 1.06606 185.2C6.19 185.2 10.3468 189.351 10.3468 194.478C10.3468 199.604 6.1943 203.756 1.06606 203.756C0.496025 203.756 0 204.19 0 204.76V208.248C0 208.818 0.495774 209.252 1.06606 209.252C6.19 209.252 10.3468 213.403 10.3468 218.529C10.3468 223.656 6.1943 227.807 1.06606 227.807C0.496024 227.807 0 228.241 0 228.811V233.119C0 233.309 0.165304 233.456 0.354464 233.442C0.426904 233.436 0.499533 233.432 0.571941 233.428C0.632834 233.425 0.683479 233.474 0.683479 233.535C0.683479 233.594 0.731556 233.641 0.790775 233.636C0.808132 233.635 0.82533 233.634 0.842528 233.634C5.96647 233.634 10.1232 237.785 10.1232 242.912C10.1232 243.24 10.1019 243.565 10.0689 243.883C10.0637 243.933 10.103 243.977 10.1537 243.977C10.2056 243.977 10.2454 244.023 10.2374 244.075C10.217 244.206 10.1946 244.335 10.1698 244.464C10.1171 244.737 10.321 245 10.5993 245H13.2141C13.4965 245 13.7255 244.771 13.7255 244.489C13.7255 244.206 13.9544 243.977 14.2368 243.977H15.2064C15.7764 243.977 16.2101 243.482 16.2101 242.912C16.2101 237.789 20.3625 233.634 25.4908 233.634C30.619 233.634 34.7715 237.785 34.7715 242.912C34.7715 243.481 35.2054 243.977 35.7752 243.977H39.2657C39.8358 243.977 40.2694 243.482 40.2694 242.912C40.2694 237.789 44.4219 233.634 49.5501 233.634C54.6783 233.634 58.8308 237.785 58.8308 242.912C58.8308 243.481 59.2647 243.977 59.8345 243.977H63.4325C64.0026 243.977 64.4362 243.482 64.4362 242.912C64.4362 237.789 68.5886 233.634 73.7169 233.634C78.8451 233.634 82.9976 237.785 82.9976 242.912C82.9976 243.481 83.4315 243.977 84.0013 243.977H88.0205C88.5906 243.977 89.0242 243.482 89.0242 242.912C89.0242 237.789 93.1767 233.634 98.3049 233.634C103.433 233.634 107.586 237.785 107.586 242.912C107.586 243.481 108.02 243.977 108.589 243.977H111.848C112.418 243.977 112.851 243.482 112.851 242.912C112.851 237.789 117.004 233.634 122.132 233.634C127.26 233.634 131.413 237.785 131.413 242.912C131.413 243.481 131.847 243.977 132.417 243.977H136.492C137.062 243.977 137.495 243.482 137.495 242.912C137.495 237.789 141.648 233.634 146.776 233.634C151.904 233.634 156.057 237.785 156.057 242.912C156.057 243.481 156.491 243.977 157.061 243.977H160.551C161.121 243.977 161.555 243.482 161.555 242.912C161.555 237.789 165.707 233.634 170.835 233.634C175.964 233.634 180.116 237.785 180.116 242.912C180.116 243.481 180.55 243.977 181.12 243.977H184.718C185.288 243.977 185.722 243.482 185.722 242.912C185.722 237.789 189.874 233.634 195.002 233.634C200.13 233.634 204.283 237.785 204.283 242.912C204.283 243.481 204.717 243.977 205.287 243.977H209.306C209.876 243.977 210.31 243.482 210.31 242.912C210.31 237.789 214.462 233.634 219.59 233.634C224.719 233.634 228.871 237.785 228.871 242.912C228.871 243.481 229.305 243.977 229.875 243.977H233.417C233.987 243.977 234.421 243.482 234.421 242.912C234.421 237.789 238.573 233.634 243.701 233.634C248.829 233.634 252.982 237.785 252.982 242.912C252.982 243.481 253.416 243.977 253.986 243.977H258.061C258.631 243.977 259.064 243.482 259.064 242.912C259.064 237.789 263.217 233.634 268.345 233.634C273.473 233.634 277.626 237.785 277.626 242.912C277.626 243.481 278.06 243.977 278.63 243.977H282.12C282.69 243.977 283.124 243.482 283.124 242.912C283.124 237.789 287.276 233.634 292.404 233.634C297.533 233.634 301.685 237.785 301.685 242.912C301.685 243.481 302.119 243.977 302.689 243.977H305.197C305.242 243.977 305.279 244.014 305.279 244.059C305.279 244.104 305.315 244.141 305.36 244.141H306.885C307.934 244.141 308.69 243.145 308.657 242.097C308.655 242.008 308.653 241.918 308.653 241.829C308.653 239.326 309.647 237.063 311.257 235.395C311.432 235.215 311.629 235.059 311.845 234.931C313.229 234.111 314.841 233.634 316.567 233.634C317.108 233.634 317.635 233.685 318.15 233.777C318.523 233.843 318.88 233.567 318.88 233.188V232.664C318.88 232.633 318.905 232.607 318.936 232.611C318.97 232.616 319 232.59 319 232.556V227.956C319 227.386 318.504 226.952 317.934 226.952C312.81 226.952 308.653 222.801 308.653 217.674C308.653 212.548 312.806 208.397 317.934 208.397C318.504 208.397 319 207.962 319 207.392V203.905C319 203.334 318.504 202.9 317.934 202.9C312.81 202.9 308.653 198.749 308.653 193.623C308.653 188.496 312.806 184.345 317.934 184.345C318.504 184.345 319 183.911 319 183.341V179.269C319 178.698 318.504 178.265 317.934 178.265C312.81 178.265 308.653 174.114 308.653 168.987C308.653 163.86 312.806 159.709 317.934 159.709C318.504 159.709 319 159.275 319 158.705V155.166C319 154.596 318.504 154.162 317.934 154.162C312.81 154.162 308.653 150.011 308.653 144.884C308.653 139.758 312.806 135.606 317.934 135.606C318.504 135.606 319 135.172 319 134.602V130.586C319 130.016 318.504 129.582 317.934 129.582C312.81 129.582 308.653 125.431 308.653 120.304C308.653 115.178 312.806 111.026 317.934 111.026C318.504 111.026 319 110.592 319 110.022V106.427C319 105.857 318.504 105.423 317.934 105.423C312.81 105.423 308.653 101.272 308.653 96.1453C308.653 91.0188 312.806 86.8677 317.934 86.8677C318.504 86.8677 319 86.4336 319 85.8636V82.3757C319 81.8054 318.504 81.3716 317.934 81.3716C312.81 81.3716 308.653 77.2205 308.653 72.0939C308.653 66.9674 312.806 62.8163 317.934 62.8163C318.504 62.8163 319 62.3823 319 61.8122V57.7399C319 57.1696 318.504 56.7358 317.934 56.7358C312.81 56.7358 308.653 52.5847 308.653 47.4582C308.653 42.3316 312.806 38.1805 317.934 38.1805C318.504 38.1805 319 37.7465 319 37.1764V33.9206C319 33.3503 318.504 32.9165 317.934 32.9165C312.81 32.9165 308.653 28.7654 308.653 23.6388C308.653 18.5123 312.806 14.3612 317.934 14.3612L317.857 14.3526Z" fill="white"/>
</mask>
<g mask="url(#mask0_63_75)">
<path d="M317.857 14.3526C318.427 14.3526 318.923 13.9186 318.923 13.3485V9.33203C318.923 8.76175 318.427 8.32795 317.857 8.32795C313.612 8.32795 310.035 5.47919 308.929 1.59306C308.676 0.706043 307.922 0 306.999 0H305.234C305.216 0 305.201 0.0144294 305.201 0.0322289C305.201 0.0500285 305.187 0.0644579 305.169 0.0644579H302.612C302.041 0.0644579 301.608 0.560079 301.608 1.13016C301.608 6.25241 297.455 10.4078 292.327 10.4078C287.199 10.4078 283.046 6.25671 283.046 1.13016C283.046 0.560331 282.612 0.0644579 282.043 0.0644579H278.552C277.982 0.0644579 277.548 0.56008 277.548 1.13016C277.548 6.25241 273.396 10.4078 268.268 10.4078C263.14 10.4078 258.987 6.25671 258.987 1.13016C258.987 0.56033 258.553 0.0644579 257.983 0.0644579H253.908C253.338 0.0644579 252.905 0.560079 252.905 1.13016C252.905 6.25241 248.752 10.4078 243.624 10.4078C238.496 10.4078 234.343 6.25671 234.343 1.13016C234.343 0.560331 233.909 0.0644579 233.339 0.0644579H229.797C229.227 0.0644579 228.794 0.56008 228.794 1.13016C228.794 6.25241 224.641 10.4078 219.513 10.4078C214.385 10.4078 210.232 6.25671 210.232 1.13016C210.232 0.560331 209.798 0.0644579 209.228 0.0644579H205.209C204.639 0.0644579 204.206 0.560079 204.206 1.13016C204.206 6.25241 200.053 10.4078 194.925 10.4078C189.797 10.4078 185.644 6.25671 185.644 1.13016C185.644 0.56033 185.21 0.0644579 184.64 0.0644579H181.042C180.472 0.0644579 180.039 0.560079 180.039 1.13016C180.039 6.25241 175.886 10.4078 170.758 10.4078C165.63 10.4078 161.477 6.25671 161.477 1.13016C161.477 0.560331 161.043 0.0644579 160.474 0.0644579H156.983C156.413 0.0644579 155.979 0.560079 155.979 1.13016C155.979 6.25241 151.827 10.4078 146.699 10.4078C141.57 10.4078 137.418 6.25671 137.418 1.13016C137.418 0.560331 136.984 0.0644579 136.414 0.0644579H132.339C131.769 0.0644579 131.335 0.560079 131.335 1.13016C131.335 6.25241 127.183 10.4078 122.055 10.4078C116.927 10.4078 112.774 6.25671 112.774 1.13016C112.774 0.560331 112.34 0.0644579 111.77 0.0644579H108.512C107.942 0.0644579 107.508 0.560079 107.508 1.13016C107.508 6.25241 103.356 10.4078 98.2276 10.4078C93.0993 10.4078 88.9469 6.25671 88.9469 1.13016C88.9469 0.560331 88.513 0.0644579 87.9432 0.0644579H83.9239C83.3539 0.0644579 82.9202 0.560079 82.9202 1.13016C82.9202 6.25241 78.7678 10.4078 73.6395 10.4078C68.5113 10.4078 64.3588 6.25671 64.3588 1.13016C64.3588 0.560331 63.9249 0.0644579 63.3551 0.0644579H59.7571C59.1871 0.0644579 58.7534 0.560079 58.7534 1.13016C58.7534 6.25241 54.601 10.4078 49.4727 10.4078C44.3445 10.4078 40.192 6.25671 40.192 1.13016C40.192 0.560331 39.7581 0.0644579 39.1883 0.0644579H35.6978C35.1277 0.0644579 34.6941 0.560079 34.6941 1.13016C34.6941 6.25241 30.5416 10.4078 25.4134 10.4078C20.2851 10.4078 16.2058 6.26101 16.2058 1.13446C16.2058 0.564628 15.7719 0.068755 15.202 0.068755H11.1269C10.5569 0.068755 10.1232 0.564376 10.1232 1.13446C10.1232 1.49542 10.1017 1.81771 10.0631 2.15289C9.06147 6.19225 5.41625 9.19169 1.06606 9.19169C0.496025 9.19169 0 9.62575 0 10.1958V14.2123C0 14.7825 0.495774 15.2163 1.06606 15.2163C6.19 15.2163 10.3468 19.3674 10.3468 24.494C10.3468 29.6205 6.1943 33.7716 1.06606 33.7716C0.496025 33.7716 0 34.2057 0 34.7757V38.0316C0 38.6019 0.495773 39.0357 1.06606 39.0357C6.19 39.0357 10.3468 43.1868 10.3468 48.3133C10.3468 53.4399 6.1943 57.5909 1.06606 57.5909C0.496025 57.5909 0 58.025 0 58.595V62.6674C0 63.2377 0.495774 63.6715 1.06606 63.6715C6.19 63.6715 10.3468 67.8225 10.3468 72.9491C10.3468 78.0756 6.1943 82.2267 1.06606 82.2267C0.496025 82.2267 0 82.6608 0 83.2308V86.7188C0 87.289 0.495774 87.7228 1.06606 87.7228C6.19 87.7228 10.3468 91.8739 10.3468 97.0005C10.3468 102.127 6.1943 106.278 1.06606 106.278C0.496025 106.278 0 106.712 0 107.282V110.878C0 111.448 0.495774 111.882 1.06606 111.882C6.19 111.882 10.3468 116.033 10.3468 121.159C10.3468 126.286 6.1943 130.437 1.06606 130.437C0.496025 130.437 0 130.871 0 131.441V135.457C0 136.028 0.495773 136.462 1.06606 136.462C6.19 136.462 10.3468 140.613 10.3468 145.739C10.3468 150.866 6.1943 155.017 1.06606 155.017C0.496024 155.017 0 155.451 0 156.021V159.56C0 160.131 0.495774 160.565 1.06606 160.565C6.19 160.565 10.3468 164.716 10.3468 169.842C10.3468 174.969 6.1943 179.12 1.06606 179.12C0.496025 179.12 0 179.554 0 180.124V184.196C0 184.766 0.495774 185.2 1.06606 185.2C6.19 185.2 10.3468 189.351 10.3468 194.478C10.3468 199.604 6.1943 203.756 1.06606 203.756C0.496025 203.756 0 204.19 0 204.76V208.248C0 208.818 0.495774 209.252 1.06606 209.252C6.19 209.252 10.3468 213.403 10.3468 218.529C10.3468 223.656 6.1943 227.807 1.06606 227.807C0.496024 227.807 0 228.241 0 228.811V233.119C0 233.309 0.165304 233.456 0.354464 233.442C0.426904 233.436 0.499533 233.432 0.571941 233.428C0.632834 233.425 0.683479 233.474 0.683479 233.535C0.683479 233.594 0.731556 233.641 0.790775 233.636C0.808132 233.635 0.82533 233.634 0.842528 233.634C5.96647 233.634 10.1232 237.785 10.1232 242.912C10.1232 243.24 10.1019 243.565 10.0689 243.883C10.0637 243.933 10.103 243.977 10.1537 243.977C10.2056 243.977 10.2454 244.023 10.2374 244.075C10.217 244.206 10.1946 244.335 10.1698 244.464C10.1171 244.737 10.321 245 10.5993 245H13.2141C13.4965 245 13.7255 244.771 13.7255 244.489C13.7255 244.206 13.9544 243.977 14.2368 243.977H15.2064C15.7764 243.977 16.2101 243.482 16.2101 242.912C16.2101 237.789 20.3625 233.634 25.4908 233.634C30.619 233.634 34.7715 237.785 34.7715 242.912C34.7715 243.481 35.2054 243.977 35.7752 243.977H39.2657C39.8358 243.977 40.2694 243.482 40.2694 242.912C40.2694 237.789 44.4219 233.634 49.5501 233.634C54.6783 233.634 58.8308 237.785 58.8308 242.912C58.8308 243.481 59.2647 243.977 59.8345 243.977H63.4325C64.0026 243.977 64.4362 243.482 64.4362 242.912C64.4362 237.789 68.5886 233.634 73.7169 233.634C78.8451 233.634 82.9976 237.785 82.9976 242.912C82.9976 243.481 83.4315 243.977 84.0013 243.977H88.0205C88.5906 243.977 89.0242 243.482 89.0242 242.912C89.0242 237.789 93.1767 233.634 98.3049 233.634C103.433 233.634 107.586 237.785 107.586 242.912C107.586 243.481 108.02 243.977 108.589 243.977H111.848C112.418 243.977 112.851 243.482 112.851 242.912C112.851 237.789 117.004 233.634 122.132 233.634C127.26 233.634 131.413 237.785 131.413 242.912C131.413 243.481 131.847 243.977 132.417 243.977H136.492C137.062 243.977 137.495 243.482 137.495 242.912C137.495 237.789 141.648 233.634 146.776 233.634C151.904 233.634 156.057 237.785 156.057 242.912C156.057 243.481 156.491 243.977 157.061 243.977H160.551C161.121 243.977 161.555 243.482 161.555 242.912C161.555 237.789 165.707 233.634 170.835 233.634C175.964 233.634 180.116 237.785 180.116 242.912C180.116 243.481 180.55 243.977 181.12 243.977H184.718C185.288 243.977 185.722 243.482 185.722 242.912C185.722 237.789 189.874 233.634 195.002 233.634C200.13 233.634 204.283 237.785 204.283 242.912C204.283 243.481 204.717 243.977 205.287 243.977H209.306C209.876 243.977 210.31 243.482 210.31 242.912C210.31 237.789 214.462 233.634 219.59 233.634C224.719 233.634 228.871 237.785 228.871 242.912C228.871 243.481 229.305 243.977 229.875 243.977H233.417C233.987 243.977 234.421 243.482 234.421 242.912C234.421 237.789 238.573 233.634 243.701 233.634C248.829 233.634 252.982 237.785 252.982 242.912C252.982 243.481 253.416 243.977 253.986 243.977H258.061C258.631 243.977 259.064 243.482 259.064 242.912C259.064 237.789 263.217 233.634 268.345 233.634C273.473 233.634 277.626 237.785 277.626 242.912C277.626 243.481 278.06 243.977 278.63 243.977H282.12C282.69 243.977 283.124 243.482 283.124 242.912C283.124 237.789 287.276 233.634 292.404 233.634C297.533 233.634 301.685 237.785 301.685 242.912C301.685 243.481 302.119 243.977 302.689 243.977H305.197C305.242 243.977 305.279 244.014 305.279 244.059C305.279 244.104 305.315 244.141 305.36 244.141H306.885C307.934 244.141 308.69 243.145 308.657 242.097C308.655 242.008 308.653 241.918 308.653 241.829C308.653 239.326 309.647 237.063 311.257 235.395C311.432 235.215 311.629 235.059 311.845 234.931C313.229 234.111 314.841 233.634 316.567 233.634C317.108 233.634 317.635 233.685 318.15 233.777C318.523 233.843 318.88 233.567 318.88 233.188V232.664C318.88 232.633 318.905 232.607 318.936 232.611C318.97 232.616 319 232.59 319 232.556V227.956C319 227.386 318.504 226.952 317.934 226.952C312.81 226.952 308.653 222.801 308.653 217.674C308.653 212.548 312.806 208.397 317.934 208.397C318.504 208.397 319 207.962 319 207.392V203.905C319 203.334 318.504 202.9 317.934 202.9C312.81 202.9 308.653 198.749 308.653 193.623C308.653 188.496 312.806 184.345 317.934 184.345C318.504 184.345 319 183.911 319 183.341V179.269C319 178.698 318.504 178.265 317.934 178.265C312.81 178.265 308.653 174.114 308.653 168.987C308.653 163.86 312.806 159.709 317.934 159.709C318.504 159.709 319 159.275 319 158.705V155.166C319 154.596 318.504 154.162 317.934 154.162C312.81 154.162 308.653 150.011 308.653 144.884C308.653 139.758 312.806 135.606 317.934 135.606C318.504 135.606 319 135.172 319 134.602V130.586C319 130.016 318.504 129.582 317.934 129.582C312.81 129.582 308.653 125.431 308.653 120.304C308.653 115.178 312.806 111.026 317.934 111.026C318.504 111.026 319 110.592 319 110.022V106.427C319 105.857 318.504 105.423 317.934 105.423C312.81 105.423 308.653 101.272 308.653 96.1453C308.653 91.0188 312.806 86.8677 317.934 86.8677C318.504 86.8677 319 86.4336 319 85.8636V82.3757C319 81.8054 318.504 81.3716 317.934 81.3716C312.81 81.3716 308.653 77.2205 308.653 72.0939C308.653 66.9674 312.806 62.8163 317.934 62.8163C318.504 62.8163 319 62.3823 319 61.8122V57.7399C319 57.1696 318.504 56.7358 317.934 56.7358C312.81 56.7358 308.653 52.5847 308.653 47.4582C308.653 42.3316 312.806 38.1805 317.934 38.1805C318.504 38.1805 319 37.7465 319 37.1764V33.9206C319 33.3503 318.504 32.9165 317.934 32.9165C312.81 32.9165 308.653 28.7654 308.653 23.6388C308.653 18.5123 312.806 14.3612 317.934 14.3612L317.857 14.3526Z" fill="#EEEEEC" stroke="black" stroke-width="2"/>
</g>
<path d="M45 24.5H275C283.56 24.5 290.5 31.4396 290.5 40V205C290.5 213.56 283.56 220.5 275 220.5H45C36.4396 220.5 29.5 213.56 29.5 205V40C29.5 31.4396 36.4396 24.5 45 24.5Z" fill="white" stroke="black"/>
<path d="M159.667 91C159.667 81.4272 167.427 73.6666 177 73.6666C186.573 73.6666 194.333 81.4272 194.333 91C194.333 100.573 186.573 108.333 177 108.333C167.427 108.333 159.667 100.573 159.667 91Z" fill="#1ABCFE"/>
<path d="M125 125.667C125 116.094 132.76 108.333 142.333 108.333H159.667V125.667C159.667 135.24 151.906 143 142.333 143C132.76 143 125 135.24 125 125.667Z" fill="#0ACF83"/>
<path d="M159.667 39.0002V73.6667H177C186.573 73.6667 194.333 65.9064 194.333 56.3333C194.333 46.7603 186.573 39.0002 177 39.0002H159.667Z" fill="#FF7262"/>
<path d="M125 56.3333C125 65.9064 132.76 73.6667 142.333 73.6667H159.667V39H142.333C132.76 39 125 46.7606 125 56.3333Z" fill="#F24E1E"/>
<path d="M125 91C125 100.573 132.76 108.333 142.333 108.333H159.667V73.6666H142.333C132.76 73.6666 125 81.4272 125 91Z" fill="#A259FF"/>
<path d="M100.76 196V169.6H107.2V196H100.76ZM103.92 186.6V181.36H119.4V186.6H103.92ZM103.92 175.08V169.6H120.84V175.08H103.92ZM124.503 196V174.88H130.943V196H124.503ZM127.743 171.92C126.517 171.92 125.57 171.667 124.903 171.16C124.263 170.627 123.943 169.88 123.943 168.92C123.943 167.907 124.263 167.147 124.903 166.64C125.57 166.107 126.517 165.84 127.743 165.84C128.997 165.84 129.943 166.107 130.583 166.64C131.25 167.147 131.583 167.893 131.583 168.88C131.583 169.867 131.25 170.627 130.583 171.16C129.943 171.667 128.997 171.92 127.743 171.92ZM144.469 203.4C142.122 203.4 140.189 203.213 138.669 202.84C137.175 202.493 136.082 201.96 135.389 201.24C134.695 200.547 134.349 199.693 134.349 198.68C134.349 197.453 134.829 196.453 135.789 195.68C136.775 194.907 138.215 194.467 140.109 194.36V193.52C138.642 193.52 137.509 193.373 136.709 193.08C135.935 192.787 135.549 192.24 135.549 191.44C135.549 190.693 135.935 190.013 136.709 189.4C137.482 188.787 138.762 188.307 140.549 187.96V187.12C138.922 186.987 137.629 186.453 136.669 185.52C135.709 184.56 135.229 183.307 135.229 181.76C135.229 180.453 135.602 179.267 136.349 178.2C137.095 177.107 138.215 176.24 139.709 175.6C141.202 174.933 143.069 174.6 145.309 174.6H156.269V179.44L149.589 178.56V179.52C151.322 179.76 152.562 180.16 153.309 180.72C154.055 181.28 154.429 182.067 154.429 183.08C154.429 184.147 154.055 185.093 153.309 185.92C152.589 186.747 151.562 187.4 150.229 187.88C148.895 188.333 147.309 188.56 145.469 188.56C145.149 188.56 144.789 188.547 144.389 188.52C144.015 188.493 143.309 188.427 142.269 188.32C141.842 188.693 141.509 189.013 141.269 189.28C141.029 189.52 140.909 189.747 140.909 189.96C140.909 190.12 140.975 190.253 141.109 190.36C141.242 190.467 141.429 190.547 141.669 190.6C141.935 190.627 142.215 190.64 142.509 190.64H148.949C149.482 190.64 150.175 190.68 151.029 190.76C151.909 190.813 152.775 191.013 153.629 191.36C154.509 191.707 155.242 192.267 155.829 193.04C156.442 193.813 156.749 194.92 156.749 196.36C156.749 197.933 156.309 199.24 155.429 200.28C154.549 201.347 153.202 202.133 151.389 202.64C149.575 203.147 147.269 203.4 144.469 203.4ZM145.309 198.28C146.855 198.28 148.055 198.2 148.909 198.04C149.762 197.88 150.349 197.627 150.669 197.28C151.015 196.933 151.189 196.507 151.189 196C151.189 195.52 151.095 195.147 150.909 194.88C150.722 194.587 150.482 194.387 150.189 194.28C149.895 194.173 149.589 194.107 149.269 194.08C148.975 194.053 148.722 194.04 148.509 194.04H143.349C142.362 194.04 141.629 194.28 141.149 194.76C140.695 195.213 140.469 195.747 140.469 196.36C140.469 196.867 140.629 197.253 140.949 197.52C141.269 197.813 141.775 198.013 142.469 198.12C143.189 198.227 144.135 198.28 145.309 198.28ZM145.029 185.36C146.175 185.36 147.029 185.053 147.589 184.44C148.175 183.827 148.469 183.053 148.469 182.12C148.469 181.107 148.175 180.28 147.589 179.64C147.002 178.973 146.162 178.64 145.069 178.64C143.975 178.64 143.122 178.973 142.509 179.64C141.895 180.28 141.589 181.107 141.589 182.12C141.589 182.733 141.722 183.293 141.989 183.8C142.255 184.28 142.642 184.667 143.149 184.96C143.655 185.227 144.282 185.36 145.029 185.36ZM160.246 196V182.36V174.88H165.326L165.406 181.08H166.206C166.579 179.56 167.072 178.307 167.686 177.32C168.299 176.307 169.046 175.56 169.926 175.08C170.806 174.573 171.832 174.32 173.006 174.32C174.232 174.32 175.246 174.587 176.046 175.12C176.872 175.627 177.526 176.387 178.006 177.4C178.486 178.387 178.806 179.613 178.966 181.08H179.646C180.072 179.507 180.632 178.227 181.326 177.24C182.019 176.227 182.846 175.493 183.806 175.04C184.766 174.56 185.806 174.32 186.926 174.32C188.126 174.32 189.166 174.56 190.046 175.04C190.952 175.493 191.699 176.187 192.286 177.12C192.899 178.027 193.352 179.173 193.646 180.56C193.939 181.92 194.086 183.507 194.086 185.32V196H187.606V186.12C187.606 184.707 187.486 183.533 187.246 182.6C187.032 181.667 186.686 180.973 186.206 180.52C185.726 180.04 185.112 179.8 184.366 179.8C183.512 179.8 182.779 180.08 182.166 180.64C181.579 181.2 181.126 181.987 180.806 183C180.486 183.987 180.326 185.107 180.326 186.36V196H174.006V186.24C174.006 184.773 173.872 183.573 173.606 182.64C173.366 181.707 172.992 181 172.486 180.52C172.006 180.04 171.392 179.8 170.646 179.8C169.792 179.8 169.072 180.08 168.486 180.64C167.899 181.2 167.446 181.987 167.126 183C166.832 183.987 166.686 185.107 166.686 186.36V196H160.246ZM203.721 196.56C202.548 196.56 201.508 196.333 200.601 195.88C199.695 195.4 198.988 194.72 198.481 193.84C197.975 192.933 197.721 191.84 197.721 190.56C197.721 189.36 197.948 188.373 198.401 187.6C198.881 186.8 199.561 186.173 200.441 185.72C201.348 185.24 202.428 184.853 203.681 184.56C204.935 184.24 206.361 183.96 207.961 183.72C208.735 183.587 209.375 183.467 209.881 183.36C210.415 183.227 210.815 183.027 211.081 182.76C211.348 182.493 211.481 182.107 211.481 181.6C211.481 180.933 211.241 180.36 210.761 179.88C210.281 179.4 209.508 179.16 208.441 179.16C207.695 179.16 207.015 179.293 206.401 179.56C205.815 179.827 205.308 180.213 204.881 180.72C204.455 181.227 204.135 181.84 203.921 182.56L198.241 180.88C198.588 179.76 199.068 178.787 199.681 177.96C200.321 177.133 201.081 176.453 201.961 175.92C202.841 175.36 203.841 174.96 204.961 174.72C206.108 174.453 207.321 174.32 208.601 174.32C210.735 174.32 212.468 174.667 213.801 175.36C215.161 176.027 216.161 177.08 216.801 178.52C217.468 179.933 217.801 181.76 217.801 184V187.24C217.801 188.2 217.815 189.173 217.841 190.16C217.895 191.12 217.948 192.093 218.001 193.08C218.081 194.04 218.175 195.013 218.281 196H212.601C212.495 195.387 212.388 194.653 212.281 193.8C212.175 192.92 212.095 192.027 212.041 191.12H211.281C210.908 192.133 210.361 193.067 209.641 193.92C208.948 194.747 208.095 195.4 207.081 195.88C206.095 196.333 204.975 196.56 203.721 196.56ZM206.641 192C207.121 192 207.601 191.92 208.081 191.76C208.588 191.573 209.068 191.333 209.521 191.04C209.975 190.72 210.388 190.333 210.761 189.88C211.135 189.427 211.415 188.933 211.601 188.4L211.521 185.24L212.401 185.44C211.895 185.76 211.335 186.013 210.721 186.2C210.108 186.387 209.481 186.533 208.841 186.64C208.228 186.747 207.615 186.867 207.001 187C206.415 187.107 205.881 187.253 205.401 187.44C204.948 187.627 204.588 187.88 204.321 188.2C204.055 188.52 203.921 188.96 203.921 189.52C203.921 190.267 204.175 190.867 204.681 191.32C205.188 191.773 205.841 192 206.641 192Z" fill="black"/>
</g>
<defs>
<clipPath id="clip0_63_75">
<rect width="319" height="245" fill="white"/>
</clipPath>
</defs>
</svg>
