<svg width="12" height="62" viewBox="0 0 12 62" fill="none" xmlns="http://www.w3.org/2000/svg">
<path fill-rule="evenodd" clip-rule="evenodd" d="M7.32793 8.20913C9.13568 8.07083 10.2647 7.8703 10.7149 7.60062C11.1651 7.33094 11.4629 6.2453 11.5945 4.35062C11.456 2.32456 11.0958 1.20434 10.514 1.00381C9.92527 0.803279 8.86556 0.630406 7.32793 0.499023C5.34011 0.588917 4.10724 0.851683 3.63625 1.28041C3.16527 1.70913 2.92285 2.73253 2.92285 4.35753C2.92285 5.53307 3.12371 6.5219 3.53236 7.33094C4.30117 7.91179 5.56867 8.20913 7.32793 8.20913Z" fill="#161629"/>
<path fill-rule="evenodd" clip-rule="evenodd" d="M6.64922 13.416H5.76959C4.91074 13.416 4.07266 13.4368 3.26229 13.4852C2.45193 13.5336 1.63463 13.5958 0.824262 13.6857C0.685737 14.2251 0.595696 14.7022 0.554139 15.1032C0.505655 15.5112 0.484876 15.8915 0.484876 16.2511C0.484876 16.6591 0.505655 17.0533 0.554139 17.4336C0.595696 17.8139 0.692663 18.2564 0.824262 18.7543H2.1818C3.26229 18.7543 4.02418 19.024 4.45361 19.5634C4.88303 20.1027 5.09775 21.0086 5.09775 22.2671V49.1868C5.09775 50.3623 5.02156 51.3649 4.86225 52.1947C4.70295 53.0314 4.44668 53.7713 4.07959 54.4282C3.71943 55.0782 3.22074 55.6591 2.59045 56.1501C1.96016 56.6479 1.17057 57.1181 0.22168 57.5676C0.401762 59.324 1.08053 60.7485 2.25106 61.8272C3.87873 61.4192 5.29861 60.9559 6.51762 60.4442C7.73664 59.9256 8.75479 59.1027 9.56516 57.9756C10.3755 56.8485 10.985 55.3272 11.3937 53.4118C11.8023 51.4963 12.0032 48.9586 12.0032 45.8054V19.4251C12.0032 17.5304 11.5253 16.0575 10.5833 14.9926C9.64135 13.9277 8.31844 13.416 6.64922 13.416Z" fill="#161629"/>
</svg>
