<svg width="512" height="512" viewBox="0 0 512 512" fill="none" xmlns="http://www.w3.org/2000/svg">
<path d="M255.5 18.5L190.5 68.5V151.5L255.5 199.5H256.5L322.5 151.5V68.5L256.5 18.5H255.5Z" fill="#DB0D15" stroke="#DB0D15" stroke-linejoin="bevel"/>
<path d="M182 160L117 210V293L182 341H183L249 293V210L183 160H182Z" fill="#DB0D15" stroke="#DB0D15" stroke-linejoin="bevel"/>
<path d="M328 160L263 210V293L328 341H329L395 293V210L329 160H328Z" fill="#DB0D15" stroke="#DB0D15" stroke-linejoin="bevel"/>
<path d="M402 302L337 352V435L402 483H403L469 435V352L403 302H402Z" fill="#DB0D15" stroke="#DB0D15" stroke-linejoin="bevel"/>
<path d="M255 302L190 352V435L255 483H256L322 435V352L256 302H255Z" fill="#DB0D15" stroke="#DB0D15" stroke-linejoin="bevel"/>
<path d="M109 302L44 352V435L109 483H110L176 435V352L110 302H109Z" fill="#DB0D15" stroke="#DB0D15" stroke-linejoin="bevel"/>
</svg>
