<svg width="93" height="37" viewBox="0 0 93 37" fill="none" xmlns="http://www.w3.org/2000/svg">
<path opacity="0.7" d="M18.6181 24.851C16.4651 23.373 3.31205 26.043 2.31205 25.671C1.44605 25.149 1.61604 14.722 2.21904 13.131C2.43304 12.566 2.73204 12.455 3.46904 12.648C4.37504 12.944 16.544 11.481 19.156 11.197C19.371 11.511 19.8761 10.401 20.0101 10.789C20.2101 11.235 26.206 10.896 32.415 10.57C34.696 10.45 39.264 10.138 46.06 9.95498C47.285 9.92198 46.3211 10.546 47.7621 10.322C50.8321 9.84499 57.53 10.529 59.857 10.056C61.731 9.675 62.1301 9.67099 63.9111 10.12C65.4361 10.505 75.425 10.653 76.589 10.027C76.87 9.848 77.074 9.93599 77.063 10.167C77.063 10.167 83.8811 10.95 83.9001 11.136C83.9371 11.371 84.1331 11.495 84.3401 11.357C84.7041 11.115 92.0381 10.998 92.1011 11.685C92.2791 13.637 90.5901 21.678 89.6241 23.586C88.6011 25.607 84.254 22.768 80.388 23.727C61.194 22.326 62.942 22.724 59.357 23.34C58.943 22.628 57.3021 24.286 56.3121 23.042C55.9071 22.533 52.9521 22.384 52.2931 22.877C52.0121 23.087 48.095 22.836 44.052 22.778C40.009 22.72 35.8441 22.869 35.0961 23.561C31.9481 22.325 19.8611 24.671 18.6181 24.851Z" fill="#FBDB08"/>
<path opacity="0.7" d="M9.82804 24.17C8.98804 23.484 6.31503 24.777 4.21503 25.403C3.93503 25.486 2.39104 25.846 2.14704 25.684C1.84604 25.364 1.01903 13.675 0.991032 13.236C0.931032 12.314 1.05903 12.903 1.34903 12.975C1.51103 13.015 2.16203 12.829 2.32203 12.782C3.09503 12.511 4.15505 11.939 4.86405 11.523C5.05305 11.796 4.76804 10.747 4.96604 11.091C5.50004 12.022 11.885 7.88899 12.824 7.39699C13.208 7.19599 13.175 7.87899 13.534 7.45699C13.917 7.00799 14.737 6.65697 15.512 6.31297C18.445 5.01497 17.048 4.35198 18.707 4.55498C19.455 4.58698 22.778 2.91199 22.98 2.12599C23.011 1.90699 23.116 1.949 23.199 2.165C23.213 2.192 23.862 2.02498 24.557 1.91298C25.253 1.79998 25.948 1.70999 25.983 1.79399C26.071 2.00899 26.187 2.09198 26.214 1.92098C26.226 1.61998 29.003 0.187001 29.204 0.834001C29.777 2.679 31.296 10.71 31.562 12.68C31.848 14.803 29.8751 12.655 29.1371 14.223C28.1131 14.488 26.29 15.076 23.899 16.033L23.088 17.193C22.647 16.626 22.913 18.389 22.048 17.411C21.701 17.019 20.742 17.339 20.755 17.897C20.76 18.116 19.449 18.501 18.112 19.056C16.781 19.608 15.439 20.303 15.488 21.033C14.154 20.475 11.575 22.927 9.82804 24.17Z" fill="#FBDB08"/>
<path opacity="0.7" d="M31.7701 34.304C29.7701 33.033 19.2281 36.951 18.2281 36.655C17.4251 36.219 16.0381 25.908 16.3151 24.282C16.4131 23.704 16.6481 23.567 17.2971 23.689C18.1031 23.895 27.174 21.516 30.266 20.741C30.491 21.029 30.755 19.878 30.923 20.247C31.277 20.884 48.8711 17.201 52.5701 16.596C53.5881 16.429 52.873 17.148 54.04 16.754C56.525 15.915 62.1941 15.757 64.0511 14.975C65.5461 14.346 65.8751 14.311 67.4221 14.502C68.9901 14.695 77.0391 13.386 77.8801 12.6C78.0831 12.38 78.2641 12.436 78.2931 12.666C78.2931 12.666 84.0311 12.402 84.0731 12.551C84.1381 12.778 84.3281 12.871 84.4711 12.699C84.7441 12.434 90.695 11.054 90.87 11.719C91.366 13.608 91.455 21.798 90.99 23.84C90.496 26.01 86.2991 23.969 83.2931 25.524C66.0311 27.247 69.366 26.785 65.647 28.172C65.193 27.522 64.0751 29.386 63.0561 28.275C62.6421 27.824 60.151 28.049 59.67 28.622C59.468 28.863 56.1511 29.098 52.7621 29.515C49.3711 29.932 45.9081 30.538 45.3801 31.306C42.8681 30.487 33.8381 33.596 31.7701 34.304Z" fill="#FBDB08"/>
</svg>
