<svg width="319" height="245" viewBox="0 0 319 245" fill="none" xmlns="http://www.w3.org/2000/svg">
<g clip-path="url(#clip0_63_37)">
<mask id="mask0_63_37" style="mask-type:luminance" maskUnits="userSpaceOnUse" x="0" y="0" width="319" height="245">
<path d="M317.857 14.3526C318.427 14.3526 318.923 13.9186 318.923 13.3485V9.33203C318.923 8.76175 318.427 8.32795 317.857 8.32795C313.612 8.32795 310.035 5.47919 308.929 1.59306C308.676 0.706043 307.922 0 306.999 0H305.234C305.216 0 305.201 0.0144294 305.201 0.0322289C305.201 0.0500285 305.187 0.0644579 305.169 0.0644579H302.612C302.041 0.0644579 301.608 0.560079 301.608 1.13016C301.608 6.25241 297.455 10.4078 292.327 10.4078C287.199 10.4078 283.046 6.25671 283.046 1.13016C283.046 0.560331 282.612 0.0644579 282.043 0.0644579H278.552C277.982 0.0644579 277.548 0.56008 277.548 1.13016C277.548 6.25241 273.396 10.4078 268.268 10.4078C263.14 10.4078 258.987 6.25671 258.987 1.13016C258.987 0.56033 258.553 0.0644579 257.983 0.0644579H253.908C253.338 0.0644579 252.905 0.560079 252.905 1.13016C252.905 6.25241 248.752 10.4078 243.624 10.4078C238.496 10.4078 234.343 6.25671 234.343 1.13016C234.343 0.560331 233.909 0.0644579 233.339 0.0644579H229.797C229.227 0.0644579 228.794 0.56008 228.794 1.13016C228.794 6.25241 224.641 10.4078 219.513 10.4078C214.385 10.4078 210.232 6.25671 210.232 1.13016C210.232 0.560331 209.798 0.0644579 209.228 0.0644579H205.209C204.639 0.0644579 204.206 0.560079 204.206 1.13016C204.206 6.25241 200.053 10.4078 194.925 10.4078C189.797 10.4078 185.644 6.25671 185.644 1.13016C185.644 0.56033 185.21 0.0644579 184.64 0.0644579H181.042C180.472 0.0644579 180.039 0.560079 180.039 1.13016C180.039 6.25241 175.886 10.4078 170.758 10.4078C165.63 10.4078 161.477 6.25671 161.477 1.13016C161.477 0.560331 161.043 0.0644579 160.474 0.0644579H156.983C156.413 0.0644579 155.979 0.560079 155.979 1.13016C155.979 6.25241 151.827 10.4078 146.699 10.4078C141.57 10.4078 137.418 6.25671 137.418 1.13016C137.418 0.560331 136.984 0.0644579 136.414 0.0644579H132.339C131.769 0.0644579 131.335 0.560079 131.335 1.13016C131.335 6.25241 127.183 10.4078 122.055 10.4078C116.927 10.4078 112.774 6.25671 112.774 1.13016C112.774 0.560331 112.34 0.0644579 111.77 0.0644579H108.512C107.942 0.0644579 107.508 0.560079 107.508 1.13016C107.508 6.25241 103.356 10.4078 98.2276 10.4078C93.0993 10.4078 88.9469 6.25671 88.9469 1.13016C88.9469 0.560331 88.513 0.0644579 87.9432 0.0644579H83.9239C83.3539 0.0644579 82.9202 0.560079 82.9202 1.13016C82.9202 6.25241 78.7678 10.4078 73.6395 10.4078C68.5113 10.4078 64.3588 6.25671 64.3588 1.13016C64.3588 0.560331 63.9249 0.0644579 63.3551 0.0644579H59.7571C59.1871 0.0644579 58.7534 0.560079 58.7534 1.13016C58.7534 6.25241 54.601 10.4078 49.4727 10.4078C44.3445 10.4078 40.192 6.25671 40.192 1.13016C40.192 0.560331 39.7581 0.0644579 39.1883 0.0644579H35.6978C35.1277 0.0644579 34.6941 0.560079 34.6941 1.13016C34.6941 6.25241 30.5416 10.4078 25.4134 10.4078C20.2851 10.4078 16.2058 6.26101 16.2058 1.13446C16.2058 0.564628 15.7719 0.068755 15.202 0.068755H11.1269C10.5569 0.068755 10.1232 0.564376 10.1232 1.13446C10.1232 1.49542 10.1017 1.81771 10.0631 2.15289C9.06147 6.19225 5.41625 9.19169 1.06606 9.19169C0.496025 9.19169 0 9.62575 0 10.1958V14.2123C0 14.7825 0.495774 15.2163 1.06606 15.2163C6.19 15.2163 10.3468 19.3674 10.3468 24.494C10.3468 29.6205 6.1943 33.7716 1.06606 33.7716C0.496025 33.7716 0 34.2057 0 34.7757V38.0316C0 38.6019 0.495773 39.0357 1.06606 39.0357C6.19 39.0357 10.3468 43.1868 10.3468 48.3133C10.3468 53.4399 6.1943 57.5909 1.06606 57.5909C0.496025 57.5909 0 58.025 0 58.595V62.6674C0 63.2377 0.495774 63.6715 1.06606 63.6715C6.19 63.6715 10.3468 67.8225 10.3468 72.9491C10.3468 78.0756 6.1943 82.2267 1.06606 82.2267C0.496025 82.2267 0 82.6608 0 83.2308V86.7188C0 87.289 0.495774 87.7228 1.06606 87.7228C6.19 87.7228 10.3468 91.8739 10.3468 97.0005C10.3468 102.127 6.1943 106.278 1.06606 106.278C0.496025 106.278 0 106.712 0 107.282V110.878C0 111.448 0.495774 111.882 1.06606 111.882C6.19 111.882 10.3468 116.033 10.3468 121.159C10.3468 126.286 6.1943 130.437 1.06606 130.437C0.496025 130.437 0 130.871 0 131.441V135.457C0 136.028 0.495773 136.462 1.06606 136.462C6.19 136.462 10.3468 140.613 10.3468 145.739C10.3468 150.866 6.1943 155.017 1.06606 155.017C0.496024 155.017 0 155.451 0 156.021V159.56C0 160.131 0.495774 160.565 1.06606 160.565C6.19 160.565 10.3468 164.716 10.3468 169.842C10.3468 174.969 6.1943 179.12 1.06606 179.12C0.496025 179.12 0 179.554 0 180.124V184.196C0 184.766 0.495774 185.2 1.06606 185.2C6.19 185.2 10.3468 189.351 10.3468 194.478C10.3468 199.604 6.1943 203.756 1.06606 203.756C0.496025 203.756 0 204.19 0 204.76V208.248C0 208.818 0.495774 209.252 1.06606 209.252C6.19 209.252 10.3468 213.403 10.3468 218.529C10.3468 223.656 6.1943 227.807 1.06606 227.807C0.496024 227.807 0 228.241 0 228.811V233.119C0 233.309 0.165304 233.456 0.354464 233.442C0.426904 233.436 0.499533 233.432 0.571941 233.428C0.632834 233.425 0.683479 233.474 0.683479 233.535C0.683479 233.594 0.731556 233.641 0.790775 233.636C0.808132 233.635 0.82533 233.634 0.842528 233.634C5.96647 233.634 10.1232 237.785 10.1232 242.912C10.1232 243.24 10.1019 243.565 10.0689 243.883C10.0637 243.933 10.103 243.977 10.1537 243.977C10.2056 243.977 10.2454 244.023 10.2374 244.075C10.217 244.206 10.1946 244.335 10.1698 244.464C10.1171 244.737 10.321 245 10.5993 245H13.2141C13.4965 245 13.7255 244.771 13.7255 244.489C13.7255 244.206 13.9544 243.977 14.2368 243.977H15.2064C15.7764 243.977 16.2101 243.482 16.2101 242.912C16.2101 237.789 20.3625 233.634 25.4908 233.634C30.619 233.634 34.7715 237.785 34.7715 242.912C34.7715 243.481 35.2054 243.977 35.7752 243.977H39.2657C39.8358 243.977 40.2694 243.482 40.2694 242.912C40.2694 237.789 44.4219 233.634 49.5501 233.634C54.6783 233.634 58.8308 237.785 58.8308 242.912C58.8308 243.481 59.2647 243.977 59.8345 243.977H63.4325C64.0026 243.977 64.4362 243.482 64.4362 242.912C64.4362 237.789 68.5886 233.634 73.7169 233.634C78.8451 233.634 82.9976 237.785 82.9976 242.912C82.9976 243.481 83.4315 243.977 84.0013 243.977H88.0205C88.5906 243.977 89.0242 243.482 89.0242 242.912C89.0242 237.789 93.1767 233.634 98.3049 233.634C103.433 233.634 107.586 237.785 107.586 242.912C107.586 243.481 108.02 243.977 108.589 243.977H111.848C112.418 243.977 112.851 243.482 112.851 242.912C112.851 237.789 117.004 233.634 122.132 233.634C127.26 233.634 131.413 237.785 131.413 242.912C131.413 243.481 131.847 243.977 132.417 243.977H136.492C137.062 243.977 137.495 243.482 137.495 242.912C137.495 237.789 141.648 233.634 146.776 233.634C151.904 233.634 156.057 237.785 156.057 242.912C156.057 243.481 156.491 243.977 157.061 243.977H160.551C161.121 243.977 161.555 243.482 161.555 242.912C161.555 237.789 165.707 233.634 170.835 233.634C175.964 233.634 180.116 237.785 180.116 242.912C180.116 243.481 180.55 243.977 181.12 243.977H184.718C185.288 243.977 185.722 243.482 185.722 242.912C185.722 237.789 189.874 233.634 195.002 233.634C200.13 233.634 204.283 237.785 204.283 242.912C204.283 243.481 204.717 243.977 205.287 243.977H209.306C209.876 243.977 210.31 243.482 210.31 242.912C210.31 237.789 214.462 233.634 219.59 233.634C224.719 233.634 228.871 237.785 228.871 242.912C228.871 243.481 229.305 243.977 229.875 243.977H233.417C233.987 243.977 234.421 243.482 234.421 242.912C234.421 237.789 238.573 233.634 243.701 233.634C248.829 233.634 252.982 237.785 252.982 242.912C252.982 243.481 253.416 243.977 253.986 243.977H258.061C258.631 243.977 259.064 243.482 259.064 242.912C259.064 237.789 263.217 233.634 268.345 233.634C273.473 233.634 277.626 237.785 277.626 242.912C277.626 243.481 278.06 243.977 278.63 243.977H282.12C282.69 243.977 283.124 243.482 283.124 242.912C283.124 237.789 287.276 233.634 292.404 233.634C297.533 233.634 301.685 237.785 301.685 242.912C301.685 243.481 302.119 243.977 302.689 243.977H305.197C305.242 243.977 305.279 244.014 305.279 244.059C305.279 244.104 305.315 244.141 305.36 244.141H306.885C307.934 244.141 308.69 243.145 308.657 242.097C308.655 242.008 308.653 241.918 308.653 241.829C308.653 239.326 309.647 237.063 311.257 235.395C311.432 235.215 311.629 235.059 311.845 234.931C313.229 234.111 314.841 233.634 316.567 233.634C317.108 233.634 317.635 233.685 318.15 233.777C318.523 233.843 318.88 233.567 318.88 233.188V232.664C318.88 232.633 318.905 232.607 318.936 232.611C318.97 232.616 319 232.59 319 232.556V227.956C319 227.386 318.504 226.952 317.934 226.952C312.81 226.952 308.653 222.801 308.653 217.674C308.653 212.548 312.806 208.397 317.934 208.397C318.504 208.397 319 207.962 319 207.392V203.905C319 203.334 318.504 202.9 317.934 202.9C312.81 202.9 308.653 198.749 308.653 193.623C308.653 188.496 312.806 184.345 317.934 184.345C318.504 184.345 319 183.911 319 183.341V179.269C319 178.698 318.504 178.265 317.934 178.265C312.81 178.265 308.653 174.114 308.653 168.987C308.653 163.86 312.806 159.709 317.934 159.709C318.504 159.709 319 159.275 319 158.705V155.166C319 154.596 318.504 154.162 317.934 154.162C312.81 154.162 308.653 150.011 308.653 144.884C308.653 139.758 312.806 135.606 317.934 135.606C318.504 135.606 319 135.172 319 134.602V130.586C319 130.016 318.504 129.582 317.934 129.582C312.81 129.582 308.653 125.431 308.653 120.304C308.653 115.178 312.806 111.026 317.934 111.026C318.504 111.026 319 110.592 319 110.022V106.427C319 105.857 318.504 105.423 317.934 105.423C312.81 105.423 308.653 101.272 308.653 96.1453C308.653 91.0188 312.806 86.8677 317.934 86.8677C318.504 86.8677 319 86.4336 319 85.8636V82.3757C319 81.8054 318.504 81.3716 317.934 81.3716C312.81 81.3716 308.653 77.2205 308.653 72.0939C308.653 66.9674 312.806 62.8163 317.934 62.8163C318.504 62.8163 319 62.3823 319 61.8122V57.7399C319 57.1696 318.504 56.7358 317.934 56.7358C312.81 56.7358 308.653 52.5847 308.653 47.4582C308.653 42.3316 312.806 38.1805 317.934 38.1805C318.504 38.1805 319 37.7465 319 37.1764V33.9206C319 33.3503 318.504 32.9165 317.934 32.9165C312.81 32.9165 308.653 28.7654 308.653 23.6388C308.653 18.5123 312.806 14.3612 317.934 14.3612L317.857 14.3526Z" fill="white"/>
</mask>
<g mask="url(#mask0_63_37)">
<path d="M317.857 14.3526C318.427 14.3526 318.923 13.9186 318.923 13.3485V9.33203C318.923 8.76175 318.427 8.32795 317.857 8.32795C313.612 8.32795 310.035 5.47919 308.929 1.59306C308.676 0.706043 307.922 0 306.999 0H305.234C305.216 0 305.201 0.0144294 305.201 0.0322289C305.201 0.0500285 305.187 0.0644579 305.169 0.0644579H302.612C302.041 0.0644579 301.608 0.560079 301.608 1.13016C301.608 6.25241 297.455 10.4078 292.327 10.4078C287.199 10.4078 283.046 6.25671 283.046 1.13016C283.046 0.560331 282.612 0.0644579 282.043 0.0644579H278.552C277.982 0.0644579 277.548 0.56008 277.548 1.13016C277.548 6.25241 273.396 10.4078 268.268 10.4078C263.14 10.4078 258.987 6.25671 258.987 1.13016C258.987 0.56033 258.553 0.0644579 257.983 0.0644579H253.908C253.338 0.0644579 252.905 0.560079 252.905 1.13016C252.905 6.25241 248.752 10.4078 243.624 10.4078C238.496 10.4078 234.343 6.25671 234.343 1.13016C234.343 0.560331 233.909 0.0644579 233.339 0.0644579H229.797C229.227 0.0644579 228.794 0.56008 228.794 1.13016C228.794 6.25241 224.641 10.4078 219.513 10.4078C214.385 10.4078 210.232 6.25671 210.232 1.13016C210.232 0.560331 209.798 0.0644579 209.228 0.0644579H205.209C204.639 0.0644579 204.206 0.560079 204.206 1.13016C204.206 6.25241 200.053 10.4078 194.925 10.4078C189.797 10.4078 185.644 6.25671 185.644 1.13016C185.644 0.56033 185.21 0.0644579 184.64 0.0644579H181.042C180.472 0.0644579 180.039 0.560079 180.039 1.13016C180.039 6.25241 175.886 10.4078 170.758 10.4078C165.63 10.4078 161.477 6.25671 161.477 1.13016C161.477 0.560331 161.043 0.0644579 160.474 0.0644579H156.983C156.413 0.0644579 155.979 0.560079 155.979 1.13016C155.979 6.25241 151.827 10.4078 146.699 10.4078C141.57 10.4078 137.418 6.25671 137.418 1.13016C137.418 0.560331 136.984 0.0644579 136.414 0.0644579H132.339C131.769 0.0644579 131.335 0.560079 131.335 1.13016C131.335 6.25241 127.183 10.4078 122.055 10.4078C116.927 10.4078 112.774 6.25671 112.774 1.13016C112.774 0.560331 112.34 0.0644579 111.77 0.0644579H108.512C107.942 0.0644579 107.508 0.560079 107.508 1.13016C107.508 6.25241 103.356 10.4078 98.2276 10.4078C93.0993 10.4078 88.9469 6.25671 88.9469 1.13016C88.9469 0.560331 88.513 0.0644579 87.9432 0.0644579H83.9239C83.3539 0.0644579 82.9202 0.560079 82.9202 1.13016C82.9202 6.25241 78.7678 10.4078 73.6395 10.4078C68.5113 10.4078 64.3588 6.25671 64.3588 1.13016C64.3588 0.560331 63.9249 0.0644579 63.3551 0.0644579H59.7571C59.1871 0.0644579 58.7534 0.560079 58.7534 1.13016C58.7534 6.25241 54.601 10.4078 49.4727 10.4078C44.3445 10.4078 40.192 6.25671 40.192 1.13016C40.192 0.560331 39.7581 0.0644579 39.1883 0.0644579H35.6978C35.1277 0.0644579 34.6941 0.560079 34.6941 1.13016C34.6941 6.25241 30.5416 10.4078 25.4134 10.4078C20.2851 10.4078 16.2058 6.26101 16.2058 1.13446C16.2058 0.564628 15.7719 0.068755 15.202 0.068755H11.1269C10.5569 0.068755 10.1232 0.564376 10.1232 1.13446C10.1232 1.49542 10.1017 1.81771 10.0631 2.15289C9.06147 6.19225 5.41625 9.19169 1.06606 9.19169C0.496025 9.19169 0 9.62575 0 10.1958V14.2123C0 14.7825 0.495774 15.2163 1.06606 15.2163C6.19 15.2163 10.3468 19.3674 10.3468 24.494C10.3468 29.6205 6.1943 33.7716 1.06606 33.7716C0.496025 33.7716 0 34.2057 0 34.7757V38.0316C0 38.6019 0.495773 39.0357 1.06606 39.0357C6.19 39.0357 10.3468 43.1868 10.3468 48.3133C10.3468 53.4399 6.1943 57.5909 1.06606 57.5909C0.496025 57.5909 0 58.025 0 58.595V62.6674C0 63.2377 0.495774 63.6715 1.06606 63.6715C6.19 63.6715 10.3468 67.8225 10.3468 72.9491C10.3468 78.0756 6.1943 82.2267 1.06606 82.2267C0.496025 82.2267 0 82.6608 0 83.2308V86.7188C0 87.289 0.495774 87.7228 1.06606 87.7228C6.19 87.7228 10.3468 91.8739 10.3468 97.0005C10.3468 102.127 6.1943 106.278 1.06606 106.278C0.496025 106.278 0 106.712 0 107.282V110.878C0 111.448 0.495774 111.882 1.06606 111.882C6.19 111.882 10.3468 116.033 10.3468 121.159C10.3468 126.286 6.1943 130.437 1.06606 130.437C0.496025 130.437 0 130.871 0 131.441V135.457C0 136.028 0.495773 136.462 1.06606 136.462C6.19 136.462 10.3468 140.613 10.3468 145.739C10.3468 150.866 6.1943 155.017 1.06606 155.017C0.496024 155.017 0 155.451 0 156.021V159.56C0 160.131 0.495774 160.565 1.06606 160.565C6.19 160.565 10.3468 164.716 10.3468 169.842C10.3468 174.969 6.1943 179.12 1.06606 179.12C0.496025 179.12 0 179.554 0 180.124V184.196C0 184.766 0.495774 185.2 1.06606 185.2C6.19 185.2 10.3468 189.351 10.3468 194.478C10.3468 199.604 6.1943 203.756 1.06606 203.756C0.496025 203.756 0 204.19 0 204.76V208.248C0 208.818 0.495774 209.252 1.06606 209.252C6.19 209.252 10.3468 213.403 10.3468 218.529C10.3468 223.656 6.1943 227.807 1.06606 227.807C0.496024 227.807 0 228.241 0 228.811V233.119C0 233.309 0.165304 233.456 0.354464 233.442C0.426904 233.436 0.499533 233.432 0.571941 233.428C0.632834 233.425 0.683479 233.474 0.683479 233.535C0.683479 233.594 0.731556 233.641 0.790775 233.636C0.808132 233.635 0.82533 233.634 0.842528 233.634C5.96647 233.634 10.1232 237.785 10.1232 242.912C10.1232 243.24 10.1019 243.565 10.0689 243.883C10.0637 243.933 10.103 243.977 10.1537 243.977C10.2056 243.977 10.2454 244.023 10.2374 244.075C10.217 244.206 10.1946 244.335 10.1698 244.464C10.1171 244.737 10.321 245 10.5993 245H13.2141C13.4965 245 13.7255 244.771 13.7255 244.489C13.7255 244.206 13.9544 243.977 14.2368 243.977H15.2064C15.7764 243.977 16.2101 243.482 16.2101 242.912C16.2101 237.789 20.3625 233.634 25.4908 233.634C30.619 233.634 34.7715 237.785 34.7715 242.912C34.7715 243.481 35.2054 243.977 35.7752 243.977H39.2657C39.8358 243.977 40.2694 243.482 40.2694 242.912C40.2694 237.789 44.4219 233.634 49.5501 233.634C54.6783 233.634 58.8308 237.785 58.8308 242.912C58.8308 243.481 59.2647 243.977 59.8345 243.977H63.4325C64.0026 243.977 64.4362 243.482 64.4362 242.912C64.4362 237.789 68.5886 233.634 73.7169 233.634C78.8451 233.634 82.9976 237.785 82.9976 242.912C82.9976 243.481 83.4315 243.977 84.0013 243.977H88.0205C88.5906 243.977 89.0242 243.482 89.0242 242.912C89.0242 237.789 93.1767 233.634 98.3049 233.634C103.433 233.634 107.586 237.785 107.586 242.912C107.586 243.481 108.02 243.977 108.589 243.977H111.848C112.418 243.977 112.851 243.482 112.851 242.912C112.851 237.789 117.004 233.634 122.132 233.634C127.26 233.634 131.413 237.785 131.413 242.912C131.413 243.481 131.847 243.977 132.417 243.977H136.492C137.062 243.977 137.495 243.482 137.495 242.912C137.495 237.789 141.648 233.634 146.776 233.634C151.904 233.634 156.057 237.785 156.057 242.912C156.057 243.481 156.491 243.977 157.061 243.977H160.551C161.121 243.977 161.555 243.482 161.555 242.912C161.555 237.789 165.707 233.634 170.835 233.634C175.964 233.634 180.116 237.785 180.116 242.912C180.116 243.481 180.55 243.977 181.12 243.977H184.718C185.288 243.977 185.722 243.482 185.722 242.912C185.722 237.789 189.874 233.634 195.002 233.634C200.13 233.634 204.283 237.785 204.283 242.912C204.283 243.481 204.717 243.977 205.287 243.977H209.306C209.876 243.977 210.31 243.482 210.31 242.912C210.31 237.789 214.462 233.634 219.59 233.634C224.719 233.634 228.871 237.785 228.871 242.912C228.871 243.481 229.305 243.977 229.875 243.977H233.417C233.987 243.977 234.421 243.482 234.421 242.912C234.421 237.789 238.573 233.634 243.701 233.634C248.829 233.634 252.982 237.785 252.982 242.912C252.982 243.481 253.416 243.977 253.986 243.977H258.061C258.631 243.977 259.064 243.482 259.064 242.912C259.064 237.789 263.217 233.634 268.345 233.634C273.473 233.634 277.626 237.785 277.626 242.912C277.626 243.481 278.06 243.977 278.63 243.977H282.12C282.69 243.977 283.124 243.482 283.124 242.912C283.124 237.789 287.276 233.634 292.404 233.634C297.533 233.634 301.685 237.785 301.685 242.912C301.685 243.481 302.119 243.977 302.689 243.977H305.197C305.242 243.977 305.279 244.014 305.279 244.059C305.279 244.104 305.315 244.141 305.36 244.141H306.885C307.934 244.141 308.69 243.145 308.657 242.097C308.655 242.008 308.653 241.918 308.653 241.829C308.653 239.326 309.647 237.063 311.257 235.395C311.432 235.215 311.629 235.059 311.845 234.931C313.229 234.111 314.841 233.634 316.567 233.634C317.108 233.634 317.635 233.685 318.15 233.777C318.523 233.843 318.88 233.567 318.88 233.188V232.664C318.88 232.633 318.905 232.607 318.936 232.611C318.97 232.616 319 232.59 319 232.556V227.956C319 227.386 318.504 226.952 317.934 226.952C312.81 226.952 308.653 222.801 308.653 217.674C308.653 212.548 312.806 208.397 317.934 208.397C318.504 208.397 319 207.962 319 207.392V203.905C319 203.334 318.504 202.9 317.934 202.9C312.81 202.9 308.653 198.749 308.653 193.623C308.653 188.496 312.806 184.345 317.934 184.345C318.504 184.345 319 183.911 319 183.341V179.269C319 178.698 318.504 178.265 317.934 178.265C312.81 178.265 308.653 174.114 308.653 168.987C308.653 163.86 312.806 159.709 317.934 159.709C318.504 159.709 319 159.275 319 158.705V155.166C319 154.596 318.504 154.162 317.934 154.162C312.81 154.162 308.653 150.011 308.653 144.884C308.653 139.758 312.806 135.606 317.934 135.606C318.504 135.606 319 135.172 319 134.602V130.586C319 130.016 318.504 129.582 317.934 129.582C312.81 129.582 308.653 125.431 308.653 120.304C308.653 115.178 312.806 111.026 317.934 111.026C318.504 111.026 319 110.592 319 110.022V106.427C319 105.857 318.504 105.423 317.934 105.423C312.81 105.423 308.653 101.272 308.653 96.1453C308.653 91.0188 312.806 86.8677 317.934 86.8677C318.504 86.8677 319 86.4336 319 85.8636V82.3757C319 81.8054 318.504 81.3716 317.934 81.3716C312.81 81.3716 308.653 77.2205 308.653 72.0939C308.653 66.9674 312.806 62.8163 317.934 62.8163C318.504 62.8163 319 62.3823 319 61.8122V57.7399C319 57.1696 318.504 56.7358 317.934 56.7358C312.81 56.7358 308.653 52.5847 308.653 47.4582C308.653 42.3316 312.806 38.1805 317.934 38.1805C318.504 38.1805 319 37.7465 319 37.1764V33.9206C319 33.3503 318.504 32.9165 317.934 32.9165C312.81 32.9165 308.653 28.7654 308.653 23.6388C308.653 18.5123 312.806 14.3612 317.934 14.3612L317.857 14.3526Z" fill="#EEEEEC" stroke="black" stroke-width="2"/>
</g>
<path d="M45 24.5H275C283.56 24.5 290.5 31.4396 290.5 40V205C290.5 213.56 283.56 220.5 275 220.5H45C36.4396 220.5 29.5 213.56 29.5 205V40C29.5 31.4396 36.4396 24.5 45 24.5Z" fill="white" stroke="black"/>
<path d="M155.93 40.1095C158.508 38.6335 161.867 38.6268 164.444 40.1095C177.406 47.4338 190.372 54.7466 203.332 62.0753C205.77 63.4484 207.4 66.1612 207.375 68.97V113.036C207.393 115.961 205.602 118.738 203.03 120.08C190.11 127.364 177.198 134.657 164.28 141.941C161.648 143.446 158.222 143.33 155.672 141.702C151.799 139.456 147.919 137.222 144.045 134.979C143.254 134.507 142.362 134.131 141.803 133.364C142.297 132.698 143.18 132.615 143.898 132.324C145.515 131.81 147 130.985 148.485 130.184C148.861 129.927 149.319 130.026 149.679 130.256C152.991 132.155 156.274 134.109 159.597 135.99C160.306 136.399 161.024 135.856 161.63 135.518C174.308 128.352 187.002 121.214 199.678 114.046C200.147 113.821 200.407 113.322 200.369 112.808C200.378 98.2712 200.371 83.7322 200.373 69.1959C200.427 68.6122 200.089 68.0754 199.561 67.8365C186.687 60.586 173.818 53.3243 160.946 46.0719C160.723 45.9185 160.459 45.8363 160.188 45.8359C159.917 45.8355 159.653 45.917 159.43 46.0696C146.557 53.3243 133.691 60.5926 120.819 67.8428C120.293 68.0821 119.94 68.6099 120.002 69.1959C120.005 83.7322 120.002 98.2712 120.002 112.81C119.98 113.061 120.035 113.313 120.16 113.531C120.285 113.75 120.475 113.925 120.702 114.033C124.137 115.981 127.577 117.915 131.014 119.857C132.951 120.899 135.328 121.518 137.462 120.72C139.345 120.044 140.664 118.123 140.628 116.124C140.646 101.673 140.62 87.2188 140.642 72.7695C140.595 72.128 141.203 71.5979 141.827 71.6583C143.478 71.6472 145.13 71.6361 146.781 71.6628C147.47 71.6472 147.944 72.338 147.859 72.9844C147.852 87.5274 147.876 102.071 147.848 116.614C147.852 120.49 146.26 124.707 142.675 126.603C138.258 128.891 132.799 128.406 128.436 126.212C124.658 124.327 121.054 122.102 117.343 120.082C114.765 118.748 112.982 115.959 113 113.036V68.97C112.973 66.1031 114.669 63.341 117.182 61.9879C130.099 54.6981 143.015 47.4027 155.93 40.1095Z" fill="#8CC84B"/>
<path d="M167.199 70.6341C172.832 70.2715 178.864 70.4193 183.933 73.1947C187.858 75.3215 190.035 79.7852 190.104 84.1459C189.994 84.7341 189.379 85.0586 188.818 85.0182C187.183 85.016 185.548 85.0404 183.914 85.0071C183.22 85.0338 182.817 84.3945 182.73 83.7814C182.261 81.695 181.123 79.6285 179.159 78.6222C176.144 77.1128 172.649 77.1887 169.361 77.2202C166.962 77.3476 164.381 77.5554 162.348 78.9666C160.787 80.0356 160.313 82.1935 160.87 83.9315C161.395 85.1793 162.836 85.582 164.014 85.9531C170.804 87.7288 177.998 87.5521 184.658 89.889C187.415 90.8416 190.113 92.6936 191.057 95.5805C192.291 99.4497 191.75 104.075 188.997 107.181C186.765 109.737 183.513 111.128 180.27 111.884C175.956 112.846 171.479 112.87 167.098 112.443C162.979 111.973 158.692 110.891 155.511 108.084C152.792 105.723 151.464 102.044 151.596 98.4926C151.627 97.8929 152.224 97.4748 152.799 97.524C154.445 97.5107 156.091 97.5062 157.737 97.5262C158.394 97.4792 158.882 98.0474 158.915 98.6671C159.219 100.655 159.966 102.741 161.7 103.92C165.045 106.078 169.243 105.931 173.074 105.991C176.247 105.85 179.81 105.808 182.4 103.71C183.766 102.514 184.171 100.512 183.801 98.79C183.401 97.3362 181.881 96.6588 180.575 96.2158C173.872 94.0956 166.597 94.8649 159.96 92.4673C157.265 91.515 154.659 89.7145 153.624 86.9461C152.179 83.0281 152.841 78.1817 155.883 75.1804C158.848 72.195 163.129 71.0456 167.199 70.6341Z" fill="#8CC84B"/>
<path d="M88.76 196V169.6H97.12L108.44 187.32H108.92L108.52 169.6H114.8V196H107.24L95.12 177.28H94.68L95.04 196H88.76ZM129.802 196.56C127.668 196.56 125.775 196.147 124.122 195.32C122.495 194.493 121.215 193.253 120.282 191.6C119.348 189.947 118.882 187.88 118.882 185.4C118.882 182.92 119.348 180.867 120.282 179.24C121.215 177.587 122.508 176.36 124.162 175.56C125.815 174.733 127.708 174.32 129.842 174.32C131.975 174.32 133.868 174.733 135.522 175.56C137.175 176.387 138.468 177.627 139.402 179.28C140.335 180.907 140.802 182.96 140.802 185.44C140.802 187.973 140.322 190.067 139.362 191.72C138.402 193.373 137.082 194.6 135.402 195.4C133.748 196.173 131.882 196.56 129.802 196.56ZM130.002 191.88C130.962 191.88 131.762 191.667 132.402 191.24C133.042 190.787 133.522 190.107 133.842 189.2C134.162 188.293 134.322 187.173 134.322 185.84C134.322 184.427 134.148 183.24 133.802 182.28C133.455 181.293 132.935 180.547 132.242 180.04C131.575 179.507 130.708 179.24 129.642 179.24C128.735 179.24 127.948 179.467 127.282 179.92C126.642 180.347 126.162 181.013 125.842 181.92C125.522 182.827 125.362 183.96 125.362 185.32C125.362 187.507 125.762 189.147 126.562 190.24C127.388 191.333 128.535 191.88 130.002 191.88ZM152.294 196.56C150.534 196.56 148.987 196.12 147.654 195.24C146.347 194.333 145.32 193.053 144.574 191.4C143.827 189.72 143.454 187.72 143.454 185.4C143.454 183.267 143.774 181.373 144.414 179.72C145.054 178.067 146 176.773 147.254 175.84C148.534 174.88 150.107 174.4 151.974 174.4C153.307 174.4 154.427 174.64 155.334 175.12C156.267 175.6 157.04 176.32 157.654 177.28C158.267 178.24 158.76 179.453 159.134 180.92H160.134C159.947 180.013 159.774 179.16 159.614 178.36C159.454 177.533 159.32 176.773 159.214 176.08C159.134 175.36 159.094 174.733 159.094 174.2V167.2H165.574V185.68V196H160.294L160.214 189.76H159.334C159.04 191.36 158.574 192.667 157.934 193.68C157.32 194.667 156.534 195.4 155.574 195.88C154.64 196.333 153.547 196.56 152.294 196.56ZM154.614 191.36C155.44 191.36 156.134 191.187 156.694 190.84C157.28 190.467 157.747 190 158.094 189.44C158.44 188.88 158.694 188.28 158.854 187.64C159.014 187 159.094 186.4 159.094 185.84V185C159.094 184.493 159.027 183.987 158.894 183.48C158.76 182.973 158.56 182.48 158.294 182C158.054 181.52 157.747 181.093 157.374 180.72C157 180.347 156.56 180.053 156.054 179.84C155.574 179.627 155.04 179.52 154.454 179.52C153.574 179.52 152.814 179.76 152.174 180.24C151.56 180.72 151.08 181.4 150.734 182.28C150.414 183.16 150.254 184.2 150.254 185.4C150.254 186.6 150.427 187.653 150.774 188.56C151.12 189.44 151.627 190.133 152.294 190.64C152.96 191.12 153.734 191.36 154.614 191.36ZM180.59 196.56C178.83 196.56 177.257 196.333 175.87 195.88C174.484 195.4 173.297 194.707 172.31 193.8C171.35 192.893 170.617 191.773 170.11 190.44C169.604 189.107 169.35 187.573 169.35 185.84C169.35 184.16 169.59 182.613 170.07 181.2C170.577 179.787 171.284 178.573 172.19 177.56C173.124 176.52 174.257 175.72 175.59 175.16C176.95 174.6 178.47 174.32 180.15 174.32C181.857 174.32 183.35 174.6 184.63 175.16C185.937 175.693 187.004 176.493 187.83 177.56C188.684 178.627 189.31 179.933 189.71 181.48C190.11 183 190.244 184.747 190.11 186.72L173.59 186.84V183.48L186.43 183.36L184.15 184.92C184.337 183.587 184.257 182.507 183.91 181.68C183.564 180.827 183.057 180.213 182.39 179.84C181.724 179.44 181.004 179.24 180.23 179.24C179.297 179.24 178.47 179.493 177.75 180C177.057 180.507 176.51 181.24 176.11 182.2C175.71 183.16 175.51 184.333 175.51 185.72C175.51 187.907 175.977 189.493 176.91 190.48C177.87 191.467 179.084 191.96 180.55 191.96C181.27 191.96 181.87 191.867 182.35 191.68C182.83 191.467 183.217 191.213 183.51 190.92C183.83 190.6 184.07 190.253 184.23 189.88C184.417 189.507 184.564 189.147 184.67 188.8L190.27 190C190.057 190.987 189.71 191.88 189.23 192.68C188.777 193.48 188.15 194.173 187.35 194.76C186.577 195.347 185.63 195.787 184.51 196.08C183.417 196.4 182.11 196.56 180.59 196.56ZM192.544 196.28L192.264 190.36C192.557 190.413 192.851 190.453 193.144 190.48C193.464 190.507 193.717 190.52 193.904 190.52C194.917 190.52 195.691 190.387 196.224 190.12C196.784 189.827 197.171 189.373 197.384 188.76C197.624 188.147 197.744 187.32 197.744 186.28V169.6H204.224V186.32C204.224 188.56 203.891 190.427 203.224 191.92C202.557 193.413 201.544 194.547 200.184 195.32C198.824 196.067 197.091 196.44 194.984 196.44C194.717 196.44 194.397 196.427 194.024 196.4C193.651 196.373 193.157 196.333 192.544 196.28ZM220.178 196.56C218.471 196.56 216.924 196.4 215.538 196.08C214.151 195.76 212.951 195.28 211.938 194.64C210.924 193.973 210.124 193.133 209.538 192.12C208.951 191.107 208.604 189.933 208.498 188.6L214.138 186.72C214.218 187.84 214.538 188.773 215.098 189.52C215.658 190.267 216.404 190.827 217.338 191.2C218.298 191.547 219.364 191.72 220.538 191.72C221.658 191.72 222.591 191.587 223.338 191.32C224.111 191.027 224.684 190.667 225.058 190.24C225.458 189.787 225.658 189.307 225.658 188.8C225.658 188.213 225.404 187.733 224.898 187.36C224.391 186.96 223.698 186.627 222.818 186.36C221.938 186.067 220.911 185.787 219.738 185.52C218.404 185.2 217.098 184.853 215.818 184.48C214.538 184.107 213.378 183.627 212.338 183.04C211.298 182.427 210.471 181.653 209.858 180.72C209.271 179.76 208.978 178.56 208.978 177.12C208.978 175.493 209.391 174.08 210.218 172.88C211.044 171.68 212.258 170.747 213.858 170.08C215.458 169.387 217.431 169.04 219.778 169.04C222.098 169.04 224.071 169.373 225.698 170.04C227.324 170.707 228.578 171.64 229.458 172.84C230.338 174.013 230.818 175.387 230.898 176.96L225.138 178.6C225.138 177.827 225.004 177.147 224.738 176.56C224.498 175.973 224.151 175.493 223.698 175.12C223.244 174.72 222.684 174.427 222.018 174.24C221.351 174.027 220.591 173.92 219.738 173.92C218.724 173.92 217.858 174.04 217.138 174.28C216.444 174.52 215.924 174.84 215.578 175.24C215.231 175.613 215.058 176.053 215.058 176.56C215.058 177.2 215.324 177.733 215.858 178.16C216.418 178.56 217.164 178.907 218.098 179.2C219.058 179.467 220.111 179.733 221.258 180C222.404 180.24 223.591 180.547 224.818 180.92C226.044 181.267 227.191 181.733 228.258 182.32C229.324 182.907 230.178 183.707 230.818 184.72C231.484 185.707 231.818 186.96 231.818 188.48C231.818 190.107 231.378 191.533 230.498 192.76C229.644 193.96 228.351 194.893 226.618 195.56C224.884 196.227 222.738 196.56 220.178 196.56Z" fill="black"/>
</g>
<defs>
<clipPath id="clip0_63_37">
<rect width="319" height="245" fill="white"/>
</clipPath>
</defs>
</svg>
