<svg width="167" height="218" viewBox="0 0 167 218" fill="none" xmlns="http://www.w3.org/2000/svg">
<path d="M36.2667 20L36.6667 39.8667L66 40.4C92 40.8 96 41.0667 101.333 43.4667C124.667 54 124.4 88.1334 100.933 98C96.9333 99.6 87.3333 100.133 48.2667 100.8L0.666667 101.6L0.266667 146.533L0 191.467H9.06667C23.6 191.6 35.8667 198.8 44.2667 211.867L48 217.867V180.4V143.067L76.4 142.267C108.533 141.333 116.667 139.867 131.2 132.267C153.867 120.4 166.667 98.1334 166.667 70.6667C166.667 36.1334 146.267 9.86669 113.2 2.00002C106.8 0.533355 96.2667 2.11895e-05 70.2667 2.11895e-05H35.8667L36.2667 20Z" fill="black"/>
</svg>
