<svg width="319" height="245" viewBox="0 0 319 245" fill="none" xmlns="http://www.w3.org/2000/svg">
<g clip-path="url(#clip0_63_23)">
<mask id="mask0_63_23" style="mask-type:luminance" maskUnits="userSpaceOnUse" x="0" y="0" width="319" height="245">
<path d="M317.857 14.3526C318.427 14.3526 318.923 13.9186 318.923 13.3485V9.33203C318.923 8.76175 318.427 8.32795 317.857 8.32795C313.612 8.32795 310.035 5.47919 308.929 1.59306C308.676 0.706043 307.922 0 306.999 0H305.234C305.216 0 305.201 0.0144294 305.201 0.0322289C305.201 0.0500285 305.187 0.0644579 305.169 0.0644579H302.612C302.041 0.0644579 301.608 0.560079 301.608 1.13016C301.608 6.25241 297.455 10.4078 292.327 10.4078C287.199 10.4078 283.046 6.25671 283.046 1.13016C283.046 0.560331 282.612 0.0644579 282.043 0.0644579H278.552C277.982 0.0644579 277.548 0.56008 277.548 1.13016C277.548 6.25241 273.396 10.4078 268.268 10.4078C263.14 10.4078 258.987 6.25671 258.987 1.13016C258.987 0.56033 258.553 0.0644579 257.983 0.0644579H253.908C253.338 0.0644579 252.905 0.560079 252.905 1.13016C252.905 6.25241 248.752 10.4078 243.624 10.4078C238.496 10.4078 234.343 6.25671 234.343 1.13016C234.343 0.560331 233.909 0.0644579 233.339 0.0644579H229.797C229.227 0.0644579 228.794 0.56008 228.794 1.13016C228.794 6.25241 224.641 10.4078 219.513 10.4078C214.385 10.4078 210.232 6.25671 210.232 1.13016C210.232 0.560331 209.798 0.0644579 209.228 0.0644579H205.209C204.639 0.0644579 204.206 0.560079 204.206 1.13016C204.206 6.25241 200.053 10.4078 194.925 10.4078C189.797 10.4078 185.644 6.25671 185.644 1.13016C185.644 0.56033 185.21 0.0644579 184.64 0.0644579H181.042C180.472 0.0644579 180.039 0.560079 180.039 1.13016C180.039 6.25241 175.886 10.4078 170.758 10.4078C165.63 10.4078 161.477 6.25671 161.477 1.13016C161.477 0.560331 161.043 0.0644579 160.474 0.0644579H156.983C156.413 0.0644579 155.979 0.560079 155.979 1.13016C155.979 6.25241 151.827 10.4078 146.699 10.4078C141.57 10.4078 137.418 6.25671 137.418 1.13016C137.418 0.560331 136.984 0.0644579 136.414 0.0644579H132.339C131.769 0.0644579 131.335 0.560079 131.335 1.13016C131.335 6.25241 127.183 10.4078 122.055 10.4078C116.927 10.4078 112.774 6.25671 112.774 1.13016C112.774 0.560331 112.34 0.0644579 111.77 0.0644579H108.512C107.942 0.0644579 107.508 0.560079 107.508 1.13016C107.508 6.25241 103.356 10.4078 98.2276 10.4078C93.0993 10.4078 88.9469 6.25671 88.9469 1.13016C88.9469 0.560331 88.513 0.0644579 87.9432 0.0644579H83.9239C83.3539 0.0644579 82.9202 0.560079 82.9202 1.13016C82.9202 6.25241 78.7678 10.4078 73.6395 10.4078C68.5113 10.4078 64.3588 6.25671 64.3588 1.13016C64.3588 0.560331 63.9249 0.0644579 63.3551 0.0644579H59.7571C59.1871 0.0644579 58.7534 0.560079 58.7534 1.13016C58.7534 6.25241 54.601 10.4078 49.4727 10.4078C44.3445 10.4078 40.192 6.25671 40.192 1.13016C40.192 0.560331 39.7581 0.0644579 39.1883 0.0644579H35.6978C35.1277 0.0644579 34.6941 0.560079 34.6941 1.13016C34.6941 6.25241 30.5416 10.4078 25.4134 10.4078C20.2851 10.4078 16.2058 6.26101 16.2058 1.13446C16.2058 0.564628 15.7719 0.068755 15.202 0.068755H11.1269C10.5569 0.068755 10.1232 0.564376 10.1232 1.13446C10.1232 1.49542 10.1017 1.81771 10.0631 2.15289C9.06147 6.19225 5.41625 9.19169 1.06606 9.19169C0.496025 9.19169 0 9.62575 0 10.1958V14.2123C0 14.7825 0.495774 15.2163 1.06606 15.2163C6.19 15.2163 10.3468 19.3674 10.3468 24.494C10.3468 29.6205 6.1943 33.7716 1.06606 33.7716C0.496025 33.7716 0 34.2057 0 34.7757V38.0316C0 38.6019 0.495773 39.0357 1.06606 39.0357C6.19 39.0357 10.3468 43.1868 10.3468 48.3133C10.3468 53.4399 6.1943 57.5909 1.06606 57.5909C0.496025 57.5909 0 58.025 0 58.595V62.6674C0 63.2377 0.495774 63.6715 1.06606 63.6715C6.19 63.6715 10.3468 67.8225 10.3468 72.9491C10.3468 78.0756 6.1943 82.2267 1.06606 82.2267C0.496025 82.2267 0 82.6608 0 83.2308V86.7188C0 87.289 0.495774 87.7228 1.06606 87.7228C6.19 87.7228 10.3468 91.8739 10.3468 97.0005C10.3468 102.127 6.1943 106.278 1.06606 106.278C0.496025 106.278 0 106.712 0 107.282V110.878C0 111.448 0.495774 111.882 1.06606 111.882C6.19 111.882 10.3468 116.033 10.3468 121.159C10.3468 126.286 6.1943 130.437 1.06606 130.437C0.496025 130.437 0 130.871 0 131.441V135.457C0 136.028 0.495773 136.462 1.06606 136.462C6.19 136.462 10.3468 140.613 10.3468 145.739C10.3468 150.866 6.1943 155.017 1.06606 155.017C0.496024 155.017 0 155.451 0 156.021V159.56C0 160.131 0.495774 160.565 1.06606 160.565C6.19 160.565 10.3468 164.716 10.3468 169.842C10.3468 174.969 6.1943 179.12 1.06606 179.12C0.496025 179.12 0 179.554 0 180.124V184.196C0 184.766 0.495774 185.2 1.06606 185.2C6.19 185.2 10.3468 189.351 10.3468 194.478C10.3468 199.604 6.1943 203.756 1.06606 203.756C0.496025 203.756 0 204.19 0 204.76V208.248C0 208.818 0.495774 209.252 1.06606 209.252C6.19 209.252 10.3468 213.403 10.3468 218.529C10.3468 223.656 6.1943 227.807 1.06606 227.807C0.496024 227.807 0 228.241 0 228.811V233.119C0 233.309 0.165304 233.456 0.354464 233.442C0.426904 233.436 0.499533 233.432 0.571941 233.428C0.632834 233.425 0.683479 233.474 0.683479 233.535C0.683479 233.594 0.731556 233.641 0.790775 233.636C0.808132 233.635 0.82533 233.634 0.842528 233.634C5.96647 233.634 10.1232 237.785 10.1232 242.912C10.1232 243.24 10.1019 243.565 10.0689 243.883C10.0637 243.933 10.103 243.977 10.1537 243.977C10.2056 243.977 10.2454 244.023 10.2374 244.075C10.217 244.206 10.1946 244.335 10.1698 244.464C10.1171 244.737 10.321 245 10.5993 245H13.2141C13.4965 245 13.7255 244.771 13.7255 244.489C13.7255 244.206 13.9544 243.977 14.2368 243.977H15.2064C15.7764 243.977 16.2101 243.482 16.2101 242.912C16.2101 237.789 20.3625 233.634 25.4908 233.634C30.619 233.634 34.7715 237.785 34.7715 242.912C34.7715 243.481 35.2054 243.977 35.7752 243.977H39.2657C39.8358 243.977 40.2694 243.482 40.2694 242.912C40.2694 237.789 44.4219 233.634 49.5501 233.634C54.6783 233.634 58.8308 237.785 58.8308 242.912C58.8308 243.481 59.2647 243.977 59.8345 243.977H63.4325C64.0026 243.977 64.4362 243.482 64.4362 242.912C64.4362 237.789 68.5886 233.634 73.7169 233.634C78.8451 233.634 82.9976 237.785 82.9976 242.912C82.9976 243.481 83.4315 243.977 84.0013 243.977H88.0205C88.5906 243.977 89.0242 243.482 89.0242 242.912C89.0242 237.789 93.1767 233.634 98.3049 233.634C103.433 233.634 107.586 237.785 107.586 242.912C107.586 243.481 108.02 243.977 108.589 243.977H111.848C112.418 243.977 112.851 243.482 112.851 242.912C112.851 237.789 117.004 233.634 122.132 233.634C127.26 233.634 131.413 237.785 131.413 242.912C131.413 243.481 131.847 243.977 132.417 243.977H136.492C137.062 243.977 137.495 243.482 137.495 242.912C137.495 237.789 141.648 233.634 146.776 233.634C151.904 233.634 156.057 237.785 156.057 242.912C156.057 243.481 156.491 243.977 157.061 243.977H160.551C161.121 243.977 161.555 243.482 161.555 242.912C161.555 237.789 165.707 233.634 170.835 233.634C175.964 233.634 180.116 237.785 180.116 242.912C180.116 243.481 180.55 243.977 181.12 243.977H184.718C185.288 243.977 185.722 243.482 185.722 242.912C185.722 237.789 189.874 233.634 195.002 233.634C200.13 233.634 204.283 237.785 204.283 242.912C204.283 243.481 204.717 243.977 205.287 243.977H209.306C209.876 243.977 210.31 243.482 210.31 242.912C210.31 237.789 214.462 233.634 219.59 233.634C224.719 233.634 228.871 237.785 228.871 242.912C228.871 243.481 229.305 243.977 229.875 243.977H233.417C233.987 243.977 234.421 243.482 234.421 242.912C234.421 237.789 238.573 233.634 243.701 233.634C248.829 233.634 252.982 237.785 252.982 242.912C252.982 243.481 253.416 243.977 253.986 243.977H258.061C258.631 243.977 259.064 243.482 259.064 242.912C259.064 237.789 263.217 233.634 268.345 233.634C273.473 233.634 277.626 237.785 277.626 242.912C277.626 243.481 278.06 243.977 278.63 243.977H282.12C282.69 243.977 283.124 243.482 283.124 242.912C283.124 237.789 287.276 233.634 292.404 233.634C297.533 233.634 301.685 237.785 301.685 242.912C301.685 243.481 302.119 243.977 302.689 243.977H305.197C305.242 243.977 305.279 244.014 305.279 244.059C305.279 244.104 305.315 244.141 305.36 244.141H306.885C307.934 244.141 308.69 243.145 308.657 242.097C308.655 242.008 308.653 241.918 308.653 241.829C308.653 239.326 309.647 237.063 311.257 235.395C311.432 235.215 311.629 235.059 311.845 234.931C313.229 234.111 314.841 233.634 316.567 233.634C317.108 233.634 317.635 233.685 318.15 233.777C318.523 233.843 318.88 233.567 318.88 233.188V232.664C318.88 232.633 318.905 232.607 318.936 232.611C318.97 232.616 319 232.59 319 232.556V227.956C319 227.386 318.504 226.952 317.934 226.952C312.81 226.952 308.653 222.801 308.653 217.674C308.653 212.548 312.806 208.397 317.934 208.397C318.504 208.397 319 207.962 319 207.392V203.905C319 203.334 318.504 202.9 317.934 202.9C312.81 202.9 308.653 198.749 308.653 193.623C308.653 188.496 312.806 184.345 317.934 184.345C318.504 184.345 319 183.911 319 183.341V179.269C319 178.698 318.504 178.265 317.934 178.265C312.81 178.265 308.653 174.114 308.653 168.987C308.653 163.86 312.806 159.709 317.934 159.709C318.504 159.709 319 159.275 319 158.705V155.166C319 154.596 318.504 154.162 317.934 154.162C312.81 154.162 308.653 150.011 308.653 144.884C308.653 139.758 312.806 135.606 317.934 135.606C318.504 135.606 319 135.172 319 134.602V130.586C319 130.016 318.504 129.582 317.934 129.582C312.81 129.582 308.653 125.431 308.653 120.304C308.653 115.178 312.806 111.026 317.934 111.026C318.504 111.026 319 110.592 319 110.022V106.427C319 105.857 318.504 105.423 317.934 105.423C312.81 105.423 308.653 101.272 308.653 96.1453C308.653 91.0188 312.806 86.8677 317.934 86.8677C318.504 86.8677 319 86.4336 319 85.8636V82.3757C319 81.8054 318.504 81.3716 317.934 81.3716C312.81 81.3716 308.653 77.2205 308.653 72.0939C308.653 66.9674 312.806 62.8163 317.934 62.8163C318.504 62.8163 319 62.3823 319 61.8122V57.7399C319 57.1696 318.504 56.7358 317.934 56.7358C312.81 56.7358 308.653 52.5847 308.653 47.4582C308.653 42.3316 312.806 38.1805 317.934 38.1805C318.504 38.1805 319 37.7465 319 37.1764V33.9206C319 33.3503 318.504 32.9165 317.934 32.9165C312.81 32.9165 308.653 28.7654 308.653 23.6388C308.653 18.5123 312.806 14.3612 317.934 14.3612L317.857 14.3526Z" fill="white"/>
</mask>
<g mask="url(#mask0_63_23)">
<path d="M317.857 14.3526C318.427 14.3526 318.923 13.9186 318.923 13.3485V9.33203C318.923 8.76175 318.427 8.32795 317.857 8.32795C313.612 8.32795 310.035 5.47919 308.929 1.59306C308.676 0.706043 307.922 0 306.999 0H305.234C305.216 0 305.201 0.0144294 305.201 0.0322289C305.201 0.0500285 305.187 0.0644579 305.169 0.0644579H302.612C302.041 0.0644579 301.608 0.560079 301.608 1.13016C301.608 6.25241 297.455 10.4078 292.327 10.4078C287.199 10.4078 283.046 6.25671 283.046 1.13016C283.046 0.560331 282.612 0.0644579 282.043 0.0644579H278.552C277.982 0.0644579 277.548 0.56008 277.548 1.13016C277.548 6.25241 273.396 10.4078 268.268 10.4078C263.14 10.4078 258.987 6.25671 258.987 1.13016C258.987 0.56033 258.553 0.0644579 257.983 0.0644579H253.908C253.338 0.0644579 252.905 0.560079 252.905 1.13016C252.905 6.25241 248.752 10.4078 243.624 10.4078C238.496 10.4078 234.343 6.25671 234.343 1.13016C234.343 0.560331 233.909 0.0644579 233.339 0.0644579H229.797C229.227 0.0644579 228.794 0.56008 228.794 1.13016C228.794 6.25241 224.641 10.4078 219.513 10.4078C214.385 10.4078 210.232 6.25671 210.232 1.13016C210.232 0.560331 209.798 0.0644579 209.228 0.0644579H205.209C204.639 0.0644579 204.206 0.560079 204.206 1.13016C204.206 6.25241 200.053 10.4078 194.925 10.4078C189.797 10.4078 185.644 6.25671 185.644 1.13016C185.644 0.56033 185.21 0.0644579 184.64 0.0644579H181.042C180.472 0.0644579 180.039 0.560079 180.039 1.13016C180.039 6.25241 175.886 10.4078 170.758 10.4078C165.63 10.4078 161.477 6.25671 161.477 1.13016C161.477 0.560331 161.043 0.0644579 160.474 0.0644579H156.983C156.413 0.0644579 155.979 0.560079 155.979 1.13016C155.979 6.25241 151.827 10.4078 146.699 10.4078C141.57 10.4078 137.418 6.25671 137.418 1.13016C137.418 0.560331 136.984 0.0644579 136.414 0.0644579H132.339C131.769 0.0644579 131.335 0.560079 131.335 1.13016C131.335 6.25241 127.183 10.4078 122.055 10.4078C116.927 10.4078 112.774 6.25671 112.774 1.13016C112.774 0.560331 112.34 0.0644579 111.77 0.0644579H108.512C107.942 0.0644579 107.508 0.560079 107.508 1.13016C107.508 6.25241 103.356 10.4078 98.2276 10.4078C93.0993 10.4078 88.9469 6.25671 88.9469 1.13016C88.9469 0.560331 88.513 0.0644579 87.9432 0.0644579H83.9239C83.3539 0.0644579 82.9202 0.560079 82.9202 1.13016C82.9202 6.25241 78.7678 10.4078 73.6395 10.4078C68.5113 10.4078 64.3588 6.25671 64.3588 1.13016C64.3588 0.560331 63.9249 0.0644579 63.3551 0.0644579H59.7571C59.1871 0.0644579 58.7534 0.560079 58.7534 1.13016C58.7534 6.25241 54.601 10.4078 49.4727 10.4078C44.3445 10.4078 40.192 6.25671 40.192 1.13016C40.192 0.560331 39.7581 0.0644579 39.1883 0.0644579H35.6978C35.1277 0.0644579 34.6941 0.560079 34.6941 1.13016C34.6941 6.25241 30.5416 10.4078 25.4134 10.4078C20.2851 10.4078 16.2058 6.26101 16.2058 1.13446C16.2058 0.564628 15.7719 0.068755 15.202 0.068755H11.1269C10.5569 0.068755 10.1232 0.564376 10.1232 1.13446C10.1232 1.49542 10.1017 1.81771 10.0631 2.15289C9.06147 6.19225 5.41625 9.19169 1.06606 9.19169C0.496025 9.19169 0 9.62575 0 10.1958V14.2123C0 14.7825 0.495774 15.2163 1.06606 15.2163C6.19 15.2163 10.3468 19.3674 10.3468 24.494C10.3468 29.6205 6.1943 33.7716 1.06606 33.7716C0.496025 33.7716 0 34.2057 0 34.7757V38.0316C0 38.6019 0.495773 39.0357 1.06606 39.0357C6.19 39.0357 10.3468 43.1868 10.3468 48.3133C10.3468 53.4399 6.1943 57.5909 1.06606 57.5909C0.496025 57.5909 0 58.025 0 58.595V62.6674C0 63.2377 0.495774 63.6715 1.06606 63.6715C6.19 63.6715 10.3468 67.8225 10.3468 72.9491C10.3468 78.0756 6.1943 82.2267 1.06606 82.2267C0.496025 82.2267 0 82.6608 0 83.2308V86.7188C0 87.289 0.495774 87.7228 1.06606 87.7228C6.19 87.7228 10.3468 91.8739 10.3468 97.0005C10.3468 102.127 6.1943 106.278 1.06606 106.278C0.496025 106.278 0 106.712 0 107.282V110.878C0 111.448 0.495774 111.882 1.06606 111.882C6.19 111.882 10.3468 116.033 10.3468 121.159C10.3468 126.286 6.1943 130.437 1.06606 130.437C0.496025 130.437 0 130.871 0 131.441V135.457C0 136.028 0.495773 136.462 1.06606 136.462C6.19 136.462 10.3468 140.613 10.3468 145.739C10.3468 150.866 6.1943 155.017 1.06606 155.017C0.496024 155.017 0 155.451 0 156.021V159.56C0 160.131 0.495774 160.565 1.06606 160.565C6.19 160.565 10.3468 164.716 10.3468 169.842C10.3468 174.969 6.1943 179.12 1.06606 179.12C0.496025 179.12 0 179.554 0 180.124V184.196C0 184.766 0.495774 185.2 1.06606 185.2C6.19 185.2 10.3468 189.351 10.3468 194.478C10.3468 199.604 6.1943 203.756 1.06606 203.756C0.496025 203.756 0 204.19 0 204.76V208.248C0 208.818 0.495774 209.252 1.06606 209.252C6.19 209.252 10.3468 213.403 10.3468 218.529C10.3468 223.656 6.1943 227.807 1.06606 227.807C0.496024 227.807 0 228.241 0 228.811V233.119C0 233.309 0.165304 233.456 0.354464 233.442C0.426904 233.436 0.499533 233.432 0.571941 233.428C0.632834 233.425 0.683479 233.474 0.683479 233.535C0.683479 233.594 0.731556 233.641 0.790775 233.636C0.808132 233.635 0.82533 233.634 0.842528 233.634C5.96647 233.634 10.1232 237.785 10.1232 242.912C10.1232 243.24 10.1019 243.565 10.0689 243.883C10.0637 243.933 10.103 243.977 10.1537 243.977C10.2056 243.977 10.2454 244.023 10.2374 244.075C10.217 244.206 10.1946 244.335 10.1698 244.464C10.1171 244.737 10.321 245 10.5993 245H13.2141C13.4965 245 13.7255 244.771 13.7255 244.489C13.7255 244.206 13.9544 243.977 14.2368 243.977H15.2064C15.7764 243.977 16.2101 243.482 16.2101 242.912C16.2101 237.789 20.3625 233.634 25.4908 233.634C30.619 233.634 34.7715 237.785 34.7715 242.912C34.7715 243.481 35.2054 243.977 35.7752 243.977H39.2657C39.8358 243.977 40.2694 243.482 40.2694 242.912C40.2694 237.789 44.4219 233.634 49.5501 233.634C54.6783 233.634 58.8308 237.785 58.8308 242.912C58.8308 243.481 59.2647 243.977 59.8345 243.977H63.4325C64.0026 243.977 64.4362 243.482 64.4362 242.912C64.4362 237.789 68.5886 233.634 73.7169 233.634C78.8451 233.634 82.9976 237.785 82.9976 242.912C82.9976 243.481 83.4315 243.977 84.0013 243.977H88.0205C88.5906 243.977 89.0242 243.482 89.0242 242.912C89.0242 237.789 93.1767 233.634 98.3049 233.634C103.433 233.634 107.586 237.785 107.586 242.912C107.586 243.481 108.02 243.977 108.589 243.977H111.848C112.418 243.977 112.851 243.482 112.851 242.912C112.851 237.789 117.004 233.634 122.132 233.634C127.26 233.634 131.413 237.785 131.413 242.912C131.413 243.481 131.847 243.977 132.417 243.977H136.492C137.062 243.977 137.495 243.482 137.495 242.912C137.495 237.789 141.648 233.634 146.776 233.634C151.904 233.634 156.057 237.785 156.057 242.912C156.057 243.481 156.491 243.977 157.061 243.977H160.551C161.121 243.977 161.555 243.482 161.555 242.912C161.555 237.789 165.707 233.634 170.835 233.634C175.964 233.634 180.116 237.785 180.116 242.912C180.116 243.481 180.55 243.977 181.12 243.977H184.718C185.288 243.977 185.722 243.482 185.722 242.912C185.722 237.789 189.874 233.634 195.002 233.634C200.13 233.634 204.283 237.785 204.283 242.912C204.283 243.481 204.717 243.977 205.287 243.977H209.306C209.876 243.977 210.31 243.482 210.31 242.912C210.31 237.789 214.462 233.634 219.59 233.634C224.719 233.634 228.871 237.785 228.871 242.912C228.871 243.481 229.305 243.977 229.875 243.977H233.417C233.987 243.977 234.421 243.482 234.421 242.912C234.421 237.789 238.573 233.634 243.701 233.634C248.829 233.634 252.982 237.785 252.982 242.912C252.982 243.481 253.416 243.977 253.986 243.977H258.061C258.631 243.977 259.064 243.482 259.064 242.912C259.064 237.789 263.217 233.634 268.345 233.634C273.473 233.634 277.626 237.785 277.626 242.912C277.626 243.481 278.06 243.977 278.63 243.977H282.12C282.69 243.977 283.124 243.482 283.124 242.912C283.124 237.789 287.276 233.634 292.404 233.634C297.533 233.634 301.685 237.785 301.685 242.912C301.685 243.481 302.119 243.977 302.689 243.977H305.197C305.242 243.977 305.279 244.014 305.279 244.059C305.279 244.104 305.315 244.141 305.36 244.141H306.885C307.934 244.141 308.69 243.145 308.657 242.097C308.655 242.008 308.653 241.918 308.653 241.829C308.653 239.326 309.647 237.063 311.257 235.395C311.432 235.215 311.629 235.059 311.845 234.931C313.229 234.111 314.841 233.634 316.567 233.634C317.108 233.634 317.635 233.685 318.15 233.777C318.523 233.843 318.88 233.567 318.88 233.188V232.664C318.88 232.633 318.905 232.607 318.936 232.611C318.97 232.616 319 232.59 319 232.556V227.956C319 227.386 318.504 226.952 317.934 226.952C312.81 226.952 308.653 222.801 308.653 217.674C308.653 212.548 312.806 208.397 317.934 208.397C318.504 208.397 319 207.962 319 207.392V203.905C319 203.334 318.504 202.9 317.934 202.9C312.81 202.9 308.653 198.749 308.653 193.623C308.653 188.496 312.806 184.345 317.934 184.345C318.504 184.345 319 183.911 319 183.341V179.269C319 178.698 318.504 178.265 317.934 178.265C312.81 178.265 308.653 174.114 308.653 168.987C308.653 163.86 312.806 159.709 317.934 159.709C318.504 159.709 319 159.275 319 158.705V155.166C319 154.596 318.504 154.162 317.934 154.162C312.81 154.162 308.653 150.011 308.653 144.884C308.653 139.758 312.806 135.606 317.934 135.606C318.504 135.606 319 135.172 319 134.602V130.586C319 130.016 318.504 129.582 317.934 129.582C312.81 129.582 308.653 125.431 308.653 120.304C308.653 115.178 312.806 111.026 317.934 111.026C318.504 111.026 319 110.592 319 110.022V106.427C319 105.857 318.504 105.423 317.934 105.423C312.81 105.423 308.653 101.272 308.653 96.1453C308.653 91.0188 312.806 86.8677 317.934 86.8677C318.504 86.8677 319 86.4336 319 85.8636V82.3757C319 81.8054 318.504 81.3716 317.934 81.3716C312.81 81.3716 308.653 77.2205 308.653 72.0939C308.653 66.9674 312.806 62.8163 317.934 62.8163C318.504 62.8163 319 62.3823 319 61.8122V57.7399C319 57.1696 318.504 56.7358 317.934 56.7358C312.81 56.7358 308.653 52.5847 308.653 47.4582C308.653 42.3316 312.806 38.1805 317.934 38.1805C318.504 38.1805 319 37.7465 319 37.1764V33.9206C319 33.3503 318.504 32.9165 317.934 32.9165C312.81 32.9165 308.653 28.7654 308.653 23.6388C308.653 18.5123 312.806 14.3612 317.934 14.3612L317.857 14.3526Z" fill="#EEEEEC" stroke="black" stroke-width="2"/>
</g>
<path d="M45 24.5H275C283.56 24.5 290.5 31.4396 290.5 40V205C290.5 213.56 283.56 220.5 275 220.5H45C36.4396 220.5 29.5 213.56 29.5 205V40C29.5 31.4396 36.4396 24.5 45 24.5Z" fill="white" stroke="black"/>
<path d="M217.783 91.0119C217.783 83.2756 208.095 75.9439 193.241 71.3973C196.669 56.258 195.145 44.2131 188.432 40.3568C186.885 39.4523 185.076 39.0238 183.1 39.0238V44.3321C184.195 44.3321 185.076 44.5463 185.814 44.951C189.051 46.8077 190.456 53.8775 189.361 62.9707C189.099 65.2083 188.67 67.5649 188.147 69.9691C183.481 68.8265 178.387 67.9458 173.031 67.3745C169.818 62.9707 166.485 58.9716 163.129 55.4724C170.889 48.2598 178.173 44.3083 183.124 44.3083V39C176.578 39 168.008 43.6656 159.344 51.759C150.679 43.7132 142.11 39.0952 135.564 39.0952V44.4035C140.491 44.4035 147.799 48.3312 155.559 55.4962C152.226 58.9954 148.894 62.9707 145.728 67.3745C140.348 67.9458 135.254 68.8265 130.588 69.9929C130.041 67.6125 129.636 65.3035 129.351 63.0897C128.232 53.9966 129.612 46.9268 132.826 45.0462C133.54 44.6178 134.469 44.4273 135.564 44.4273V39.119C133.564 39.119 131.755 39.5475 130.184 40.452C123.495 44.3083 121.995 56.3294 125.447 71.4211C110.641 75.9915 101 83.2994 101 91.0119C101 98.7482 110.688 106.08 125.542 110.626C122.114 125.766 123.638 137.811 130.35 141.667C131.898 142.572 133.707 143 135.706 143C142.252 143 150.822 138.334 159.487 130.241C168.151 138.287 176.721 142.905 183.267 142.905C185.266 142.905 187.076 142.476 188.647 141.572C195.336 137.715 196.835 125.694 193.384 110.603C208.142 106.056 217.783 98.7244 217.783 91.0119ZM186.79 75.1346C185.909 78.2053 184.814 81.3712 183.576 84.5372C182.6 82.6329 181.577 80.7285 180.458 78.8242C179.363 76.9199 178.197 75.0632 177.03 73.2541C180.41 73.7539 183.672 74.3729 186.79 75.1346ZM175.888 100.486C174.031 103.699 172.127 106.746 170.151 109.579C166.604 109.889 163.01 110.055 159.391 110.055C155.797 110.055 152.203 109.889 148.68 109.603C146.704 106.77 144.776 103.747 142.919 100.557C141.11 97.439 139.467 94.2731 137.968 91.0833C139.444 87.8936 141.11 84.7038 142.895 81.5855C144.752 78.3719 146.656 75.325 148.632 72.4923C152.179 72.1829 155.773 72.0162 159.391 72.0162C162.986 72.0162 166.58 72.1829 170.103 72.4685C172.079 75.3012 174.007 78.3243 175.864 81.5141C177.673 84.6324 179.315 87.7983 180.815 90.9881C179.315 94.1778 177.673 97.3676 175.888 100.486ZM183.576 97.3914C184.862 100.581 185.957 103.771 186.861 106.865C183.743 107.627 180.458 108.27 177.054 108.77C178.22 106.937 179.387 105.056 180.482 103.128C181.577 101.224 182.6 99.2957 183.576 97.3914ZM159.439 122.79C157.225 120.505 155.011 117.958 152.821 115.173C154.964 115.268 157.154 115.34 159.368 115.34C161.605 115.34 163.819 115.292 165.985 115.173C163.843 117.958 161.629 120.505 159.439 122.79ZM141.729 108.77C138.349 108.27 135.087 107.651 131.969 106.889C132.85 103.818 133.945 100.653 135.183 97.4866C136.159 99.3909 137.182 101.295 138.301 103.2C139.42 105.104 140.562 106.961 141.729 108.77ZM159.32 59.2335C161.534 61.5187 163.748 64.0657 165.938 66.8508C163.795 66.7555 161.605 66.6841 159.391 66.6841C157.154 66.6841 154.94 66.7317 152.774 66.8508C154.916 64.0657 157.13 61.5187 159.32 59.2335ZM141.705 73.2541C140.539 75.087 139.372 76.9675 138.277 78.8956C137.182 80.8 136.159 82.7043 135.183 84.6086C133.897 81.4189 132.802 78.2291 131.898 75.1346C135.016 74.3967 138.301 73.7539 141.705 73.2541ZM120.162 103.057C111.736 99.4623 106.285 94.7491 106.285 91.0119C106.285 87.2747 111.736 82.5376 120.162 78.967C122.209 78.0863 124.447 77.3008 126.756 76.5628C128.113 81.2284 129.898 86.0845 132.112 91.0595C129.922 96.0108 128.16 100.843 126.827 105.485C124.471 104.747 122.233 103.938 120.162 103.057ZM132.969 137.073C129.732 135.216 128.327 128.146 129.422 119.053C129.684 116.816 130.112 114.459 130.636 112.055C135.302 113.197 140.396 114.078 145.752 114.649C148.965 119.053 152.298 123.052 155.654 126.551C147.894 133.764 140.61 137.715 135.659 137.715C134.588 137.692 133.683 137.477 132.969 137.073ZM189.432 118.934C190.551 128.027 189.17 135.097 185.957 136.978C185.243 137.406 184.314 137.596 183.219 137.596C178.292 137.596 170.984 133.669 163.224 126.504C166.556 123.005 169.889 119.029 173.055 114.626C178.435 114.054 183.529 113.173 188.194 112.007C188.742 114.411 189.17 116.72 189.432 118.934ZM198.597 103.057C196.55 103.938 194.312 104.723 192.003 105.461C190.646 100.795 188.861 95.9393 186.647 90.9643C188.837 86.013 190.599 81.1808 191.932 76.539C194.288 77.2769 196.526 78.0863 198.621 78.967C207.047 82.5615 212.498 87.2747 212.498 91.0119C212.474 94.7491 207.023 99.4862 198.597 103.057Z" fill="#61DAFB"/>
<path d="M159.368 101.89C165.376 101.89 170.246 97.0199 170.246 91.0119C170.246 85.0039 165.376 80.1334 159.368 80.1334C153.36 80.1334 148.489 85.0039 148.489 91.0119C148.489 97.0199 153.36 101.89 159.368 101.89Z" fill="#61DAFB"/>
<path d="M104.76 196V169.6H116C117.467 169.6 118.8 169.72 120 169.96C121.2 170.173 122.253 170.507 123.16 170.96C124.093 171.387 124.88 171.92 125.52 172.56C126.16 173.173 126.64 173.893 126.96 174.72C127.28 175.52 127.44 176.413 127.44 177.4C127.44 178.333 127.293 179.173 127 179.92C126.707 180.667 126.253 181.32 125.64 181.88C125.053 182.44 124.307 182.893 123.4 183.24C122.493 183.587 121.44 183.84 120.24 184V184.6C121.76 184.76 122.933 185.107 123.76 185.64C124.613 186.147 125.267 186.827 125.72 187.68C126.173 188.533 126.573 189.56 126.92 190.76L128.44 196H121.28L120.12 191.16C119.88 190.093 119.547 189.267 119.12 188.68C118.72 188.093 118.2 187.693 117.56 187.48C116.92 187.24 116.12 187.12 115.16 187.12H111.2V196H104.76ZM111.2 182.36H115.56C117.187 182.36 118.453 182.04 119.36 181.4C120.267 180.76 120.72 179.76 120.72 178.4C120.72 177.067 120.307 176.08 119.48 175.44C118.653 174.8 117.4 174.48 115.72 174.48H111.2V182.36ZM142.02 196.56C140.26 196.56 138.687 196.333 137.3 195.88C135.913 195.4 134.727 194.707 133.74 193.8C132.78 192.893 132.047 191.773 131.54 190.44C131.033 189.107 130.78 187.573 130.78 185.84C130.78 184.16 131.02 182.613 131.5 181.2C132.007 179.787 132.713 178.573 133.62 177.56C134.553 176.52 135.687 175.72 137.02 175.16C138.38 174.6 139.9 174.32 141.58 174.32C143.287 174.32 144.78 174.6 146.06 175.16C147.367 175.693 148.433 176.493 149.26 177.56C150.113 178.627 150.74 179.933 151.14 181.48C151.54 183 151.673 184.747 151.54 186.72L135.02 186.84V183.48L147.86 183.36L145.58 184.92C145.767 183.587 145.687 182.507 145.34 181.68C144.993 180.827 144.487 180.213 143.82 179.84C143.153 179.44 142.433 179.24 141.66 179.24C140.727 179.24 139.9 179.493 139.18 180C138.487 180.507 137.94 181.24 137.54 182.2C137.14 183.16 136.94 184.333 136.94 185.72C136.94 187.907 137.407 189.493 138.34 190.48C139.3 191.467 140.513 191.96 141.98 191.96C142.7 191.96 143.3 191.867 143.78 191.68C144.26 191.467 144.647 191.213 144.94 190.92C145.26 190.6 145.5 190.253 145.66 189.88C145.847 189.507 145.993 189.147 146.1 188.8L151.7 190C151.487 190.987 151.14 191.88 150.66 192.68C150.207 193.48 149.58 194.173 148.78 194.76C148.007 195.347 147.06 195.787 145.94 196.08C144.847 196.4 143.54 196.56 142.02 196.56ZM160.417 196.56C159.243 196.56 158.203 196.333 157.297 195.88C156.39 195.4 155.683 194.72 155.177 193.84C154.67 192.933 154.417 191.84 154.417 190.56C154.417 189.36 154.643 188.373 155.097 187.6C155.577 186.8 156.257 186.173 157.137 185.72C158.043 185.24 159.123 184.853 160.377 184.56C161.63 184.24 163.057 183.96 164.657 183.72C165.43 183.587 166.07 183.467 166.577 183.36C167.11 183.227 167.51 183.027 167.777 182.76C168.043 182.493 168.177 182.107 168.177 181.6C168.177 180.933 167.937 180.36 167.457 179.88C166.977 179.4 166.203 179.16 165.137 179.16C164.39 179.16 163.71 179.293 163.097 179.56C162.51 179.827 162.003 180.213 161.577 180.72C161.15 181.227 160.83 181.84 160.617 182.56L154.937 180.88C155.283 179.76 155.763 178.787 156.377 177.96C157.017 177.133 157.777 176.453 158.657 175.92C159.537 175.36 160.537 174.96 161.657 174.72C162.803 174.453 164.017 174.32 165.297 174.32C167.43 174.32 169.163 174.667 170.497 175.36C171.857 176.027 172.857 177.08 173.497 178.52C174.163 179.933 174.497 181.76 174.497 184V187.24C174.497 188.2 174.51 189.173 174.537 190.16C174.59 191.12 174.643 192.093 174.697 193.08C174.777 194.04 174.87 195.013 174.977 196H169.297C169.19 195.387 169.083 194.653 168.977 193.8C168.87 192.92 168.79 192.027 168.737 191.12H167.977C167.603 192.133 167.057 193.067 166.337 193.92C165.643 194.747 164.79 195.4 163.777 195.88C162.79 196.333 161.67 196.56 160.417 196.56ZM163.337 192C163.817 192 164.297 191.92 164.777 191.76C165.283 191.573 165.763 191.333 166.217 191.04C166.67 190.72 167.083 190.333 167.457 189.88C167.83 189.427 168.11 188.933 168.297 188.4L168.217 185.24L169.097 185.44C168.59 185.76 168.03 186.013 167.417 186.2C166.803 186.387 166.177 186.533 165.537 186.64C164.923 186.747 164.31 186.867 163.697 187C163.11 187.107 162.577 187.253 162.097 187.44C161.643 187.627 161.283 187.88 161.017 188.2C160.75 188.52 160.617 188.96 160.617 189.52C160.617 190.267 160.87 190.867 161.377 191.32C161.883 191.773 162.537 192 163.337 192ZM189.206 196.56C187.392 196.56 185.792 196.307 184.406 195.8C183.019 195.293 181.859 194.573 180.926 193.64C179.992 192.68 179.272 191.533 178.766 190.2C178.286 188.867 178.046 187.373 178.046 185.72C178.046 184.013 178.286 182.467 178.766 181.08C179.272 179.693 179.992 178.493 180.926 177.48C181.859 176.467 183.006 175.693 184.366 175.16C185.726 174.6 187.286 174.32 189.046 174.32C190.806 174.32 192.326 174.6 193.606 175.16C194.886 175.72 195.926 176.507 196.726 177.52C197.552 178.533 198.112 179.707 198.406 181.04L192.446 183.04C192.366 182.16 192.152 181.44 191.806 180.88C191.459 180.32 191.006 179.92 190.446 179.68C189.912 179.413 189.326 179.28 188.686 179.28C188.019 179.28 187.432 179.413 186.926 179.68C186.419 179.947 185.992 180.347 185.646 180.88C185.299 181.413 185.032 182.067 184.846 182.84C184.659 183.587 184.566 184.453 184.566 185.44C184.566 186.853 184.739 188.04 185.086 189C185.459 189.933 185.992 190.64 186.686 191.12C187.406 191.6 188.272 191.84 189.286 191.84C190.326 191.84 191.139 191.627 191.726 191.2C192.312 190.773 192.739 190.253 193.006 189.64C193.272 189 193.432 188.373 193.486 187.76L199.086 189C198.979 189.987 198.712 190.947 198.286 191.88C197.886 192.787 197.286 193.6 196.486 194.32C195.686 195.013 194.686 195.56 193.486 195.96C192.312 196.36 190.886 196.56 189.206 196.56ZM210.337 196.52C207.857 196.52 206.031 195.867 204.857 194.56C203.684 193.227 203.097 191.107 203.097 188.2V179.92H200.097L200.217 174.92H202.377C203.231 174.893 203.871 174.76 204.297 174.52C204.751 174.28 205.031 173.827 205.137 173.16L205.657 170.2H209.297V174.88H214.377V180.12H209.297V187.92C209.297 188.827 209.511 189.493 209.937 189.92C210.391 190.347 211.071 190.56 211.977 190.56C212.484 190.56 212.964 190.507 213.417 190.4C213.871 190.293 214.244 190.147 214.537 189.96V195.92C213.684 196.187 212.897 196.347 212.177 196.4C211.484 196.48 210.871 196.52 210.337 196.52Z" fill="black"/>
</g>
<defs>
<clipPath id="clip0_63_23">
<rect width="319" height="245" fill="white"/>
</clipPath>
</defs>
</svg>
