<svg width="319" height="245" viewBox="0 0 319 245" fill="none" xmlns="http://www.w3.org/2000/svg">
<g clip-path="url(#clip0_63_23)">
<mask id="mask0_63_23" style="mask-type:luminance" maskUnits="userSpaceOnUse" x="0" y="0" width="319" height="245">
<path d="M317.857 14.3526C318.427 14.3526 318.923 13.9186 318.923 13.3485V9.33203C318.923 8.76175 318.427 8.32795 317.857 8.32795C313.612 8.32795 310.035 5.47919 308.929 1.59306C308.676 0.706043 307.922 0 306.999 0H305.234C305.216 0 305.201 0.0144294 305.201 0.0322289C305.201 0.0500285 305.187 0.0644579 305.169 0.0644579H302.612C302.041 0.0644579 301.608 0.560079 301.608 1.13016C301.608 6.25241 297.455 10.4078 292.327 10.4078C287.199 10.4078 283.046 6.25671 283.046 1.13016C283.046 0.560331 282.612 0.0644579 282.043 0.0644579H278.552C277.982 0.0644579 277.548 0.56008 277.548 1.13016C277.548 6.25241 273.396 10.4078 268.268 10.4078C263.14 10.4078 258.987 6.25671 258.987 1.13016C258.987 0.56033 258.553 0.0644579 257.983 0.0644579H253.908C253.338 0.0644579 252.905 0.560079 252.905 1.13016C252.905 6.25241 248.752 10.4078 243.624 10.4078C238.496 10.4078 234.343 6.25671 234.343 1.13016C234.343 0.560331 233.909 0.0644579 233.339 0.0644579H229.797C229.227 0.0644579 228.794 0.56008 228.794 1.13016C228.794 6.25241 224.641 10.4078 219.513 10.4078C214.385 10.4078 210.232 6.25671 210.232 1.13016C210.232 0.560331 209.798 0.0644579 209.228 0.0644579H205.209C204.639 0.0644579 204.206 0.560079 204.206 1.13016C204.206 6.25241 200.053 10.4078 194.925 10.4078C189.797 10.4078 185.644 6.25671 185.644 1.13016C185.644 0.56033 185.21 0.0644579 184.64 0.0644579H181.042C180.472 0.0644579 180.039 0.560079 180.039 1.13016C180.039 6.25241 175.886 10.4078 170.758 10.4078C165.63 10.4078 161.477 6.25671 161.477 1.13016C161.477 0.560331 161.043 0.0644579 160.474 0.0644579H156.983C156.413 0.0644579 155.979 0.560079 155.979 1.13016C155.979 6.25241 151.827 10.4078 146.699 10.4078C141.57 10.4078 137.418 6.25671 137.418 1.13016C137.418 0.560331 136.984 0.0644579 136.414 0.0644579H132.339C131.769 0.0644579 131.335 0.560079 131.335 1.13016C131.335 6.25241 127.183 10.4078 122.055 10.4078C116.927 10.4078 112.774 6.25671 112.774 1.13016C112.774 0.560331 112.34 0.0644579 111.77 0.0644579H108.512C107.942 0.0644579 107.508 0.560079 107.508 1.13016C107.508 6.25241 103.356 10.4078 98.2276 10.4078C93.0993 10.4078 88.9469 6.25671 88.9469 1.13016C88.9469 0.560331 88.513 0.0644579 87.9432 0.0644579H83.9239C83.3539 0.0644579 82.9202 0.560079 82.9202 1.13016C82.9202 6.25241 78.7678 10.4078 73.6395 10.4078C68.5113 10.4078 64.3588 6.25671 64.3588 1.13016C64.3588 0.560331 63.9249 0.0644579 63.3551 0.0644579H59.7571C59.1871 0.0644579 58.7534 0.560079 58.7534 1.13016C58.7534 6.25241 54.601 10.4078 49.4727 10.4078C44.3445 10.4078 40.192 6.25671 40.192 1.13016C40.192 0.560331 39.7581 0.0644579 39.1883 0.0644579H35.6978C35.1277 0.0644579 34.6941 0.560079 34.6941 1.13016C34.6941 6.25241 30.5416 10.4078 25.4134 10.4078C20.2851 10.4078 16.2058 6.26101 16.2058 1.13446C16.2058 0.564628 15.7719 0.068755 15.202 0.068755H11.1269C10.5569 0.068755 10.1232 0.564376 10.1232 1.13446C10.1232 1.49542 10.1017 1.81771 10.0631 2.15289C9.06147 6.19225 5.41625 9.19169 1.06606 9.19169C0.496025 9.19169 0 9.62575 0 10.1958V14.2123C0 14.7825 0.495774 15.2163 1.06606 15.2163C6.19 15.2163 10.3468 19.3674 10.3468 24.494C10.3468 29.6205 6.1943 33.7716 1.06606 33.7716C0.496025 33.7716 0 34.2057 0 34.7757V38.0316C0 38.6019 0.495773 39.0357 1.06606 39.0357C6.19 39.0357 10.3468 43.1868 10.3468 48.3133C10.3468 53.4399 6.1943 57.5909 1.06606 57.5909C0.496025 57.5909 0 58.025 0 58.595V62.6674C0 63.2377 0.495774 63.6715 1.06606 63.6715C6.19 63.6715 10.3468 67.8225 10.3468 72.9491C10.3468 78.0756 6.1943 82.2267 1.06606 82.2267C0.496025 82.2267 0 82.6608 0 83.2308V86.7188C0 87.289 0.495774 87.7228 1.06606 87.7228C6.19 87.7228 10.3468 91.8739 10.3468 97.0005C10.3468 102.127 6.1943 106.278 1.06606 106.278C0.496025 106.278 0 106.712 0 107.282V110.878C0 111.448 0.495774 111.882 1.06606 111.882C6.19 111.882 10.3468 116.033 10.3468 121.159C10.3468 126.286 6.1943 130.437 1.06606 130.437C0.496025 130.437 0 130.871 0 131.441V135.457C0 136.028 0.495773 136.462 1.06606 136.462C6.19 136.462 10.3468 140.613 10.3468 145.739C10.3468 150.866 6.1943 155.017 1.06606 155.017C0.496024 155.017 0 155.451 0 156.021V159.56C0 160.131 0.495774 160.565 1.06606 160.565C6.19 160.565 10.3468 164.716 10.3468 169.842C10.3468 174.969 6.1943 179.12 1.06606 179.12C0.496025 179.12 0 179.554 0 180.124V184.196C0 184.766 0.495774 185.2 1.06606 185.2C6.19 185.2 10.3468 189.351 10.3468 194.478C10.3468 199.604 6.1943 203.756 1.06606 203.756C0.496025 203.756 0 204.19 0 204.76V208.248C0 208.818 0.495774 209.252 1.06606 209.252C6.19 209.252 10.3468 213.403 10.3468 218.529C10.3468 223.656 6.1943 227.807 1.06606 227.807C0.496024 227.807 0 228.241 0 228.811V233.119C0 233.309 0.165304 233.456 0.354464 233.442C0.426904 233.436 0.499533 233.432 0.571941 233.428C0.632834 233.425 0.683479 233.474 0.683479 233.535C0.683479 233.594 0.731556 233.641 0.790775 233.636C0.808132 233.635 0.82533 233.634 0.842528 233.634C5.96647 233.634 10.1232 237.785 10.1232 242.912C10.1232 243.24 10.1019 243.565 10.0689 243.883C10.0637 243.933 10.103 243.977 10.1537 243.977C10.2056 243.977 10.2454 244.023 10.2374 244.075C10.217 244.206 10.1946 244.335 10.1698 244.464C10.1171 244.737 10.321 245 10.5993 245H13.2141C13.4965 245 13.7255 244.771 13.7255 244.489C13.7255 244.206 13.9544 243.977 14.2368 243.977H15.2064C15.7764 243.977 16.2101 243.482 16.2101 242.912C16.2101 237.789 20.3625 233.634 25.4908 233.634C30.619 233.634 34.7715 237.785 34.7715 242.912C34.7715 243.481 35.2054 243.977 35.7752 243.977H39.2657C39.8358 243.977 40.2694 243.482 40.2694 242.912C40.2694 237.789 44.4219 233.634 49.5501 233.634C54.6783 233.634 58.8308 237.785 58.8308 242.912C58.8308 243.481 59.2647 243.977 59.8345 243.977H63.4325C64.0026 243.977 64.4362 243.482 64.4362 242.912C64.4362 237.789 68.5886 233.634 73.7169 233.634C78.8451 233.634 82.9976 237.785 82.9976 242.912C82.9976 243.481 83.4315 243.977 84.0013 243.977H88.0205C88.5906 243.977 89.0242 243.482 89.0242 242.912C89.0242 237.789 93.1767 233.634 98.3049 233.634C103.433 233.634 107.586 237.785 107.586 242.912C107.586 243.481 108.02 243.977 108.589 243.977H111.848C112.418 243.977 112.851 243.482 112.851 242.912C112.851 237.789 117.004 233.634 122.132 233.634C127.26 233.634 131.413 237.785 131.413 242.912C131.413 243.481 131.847 243.977 132.417 243.977H136.492C137.062 243.977 137.495 243.482 137.495 242.912C137.495 237.789 141.648 233.634 146.776 233.634C151.904 233.634 156.057 237.785 156.057 242.912C156.057 243.481 156.491 243.977 157.061 243.977H160.551C161.121 243.977 161.555 243.482 161.555 242.912C161.555 237.789 165.707 233.634 170.835 233.634C175.964 233.634 180.116 237.785 180.116 242.912C180.116 243.481 180.55 243.977 181.12 243.977H184.718C185.288 243.977 185.722 243.482 185.722 242.912C185.722 237.789 189.874 233.634 195.002 233.634C200.13 233.634 204.283 237.785 204.283 242.912C204.283 243.481 204.717 243.977 205.287 243.977H209.306C209.876 243.977 210.31 243.482 210.31 242.912C210.31 237.789 214.462 233.634 219.59 233.634C224.719 233.634 228.871 237.785 228.871 242.912C228.871 243.481 229.305 243.977 229.875 243.977H233.417C233.987 243.977 234.421 243.482 234.421 242.912C234.421 237.789 238.573 233.634 243.701 233.634C248.829 233.634 252.982 237.785 252.982 242.912C252.982 243.481 253.416 243.977 253.986 243.977H258.061C258.631 243.977 259.064 243.482 259.064 242.912C259.064 237.789 263.217 233.634 268.345 233.634C273.473 233.634 277.626 237.785 277.626 242.912C277.626 243.481 278.06 243.977 278.63 243.977H282.12C282.69 243.977 283.124 243.482 283.124 242.912C283.124 237.789 287.276 233.634 292.404 233.634C297.533 233.634 301.685 237.785 301.685 242.912C301.685 243.481 302.119 243.977 302.689 243.977H305.197C305.242 243.977 305.279 244.014 305.279 244.059C305.279 244.104 305.315 244.141 305.36 244.141H306.885C307.934 244.141 308.69 243.145 308.657 242.097C308.655 242.008 308.653 241.918 308.653 241.829C308.653 239.326 309.647 237.063 311.257 235.395C311.432 235.215 311.629 235.059 311.845 234.931C313.229 234.111 314.841 233.634 316.567 233.634C317.108 233.634 317.635 233.685 318.15 233.777C318.523 233.843 318.88 233.567 318.88 233.188V232.664C318.88 232.633 318.905 232.607 318.936 232.611C318.97 232.616 319 232.59 319 232.556V227.956C319 227.386 318.504 226.952 317.934 226.952C312.81 226.952 308.653 222.801 308.653 217.674C308.653 212.548 312.806 208.397 317.934 208.397C318.504 208.397 319 207.962 319 207.392V203.905C319 203.334 318.504 202.9 317.934 202.9C312.81 202.9 308.653 198.749 308.653 193.623C308.653 188.496 312.806 184.345 317.934 184.345C318.504 184.345 319 183.911 319 183.341V179.269C319 178.698 318.504 178.265 317.934 178.265C312.81 178.265 308.653 174.114 308.653 168.987C308.653 163.86 312.806 159.709 317.934 159.709C318.504 159.709 319 159.275 319 158.705V155.166C319 154.596 318.504 154.162 317.934 154.162C312.81 154.162 308.653 150.011 308.653 144.884C308.653 139.758 312.806 135.606 317.934 135.606C318.504 135.606 319 135.172 319 134.602V130.586C319 130.016 318.504 129.582 317.934 129.582C312.81 129.582 308.653 125.431 308.653 120.304C308.653 115.178 312.806 111.026 317.934 111.026C318.504 111.026 319 110.592 319 110.022V106.427C319 105.857 318.504 105.423 317.934 105.423C312.81 105.423 308.653 101.272 308.653 96.1453C308.653 91.0188 312.806 86.8677 317.934 86.8677C318.504 86.8677 319 86.4336 319 85.8636V82.3757C319 81.8054 318.504 81.3716 317.934 81.3716C312.81 81.3716 308.653 77.2205 308.653 72.0939C308.653 66.9674 312.806 62.8163 317.934 62.8163C318.504 62.8163 319 62.3823 319 61.8122V57.7399C319 57.1696 318.504 56.7358 317.934 56.7358C312.81 56.7358 308.653 52.5847 308.653 47.4582C308.653 42.3316 312.806 38.1805 317.934 38.1805C318.504 38.1805 319 37.7465 319 37.1764V33.9206C319 33.3503 318.504 32.9165 317.934 32.9165C312.81 32.9165 308.653 28.7654 308.653 23.6388C308.653 18.5123 312.806 14.3612 317.934 14.3612L317.857 14.3526Z" fill="white"/>
</mask>
<g mask="url(#mask0_63_23)">
<path d="M317.857 14.3526C318.427 14.3526 318.923 13.9186 318.923 13.3485V9.33203C318.923 8.76175 318.427 8.32795 317.857 8.32795C313.612 8.32795 310.035 5.47919 308.929 1.59306C308.676 0.706043 307.922 0 306.999 0H305.234C305.216 0 305.201 0.0144294 305.201 0.0322289C305.201 0.0500285 305.187 0.0644579 305.169 0.0644579H302.612C302.041 0.0644579 301.608 0.560079 301.608 1.13016C301.608 6.25241 297.455 10.4078 292.327 10.4078C287.199 10.4078 283.046 6.25671 283.046 1.13016C283.046 0.560331 282.612 0.0644579 282.043 0.0644579H278.552C277.982 0.0644579 277.548 0.56008 277.548 1.13016C277.548 6.25241 273.396 10.4078 268.268 10.4078C263.14 10.4078 258.987 6.25671 258.987 1.13016C258.987 0.56033 258.553 0.0644579 257.983 0.0644579H253.908C253.338 0.0644579 252.905 0.560079 252.905 1.13016C252.905 6.25241 248.752 10.4078 243.624 10.4078C238.496 10.4078 234.343 6.25671 234.343 1.13016C234.343 0.560331 233.909 0.0644579 233.339 0.0644579H229.797C229.227 0.0644579 228.794 0.56008 228.794 1.13016C228.794 6.25241 224.641 10.4078 219.513 10.4078C214.385 10.4078 210.232 6.25671 210.232 1.13016C210.232 0.560331 209.798 0.0644579 209.228 0.0644579H205.209C204.639 0.0644579 204.206 0.560079 204.206 1.13016C204.206 6.25241 200.053 10.4078 194.925 10.4078C189.797 10.4078 185.644 6.25671 185.644 1.13016C185.644 0.56033 185.21 0.0644579 184.64 0.0644579H181.042C180.472 0.0644579 180.039 0.560079 180.039 1.13016C180.039 6.25241 175.886 10.4078 170.758 10.4078C165.63 10.4078 161.477 6.25671 161.477 1.13016C161.477 0.560331 161.043 0.0644579 160.474 0.0644579H156.983C156.413 0.0644579 155.979 0.560079 155.979 1.13016C155.979 6.25241 151.827 10.4078 146.699 10.4078C141.57 10.4078 137.418 6.25671 137.418 1.13016C137.418 0.560331 136.984 0.0644579 136.414 0.0644579H132.339C131.769 0.0644579 131.335 0.560079 131.335 1.13016C131.335 6.25241 127.183 10.4078 122.055 10.4078C116.927 10.4078 112.774 6.25671 112.774 1.13016C112.774 0.560331 112.34 0.0644579 111.77 0.0644579H108.512C107.942 0.0644579 107.508 0.560079 107.508 1.13016C107.508 6.25241 103.356 10.4078 98.2276 10.4078C93.0993 10.4078 88.9469 6.25671 88.9469 1.13016C88.9469 0.560331 88.513 0.0644579 87.9432 0.0644579H83.9239C83.3539 0.0644579 82.9202 0.560079 82.9202 1.13016C82.9202 6.25241 78.7678 10.4078 73.6395 10.4078C68.5113 10.4078 64.3588 6.25671 64.3588 1.13016C64.3588 0.560331 63.9249 0.0644579 63.3551 0.0644579H59.7571C59.1871 0.0644579 58.7534 0.560079 58.7534 1.13016C58.7534 6.25241 54.601 10.4078 49.4727 10.4078C44.3445 10.4078 40.192 6.25671 40.192 1.13016C40.192 0.560331 39.7581 0.0644579 39.1883 0.0644579H35.6978C35.1277 0.0644579 34.6941 0.560079 34.6941 1.13016C34.6941 6.25241 30.5416 10.4078 25.4134 10.4078C20.2851 10.4078 16.2058 6.26101 16.2058 1.13446C16.2058 0.564628 15.7719 0.068755 15.202 0.068755H11.1269C10.5569 0.068755 10.1232 0.564376 10.1232 1.13446C10.1232 1.49542 10.1017 1.81771 10.0631 2.15289C9.06147 6.19225 5.41625 9.19169 1.06606 9.19169C0.496025 9.19169 0 9.62575 0 10.1958V14.2123C0 14.7825 0.495774 15.2163 1.06606 15.2163C6.19 15.2163 10.3468 19.3674 10.3468 24.494C10.3468 29.6205 6.1943 33.7716 1.06606 33.7716C0.496025 33.7716 0 34.2057 0 34.7757V38.0316C0 38.6019 0.495773 39.0357 1.06606 39.0357C6.19 39.0357 10.3468 43.1868 10.3468 48.3133C10.3468 53.4399 6.1943 57.5909 1.06606 57.5909C0.496025 57.5909 0 58.025 0 58.595V62.6674C0 63.2377 0.495774 63.6715 1.06606 63.6715C6.19 63.6715 10.3468 67.8225 10.3468 72.9491C10.3468 78.0756 6.1943 82.2267 1.06606 82.2267C0.496025 82.2267 0 82.6608 0 83.2308V86.7188C0 87.289 0.495774 87.7228 1.06606 87.7228C6.19 87.7228 10.3468 91.8739 10.3468 97.0005C10.3468 102.127 6.1943 106.278 1.06606 106.278C0.496025 106.278 0 106.712 0 107.282V110.878C0 111.448 0.495774 111.882 1.06606 111.882C6.19 111.882 10.3468 116.033 10.3468 121.159C10.3468 126.286 6.1943 130.437 1.06606 130.437C0.496025 130.437 0 130.871 0 131.441V135.457C0 136.028 0.495773 136.462 1.06606 136.462C6.19 136.462 10.3468 140.613 10.3468 145.739C10.3468 150.866 6.1943 155.017 1.06606 155.017C0.496024 155.017 0 155.451 0 156.021V159.56C0 160.131 0.495774 160.565 1.06606 160.565C6.19 160.565 10.3468 164.716 10.3468 169.842C10.3468 174.969 6.1943 179.12 1.06606 179.12C0.496025 179.12 0 179.554 0 180.124V184.196C0 184.766 0.495774 185.2 1.06606 185.2C6.19 185.2 10.3468 189.351 10.3468 194.478C10.3468 199.604 6.1943 203.756 1.06606 203.756C0.496025 203.756 0 204.19 0 204.76V208.248C0 208.818 0.495774 209.252 1.06606 209.252C6.19 209.252 10.3468 213.403 10.3468 218.529C10.3468 223.656 6.1943 227.807 1.06606 227.807C0.496024 227.807 0 228.241 0 228.811V233.119C0 233.309 0.165304 233.456 0.354464 233.442C0.426904 233.436 0.499533 233.432 0.571941 233.428C0.632834 233.425 0.683479 233.474 0.683479 233.535C0.683479 233.594 0.731556 233.641 0.790775 233.636C0.808132 233.635 0.82533 233.634 0.842528 233.634C5.96647 233.634 10.1232 237.785 10.1232 242.912C10.1232 243.24 10.1019 243.565 10.0689 243.883C10.0637 243.933 10.103 243.977 10.1537 243.977C10.2056 243.977 10.2454 244.023 10.2374 244.075C10.217 244.206 10.1946 244.335 10.1698 244.464C10.1171 244.737 10.321 245 10.5993 245H13.2141C13.4965 245 13.7255 244.771 13.7255 244.489C13.7255 244.206 13.9544 243.977 14.2368 243.977H15.2064C15.7764 243.977 16.2101 243.482 16.2101 242.912C16.2101 237.789 20.3625 233.634 25.4908 233.634C30.619 233.634 34.7715 237.785 34.7715 242.912C34.7715 243.481 35.2054 243.977 35.7752 243.977H39.2657C39.8358 243.977 40.2694 243.482 40.2694 242.912C40.2694 237.789 44.4219 233.634 49.5501 233.634C54.6783 233.634 58.8308 237.785 58.8308 242.912C58.8308 243.481 59.2647 243.977 59.8345 243.977H63.4325C64.0026 243.977 64.4362 243.482 64.4362 242.912C64.4362 237.789 68.5886 233.634 73.7169 233.634C78.8451 233.634 82.9976 237.785 82.9976 242.912C82.9976 243.481 83.4315 243.977 84.0013 243.977H88.0205C88.5906 243.977 89.0242 243.482 89.0242 242.912C89.0242 237.789 93.1767 233.634 98.3049 233.634C103.433 233.634 107.586 237.785 107.586 242.912C107.586 243.481 108.02 243.977 108.589 243.977H111.848C112.418 243.977 112.851 243.482 112.851 242.912C112.851 237.789 117.004 233.634 122.132 233.634C127.26 233.634 131.413 237.785 131.413 242.912C131.413 243.481 131.847 243.977 132.417 243.977H136.492C137.062 243.977 137.495 243.482 137.495 242.912C137.495 237.789 141.648 233.634 146.776 233.634C151.904 233.634 156.057 237.785 156.057 242.912C156.057 243.481 156.491 243.977 157.061 243.977H160.551C161.121 243.977 161.555 243.482 161.555 242.912C161.555 237.789 165.707 233.634 170.835 233.634C175.964 233.634 180.116 237.785 180.116 242.912C180.116 243.481 180.55 243.977 181.12 243.977H184.718C185.288 243.977 185.722 243.482 185.722 242.912C185.722 237.789 189.874 233.634 195.002 233.634C200.13 233.634 204.283 237.785 204.283 242.912C204.283 243.481 204.717 243.977 205.287 243.977H209.306C209.876 243.977 210.31 243.482 210.31 242.912C210.31 237.789 214.462 233.634 219.59 233.634C224.719 233.634 228.871 237.785 228.871 242.912C228.871 243.481 229.305 243.977 229.875 243.977H233.417C233.987 243.977 234.421 243.482 234.421 242.912C234.421 237.789 238.573 233.634 243.701 233.634C248.829 233.634 252.982 237.785 252.982 242.912C252.982 243.481 253.416 243.977 253.986 243.977H258.061C258.631 243.977 259.064 243.482 259.064 242.912C259.064 237.789 263.217 233.634 268.345 233.634C273.473 233.634 277.626 237.785 277.626 242.912C277.626 243.481 278.06 243.977 278.63 243.977H282.12C282.69 243.977 283.124 243.482 283.124 242.912C283.124 237.789 287.276 233.634 292.404 233.634C297.533 233.634 301.685 237.785 301.685 242.912C301.685 243.481 302.119 243.977 302.689 243.977H305.197C305.242 243.977 305.279 244.014 305.279 244.059C305.279 244.104 305.315 244.141 305.36 244.141H306.885C307.934 244.141 308.69 243.145 308.657 242.097C308.655 242.008 308.653 241.918 308.653 241.829C308.653 239.326 309.647 237.063 311.257 235.395C311.432 235.215 311.629 235.059 311.845 234.931C313.229 234.111 314.841 233.634 316.567 233.634C317.108 233.634 317.635 233.685 318.15 233.777C318.523 233.843 318.88 233.567 318.88 233.188V232.664C318.88 232.633 318.905 232.607 318.936 232.611C318.97 232.616 319 232.59 319 232.556V227.956C319 227.386 318.504 226.952 317.934 226.952C312.81 226.952 308.653 222.801 308.653 217.674C308.653 212.548 312.806 208.397 317.934 208.397C318.504 208.397 319 207.962 319 207.392V203.905C319 203.334 318.504 202.9 317.934 202.9C312.81 202.9 308.653 198.749 308.653 193.623C308.653 188.496 312.806 184.345 317.934 184.345C318.504 184.345 319 183.911 319 183.341V179.269C319 178.698 318.504 178.265 317.934 178.265C312.81 178.265 308.653 174.114 308.653 168.987C308.653 163.86 312.806 159.709 317.934 159.709C318.504 159.709 319 159.275 319 158.705V155.166C319 154.596 318.504 154.162 317.934 154.162C312.81 154.162 308.653 150.011 308.653 144.884C308.653 139.758 312.806 135.606 317.934 135.606C318.504 135.606 319 135.172 319 134.602V130.586C319 130.016 318.504 129.582 317.934 129.582C312.81 129.582 308.653 125.431 308.653 120.304C308.653 115.178 312.806 111.026 317.934 111.026C318.504 111.026 319 110.592 319 110.022V106.427C319 105.857 318.504 105.423 317.934 105.423C312.81 105.423 308.653 101.272 308.653 96.1453C308.653 91.0188 312.806 86.8677 317.934 86.8677C318.504 86.8677 319 86.4336 319 85.8636V82.3757C319 81.8054 318.504 81.3716 317.934 81.3716C312.81 81.3716 308.653 77.2205 308.653 72.0939C308.653 66.9674 312.806 62.8163 317.934 62.8163C318.504 62.8163 319 62.3823 319 61.8122V57.7399C319 57.1696 318.504 56.7358 317.934 56.7358C312.81 56.7358 308.653 52.5847 308.653 47.4582C308.653 42.3316 312.806 38.1805 317.934 38.1805C318.504 38.1805 319 37.7465 319 37.1764V33.9206C319 33.3503 318.504 32.9165 317.934 32.9165C312.81 32.9165 308.653 28.7654 308.653 23.6388C308.653 18.5123 312.806 14.3612 317.934 14.3612L317.857 14.3526Z" fill="#EEEEEC" stroke="black" stroke-width="2"/>
</g>
<path d="M45 24.5H275C283.56 24.5 290.5 31.4396 290.5 40V205C290.5 213.56 283.56 220.5 275 220.5H45C36.4396 220.5 29.5 213.56 29.5 205V40L29.5049 39.5996C29.7172 31.2242 36.5735 24.5 45 24.5Z" fill="white" stroke="black"/>
<path d="M217.783 95.0119C217.783 87.2756 208.095 79.9439 193.241 75.3973C196.669 60.258 195.145 48.2131 188.432 44.3568C186.885 43.4523 185.076 43.0238 183.1 43.0238V48.3321C184.195 48.3321 185.076 48.5463 185.814 48.951C189.051 50.8077 190.456 57.8775 189.361 66.9707C189.099 69.2083 188.67 71.5649 188.147 73.9691C183.481 72.8265 178.387 71.9458 173.031 71.3745C169.818 66.9707 166.485 62.9716 163.129 59.4724C170.889 52.2598 178.173 48.3083 183.124 48.3083V43C176.578 43 168.008 47.6656 159.344 55.759C150.679 47.7132 142.11 43.0952 135.564 43.0952V48.4035C140.491 48.4035 147.799 52.3312 155.559 59.4962C152.226 62.9954 148.894 66.9707 145.728 71.3745C140.348 71.9458 135.254 72.8265 130.588 73.9929C130.041 71.6125 129.636 69.3035 129.351 67.0897C128.232 57.9966 129.612 50.9268 132.826 49.0462C133.54 48.6178 134.469 48.4273 135.564 48.4273V43.119C133.564 43.119 131.755 43.5475 130.184 44.452C123.495 48.3083 121.995 60.3294 125.447 75.4211C110.641 79.9915 101 87.2994 101 95.0119C101 102.748 110.688 110.08 125.542 114.626C122.114 129.766 123.638 141.811 130.35 145.667C131.898 146.572 133.707 147 135.706 147C142.252 147 150.822 142.334 159.487 134.241C168.151 142.287 176.721 146.905 183.267 146.905C185.266 146.905 187.076 146.476 188.647 145.572C195.336 141.715 196.835 129.694 193.384 114.603C208.142 110.056 217.783 102.724 217.783 95.0119ZM186.79 79.1346C185.909 82.2053 184.814 85.3712 183.576 88.5372C182.6 86.6329 181.577 84.7285 180.458 82.8242C179.363 80.9199 178.197 79.0632 177.03 77.2541C180.41 77.7539 183.672 78.3729 186.79 79.1346ZM175.888 104.486C174.031 107.699 172.127 110.746 170.151 113.579C166.604 113.889 163.01 114.055 159.391 114.055C155.797 114.055 152.203 113.889 148.68 113.603C146.704 110.77 144.776 107.747 142.919 104.557C141.11 101.439 139.467 98.2731 137.968 95.0833C139.444 91.8936 141.11 88.7038 142.895 85.5855C144.752 82.3719 146.656 79.325 148.632 76.4923C152.179 76.1829 155.773 76.0162 159.391 76.0162C162.986 76.0162 166.58 76.1829 170.103 76.4685C172.079 79.3012 174.007 82.3243 175.864 85.5141C177.673 88.6324 179.315 91.7983 180.815 94.9881C179.315 98.1778 177.673 101.368 175.888 104.486ZM183.576 101.391C184.862 104.581 185.957 107.771 186.861 110.865C183.743 111.627 180.458 112.27 177.054 112.77C178.22 110.937 179.387 109.056 180.482 107.128C181.577 105.224 182.6 103.296 183.576 101.391ZM159.439 126.79C157.225 124.505 155.011 121.958 152.821 119.173C154.964 119.268 157.154 119.34 159.368 119.34C161.605 119.34 163.819 119.292 165.985 119.173C163.843 121.958 161.629 124.505 159.439 126.79ZM141.729 112.77C138.349 112.27 135.087 111.651 131.969 110.889C132.85 107.818 133.945 104.653 135.183 101.487C136.159 103.391 137.182 105.295 138.301 107.2C139.42 109.104 140.562 110.961 141.729 112.77ZM159.32 63.2335C161.534 65.5187 163.748 68.0657 165.938 70.8508C163.795 70.7555 161.605 70.6841 159.391 70.6841C157.154 70.6841 154.94 70.7317 152.774 70.8508C154.916 68.0657 157.13 65.5187 159.32 63.2335ZM141.705 77.2541C140.539 79.087 139.372 80.9675 138.277 82.8956C137.182 84.8 136.159 86.7043 135.183 88.6086C133.897 85.4189 132.802 82.2291 131.898 79.1346C135.016 78.3967 138.301 77.7539 141.705 77.2541ZM120.162 107.057C111.736 103.462 106.285 98.7491 106.285 95.0119C106.285 91.2747 111.736 86.5376 120.162 82.967C122.209 82.0863 124.447 81.3008 126.756 80.5628C128.113 85.2284 129.898 90.0845 132.112 95.0595C129.922 100.011 128.16 104.843 126.827 109.485C124.471 108.747 122.233 107.938 120.162 107.057ZM132.969 141.073C129.732 139.216 128.327 132.146 129.422 123.053C129.684 120.816 130.112 118.459 130.636 116.055C135.302 117.197 140.396 118.078 145.752 118.649C148.965 123.053 152.298 127.052 155.654 130.551C147.894 137.764 140.61 141.715 135.659 141.715C134.588 141.692 133.683 141.477 132.969 141.073ZM189.432 122.934C190.551 132.027 189.17 139.097 185.957 140.978C185.243 141.406 184.314 141.596 183.219 141.596C178.292 141.596 170.984 137.669 163.224 130.504C166.556 127.005 169.889 123.029 173.055 118.626C178.435 118.054 183.529 117.173 188.194 116.007C188.742 118.411 189.17 120.72 189.432 122.934ZM198.597 107.057C196.55 107.938 194.312 108.723 192.003 109.461C190.646 104.795 188.861 99.9393 186.647 94.9643C188.837 90.013 190.599 85.1808 191.932 80.539C194.288 81.2769 196.526 82.0863 198.621 82.967C207.047 86.5615 212.498 91.2747 212.498 95.0119C212.474 98.7491 207.023 103.486 198.597 107.057Z" fill="#61DAFB"/>
<path d="M159.368 105.89C165.376 105.89 170.246 101.02 170.246 95.0119C170.246 89.0039 165.376 84.1334 159.368 84.1334C153.36 84.1334 148.489 89.0039 148.489 95.0119C148.489 101.02 153.36 105.89 159.368 105.89Z" fill="#61DAFB"/>
<path d="M104.76 192V165.6H116C117.467 165.6 118.8 165.72 120 165.96C121.2 166.173 122.253 166.507 123.16 166.96C124.093 167.387 124.88 167.92 125.52 168.56C126.16 169.173 126.64 169.893 126.96 170.72C127.28 171.52 127.44 172.413 127.44 173.4C127.44 174.333 127.293 175.173 127 175.92C126.707 176.667 126.253 177.32 125.64 177.88C125.053 178.44 124.307 178.893 123.4 179.24C122.493 179.587 121.44 179.84 120.24 180V180.6C121.76 180.76 122.933 181.107 123.76 181.64C124.613 182.147 125.267 182.827 125.72 183.68C126.173 184.533 126.573 185.56 126.92 186.76L128.44 192H121.28L120.12 187.16C119.88 186.093 119.547 185.267 119.12 184.68C118.72 184.093 118.2 183.693 117.56 183.48C116.92 183.24 116.12 183.12 115.16 183.12H111.2V192H104.76ZM111.2 178.36H115.56C117.187 178.36 118.453 178.04 119.36 177.4C120.267 176.76 120.72 175.76 120.72 174.4C120.72 173.067 120.307 172.08 119.48 171.44C118.653 170.8 117.4 170.48 115.72 170.48H111.2V178.36ZM142.02 192.56C140.26 192.56 138.687 192.333 137.3 191.88C135.913 191.4 134.727 190.707 133.74 189.8C132.78 188.893 132.047 187.773 131.54 186.44C131.033 185.107 130.78 183.573 130.78 181.84C130.78 180.16 131.02 178.613 131.5 177.2C132.007 175.787 132.713 174.573 133.62 173.56C134.553 172.52 135.687 171.72 137.02 171.16C138.38 170.6 139.9 170.32 141.58 170.32C143.287 170.32 144.78 170.6 146.06 171.16C147.367 171.693 148.433 172.493 149.26 173.56C150.113 174.627 150.74 175.933 151.14 177.48C151.54 179 151.673 180.747 151.54 182.72L135.02 182.84V179.48L147.86 179.36L145.58 180.92C145.767 179.587 145.687 178.507 145.34 177.68C144.993 176.827 144.487 176.213 143.82 175.84C143.153 175.44 142.433 175.24 141.66 175.24C140.727 175.24 139.9 175.493 139.18 176C138.487 176.507 137.94 177.24 137.54 178.2C137.14 179.16 136.94 180.333 136.94 181.72C136.94 183.907 137.407 185.493 138.34 186.48C139.3 187.467 140.513 187.96 141.98 187.96C142.7 187.96 143.3 187.867 143.78 187.68C144.26 187.467 144.647 187.213 144.94 186.92C145.26 186.6 145.5 186.253 145.66 185.88C145.847 185.507 145.993 185.147 146.1 184.8L151.7 186C151.487 186.987 151.14 187.88 150.66 188.68C150.207 189.48 149.58 190.173 148.78 190.76C148.007 191.347 147.06 191.787 145.94 192.08C144.847 192.4 143.54 192.56 142.02 192.56ZM160.417 192.56C159.243 192.56 158.203 192.333 157.297 191.88C156.39 191.4 155.683 190.72 155.177 189.84C154.67 188.933 154.417 187.84 154.417 186.56C154.417 185.36 154.643 184.373 155.097 183.6C155.577 182.8 156.257 182.173 157.137 181.72C158.043 181.24 159.123 180.853 160.377 180.56C161.63 180.24 163.057 179.96 164.657 179.72C165.43 179.587 166.07 179.467 166.577 179.36C167.11 179.227 167.51 179.027 167.777 178.76C168.043 178.493 168.177 178.107 168.177 177.6C168.177 176.933 167.937 176.36 167.457 175.88C166.977 175.4 166.203 175.16 165.137 175.16C164.39 175.16 163.71 175.293 163.097 175.56C162.51 175.827 162.003 176.213 161.577 176.72C161.15 177.227 160.83 177.84 160.617 178.56L154.937 176.88C155.283 175.76 155.763 174.787 156.377 173.96C157.017 173.133 157.777 172.453 158.657 171.92C159.537 171.36 160.537 170.96 161.657 170.72C162.803 170.453 164.017 170.32 165.297 170.32C167.43 170.32 169.163 170.667 170.497 171.36C171.857 172.027 172.857 173.08 173.497 174.52C174.163 175.933 174.497 177.76 174.497 180V183.24C174.497 184.2 174.51 185.173 174.537 186.16C174.59 187.12 174.643 188.093 174.697 189.08C174.777 190.04 174.87 191.013 174.977 192H169.297C169.19 191.387 169.083 190.653 168.977 189.8C168.87 188.92 168.79 188.027 168.737 187.12H167.977C167.603 188.133 167.057 189.067 166.337 189.92C165.643 190.747 164.79 191.4 163.777 191.88C162.79 192.333 161.67 192.56 160.417 192.56ZM163.337 188C163.817 188 164.297 187.92 164.777 187.76C165.283 187.573 165.763 187.333 166.217 187.04C166.67 186.72 167.083 186.333 167.457 185.88C167.83 185.427 168.11 184.933 168.297 184.4L168.217 181.24L169.097 181.44C168.59 181.76 168.03 182.013 167.417 182.2C166.803 182.387 166.177 182.533 165.537 182.64C164.923 182.747 164.31 182.867 163.697 183C163.11 183.107 162.577 183.253 162.097 183.44C161.643 183.627 161.283 183.88 161.017 184.2C160.75 184.52 160.617 184.96 160.617 185.52C160.617 186.267 160.87 186.867 161.377 187.32C161.883 187.773 162.537 188 163.337 188ZM189.206 192.56C187.392 192.56 185.792 192.307 184.406 191.8C183.019 191.293 181.859 190.573 180.926 189.64C179.992 188.68 179.272 187.533 178.766 186.2C178.286 184.867 178.046 183.373 178.046 181.72C178.046 180.013 178.286 178.467 178.766 177.08C179.272 175.693 179.992 174.493 180.926 173.48C181.859 172.467 183.006 171.693 184.366 171.16C185.726 170.6 187.286 170.32 189.046 170.32C190.806 170.32 192.326 170.6 193.606 171.16C194.886 171.72 195.926 172.507 196.726 173.52C197.552 174.533 198.112 175.707 198.406 177.04L192.446 179.04C192.366 178.16 192.152 177.44 191.806 176.88C191.459 176.32 191.006 175.92 190.446 175.68C189.912 175.413 189.326 175.28 188.686 175.28C188.019 175.28 187.432 175.413 186.926 175.68C186.419 175.947 185.992 176.347 185.646 176.88C185.299 177.413 185.032 178.067 184.846 178.84C184.659 179.587 184.566 180.453 184.566 181.44C184.566 182.853 184.739 184.04 185.086 185C185.459 185.933 185.992 186.64 186.686 187.12C187.406 187.6 188.272 187.84 189.286 187.84C190.326 187.84 191.139 187.627 191.726 187.2C192.312 186.773 192.739 186.253 193.006 185.64C193.272 185 193.432 184.373 193.486 183.76L199.086 185C198.979 185.987 198.712 186.947 198.286 187.88C197.886 188.787 197.286 189.6 196.486 190.32C195.686 191.013 194.686 191.56 193.486 191.96C192.312 192.36 190.886 192.56 189.206 192.56ZM210.337 192.52C207.857 192.52 206.031 191.867 204.857 190.56C203.684 189.227 203.097 187.107 203.097 184.2V175.92H200.097L200.217 170.92H202.377C203.231 170.893 203.871 170.76 204.297 170.52C204.751 170.28 205.031 169.827 205.137 169.16L205.657 166.2H209.297V170.88H214.377V176.12H209.297V183.92C209.297 184.827 209.511 185.493 209.937 185.92C210.391 186.347 211.071 186.56 211.977 186.56C212.484 186.56 212.964 186.507 213.417 186.4C213.871 186.293 214.244 186.147 214.537 185.96V191.92C213.684 192.187 212.897 192.347 212.177 192.4C211.484 192.48 210.871 192.52 210.337 192.52Z" fill="black"/>
</g>
<defs>
<clipPath id="clip0_63_23">
<rect width="319" height="245" fill="white"/>
</clipPath>
</defs>
</svg>
