<svg width="262" height="197" viewBox="0 0 262 197" fill="none" xmlns="http://www.w3.org/2000/svg">
<path d="M0 16C0 7.16345 7.16344 0 16 0H246C254.837 0 262 7.16344 262 16V181C262 189.837 254.837 197 246 197H16C7.16345 197 0 189.837 0 181V16Z" fill="#14042D"/>
<path d="M16 0.5H246C254.56 0.5 261.5 7.43959 261.5 16V181C261.5 189.56 254.56 196.5 246 196.5H16C7.43959 196.5 0.5 189.56 0.5 181V16C0.500003 7.43959 7.43959 0.5 16 0.5Z" stroke="#0000FF" stroke-opacity="0.7"/>
<path d="M188.783 67.0119C188.783 59.2756 179.095 51.9439 164.241 47.3973C167.669 32.258 166.145 20.2131 159.432 16.3568C157.885 15.4523 156.076 15.0238 154.1 15.0238V20.3321C155.195 20.3321 156.076 20.5463 156.814 20.951C160.051 22.8077 161.456 29.8775 160.361 38.9707C160.099 41.2083 159.67 43.5649 159.147 45.9691C154.481 44.8265 149.387 43.9458 144.031 43.3745C140.818 38.9707 137.485 34.9716 134.129 31.4724C141.889 24.2598 149.173 20.3083 154.124 20.3083V15C147.578 15 139.008 19.6656 130.344 27.759C121.679 19.7132 113.11 15.0952 106.564 15.0952V20.4035C111.491 20.4035 118.799 24.3312 126.559 31.4962C123.226 34.9954 119.894 38.9707 116.728 43.3745C111.348 43.9458 106.254 44.8265 101.588 45.9929C101.041 43.6125 100.636 41.3035 100.351 39.0897C99.2319 29.9966 100.612 22.9268 103.826 21.0462C104.54 20.6178 105.469 20.4273 106.564 20.4273V15.119C104.564 15.119 102.755 15.5475 101.184 16.452C94.4949 20.3083 92.9952 32.3294 96.4468 47.4211C81.6406 51.9915 72 59.2994 72 67.0119C72 74.7482 81.6883 82.0799 96.542 86.6265C93.1142 101.766 94.6377 113.811 101.35 117.667C102.898 118.572 104.707 119 106.706 119C113.252 119 121.822 114.334 130.487 106.241C139.151 114.287 147.721 118.905 154.267 118.905C156.266 118.905 158.076 118.476 159.647 117.572C166.336 113.715 167.835 101.694 164.384 86.6026C179.142 82.0561 188.783 74.7244 188.783 67.0119ZM157.79 51.1346C156.909 54.2053 155.814 57.3712 154.576 60.5372C153.6 58.6329 152.577 56.7285 151.458 54.8242C150.363 52.9199 149.197 51.0632 148.03 49.2541C151.41 49.7539 154.672 50.3729 157.79 51.1346ZM146.888 76.4859C145.031 79.6995 143.127 82.7464 141.151 85.5791C137.604 85.8885 134.01 86.0552 130.391 86.0552C126.797 86.0552 123.203 85.8885 119.68 85.6029C117.704 82.7702 115.776 79.7471 113.919 76.5573C112.11 73.439 110.467 70.2731 108.968 67.0833C110.444 63.8936 112.11 60.7038 113.895 57.5855C115.752 54.3719 117.656 51.325 119.632 48.4923C123.179 48.1829 126.773 48.0162 130.391 48.0162C133.986 48.0162 137.58 48.1829 141.103 48.4685C143.079 51.3012 145.007 54.3243 146.864 57.5141C148.673 60.6324 150.315 63.7983 151.815 66.9881C150.315 70.1778 148.673 73.3676 146.888 76.4859ZM154.576 73.3914C155.862 76.5811 156.957 79.7709 157.861 82.8654C154.743 83.6271 151.458 84.2699 148.054 84.7697C149.22 82.9368 150.387 81.0563 151.482 79.1282C152.577 77.2238 153.6 75.2957 154.576 73.3914ZM130.439 98.7903C128.225 96.5051 126.011 93.9581 123.821 91.173C125.964 91.2682 128.154 91.3397 130.368 91.3397C132.605 91.3397 134.819 91.2921 136.985 91.173C134.843 93.9581 132.629 96.5051 130.439 98.7903ZM112.729 84.7697C109.349 84.2699 106.087 83.6509 102.969 82.8892C103.85 79.8185 104.945 76.6526 106.183 73.4866C107.159 75.3909 108.182 77.2953 109.301 79.1996C110.42 81.1039 111.562 82.9606 112.729 84.7697ZM130.32 35.2335C132.534 37.5187 134.748 40.0657 136.938 42.8508C134.795 42.7555 132.605 42.6841 130.391 42.6841C128.154 42.6841 125.94 42.7317 123.774 42.8508C125.916 40.0657 128.13 37.5187 130.32 35.2335ZM112.705 49.2541C111.539 51.087 110.372 52.9675 109.277 54.8956C108.182 56.8 107.159 58.7043 106.183 60.6086C104.897 57.4189 103.802 54.2291 102.898 51.1346C106.016 50.3967 109.301 49.7539 112.705 49.2541ZM91.1623 79.0568C82.7356 75.4623 77.2845 70.7491 77.2845 67.0119C77.2845 63.2747 82.7356 58.5376 91.1623 54.967C93.2094 54.0863 95.447 53.3008 97.756 52.5628C99.1128 57.2284 100.898 62.0845 103.112 67.0595C100.922 72.0108 99.1605 76.843 97.8274 81.4848C95.4708 80.7468 93.2332 79.9375 91.1623 79.0568ZM103.969 113.073C100.732 111.216 99.3271 104.146 100.422 95.0531C100.684 92.8155 101.112 90.4589 101.636 88.0547C106.302 89.1973 111.396 90.078 116.752 90.6493C119.965 95.0531 123.298 99.0522 126.654 102.551C118.894 109.764 111.61 113.715 106.659 113.715C105.588 113.692 104.683 113.477 103.969 113.073ZM160.432 94.9341C161.551 104.027 160.17 111.097 156.957 112.978C156.243 113.406 155.314 113.596 154.219 113.596C149.292 113.596 141.984 109.669 134.224 102.504C137.556 99.0046 140.889 95.0293 144.055 90.6255C149.435 90.0542 154.529 89.1735 159.194 88.0071C159.742 90.4113 160.17 92.7203 160.432 94.9341ZM169.597 79.0568C167.55 79.9375 165.312 80.723 163.003 81.461C161.646 76.7954 159.861 71.9393 157.647 66.9643C159.837 62.013 161.599 57.1808 162.932 52.539C165.288 53.2769 167.526 54.0863 169.621 54.967C178.047 58.5615 183.498 63.2747 183.498 67.0119C183.474 70.7491 178.023 75.4862 169.597 79.0568Z" fill="#61DAFB"/>
<path d="M130.368 77.8903C136.376 77.8903 141.246 73.0199 141.246 67.0119C141.246 61.0039 136.376 56.1334 130.368 56.1334C124.36 56.1334 119.489 61.0039 119.489 67.0119C119.489 73.0199 124.36 77.8903 130.368 77.8903Z" fill="#61DAFB"/>
<path d="M75.76 172V145.6H87C88.4667 145.6 89.8 145.72 91 145.96C92.2 146.173 93.2533 146.507 94.16 146.96C95.0933 147.387 95.88 147.92 96.52 148.56C97.16 149.173 97.64 149.893 97.96 150.72C98.28 151.52 98.44 152.413 98.44 153.4C98.44 154.333 98.2933 155.173 98 155.92C97.7067 156.667 97.2533 157.32 96.64 157.88C96.0533 158.44 95.3067 158.893 94.4 159.24C93.4933 159.587 92.44 159.84 91.24 160V160.6C92.76 160.76 93.9333 161.107 94.76 161.64C95.6133 162.147 96.2667 162.827 96.72 163.68C97.1733 164.533 97.5733 165.56 97.92 166.76L99.44 172H92.28L91.12 167.16C90.88 166.093 90.5467 165.267 90.12 164.68C89.72 164.093 89.2 163.693 88.56 163.48C87.92 163.24 87.12 163.12 86.16 163.12H82.2V172H75.76ZM82.2 158.36H86.56C88.1867 158.36 89.4533 158.04 90.36 157.4C91.2667 156.76 91.72 155.76 91.72 154.4C91.72 153.067 91.3067 152.08 90.48 151.44C89.6533 150.8 88.4 150.48 86.72 150.48H82.2V158.36ZM113.02 172.56C111.26 172.56 109.687 172.333 108.3 171.88C106.913 171.4 105.727 170.707 104.74 169.8C103.78 168.893 103.047 167.773 102.54 166.44C102.033 165.107 101.78 163.573 101.78 161.84C101.78 160.16 102.02 158.613 102.5 157.2C103.007 155.787 103.713 154.573 104.62 153.56C105.553 152.52 106.687 151.72 108.02 151.16C109.38 150.6 110.9 150.32 112.58 150.32C114.287 150.32 115.78 150.6 117.06 151.16C118.367 151.693 119.433 152.493 120.26 153.56C121.113 154.627 121.74 155.933 122.14 157.48C122.54 159 122.673 160.747 122.54 162.72L106.02 162.84V159.48L118.86 159.36L116.58 160.92C116.767 159.587 116.687 158.507 116.34 157.68C115.993 156.827 115.487 156.213 114.82 155.84C114.153 155.44 113.433 155.24 112.66 155.24C111.727 155.24 110.9 155.493 110.18 156C109.487 156.507 108.94 157.24 108.54 158.2C108.14 159.16 107.94 160.333 107.94 161.72C107.94 163.907 108.407 165.493 109.34 166.48C110.3 167.467 111.513 167.96 112.98 167.96C113.7 167.96 114.3 167.867 114.78 167.68C115.26 167.467 115.647 167.213 115.94 166.92C116.26 166.6 116.5 166.253 116.66 165.88C116.847 165.507 116.993 165.147 117.1 164.8L122.7 166C122.487 166.987 122.14 167.88 121.66 168.68C121.207 169.48 120.58 170.173 119.78 170.76C119.007 171.347 118.06 171.787 116.94 172.08C115.847 172.4 114.54 172.56 113.02 172.56ZM131.417 172.56C130.243 172.56 129.203 172.333 128.297 171.88C127.39 171.4 126.683 170.72 126.177 169.84C125.67 168.933 125.417 167.84 125.417 166.56C125.417 165.36 125.643 164.373 126.097 163.6C126.577 162.8 127.257 162.173 128.137 161.72C129.043 161.24 130.123 160.853 131.377 160.56C132.63 160.24 134.057 159.96 135.657 159.72C136.43 159.587 137.07 159.467 137.577 159.36C138.11 159.227 138.51 159.027 138.777 158.76C139.043 158.493 139.177 158.107 139.177 157.6C139.177 156.933 138.937 156.36 138.457 155.88C137.977 155.4 137.203 155.16 136.137 155.16C135.39 155.16 134.71 155.293 134.097 155.56C133.51 155.827 133.003 156.213 132.577 156.72C132.15 157.227 131.83 157.84 131.617 158.56L125.937 156.88C126.283 155.76 126.763 154.787 127.377 153.96C128.017 153.133 128.777 152.453 129.657 151.92C130.537 151.36 131.537 150.96 132.657 150.72C133.803 150.453 135.017 150.32 136.297 150.32C138.43 150.32 140.163 150.667 141.497 151.36C142.857 152.027 143.857 153.08 144.497 154.52C145.163 155.933 145.497 157.76 145.497 160V163.24C145.497 164.2 145.51 165.173 145.537 166.16C145.59 167.12 145.643 168.093 145.697 169.08C145.777 170.04 145.87 171.013 145.977 172H140.297C140.19 171.387 140.083 170.653 139.977 169.8C139.87 168.92 139.79 168.027 139.737 167.12H138.977C138.603 168.133 138.057 169.067 137.337 169.92C136.643 170.747 135.79 171.4 134.777 171.88C133.79 172.333 132.67 172.56 131.417 172.56ZM134.337 168C134.817 168 135.297 167.92 135.777 167.76C136.283 167.573 136.763 167.333 137.217 167.04C137.67 166.72 138.083 166.333 138.457 165.88C138.83 165.427 139.11 164.933 139.297 164.4L139.217 161.24L140.097 161.44C139.59 161.76 139.03 162.013 138.417 162.2C137.803 162.387 137.177 162.533 136.537 162.64C135.923 162.747 135.31 162.867 134.697 163C134.11 163.107 133.577 163.253 133.097 163.44C132.643 163.627 132.283 163.88 132.017 164.2C131.75 164.52 131.617 164.96 131.617 165.52C131.617 166.267 131.87 166.867 132.377 167.32C132.883 167.773 133.537 168 134.337 168ZM160.206 172.56C158.392 172.56 156.792 172.307 155.406 171.8C154.019 171.293 152.859 170.573 151.926 169.64C150.992 168.68 150.272 167.533 149.766 166.2C149.286 164.867 149.046 163.373 149.046 161.72C149.046 160.013 149.286 158.467 149.766 157.08C150.272 155.693 150.992 154.493 151.926 153.48C152.859 152.467 154.006 151.693 155.366 151.16C156.726 150.6 158.286 150.32 160.046 150.32C161.806 150.32 163.326 150.6 164.606 151.16C165.886 151.72 166.926 152.507 167.726 153.52C168.552 154.533 169.112 155.707 169.406 157.04L163.446 159.04C163.366 158.16 163.152 157.44 162.806 156.88C162.459 156.32 162.006 155.92 161.446 155.68C160.912 155.413 160.326 155.28 159.686 155.28C159.019 155.28 158.432 155.413 157.926 155.68C157.419 155.947 156.992 156.347 156.646 156.88C156.299 157.413 156.032 158.067 155.846 158.84C155.659 159.587 155.566 160.453 155.566 161.44C155.566 162.853 155.739 164.04 156.086 165C156.459 165.933 156.992 166.64 157.686 167.12C158.406 167.6 159.272 167.84 160.286 167.84C161.326 167.84 162.139 167.627 162.726 167.2C163.312 166.773 163.739 166.253 164.006 165.64C164.272 165 164.432 164.373 164.486 163.76L170.086 165C169.979 165.987 169.712 166.947 169.286 167.88C168.886 168.787 168.286 169.6 167.486 170.32C166.686 171.013 165.686 171.56 164.486 171.96C163.312 172.36 161.886 172.56 160.206 172.56ZM181.337 172.52C178.857 172.52 177.031 171.867 175.857 170.56C174.684 169.227 174.097 167.107 174.097 164.2V155.92H171.097L171.217 150.92H173.377C174.231 150.893 174.871 150.76 175.297 150.52C175.751 150.28 176.031 149.827 176.137 149.16L176.657 146.2H180.297V150.88H185.377V156.12H180.297V163.92C180.297 164.827 180.511 165.493 180.937 165.92C181.391 166.347 182.071 166.56 182.977 166.56C183.484 166.56 183.964 166.507 184.417 166.4C184.871 166.293 185.244 166.147 185.537 165.96V171.92C184.684 172.187 183.897 172.347 183.177 172.4C182.484 172.48 181.871 172.52 181.337 172.52Z" fill="white"/>
</svg>
