<svg width="262" height="197" viewBox="0 0 262 197" fill="none" xmlns="http://www.w3.org/2000/svg">
<path d="M0 16C0 7.16345 7.16344 0 16 0H246C254.837 0 262 7.16344 262 16V181C262 189.837 254.837 197 246 197H16C7.16345 197 0 189.837 0 181V16Z" fill="#14042D"/>
<path d="M16 0.5H246C254.56 0.5 261.5 7.43959 261.5 16V181C261.5 189.56 254.56 196.5 246 196.5H16C7.43959 196.5 0.5 189.56 0.5 181V16C0.500003 7.43959 7.43959 0.5 16 0.5Z" stroke="#0000FF" stroke-opacity="0.7"/>
<path d="M115.891 103.561C111.225 99.3198 109.783 90.2431 111.734 83.7113C115.127 87.8679 119.878 89.1403 124.798 89.9038C132.347 91.0066 139.727 90.5824 146.768 87.1893L149.143 85.7472C150.058 88.8572 149.959 92.1777 148.861 95.2279C147.763 98.2781 145.723 100.9 143.036 102.713L138.37 105.936C133.62 109.16 132.263 112.892 134.129 118.406L134.298 119C131.977 118.048 130.017 116.385 128.7 114.25C127.274 112.083 126.508 109.548 126.494 106.954C126.494 105.682 126.494 104.41 126.325 103.137C125.9 99.9984 124.458 98.6412 121.659 98.5563C118.86 98.4715 116.654 100.253 116.06 102.967L115.891 103.561Z" fill="black"/>
<path d="M89 82.6085C89 82.6085 102.997 75.8222 116.993 75.8222L127.512 43.3328C127.936 41.6362 129.039 40.6183 130.312 40.6183C131.669 40.6183 132.856 41.721 133.196 43.3328L143.715 75.8222C160.341 75.8222 171.708 82.6085 171.708 82.6085L147.956 18.1387C147.277 16.1876 146.09 15 144.563 15H116.145C114.618 15 113.515 16.1876 112.752 18.1387L89 82.6085Z" fill="white"/>
<path d="M115.891 103.561C111.225 99.3198 109.783 90.2431 111.734 83.7113C115.127 87.8679 119.878 89.1403 124.798 89.9038C132.347 91.0066 139.727 90.5824 146.768 87.1893L149.143 85.7472C150.058 88.8572 149.959 92.1777 148.861 95.2279C147.763 98.2781 145.723 100.9 143.036 102.713L138.37 105.936C133.62 109.16 132.263 112.892 134.129 118.406L134.298 119C131.977 118.048 130.017 116.385 128.7 114.25C127.274 112.083 126.508 109.548 126.494 106.954C126.494 105.682 126.494 104.41 126.325 103.137C125.9 99.9984 124.458 98.6412 121.659 98.5563C118.86 98.4715 116.654 100.253 116.06 102.967L115.891 103.561Z" fill="url(#paint0_linear_159_11)"/>
<path d="M76.56 172L85.52 145.6H94.96L103.92 172H96.88L90.56 150.64H89.92L83.6 172H76.56ZM81.88 167.04V162.72H99.56V167.04H81.88ZM115.518 172.56C114.105 172.56 112.825 172.427 111.678 172.16C110.532 171.92 109.532 171.56 108.678 171.08C107.825 170.6 107.118 170.027 106.558 169.36C106.025 168.667 105.652 167.907 105.438 167.08L110.238 164.96C110.425 165.413 110.745 165.88 111.198 166.36C111.678 166.813 112.305 167.187 113.078 167.48C113.878 167.773 114.838 167.92 115.958 167.92C117.025 167.92 117.852 167.773 118.438 167.48C119.052 167.16 119.358 166.707 119.358 166.12C119.358 165.693 119.185 165.36 118.838 165.12C118.518 164.853 118.025 164.627 117.358 164.44C116.692 164.227 115.865 164.027 114.878 163.84C113.865 163.627 112.838 163.387 111.798 163.12C110.758 162.827 109.785 162.44 108.878 161.96C107.972 161.453 107.238 160.8 106.678 160C106.145 159.173 105.878 158.133 105.878 156.88C105.878 155.573 106.225 154.44 106.918 153.48C107.612 152.493 108.638 151.72 109.998 151.16C111.385 150.6 113.065 150.32 115.038 150.32C116.798 150.32 118.345 150.547 119.678 151C121.012 151.453 122.118 152.107 122.998 152.96C123.905 153.787 124.532 154.787 124.878 155.96L119.718 157.8C119.585 157.213 119.305 156.707 118.878 156.28C118.478 155.853 117.958 155.533 117.318 155.32C116.705 155.08 115.972 154.96 115.118 154.96C114.078 154.96 113.265 155.12 112.678 155.44C112.118 155.76 111.838 156.187 111.838 156.72C111.838 157.147 112.025 157.507 112.398 157.8C112.798 158.067 113.358 158.293 114.078 158.48C114.798 158.667 115.652 158.867 116.638 159.08C117.678 159.293 118.705 159.547 119.718 159.84C120.758 160.107 121.692 160.48 122.518 160.96C123.372 161.413 124.038 162.027 124.518 162.8C125.025 163.547 125.278 164.52 125.278 165.72C125.278 167.133 124.905 168.36 124.158 169.4C123.412 170.413 122.305 171.2 120.838 171.76C119.398 172.293 117.625 172.56 115.518 172.56ZM137.072 172.52C134.592 172.52 132.765 171.867 131.592 170.56C130.418 169.227 129.832 167.107 129.832 164.2V155.92H126.832L126.952 150.92H129.112C129.965 150.893 130.605 150.76 131.032 150.52C131.485 150.28 131.765 149.827 131.872 149.16L132.392 146.2H136.032V150.88H141.112V156.12H136.032V163.92C136.032 164.827 136.245 165.493 136.672 165.92C137.125 166.347 137.805 166.56 138.712 166.56C139.218 166.56 139.698 166.507 140.152 166.4C140.605 166.293 140.978 166.147 141.272 165.96V171.92C140.418 172.187 139.632 172.347 138.912 172.4C138.218 172.48 137.605 172.52 137.072 172.52ZM145.082 172V162.2V150.88H150.362L150.482 158.04H151.282C151.468 156.173 151.815 154.693 152.322 153.6C152.855 152.48 153.602 151.667 154.562 151.16C155.548 150.653 156.762 150.4 158.202 150.4C158.415 150.4 158.655 150.413 158.922 150.44C159.188 150.44 159.495 150.467 159.842 150.52L159.602 157.4C159.175 157.187 158.708 157.053 158.202 157C157.722 156.92 157.295 156.88 156.922 156.88C155.882 156.88 154.975 157.08 154.202 157.48C153.455 157.88 152.855 158.493 152.402 159.32C151.975 160.147 151.695 161.187 151.562 162.44V172H145.082ZM172.653 172.56C170.52 172.56 168.626 172.147 166.973 171.32C165.346 170.493 164.066 169.253 163.133 167.6C162.2 165.947 161.733 163.88 161.733 161.4C161.733 158.92 162.2 156.867 163.133 155.24C164.066 153.587 165.36 152.36 167.013 151.56C168.666 150.733 170.56 150.32 172.693 150.32C174.826 150.32 176.72 150.733 178.373 151.56C180.026 152.387 181.32 153.627 182.253 155.28C183.186 156.907 183.653 158.96 183.653 161.44C183.653 163.973 183.173 166.067 182.213 167.72C181.253 169.373 179.933 170.6 178.253 171.4C176.6 172.173 174.733 172.56 172.653 172.56ZM172.853 167.88C173.813 167.88 174.613 167.667 175.253 167.24C175.893 166.787 176.373 166.107 176.693 165.2C177.013 164.293 177.173 163.173 177.173 161.84C177.173 160.427 177 159.24 176.653 158.28C176.306 157.293 175.786 156.547 175.093 156.04C174.426 155.507 173.56 155.24 172.493 155.24C171.586 155.24 170.8 155.467 170.133 155.92C169.493 156.347 169.013 157.013 168.693 157.92C168.373 158.827 168.213 159.96 168.213 161.32C168.213 163.507 168.613 165.147 169.413 166.24C170.24 167.333 171.386 167.88 172.853 167.88Z" fill="white"/>
<defs>
<linearGradient id="paint0_linear_159_11" x1="130.312" y1="113.825" x2="141.085" y2="78.3671" gradientUnits="userSpaceOnUse">
<stop stop-color="#D83333"/>
<stop offset="1" stop-color="#F041FF"/>
</linearGradient>
</defs>
</svg>
