<svg width="262" height="197" viewBox="0 0 262 197" fill="none" xmlns="http://www.w3.org/2000/svg">
<path d="M0 16C0 7.16345 7.16344 0 16 0H246C254.837 0 262 7.16344 262 16V181C262 189.837 254.837 197 246 197H16C7.16345 197 0 189.837 0 181V16Z" fill="#14042D"/>
<path d="M16 0.5H246C254.56 0.5 261.5 7.43959 261.5 16V181C261.5 189.56 254.56 196.5 246 196.5H16C7.43959 196.5 0.5 189.56 0.5 181V16C0.500003 7.43959 7.43959 0.5 16 0.5Z" stroke="#0000FF" stroke-opacity="0.7"/>
<path d="M79.0002 51.2664C79.0002 51.2664 76.4397 49.4208 79.5123 46.9563L86.6708 40.5552C86.6708 40.5552 88.7192 38.4002 90.8849 40.2779L156.944 90.2918V114.275C156.944 114.275 156.912 118.041 152.079 117.625L79.0002 51.2664Z" fill="#2489CA"/>
<path d="M96.0272 66.725L79.0003 82.205C79.0003 82.205 77.2506 83.5065 79.0003 85.8323L86.9056 93.0229C86.9056 93.0229 88.7833 95.0392 91.5571 92.7455L109.608 79.0578L96.0272 66.725Z" fill="#1070B3"/>
<path d="M125.92 66.853L157.147 43.0089L156.944 19.1541C156.944 19.1541 155.611 13.9479 151.162 16.6577L109.608 54.4776L125.92 66.853Z" fill="#0877B9"/>
<path d="M152.079 117.657C153.893 119.513 156.091 118.905 156.091 118.905L180.426 106.913C183.541 104.79 183.103 102.155 183.103 102.155V30.5481C183.103 27.4009 179.881 26.3127 179.881 26.3127L158.79 16.1456C154.181 13.2971 151.162 16.6577 151.162 16.6577C151.162 16.6577 155.045 13.8626 156.944 19.1541V113.837C156.944 114.488 156.806 115.128 156.528 115.704C155.973 116.824 154.768 117.87 151.877 117.432L152.079 117.657Z" fill="#3C99D4"/>
<path d="M58.16 172L49.56 145.6H56.6L62.4 166.6H62.96L68.76 145.6H75.72L67.12 172H58.16ZM89.1541 172.56C87.4474 172.56 85.9007 172.4 84.5141 172.08C83.1274 171.76 81.9274 171.28 80.9141 170.64C79.9007 169.973 79.1007 169.133 78.5141 168.12C77.9274 167.107 77.5807 165.933 77.4741 164.6L83.1141 162.72C83.1941 163.84 83.5141 164.773 84.0741 165.52C84.6341 166.267 85.3807 166.827 86.3141 167.2C87.2741 167.547 88.3407 167.72 89.5141 167.72C90.6341 167.72 91.5674 167.587 92.3141 167.32C93.0874 167.027 93.6607 166.667 94.0341 166.24C94.4341 165.787 94.6341 165.307 94.6341 164.8C94.6341 164.213 94.3807 163.733 93.8741 163.36C93.3674 162.96 92.6741 162.627 91.7941 162.36C90.9141 162.067 89.8874 161.787 88.7141 161.52C87.3807 161.2 86.0741 160.853 84.7941 160.48C83.5141 160.107 82.3541 159.627 81.3141 159.04C80.2741 158.427 79.4474 157.653 78.8341 156.72C78.2474 155.76 77.9541 154.56 77.9541 153.12C77.9541 151.493 78.3674 150.08 79.1941 148.88C80.0207 147.68 81.2341 146.747 82.8341 146.08C84.4341 145.387 86.4074 145.04 88.7541 145.04C91.0741 145.04 93.0474 145.373 94.6741 146.04C96.3007 146.707 97.5541 147.64 98.4341 148.84C99.3141 150.013 99.7941 151.387 99.8741 152.96L94.1141 154.6C94.1141 153.827 93.9807 153.147 93.7141 152.56C93.4741 151.973 93.1274 151.493 92.6741 151.12C92.2207 150.72 91.6607 150.427 90.9941 150.24C90.3274 150.027 89.5674 149.92 88.7141 149.92C87.7007 149.92 86.8341 150.04 86.1141 150.28C85.4207 150.52 84.9007 150.84 84.5541 151.24C84.2074 151.613 84.0341 152.053 84.0341 152.56C84.0341 153.2 84.3007 153.733 84.8341 154.16C85.3941 154.56 86.1407 154.907 87.0741 155.2C88.0341 155.467 89.0874 155.733 90.2341 156C91.3807 156.24 92.5674 156.547 93.7941 156.92C95.0207 157.267 96.1674 157.733 97.2341 158.32C98.3007 158.907 99.1541 159.707 99.7941 160.72C100.461 161.707 100.794 162.96 100.794 164.48C100.794 166.107 100.354 167.533 99.4741 168.76C98.6207 169.96 97.3274 170.893 95.5941 171.56C93.8607 172.227 91.7141 172.56 89.1541 172.56ZM126.308 172.56C124.228 172.56 122.362 172.28 120.708 171.72C119.055 171.16 117.642 170.307 116.468 169.16C115.322 168.013 114.442 166.613 113.828 164.96C113.242 163.28 112.948 161.32 112.948 159.08C112.948 156.787 113.255 154.773 113.868 153.04C114.482 151.307 115.362 149.84 116.508 148.64C117.682 147.44 119.055 146.547 120.628 145.96C122.202 145.347 123.948 145.04 125.868 145.04C127.388 145.04 128.775 145.227 130.028 145.6C131.308 145.973 132.415 146.533 133.348 147.28C134.282 148 135.002 148.88 135.508 149.92C136.042 150.933 136.322 152.093 136.348 153.4L130.388 155.04C130.388 153.947 130.148 153.053 129.668 152.36C129.215 151.667 128.628 151.147 127.908 150.8C127.215 150.427 126.455 150.24 125.628 150.24C124.962 150.24 124.268 150.387 123.548 150.68C122.855 150.947 122.215 151.413 121.628 152.08C121.042 152.72 120.575 153.573 120.228 154.64C119.882 155.707 119.708 157.04 119.708 158.64C119.708 160.72 120.002 162.4 120.588 163.68C121.175 164.96 121.988 165.907 123.028 166.52C124.068 167.107 125.215 167.4 126.468 167.4C127.855 167.4 128.922 167.107 129.668 166.52C130.442 165.907 130.988 165.147 131.308 164.24C131.628 163.333 131.802 162.413 131.828 161.48L137.428 162.36C137.402 163.8 137.188 165.147 136.788 166.4C136.388 167.653 135.748 168.747 134.868 169.68C134.015 170.587 132.882 171.293 131.468 171.8C130.055 172.307 128.335 172.56 126.308 172.56ZM150.731 172.56C148.598 172.56 146.705 172.147 145.051 171.32C143.425 170.493 142.145 169.253 141.211 167.6C140.278 165.947 139.811 163.88 139.811 161.4C139.811 158.92 140.278 156.867 141.211 155.24C142.145 153.587 143.438 152.36 145.091 151.56C146.745 150.733 148.638 150.32 150.771 150.32C152.905 150.32 154.798 150.733 156.451 151.56C158.105 152.387 159.398 153.627 160.331 155.28C161.265 156.907 161.731 158.96 161.731 161.44C161.731 163.973 161.251 166.067 160.291 167.72C159.331 169.373 158.011 170.6 156.331 171.4C154.678 172.173 152.811 172.56 150.731 172.56ZM150.931 167.88C151.891 167.88 152.691 167.667 153.331 167.24C153.971 166.787 154.451 166.107 154.771 165.2C155.091 164.293 155.251 163.173 155.251 161.84C155.251 160.427 155.078 159.24 154.731 158.28C154.385 157.293 153.865 156.547 153.171 156.04C152.505 155.507 151.638 155.24 150.571 155.24C149.665 155.24 148.878 155.467 148.211 155.92C147.571 156.347 147.091 157.013 146.771 157.92C146.451 158.827 146.291 159.96 146.291 161.32C146.291 163.507 146.691 165.147 147.491 166.24C148.318 167.333 149.465 167.88 150.931 167.88ZM173.223 172.56C171.463 172.56 169.917 172.12 168.583 171.24C167.277 170.333 166.25 169.053 165.503 167.4C164.757 165.72 164.383 163.72 164.383 161.4C164.383 159.267 164.703 157.373 165.343 155.72C165.983 154.067 166.93 152.773 168.183 151.84C169.463 150.88 171.037 150.4 172.903 150.4C174.237 150.4 175.357 150.64 176.263 151.12C177.197 151.6 177.97 152.32 178.583 153.28C179.197 154.24 179.69 155.453 180.063 156.92H181.063C180.877 156.013 180.703 155.16 180.543 154.36C180.383 153.533 180.25 152.773 180.143 152.08C180.063 151.36 180.023 150.733 180.023 150.2V143.2H186.503V161.68V172H181.223L181.143 165.76H180.263C179.97 167.36 179.503 168.667 178.863 169.68C178.25 170.667 177.463 171.4 176.503 171.88C175.57 172.333 174.477 172.56 173.223 172.56ZM175.543 167.36C176.37 167.36 177.063 167.187 177.623 166.84C178.21 166.467 178.677 166 179.023 165.44C179.37 164.88 179.623 164.28 179.783 163.64C179.943 163 180.023 162.4 180.023 161.84V161C180.023 160.493 179.957 159.987 179.823 159.48C179.69 158.973 179.49 158.48 179.223 158C178.983 157.52 178.677 157.093 178.303 156.72C177.93 156.347 177.49 156.053 176.983 155.84C176.503 155.627 175.97 155.52 175.383 155.52C174.503 155.52 173.743 155.76 173.103 156.24C172.49 156.72 172.01 157.4 171.663 158.28C171.343 159.16 171.183 160.2 171.183 161.4C171.183 162.6 171.357 163.653 171.703 164.56C172.05 165.44 172.557 166.133 173.223 166.64C173.89 167.12 174.663 167.36 175.543 167.36ZM201.52 172.56C199.76 172.56 198.187 172.333 196.8 171.88C195.413 171.4 194.227 170.707 193.24 169.8C192.28 168.893 191.547 167.773 191.04 166.44C190.533 165.107 190.28 163.573 190.28 161.84C190.28 160.16 190.52 158.613 191 157.2C191.507 155.787 192.213 154.573 193.12 153.56C194.053 152.52 195.187 151.72 196.52 151.16C197.88 150.6 199.4 150.32 201.08 150.32C202.787 150.32 204.28 150.6 205.56 151.16C206.867 151.693 207.933 152.493 208.76 153.56C209.613 154.627 210.24 155.933 210.64 157.48C211.04 159 211.173 160.747 211.04 162.72L194.52 162.84V159.48L207.36 159.36L205.08 160.92C205.267 159.587 205.187 158.507 204.84 157.68C204.493 156.827 203.987 156.213 203.32 155.84C202.653 155.44 201.933 155.24 201.16 155.24C200.227 155.24 199.4 155.493 198.68 156C197.987 156.507 197.44 157.24 197.04 158.2C196.64 159.16 196.44 160.333 196.44 161.72C196.44 163.907 196.907 165.493 197.84 166.48C198.8 167.467 200.013 167.96 201.48 167.96C202.2 167.96 202.8 167.867 203.28 167.68C203.76 167.467 204.147 167.213 204.44 166.92C204.76 166.6 205 166.253 205.16 165.88C205.347 165.507 205.493 165.147 205.6 164.8L211.2 166C210.987 166.987 210.64 167.88 210.16 168.68C209.707 169.48 209.08 170.173 208.28 170.76C207.507 171.347 206.56 171.787 205.44 172.08C204.347 172.4 203.04 172.56 201.52 172.56Z" fill="white"/>
</svg>
