<svg width="319" height="245" viewBox="0 0 319 245" fill="none" xmlns="http://www.w3.org/2000/svg">
<g clip-path="url(#clip0_63_129)">
<path d="M29 40C29 31.1634 36.1634 24 45 24H275C283.837 24 291 31.1634 291 40V205C291 213.837 283.837 221 275 221H45C36.1634 221 29 213.837 29 205V40Z" fill="#14042D"/>
<path d="M45 24.5H275C283.56 24.5 290.5 31.4396 290.5 40V205C290.5 213.56 283.56 220.5 275 220.5H45C36.4396 220.5 29.5 213.56 29.5 205V40C29.5 31.4396 36.4396 24.5 45 24.5Z" stroke="#0000FF" stroke-opacity="0.7"/>
<path d="M138.8 101.4L149.2 70.2L196 117L180.4 143L159.6 122.2H149.2" fill="#00E8FF"/>
<path fill-rule="evenodd" clip-rule="evenodd" d="M159.6 122.2V80.6L180.4 59.8V101.4M128.4 101.4H138.8L149.2 122.2L138.8 143L118 122.2L128.4 101.4Z" fill="#283198"/>
<path d="M138.8 101.4V59.8L159.6 39V80.6M180.4 143V101.4L201.2 80.6V122.2M118 122.2V80.6L138.8 101.4" fill="#324FFF"/>
<path d="M138.8 143V101.4L159.6 122.2" fill="#00FFFF"/>
<path d="M137.76 196V169.6H144.2V196H137.76ZM138.92 196V190.6H154.96V196H138.92ZM157.832 196V174.88H164.272V196H157.832ZM161.072 171.92C159.845 171.92 158.898 171.667 158.232 171.16C157.592 170.627 157.272 169.88 157.272 168.92C157.272 167.907 157.592 167.147 158.232 166.64C158.898 166.107 159.845 165.84 161.072 165.84C162.325 165.84 163.272 166.107 163.912 166.64C164.578 167.147 164.912 167.893 164.912 168.88C164.912 169.867 164.578 170.627 163.912 171.16C163.272 171.667 162.325 171.92 161.072 171.92ZM177.517 196.52C175.037 196.52 173.21 195.867 172.037 194.56C170.864 193.227 170.277 191.107 170.277 188.2V179.92H167.277L167.397 174.92H169.557C170.41 174.893 171.05 174.76 171.477 174.52C171.93 174.28 172.21 173.827 172.317 173.16L172.837 170.2H176.477V174.88H181.557V180.12H176.477V187.92C176.477 188.827 176.69 189.493 177.117 189.92C177.57 190.347 178.25 190.56 179.157 190.56C179.664 190.56 180.144 190.507 180.597 190.4C181.05 190.293 181.424 190.147 181.717 189.96V195.92C180.864 196.187 180.077 196.347 179.357 196.4C178.664 196.48 178.05 196.52 177.517 196.52Z" fill="white"/>
</g>
<defs>
<clipPath id="clip0_63_129">
<rect width="319" height="245" fill="white"/>
</clipPath>
</defs>
</svg>
