<svg width="319" height="245" viewBox="0 0 319 245" fill="none" xmlns="http://www.w3.org/2000/svg">
<g clip-path="url(#clip0_57_4)">
<path d="M29 40C29 31.1634 36.1634 24 45 24H275C283.837 24 291 31.1634 291 40V205C291 213.837 283.837 221 275 221H45C36.1634 221 29 213.837 29 205V40Z" fill="#14042D"/>
<path d="M45 24.5H275C283.56 24.5 290.5 31.4396 290.5 40V205C290.5 213.56 283.56 220.5 275 220.5H45C36.4396 220.5 29.5 213.56 29.5 205V40C29.5 31.4396 36.4396 24.5 45 24.5Z" stroke="#0000FF" stroke-opacity="0.7"/>
<path d="M159.5 39C136.433 39 122.016 50.5558 116.249 73.6652C124.9 62.1094 134.992 57.7776 146.524 60.6655C153.105 62.3132 157.808 67.0981 163.015 72.3926C171.496 81.0171 181.311 90.9989 202.751 90.9989C225.816 90.9989 240.235 79.4431 246 56.3315C237.351 67.8873 227.259 72.2213 215.724 69.3334C209.146 67.6857 204.443 62.9008 199.236 57.6063C190.756 48.9818 180.938 39 159.5 39ZM116.249 90.9989C93.1837 90.9989 78.7652 102.555 73 125.666C81.6489 114.111 91.7408 109.777 103.276 112.667C109.854 114.316 114.557 119.099 119.764 124.391C128.244 133.016 138.062 143 159.5 143C182.567 143 196.984 131.444 202.751 108.333C194.1 119.888 184.008 124.222 172.476 121.332C165.895 119.687 161.192 114.9 155.985 109.607C147.504 100.983 137.69 90.9989 116.249 90.9989Z" fill="#06B6D4"/>
<path d="M85.32 196V169.6H91.8V196H85.32ZM77.64 174.96V169.6H99.56V174.96H77.64ZM105.026 196.56C103.853 196.56 102.813 196.333 101.906 195.88C100.999 195.4 100.293 194.72 99.7859 193.84C99.2793 192.933 99.0259 191.84 99.0259 190.56C99.0259 189.36 99.2526 188.373 99.7059 187.6C100.186 186.8 100.866 186.173 101.746 185.72C102.653 185.24 103.733 184.853 104.986 184.56C106.239 184.24 107.666 183.96 109.266 183.72C110.039 183.587 110.679 183.467 111.186 183.36C111.719 183.227 112.119 183.027 112.386 182.76C112.653 182.493 112.786 182.107 112.786 181.6C112.786 180.933 112.546 180.36 112.066 179.88C111.586 179.4 110.813 179.16 109.746 179.16C108.999 179.16 108.319 179.293 107.706 179.56C107.119 179.827 106.613 180.213 106.186 180.72C105.759 181.227 105.439 181.84 105.226 182.56L99.5459 180.88C99.8926 179.76 100.373 178.787 100.986 177.96C101.626 177.133 102.386 176.453 103.266 175.92C104.146 175.36 105.146 174.96 106.266 174.72C107.413 174.453 108.626 174.32 109.906 174.32C112.039 174.32 113.773 174.667 115.106 175.36C116.466 176.027 117.466 177.08 118.106 178.52C118.773 179.933 119.106 181.76 119.106 184V187.24C119.106 188.2 119.119 189.173 119.146 190.16C119.199 191.12 119.253 192.093 119.306 193.08C119.386 194.04 119.479 195.013 119.586 196H113.906C113.799 195.387 113.693 194.653 113.586 193.8C113.479 192.92 113.399 192.027 113.346 191.12H112.586C112.213 192.133 111.666 193.067 110.946 193.92C110.253 194.747 109.399 195.4 108.386 195.88C107.399 196.333 106.279 196.56 105.026 196.56ZM107.946 192C108.426 192 108.906 191.92 109.386 191.76C109.893 191.573 110.373 191.333 110.826 191.04C111.279 190.72 111.693 190.333 112.066 189.88C112.439 189.427 112.719 188.933 112.906 188.4L112.826 185.24L113.706 185.44C113.199 185.76 112.639 186.013 112.026 186.2C111.413 186.387 110.786 186.533 110.146 186.64C109.533 186.747 108.919 186.867 108.306 187C107.719 187.107 107.186 187.253 106.706 187.44C106.253 187.627 105.893 187.88 105.626 188.2C105.359 188.52 105.226 188.96 105.226 189.52C105.226 190.267 105.479 190.867 105.986 191.32C106.493 191.773 107.146 192 107.946 192ZM123.855 196V174.88H130.295V196H123.855ZM127.095 171.92C125.868 171.92 124.922 171.667 124.255 171.16C123.615 170.627 123.295 169.88 123.295 168.92C123.295 167.907 123.615 167.147 124.255 166.64C124.922 166.107 125.868 165.84 127.095 165.84C128.348 165.84 129.295 166.107 129.935 166.64C130.602 167.147 130.935 167.893 130.935 168.88C130.935 169.867 130.602 170.627 129.935 171.16C129.295 171.667 128.348 171.92 127.095 171.92ZM135.3 196V167.2H141.62V196H135.3ZM149.748 196L144.628 174.88H151.348L153.948 190.96H154.748L157.988 174.88H165.628L168.988 190.96H169.828L172.308 174.88H178.908L173.788 196H164.908L161.988 180.08H161.228L158.508 196H149.748ZM181.863 196V174.88H188.303V196H181.863ZM185.103 171.92C183.876 171.92 182.929 171.667 182.263 171.16C181.623 170.627 181.303 169.88 181.303 168.92C181.303 167.907 181.623 167.147 182.263 166.64C182.929 166.107 183.876 165.84 185.103 165.84C186.356 165.84 187.303 166.107 187.943 166.64C188.609 167.147 188.943 167.893 188.943 168.88C188.943 169.867 188.609 170.627 187.943 171.16C187.303 171.667 186.356 171.92 185.103 171.92ZM193.308 196V183.28V174.88H198.508L198.588 181.08H199.388C199.735 179.587 200.228 178.333 200.868 177.32C201.508 176.307 202.321 175.56 203.308 175.08C204.295 174.573 205.455 174.32 206.788 174.32C209.268 174.32 211.148 175.187 212.428 176.92C213.735 178.653 214.388 181.413 214.388 185.2V196H207.908V185.92C207.908 183.733 207.588 182.147 206.948 181.16C206.335 180.147 205.415 179.64 204.188 179.64C203.175 179.64 202.335 179.947 201.668 180.56C201.028 181.173 200.548 181.987 200.228 183C199.908 184.013 199.748 185.147 199.748 186.4V196H193.308ZM226.731 196.56C224.971 196.56 223.425 196.12 222.091 195.24C220.785 194.333 219.758 193.053 219.011 191.4C218.265 189.72 217.891 187.72 217.891 185.4C217.891 183.267 218.211 181.373 218.851 179.72C219.491 178.067 220.438 176.773 221.691 175.84C222.971 174.88 224.545 174.4 226.411 174.4C227.745 174.4 228.865 174.64 229.771 175.12C230.705 175.6 231.478 176.32 232.091 177.28C232.705 178.24 233.198 179.453 233.571 180.92H234.571C234.385 180.013 234.211 179.16 234.051 178.36C233.891 177.533 233.758 176.773 233.651 176.08C233.571 175.36 233.531 174.733 233.531 174.2V167.2H240.011V185.68V196H234.731L234.651 189.76H233.771C233.478 191.36 233.011 192.667 232.371 193.68C231.758 194.667 230.971 195.4 230.011 195.88C229.078 196.333 227.985 196.56 226.731 196.56ZM229.051 191.36C229.878 191.36 230.571 191.187 231.131 190.84C231.718 190.467 232.185 190 232.531 189.44C232.878 188.88 233.131 188.28 233.291 187.64C233.451 187 233.531 186.4 233.531 185.84V185C233.531 184.493 233.465 183.987 233.331 183.48C233.198 182.973 232.998 182.48 232.731 182C232.491 181.52 232.185 181.093 231.811 180.72C231.438 180.347 230.998 180.053 230.491 179.84C230.011 179.627 229.478 179.52 228.891 179.52C228.011 179.52 227.251 179.76 226.611 180.24C225.998 180.72 225.518 181.4 225.171 182.28C224.851 183.16 224.691 184.2 224.691 185.4C224.691 186.6 224.865 187.653 225.211 188.56C225.558 189.44 226.065 190.133 226.731 190.64C227.398 191.12 228.171 191.36 229.051 191.36Z" fill="white"/>
</g>
<defs>
<clipPath id="clip0_57_4">
<rect width="319" height="245" fill="white"/>
</clipPath>
</defs>
</svg>
