<svg width="262" height="197" viewBox="0 0 262 197" fill="none" xmlns="http://www.w3.org/2000/svg">
<path d="M0 16C0 7.16345 7.16344 0 16 0H246C254.837 0 262 7.16344 262 16V181C262 189.837 254.837 197 246 197H16C7.16345 197 0 189.837 0 181V16Z" fill="#14042D"/>
<path d="M16 0.5H246C254.56 0.5 261.5 7.43959 261.5 16V181C261.5 189.56 254.56 196.5 246 196.5H16C7.43959 196.5 0.5 189.56 0.5 181V16C0.500003 7.43959 7.43959 0.5 16 0.5Z" stroke="#0000FF" stroke-opacity="0.7"/>
<path d="M130.5 15C107.433 15 93.0163 26.5558 87.2489 49.6652C95.9 38.1094 105.992 33.7776 117.524 36.6655C124.105 38.3132 128.808 43.0981 134.015 48.3926C142.496 57.0171 152.311 66.9989 173.751 66.9989C196.816 66.9989 211.235 55.4431 217 32.3315C208.351 43.8873 198.259 48.2213 186.724 45.3334C180.146 43.6857 175.443 38.9008 170.236 33.6063C161.756 24.9818 151.938 15 130.5 15ZM87.2489 66.9989C64.1837 66.9989 49.7652 78.5547 44 101.666C52.6489 90.1105 62.7408 85.7765 74.2755 88.6666C80.8542 90.3165 85.5572 95.0992 90.7643 100.391C99.2445 109.016 109.062 119 130.5 119C153.567 119 167.984 107.444 173.751 84.3326C165.1 95.8884 155.008 100.222 143.476 97.3323C136.895 95.6868 132.192 90.8997 126.985 85.6074C118.504 76.9829 108.69 66.9989 87.2489 66.9989Z" fill="#06B6D4"/>
<path d="M56.32 172V145.6H62.8V172H56.32ZM48.64 150.96V145.6H70.56V150.96H48.64ZM76.0259 172.56C74.8526 172.56 73.8126 172.333 72.9059 171.88C71.9993 171.4 71.2926 170.72 70.7859 169.84C70.2793 168.933 70.0259 167.84 70.0259 166.56C70.0259 165.36 70.2526 164.373 70.7059 163.6C71.1859 162.8 71.8659 162.173 72.7459 161.72C73.6526 161.24 74.7326 160.853 75.9859 160.56C77.2393 160.24 78.6659 159.96 80.2659 159.72C81.0393 159.587 81.6793 159.467 82.1859 159.36C82.7193 159.227 83.1193 159.027 83.3859 158.76C83.6526 158.493 83.7859 158.107 83.7859 157.6C83.7859 156.933 83.5459 156.36 83.0659 155.88C82.5859 155.4 81.8126 155.16 80.7459 155.16C79.9993 155.16 79.3193 155.293 78.7059 155.56C78.1193 155.827 77.6126 156.213 77.1859 156.72C76.7593 157.227 76.4393 157.84 76.2259 158.56L70.5459 156.88C70.8926 155.76 71.3726 154.787 71.9859 153.96C72.6259 153.133 73.3859 152.453 74.2659 151.92C75.1459 151.36 76.1459 150.96 77.2659 150.72C78.4126 150.453 79.6259 150.32 80.9059 150.32C83.0393 150.32 84.7726 150.667 86.1059 151.36C87.4659 152.027 88.4659 153.08 89.1059 154.52C89.7726 155.933 90.1059 157.76 90.1059 160V163.24C90.1059 164.2 90.1193 165.173 90.1459 166.16C90.1993 167.12 90.2526 168.093 90.3059 169.08C90.3859 170.04 90.4793 171.013 90.5859 172H84.9059C84.7993 171.387 84.6926 170.653 84.5859 169.8C84.4793 168.92 84.3993 168.027 84.3459 167.12H83.5859C83.2126 168.133 82.6659 169.067 81.9459 169.92C81.2526 170.747 80.3993 171.4 79.3859 171.88C78.3993 172.333 77.2793 172.56 76.0259 172.56ZM78.9459 168C79.4259 168 79.9059 167.92 80.3859 167.76C80.8926 167.573 81.3726 167.333 81.8259 167.04C82.2793 166.72 82.6926 166.333 83.0659 165.88C83.4393 165.427 83.7193 164.933 83.9059 164.4L83.8259 161.24L84.7059 161.44C84.1993 161.76 83.6393 162.013 83.0259 162.2C82.4126 162.387 81.7859 162.533 81.1459 162.64C80.5326 162.747 79.9193 162.867 79.3059 163C78.7193 163.107 78.1859 163.253 77.7059 163.44C77.2526 163.627 76.8926 163.88 76.6259 164.2C76.3593 164.52 76.2259 164.96 76.2259 165.52C76.2259 166.267 76.4793 166.867 76.9859 167.32C77.4926 167.773 78.1459 168 78.9459 168ZM94.855 172V150.88H101.295V172H94.855ZM98.095 147.92C96.8683 147.92 95.9217 147.667 95.255 147.16C94.615 146.627 94.295 145.88 94.295 144.92C94.295 143.907 94.615 143.147 95.255 142.64C95.9217 142.107 96.8683 141.84 98.095 141.84C99.3483 141.84 100.295 142.107 100.935 142.64C101.602 143.147 101.935 143.893 101.935 144.88C101.935 145.867 101.602 146.627 100.935 147.16C100.295 147.667 99.3483 147.92 98.095 147.92ZM106.3 172V143.2H112.62V172H106.3ZM120.748 172L115.628 150.88H122.348L124.948 166.96H125.748L128.988 150.88H136.628L139.988 166.96H140.828L143.308 150.88H149.908L144.788 172H135.908L132.988 156.08H132.228L129.508 172H120.748ZM152.863 172V150.88H159.303V172H152.863ZM156.103 147.92C154.876 147.92 153.929 147.667 153.263 147.16C152.623 146.627 152.303 145.88 152.303 144.92C152.303 143.907 152.623 143.147 153.263 142.64C153.929 142.107 154.876 141.84 156.103 141.84C157.356 141.84 158.303 142.107 158.943 142.64C159.609 143.147 159.943 143.893 159.943 144.88C159.943 145.867 159.609 146.627 158.943 147.16C158.303 147.667 157.356 147.92 156.103 147.92ZM164.308 172V159.28V150.88H169.508L169.588 157.08H170.388C170.735 155.587 171.228 154.333 171.868 153.32C172.508 152.307 173.321 151.56 174.308 151.08C175.295 150.573 176.455 150.32 177.788 150.32C180.268 150.32 182.148 151.187 183.428 152.92C184.735 154.653 185.388 157.413 185.388 161.2V172H178.908V161.92C178.908 159.733 178.588 158.147 177.948 157.16C177.335 156.147 176.415 155.64 175.188 155.64C174.175 155.64 173.335 155.947 172.668 156.56C172.028 157.173 171.548 157.987 171.228 159C170.908 160.013 170.748 161.147 170.748 162.4V172H164.308ZM197.731 172.56C195.971 172.56 194.425 172.12 193.091 171.24C191.785 170.333 190.758 169.053 190.011 167.4C189.265 165.72 188.891 163.72 188.891 161.4C188.891 159.267 189.211 157.373 189.851 155.72C190.491 154.067 191.438 152.773 192.691 151.84C193.971 150.88 195.545 150.4 197.411 150.4C198.745 150.4 199.865 150.64 200.771 151.12C201.705 151.6 202.478 152.32 203.091 153.28C203.705 154.24 204.198 155.453 204.571 156.92H205.571C205.385 156.013 205.211 155.16 205.051 154.36C204.891 153.533 204.758 152.773 204.651 152.08C204.571 151.36 204.531 150.733 204.531 150.2V143.2H211.011V161.68V172H205.731L205.651 165.76H204.771C204.478 167.36 204.011 168.667 203.371 169.68C202.758 170.667 201.971 171.4 201.011 171.88C200.078 172.333 198.985 172.56 197.731 172.56ZM200.051 167.36C200.878 167.36 201.571 167.187 202.131 166.84C202.718 166.467 203.185 166 203.531 165.44C203.878 164.88 204.131 164.28 204.291 163.64C204.451 163 204.531 162.4 204.531 161.84V161C204.531 160.493 204.465 159.987 204.331 159.48C204.198 158.973 203.998 158.48 203.731 158C203.491 157.52 203.185 157.093 202.811 156.72C202.438 156.347 201.998 156.053 201.491 155.84C201.011 155.627 200.478 155.52 199.891 155.52C199.011 155.52 198.251 155.76 197.611 156.24C196.998 156.72 196.518 157.4 196.171 158.28C195.851 159.16 195.691 160.2 195.691 161.4C195.691 162.6 195.865 163.653 196.211 164.56C196.558 165.44 197.065 166.133 197.731 166.64C198.398 167.12 199.171 167.36 200.051 167.36Z" fill="white"/>
</svg>
