<svg width="319" height="245" viewBox="0 0 319 245" fill="none" xmlns="http://www.w3.org/2000/svg">
<g clip-path="url(#clip0_63_75)">
<path d="M29 40C29 31.1634 36.1634 24 45 24H275C283.837 24 291 31.1634 291 40V205C291 213.837 283.837 221 275 221H45C36.1634 221 29 213.837 29 205V40Z" fill="#14042D"/>
<path d="M45 24.5H275C283.56 24.5 290.5 31.4396 290.5 40V205C290.5 213.56 283.56 220.5 275 220.5H45C36.4396 220.5 29.5 213.56 29.5 205V40C29.5 31.4396 36.4396 24.5 45 24.5Z" stroke="#0000FF" stroke-opacity="0.7"/>
<path d="M159.667 91C159.667 81.4272 167.427 73.6666 177 73.6666C186.573 73.6666 194.333 81.4272 194.333 91C194.333 100.573 186.573 108.333 177 108.333C167.427 108.333 159.667 100.573 159.667 91Z" fill="#1ABCFE"/>
<path d="M125 125.667C125 116.094 132.76 108.333 142.333 108.333H159.667V125.667C159.667 135.24 151.906 143 142.333 143C132.76 143 125 135.24 125 125.667Z" fill="#0ACF83"/>
<path d="M159.667 39.0002V73.6667H177C186.573 73.6667 194.333 65.9064 194.333 56.3333C194.333 46.7603 186.573 39.0002 177 39.0002H159.667Z" fill="#FF7262"/>
<path d="M125 56.3333C125 65.9064 132.76 73.6667 142.333 73.6667H159.667V39H142.333C132.76 39 125 46.7606 125 56.3333Z" fill="#F24E1E"/>
<path d="M125 91C125 100.573 132.76 108.333 142.333 108.333H159.667V73.6666H142.333C132.76 73.6666 125 81.4272 125 91Z" fill="#A259FF"/>
<path d="M100.76 196V169.6H107.2V196H100.76ZM103.92 186.6V181.36H119.4V186.6H103.92ZM103.92 175.08V169.6H120.84V175.08H103.92ZM124.503 196V174.88H130.943V196H124.503ZM127.743 171.92C126.517 171.92 125.57 171.667 124.903 171.16C124.263 170.627 123.943 169.88 123.943 168.92C123.943 167.907 124.263 167.147 124.903 166.64C125.57 166.107 126.517 165.84 127.743 165.84C128.997 165.84 129.943 166.107 130.583 166.64C131.25 167.147 131.583 167.893 131.583 168.88C131.583 169.867 131.25 170.627 130.583 171.16C129.943 171.667 128.997 171.92 127.743 171.92ZM144.469 203.4C142.122 203.4 140.189 203.213 138.669 202.84C137.175 202.493 136.082 201.96 135.389 201.24C134.695 200.547 134.349 199.693 134.349 198.68C134.349 197.453 134.829 196.453 135.789 195.68C136.775 194.907 138.215 194.467 140.109 194.36V193.52C138.642 193.52 137.509 193.373 136.709 193.08C135.935 192.787 135.549 192.24 135.549 191.44C135.549 190.693 135.935 190.013 136.709 189.4C137.482 188.787 138.762 188.307 140.549 187.96V187.12C138.922 186.987 137.629 186.453 136.669 185.52C135.709 184.56 135.229 183.307 135.229 181.76C135.229 180.453 135.602 179.267 136.349 178.2C137.095 177.107 138.215 176.24 139.709 175.6C141.202 174.933 143.069 174.6 145.309 174.6H156.269V179.44L149.589 178.56V179.52C151.322 179.76 152.562 180.16 153.309 180.72C154.055 181.28 154.429 182.067 154.429 183.08C154.429 184.147 154.055 185.093 153.309 185.92C152.589 186.747 151.562 187.4 150.229 187.88C148.895 188.333 147.309 188.56 145.469 188.56C145.149 188.56 144.789 188.547 144.389 188.52C144.015 188.493 143.309 188.427 142.269 188.32C141.842 188.693 141.509 189.013 141.269 189.28C141.029 189.52 140.909 189.747 140.909 189.96C140.909 190.12 140.975 190.253 141.109 190.36C141.242 190.467 141.429 190.547 141.669 190.6C141.935 190.627 142.215 190.64 142.509 190.64H148.949C149.482 190.64 150.175 190.68 151.029 190.76C151.909 190.813 152.775 191.013 153.629 191.36C154.509 191.707 155.242 192.267 155.829 193.04C156.442 193.813 156.749 194.92 156.749 196.36C156.749 197.933 156.309 199.24 155.429 200.28C154.549 201.347 153.202 202.133 151.389 202.64C149.575 203.147 147.269 203.4 144.469 203.4ZM145.309 198.28C146.855 198.28 148.055 198.2 148.909 198.04C149.762 197.88 150.349 197.627 150.669 197.28C151.015 196.933 151.189 196.507 151.189 196C151.189 195.52 151.095 195.147 150.909 194.88C150.722 194.587 150.482 194.387 150.189 194.28C149.895 194.173 149.589 194.107 149.269 194.08C148.975 194.053 148.722 194.04 148.509 194.04H143.349C142.362 194.04 141.629 194.28 141.149 194.76C140.695 195.213 140.469 195.747 140.469 196.36C140.469 196.867 140.629 197.253 140.949 197.52C141.269 197.813 141.775 198.013 142.469 198.12C143.189 198.227 144.135 198.28 145.309 198.28ZM145.029 185.36C146.175 185.36 147.029 185.053 147.589 184.44C148.175 183.827 148.469 183.053 148.469 182.12C148.469 181.107 148.175 180.28 147.589 179.64C147.002 178.973 146.162 178.64 145.069 178.64C143.975 178.64 143.122 178.973 142.509 179.64C141.895 180.28 141.589 181.107 141.589 182.12C141.589 182.733 141.722 183.293 141.989 183.8C142.255 184.28 142.642 184.667 143.149 184.96C143.655 185.227 144.282 185.36 145.029 185.36ZM160.246 196V182.36V174.88H165.326L165.406 181.08H166.206C166.579 179.56 167.072 178.307 167.686 177.32C168.299 176.307 169.046 175.56 169.926 175.08C170.806 174.573 171.832 174.32 173.006 174.32C174.232 174.32 175.246 174.587 176.046 175.12C176.872 175.627 177.526 176.387 178.006 177.4C178.486 178.387 178.806 179.613 178.966 181.08H179.646C180.072 179.507 180.632 178.227 181.326 177.24C182.019 176.227 182.846 175.493 183.806 175.04C184.766 174.56 185.806 174.32 186.926 174.32C188.126 174.32 189.166 174.56 190.046 175.04C190.952 175.493 191.699 176.187 192.286 177.12C192.899 178.027 193.352 179.173 193.646 180.56C193.939 181.92 194.086 183.507 194.086 185.32V196H187.606V186.12C187.606 184.707 187.486 183.533 187.246 182.6C187.032 181.667 186.686 180.973 186.206 180.52C185.726 180.04 185.112 179.8 184.366 179.8C183.512 179.8 182.779 180.08 182.166 180.64C181.579 181.2 181.126 181.987 180.806 183C180.486 183.987 180.326 185.107 180.326 186.36V196H174.006V186.24C174.006 184.773 173.872 183.573 173.606 182.64C173.366 181.707 172.992 181 172.486 180.52C172.006 180.04 171.392 179.8 170.646 179.8C169.792 179.8 169.072 180.08 168.486 180.64C167.899 181.2 167.446 181.987 167.126 183C166.832 183.987 166.686 185.107 166.686 186.36V196H160.246ZM203.721 196.56C202.548 196.56 201.508 196.333 200.601 195.88C199.695 195.4 198.988 194.72 198.481 193.84C197.975 192.933 197.721 191.84 197.721 190.56C197.721 189.36 197.948 188.373 198.401 187.6C198.881 186.8 199.561 186.173 200.441 185.72C201.348 185.24 202.428 184.853 203.681 184.56C204.935 184.24 206.361 183.96 207.961 183.72C208.735 183.587 209.375 183.467 209.881 183.36C210.415 183.227 210.815 183.027 211.081 182.76C211.348 182.493 211.481 182.107 211.481 181.6C211.481 180.933 211.241 180.36 210.761 179.88C210.281 179.4 209.508 179.16 208.441 179.16C207.695 179.16 207.015 179.293 206.401 179.56C205.815 179.827 205.308 180.213 204.881 180.72C204.455 181.227 204.135 181.84 203.921 182.56L198.241 180.88C198.588 179.76 199.068 178.787 199.681 177.96C200.321 177.133 201.081 176.453 201.961 175.92C202.841 175.36 203.841 174.96 204.961 174.72C206.108 174.453 207.321 174.32 208.601 174.32C210.735 174.32 212.468 174.667 213.801 175.36C215.161 176.027 216.161 177.08 216.801 178.52C217.468 179.933 217.801 181.76 217.801 184V187.24C217.801 188.2 217.815 189.173 217.841 190.16C217.895 191.12 217.948 192.093 218.001 193.08C218.081 194.04 218.175 195.013 218.281 196H212.601C212.495 195.387 212.388 194.653 212.281 193.8C212.175 192.92 212.095 192.027 212.041 191.12H211.281C210.908 192.133 210.361 193.067 209.641 193.92C208.948 194.747 208.095 195.4 207.081 195.88C206.095 196.333 204.975 196.56 203.721 196.56ZM206.641 192C207.121 192 207.601 191.92 208.081 191.76C208.588 191.573 209.068 191.333 209.521 191.04C209.975 190.72 210.388 190.333 210.761 189.88C211.135 189.427 211.415 188.933 211.601 188.4L211.521 185.24L212.401 185.44C211.895 185.76 211.335 186.013 210.721 186.2C210.108 186.387 209.481 186.533 208.841 186.64C208.228 186.747 207.615 186.867 207.001 187C206.415 187.107 205.881 187.253 205.401 187.44C204.948 187.627 204.588 187.88 204.321 188.2C204.055 188.52 203.921 188.96 203.921 189.52C203.921 190.267 204.175 190.867 204.681 191.32C205.188 191.773 205.841 192 206.641 192Z" fill="white"/>
</g>
<defs>
<clipPath id="clip0_63_75">
<rect width="319" height="245" fill="white"/>
</clipPath>
</defs>
</svg>
