<svg width="262" height="197" viewBox="0 0 262 197" fill="none" xmlns="http://www.w3.org/2000/svg">
<path d="M0 16C0 7.16345 7.16344 0 16 0H246C254.837 0 262 7.16344 262 16V181C262 189.837 254.837 197 246 197H16C7.16345 197 0 189.837 0 181V16Z" fill="#14042D"/>
<path d="M16 0.5H246C254.56 0.5 261.5 7.43959 261.5 16V181C261.5 189.56 254.56 196.5 246 196.5H16C7.43959 196.5 0.5 189.56 0.5 181V16C0.500003 7.43959 7.43959 0.5 16 0.5Z" stroke="#0000FF" stroke-opacity="0.7"/>
<path d="M130.667 67C130.667 57.4272 138.427 49.6666 148 49.6666C157.573 49.6666 165.333 57.4272 165.333 67C165.333 76.573 157.573 84.3333 148 84.3333C138.427 84.3333 130.667 76.573 130.667 67Z" fill="#1ABCFE"/>
<path d="M96 101.667C96 92.0939 103.76 84.3334 113.333 84.3334H130.667V101.667C130.667 111.24 122.906 119 113.333 119C103.76 119 96 111.24 96 101.667Z" fill="#0ACF83"/>
<path d="M130.667 15.0002V49.6667H148C157.573 49.6667 165.333 41.9064 165.333 32.3333C165.333 22.7603 157.573 15.0002 148 15.0002H130.667Z" fill="#FF7262"/>
<path d="M96 32.3333C96 41.9064 103.76 49.6667 113.333 49.6667H130.667V15H113.333C103.76 15 96 22.7606 96 32.3333Z" fill="#F24E1E"/>
<path d="M96 67C96 76.573 103.76 84.3333 113.333 84.3333H130.667V49.6666H113.333C103.76 49.6666 96 57.4272 96 67Z" fill="#A259FF"/>
<path d="M71.76 172V145.6H78.2V172H71.76ZM74.92 162.6V157.36H90.4V162.6H74.92ZM74.92 151.08V145.6H91.84V151.08H74.92ZM95.5034 172V150.88H101.943V172H95.5034ZM98.7434 147.92C97.5168 147.92 96.5701 147.667 95.9034 147.16C95.2634 146.627 94.9434 145.88 94.9434 144.92C94.9434 143.907 95.2634 143.147 95.9034 142.64C96.5701 142.107 97.5168 141.84 98.7434 141.84C99.9968 141.84 100.943 142.107 101.583 142.64C102.25 143.147 102.583 143.893 102.583 144.88C102.583 145.867 102.25 146.627 101.583 147.16C100.943 147.667 99.9968 147.92 98.7434 147.92ZM115.469 179.4C113.122 179.4 111.189 179.213 109.669 178.84C108.175 178.493 107.082 177.96 106.389 177.24C105.695 176.547 105.349 175.693 105.349 174.68C105.349 173.453 105.829 172.453 106.789 171.68C107.775 170.907 109.215 170.467 111.109 170.36V169.52C109.642 169.52 108.509 169.373 107.709 169.08C106.935 168.787 106.549 168.24 106.549 167.44C106.549 166.693 106.935 166.013 107.709 165.4C108.482 164.787 109.762 164.307 111.549 163.96V163.12C109.922 162.987 108.629 162.453 107.669 161.52C106.709 160.56 106.229 159.307 106.229 157.76C106.229 156.453 106.602 155.267 107.349 154.2C108.095 153.107 109.215 152.24 110.709 151.6C112.202 150.933 114.069 150.6 116.309 150.6H127.269V155.44L120.589 154.56V155.52C122.322 155.76 123.562 156.16 124.309 156.72C125.055 157.28 125.429 158.067 125.429 159.08C125.429 160.147 125.055 161.093 124.309 161.92C123.589 162.747 122.562 163.4 121.229 163.88C119.895 164.333 118.309 164.56 116.469 164.56C116.149 164.56 115.789 164.547 115.389 164.52C115.015 164.493 114.309 164.427 113.269 164.32C112.842 164.693 112.509 165.013 112.269 165.28C112.029 165.52 111.909 165.747 111.909 165.96C111.909 166.12 111.975 166.253 112.109 166.36C112.242 166.467 112.429 166.547 112.669 166.6C112.935 166.627 113.215 166.64 113.509 166.64H119.949C120.482 166.64 121.175 166.68 122.029 166.76C122.909 166.813 123.775 167.013 124.629 167.36C125.509 167.707 126.242 168.267 126.829 169.04C127.442 169.813 127.749 170.92 127.749 172.36C127.749 173.933 127.309 175.24 126.429 176.28C125.549 177.347 124.202 178.133 122.389 178.64C120.575 179.147 118.269 179.4 115.469 179.4ZM116.309 174.28C117.855 174.28 119.055 174.2 119.909 174.04C120.762 173.88 121.349 173.627 121.669 173.28C122.015 172.933 122.189 172.507 122.189 172C122.189 171.52 122.095 171.147 121.909 170.88C121.722 170.587 121.482 170.387 121.189 170.28C120.895 170.173 120.589 170.107 120.269 170.08C119.975 170.053 119.722 170.04 119.509 170.04H114.349C113.362 170.04 112.629 170.28 112.149 170.76C111.695 171.213 111.469 171.747 111.469 172.36C111.469 172.867 111.629 173.253 111.949 173.52C112.269 173.813 112.775 174.013 113.469 174.12C114.189 174.227 115.135 174.28 116.309 174.28ZM116.029 161.36C117.175 161.36 118.029 161.053 118.589 160.44C119.175 159.827 119.469 159.053 119.469 158.12C119.469 157.107 119.175 156.28 118.589 155.64C118.002 154.973 117.162 154.64 116.069 154.64C114.975 154.64 114.122 154.973 113.509 155.64C112.895 156.28 112.589 157.107 112.589 158.12C112.589 158.733 112.722 159.293 112.989 159.8C113.255 160.28 113.642 160.667 114.149 160.96C114.655 161.227 115.282 161.36 116.029 161.36ZM131.246 172V158.36V150.88H136.326L136.406 157.08H137.206C137.579 155.56 138.072 154.307 138.686 153.32C139.299 152.307 140.046 151.56 140.926 151.08C141.806 150.573 142.832 150.32 144.006 150.32C145.232 150.32 146.246 150.587 147.046 151.12C147.872 151.627 148.526 152.387 149.006 153.4C149.486 154.387 149.806 155.613 149.966 157.08H150.646C151.072 155.507 151.632 154.227 152.326 153.24C153.019 152.227 153.846 151.493 154.806 151.04C155.766 150.56 156.806 150.32 157.926 150.32C159.126 150.32 160.166 150.56 161.046 151.04C161.952 151.493 162.699 152.187 163.286 153.12C163.899 154.027 164.352 155.173 164.646 156.56C164.939 157.92 165.086 159.507 165.086 161.32V172H158.606V162.12C158.606 160.707 158.486 159.533 158.246 158.6C158.032 157.667 157.686 156.973 157.206 156.52C156.726 156.04 156.112 155.8 155.366 155.8C154.512 155.8 153.779 156.08 153.166 156.64C152.579 157.2 152.126 157.987 151.806 159C151.486 159.987 151.326 161.107 151.326 162.36V172H145.006V162.24C145.006 160.773 144.872 159.573 144.606 158.64C144.366 157.707 143.992 157 143.486 156.52C143.006 156.04 142.392 155.8 141.646 155.8C140.792 155.8 140.072 156.08 139.486 156.64C138.899 157.2 138.446 157.987 138.126 159C137.832 159.987 137.686 161.107 137.686 162.36V172H131.246ZM174.721 172.56C173.548 172.56 172.508 172.333 171.601 171.88C170.695 171.4 169.988 170.72 169.481 169.84C168.975 168.933 168.721 167.84 168.721 166.56C168.721 165.36 168.948 164.373 169.401 163.6C169.881 162.8 170.561 162.173 171.441 161.72C172.348 161.24 173.428 160.853 174.681 160.56C175.935 160.24 177.361 159.96 178.961 159.72C179.735 159.587 180.375 159.467 180.881 159.36C181.415 159.227 181.815 159.027 182.081 158.76C182.348 158.493 182.481 158.107 182.481 157.6C182.481 156.933 182.241 156.36 181.761 155.88C181.281 155.4 180.508 155.16 179.441 155.16C178.695 155.16 178.015 155.293 177.401 155.56C176.815 155.827 176.308 156.213 175.881 156.72C175.455 157.227 175.135 157.84 174.921 158.56L169.241 156.88C169.588 155.76 170.068 154.787 170.681 153.96C171.321 153.133 172.081 152.453 172.961 151.92C173.841 151.36 174.841 150.96 175.961 150.72C177.108 150.453 178.321 150.32 179.601 150.32C181.735 150.32 183.468 150.667 184.801 151.36C186.161 152.027 187.161 153.08 187.801 154.52C188.468 155.933 188.801 157.76 188.801 160V163.24C188.801 164.2 188.815 165.173 188.841 166.16C188.895 167.12 188.948 168.093 189.001 169.08C189.081 170.04 189.175 171.013 189.281 172H183.601C183.495 171.387 183.388 170.653 183.281 169.8C183.175 168.92 183.095 168.027 183.041 167.12H182.281C181.908 168.133 181.361 169.067 180.641 169.92C179.948 170.747 179.095 171.4 178.081 171.88C177.095 172.333 175.975 172.56 174.721 172.56ZM177.641 168C178.121 168 178.601 167.92 179.081 167.76C179.588 167.573 180.068 167.333 180.521 167.04C180.975 166.72 181.388 166.333 181.761 165.88C182.135 165.427 182.415 164.933 182.601 164.4L182.521 161.24L183.401 161.44C182.895 161.76 182.335 162.013 181.721 162.2C181.108 162.387 180.481 162.533 179.841 162.64C179.228 162.747 178.615 162.867 178.001 163C177.415 163.107 176.881 163.253 176.401 163.44C175.948 163.627 175.588 163.88 175.321 164.2C175.055 164.52 174.921 164.96 174.921 165.52C174.921 166.267 175.175 166.867 175.681 167.32C176.188 167.773 176.841 168 177.641 168Z" fill="white"/>
</svg>
