<svg width="262" height="197" viewBox="0 0 262 197" fill="none" xmlns="http://www.w3.org/2000/svg">
<path d="M0 16C0 7.16345 7.16344 0 16 0H246C254.837 0 262 7.16344 262 16V181C262 189.837 254.837 197 246 197H16C7.16345 197 0 189.837 0 181V16Z" fill="#14042D"/>
<path d="M16 0.5H246C254.56 0.5 261.5 7.43959 261.5 16V181C261.5 189.56 254.56 196.5 246 196.5H16C7.43959 196.5 0.5 189.56 0.5 181V16C0.500003 7.43959 7.43959 0.5 16 0.5Z" stroke="#0000FF" stroke-opacity="0.7"/>
<path d="M79 67V15H183V119H79" fill="#007ACC"/>
<path d="M101.802 67.182V71.42H115.322V109.9H124.916V71.42H138.436V67.26C138.436 64.92 138.436 63.022 138.332 62.97C138.332 62.892 130.09 62.866 120.08 62.866L101.88 62.944V67.208L101.802 67.182ZM162.564 62.84C165.216 63.464 167.244 64.66 169.064 66.558C170.026 67.598 171.456 69.418 171.56 69.886C171.56 70.042 167.062 73.084 164.332 74.774C164.228 74.852 163.812 74.41 163.396 73.734C162.044 71.81 160.666 70.978 158.508 70.822C155.388 70.614 153.308 72.252 153.308 74.982C153.308 75.814 153.464 76.282 153.776 76.958C154.478 78.388 155.778 79.246 159.808 81.014C167.244 84.212 170.468 86.318 172.418 89.334C174.628 92.714 175.122 98.018 173.64 101.996C171.976 106.338 167.92 109.276 162.122 110.238C160.302 110.55 156.142 110.498 154.192 110.16C150.032 109.38 146.054 107.3 143.61 104.622C142.648 103.582 140.802 100.8 140.906 100.618L141.894 99.994L145.794 97.732L148.732 96.016L149.408 96.926C150.266 98.278 152.19 100.098 153.308 100.722C156.688 102.464 161.212 102.23 163.448 100.202C164.41 99.318 164.826 98.382 164.826 97.082C164.826 95.886 164.644 95.34 164.046 94.43C163.214 93.286 161.55 92.35 156.87 90.27C151.488 87.982 149.2 86.526 147.068 84.29C145.846 82.938 144.728 80.832 144.208 79.09C143.818 77.582 143.688 73.89 144.052 72.408C145.17 67.208 149.096 63.568 154.712 62.528C156.532 62.164 160.822 62.32 162.616 62.788L162.564 62.84Z" fill="white"/>
<path d="M30.32 172V145.6H36.8V172H30.32ZM22.64 150.96V145.6H44.56V150.96H22.64ZM55.2563 179.36C54.1896 179.36 53.0963 179.267 51.9763 179.08C50.8563 178.893 49.7896 178.613 48.7763 178.24C47.7896 177.893 46.9363 177.427 46.2163 176.84L47.7763 171.12C48.7096 172 49.8296 172.653 51.1363 173.08C52.4696 173.507 53.7496 173.72 54.9763 173.72C56.3896 173.72 57.5496 173.44 58.4563 172.88C59.3896 172.347 60.0963 171.52 60.5763 170.4C61.0829 169.253 61.3763 167.84 61.4563 166.16L61.6563 162.68H60.6963C60.4563 164.413 60.0296 165.827 59.4163 166.92C58.8296 168.013 58.0696 168.827 57.1363 169.36C56.2296 169.867 55.1496 170.12 53.8963 170.12C52.3496 170.12 51.0563 169.733 50.0163 168.96C48.9763 168.187 48.1896 167.027 47.6563 165.48C47.1496 163.907 46.8963 161.96 46.8963 159.64V150.88H53.3763V158.04C53.3763 160.493 53.6163 162.253 54.0963 163.32C54.6029 164.36 55.3896 164.88 56.4563 164.88C57.0163 164.88 57.5229 164.72 57.9763 164.4C58.4296 164.08 58.8163 163.627 59.1363 163.04C59.4563 162.453 59.6963 161.747 59.8563 160.92C60.0429 160.067 60.1363 159.12 60.1363 158.08V150.88H66.5763V166.4C66.5763 168.08 66.4163 169.613 66.0963 171C65.8029 172.387 65.3496 173.6 64.7363 174.64C64.1496 175.68 63.4029 176.547 62.4963 177.24C61.5896 177.96 60.5363 178.493 59.3363 178.84C58.1363 179.187 56.7763 179.36 55.2563 179.36ZM71.4722 178.76V161.68V150.88H76.7522L76.8322 156.88L77.5522 156.96C77.7922 155.467 78.2189 154.227 78.8322 153.24C79.4455 152.253 80.2322 151.52 81.1922 151.04C82.1789 150.56 83.2989 150.32 84.5522 150.32C86.4189 150.32 88.0189 150.773 89.3522 151.68C90.7122 152.587 91.7522 153.88 92.4722 155.56C93.1922 157.24 93.5522 159.253 93.5522 161.6C93.5522 163.68 93.2322 165.547 92.5922 167.2C91.9789 168.853 91.0322 170.16 89.7522 171.12C88.4989 172.08 86.8989 172.56 84.9522 172.56C83.6455 172.56 82.5389 172.333 81.6322 171.88C80.7255 171.4 79.9522 170.707 79.3122 169.8C78.6989 168.893 78.1789 167.76 77.7522 166.4H76.9922C77.1522 167.12 77.2989 167.853 77.4322 168.6C77.5655 169.347 77.6722 170.067 77.7522 170.76C77.8589 171.453 77.9122 172.12 77.9122 172.76V178.76H71.4722ZM82.5922 167.48C83.4722 167.48 84.2189 167.24 84.8322 166.76C85.4722 166.28 85.9655 165.6 86.3122 164.72C86.6589 163.84 86.8322 162.813 86.8322 161.64C86.8322 160.387 86.6455 159.32 86.2722 158.44C85.9255 157.533 85.4189 156.84 84.7522 156.36C84.0855 155.853 83.3122 155.6 82.4322 155.6C81.6055 155.6 80.8989 155.787 80.3122 156.16C79.7522 156.507 79.2855 156.973 78.9122 157.56C78.5655 158.12 78.3122 158.72 78.1522 159.36C77.9922 160 77.9122 160.6 77.9122 161.16V162.04C77.9122 162.547 77.9789 163.053 78.1122 163.56C78.2455 164.067 78.4455 164.56 78.7122 165.04C78.9789 165.493 79.2989 165.907 79.6722 166.28C80.0455 166.653 80.4722 166.947 80.9522 167.16C81.4589 167.373 82.0055 167.48 82.5922 167.48ZM107.528 172.56C105.768 172.56 104.194 172.333 102.808 171.88C101.421 171.4 100.234 170.707 99.2478 169.8C98.2878 168.893 97.5545 167.773 97.0478 166.44C96.5411 165.107 96.2878 163.573 96.2878 161.84C96.2878 160.16 96.5278 158.613 97.0078 157.2C97.5145 155.787 98.2211 154.573 99.1278 153.56C100.061 152.52 101.194 151.72 102.528 151.16C103.888 150.6 105.408 150.32 107.088 150.32C108.794 150.32 110.288 150.6 111.568 151.16C112.874 151.693 113.941 152.493 114.768 153.56C115.621 154.627 116.248 155.933 116.648 157.48C117.048 159 117.181 160.747 117.048 162.72L100.528 162.84V159.48L113.368 159.36L111.088 160.92C111.274 159.587 111.194 158.507 110.848 157.68C110.501 156.827 109.994 156.213 109.328 155.84C108.661 155.44 107.941 155.24 107.168 155.24C106.234 155.24 105.408 155.493 104.688 156C103.994 156.507 103.448 157.24 103.048 158.2C102.648 159.16 102.448 160.333 102.448 161.72C102.448 163.907 102.914 165.493 103.848 166.48C104.808 167.467 106.021 167.96 107.488 167.96C108.208 167.96 108.808 167.867 109.288 167.68C109.768 167.467 110.154 167.213 110.448 166.92C110.768 166.6 111.008 166.253 111.168 165.88C111.354 165.507 111.501 165.147 111.608 164.8L117.208 166C116.994 166.987 116.648 167.88 116.168 168.68C115.714 169.48 115.088 170.173 114.288 170.76C113.514 171.347 112.568 171.787 111.448 172.08C110.354 172.4 109.048 172.56 107.528 172.56ZM131.724 172.56C130.018 172.56 128.471 172.4 127.084 172.08C125.698 171.76 124.498 171.28 123.484 170.64C122.471 169.973 121.671 169.133 121.084 168.12C120.498 167.107 120.151 165.933 120.044 164.6L125.684 162.72C125.764 163.84 126.084 164.773 126.644 165.52C127.204 166.267 127.951 166.827 128.884 167.2C129.844 167.547 130.911 167.72 132.084 167.72C133.204 167.72 134.138 167.587 134.884 167.32C135.658 167.027 136.231 166.667 136.604 166.24C137.004 165.787 137.204 165.307 137.204 164.8C137.204 164.213 136.951 163.733 136.444 163.36C135.938 162.96 135.244 162.627 134.364 162.36C133.484 162.067 132.458 161.787 131.284 161.52C129.951 161.2 128.644 160.853 127.364 160.48C126.084 160.107 124.924 159.627 123.884 159.04C122.844 158.427 122.018 157.653 121.404 156.72C120.818 155.76 120.524 154.56 120.524 153.12C120.524 151.493 120.938 150.08 121.764 148.88C122.591 147.68 123.804 146.747 125.404 146.08C127.004 145.387 128.978 145.04 131.324 145.04C133.644 145.04 135.618 145.373 137.244 146.04C138.871 146.707 140.124 147.64 141.004 148.84C141.884 150.013 142.364 151.387 142.444 152.96L136.684 154.6C136.684 153.827 136.551 153.147 136.284 152.56C136.044 151.973 135.698 151.493 135.244 151.12C134.791 150.72 134.231 150.427 133.564 150.24C132.898 150.027 132.138 149.92 131.284 149.92C130.271 149.92 129.404 150.04 128.684 150.28C127.991 150.52 127.471 150.84 127.124 151.24C126.778 151.613 126.604 152.053 126.604 152.56C126.604 153.2 126.871 153.733 127.404 154.16C127.964 154.56 128.711 154.907 129.644 155.2C130.604 155.467 131.658 155.733 132.804 156C133.951 156.24 135.138 156.547 136.364 156.92C137.591 157.267 138.738 157.733 139.804 158.32C140.871 158.907 141.724 159.707 142.364 160.72C143.031 161.707 143.364 162.96 143.364 164.48C143.364 166.107 142.924 167.533 142.044 168.76C141.191 169.96 139.898 170.893 138.164 171.56C136.431 172.227 134.284 172.56 131.724 172.56ZM157.253 172.56C155.439 172.56 153.839 172.307 152.453 171.8C151.066 171.293 149.906 170.573 148.973 169.64C148.039 168.68 147.319 167.533 146.813 166.2C146.333 164.867 146.093 163.373 146.093 161.72C146.093 160.013 146.333 158.467 146.813 157.08C147.319 155.693 148.039 154.493 148.973 153.48C149.906 152.467 151.053 151.693 152.413 151.16C153.773 150.6 155.333 150.32 157.093 150.32C158.853 150.32 160.373 150.6 161.653 151.16C162.933 151.72 163.973 152.507 164.773 153.52C165.599 154.533 166.159 155.707 166.453 157.04L160.493 159.04C160.413 158.16 160.199 157.44 159.853 156.88C159.506 156.32 159.053 155.92 158.493 155.68C157.959 155.413 157.373 155.28 156.733 155.28C156.066 155.28 155.479 155.413 154.973 155.68C154.466 155.947 154.039 156.347 153.693 156.88C153.346 157.413 153.079 158.067 152.893 158.84C152.706 159.587 152.613 160.453 152.613 161.44C152.613 162.853 152.786 164.04 153.133 165C153.506 165.933 154.039 166.64 154.733 167.12C155.453 167.6 156.319 167.84 157.333 167.84C158.373 167.84 159.186 167.627 159.773 167.2C160.359 166.773 160.786 166.253 161.053 165.64C161.319 165 161.479 164.373 161.533 163.76L167.133 165C167.026 165.987 166.759 166.947 166.333 167.88C165.933 168.787 165.333 169.6 164.533 170.32C163.733 171.013 162.733 171.56 161.533 171.96C160.359 172.36 158.933 172.56 157.253 172.56ZM170.144 172V162.2V150.88H175.424L175.544 158.04H176.344C176.531 156.173 176.877 154.693 177.384 153.6C177.917 152.48 178.664 151.667 179.624 151.16C180.611 150.653 181.824 150.4 183.264 150.4C183.477 150.4 183.717 150.413 183.984 150.44C184.251 150.44 184.557 150.467 184.904 150.52L184.664 157.4C184.237 157.187 183.771 157.053 183.264 157C182.784 156.92 182.357 156.88 181.984 156.88C180.944 156.88 180.037 157.08 179.264 157.48C178.517 157.88 177.917 158.493 177.464 159.32C177.037 160.147 176.757 161.187 176.624 162.44V172H170.144ZM187.996 172V150.88H194.436V172H187.996ZM191.236 147.92C190.009 147.92 189.062 147.667 188.396 147.16C187.756 146.627 187.436 145.88 187.436 144.92C187.436 143.907 187.756 143.147 188.396 142.64C189.062 142.107 190.009 141.84 191.236 141.84C192.489 141.84 193.436 142.107 194.076 142.64C194.742 143.147 195.076 143.893 195.076 144.88C195.076 145.867 194.742 146.627 194.076 147.16C193.436 147.667 192.489 147.92 191.236 147.92ZM199.441 178.76V161.68V150.88H204.721L204.801 156.88L205.521 156.96C205.761 155.467 206.188 154.227 206.801 153.24C207.414 152.253 208.201 151.52 209.161 151.04C210.148 150.56 211.268 150.32 212.521 150.32C214.388 150.32 215.988 150.773 217.321 151.68C218.681 152.587 219.721 153.88 220.441 155.56C221.161 157.24 221.521 159.253 221.521 161.6C221.521 163.68 221.201 165.547 220.561 167.2C219.948 168.853 219.001 170.16 217.721 171.12C216.468 172.08 214.868 172.56 212.921 172.56C211.614 172.56 210.508 172.333 209.601 171.88C208.694 171.4 207.921 170.707 207.281 169.8C206.668 168.893 206.148 167.76 205.721 166.4H204.961C205.121 167.12 205.268 167.853 205.401 168.6C205.534 169.347 205.641 170.067 205.721 170.76C205.828 171.453 205.881 172.12 205.881 172.76V178.76H199.441ZM210.561 167.48C211.441 167.48 212.188 167.24 212.801 166.76C213.441 166.28 213.934 165.6 214.281 164.72C214.628 163.84 214.801 162.813 214.801 161.64C214.801 160.387 214.614 159.32 214.241 158.44C213.894 157.533 213.388 156.84 212.721 156.36C212.054 155.853 211.281 155.6 210.401 155.6C209.574 155.6 208.868 155.787 208.281 156.16C207.721 156.507 207.254 156.973 206.881 157.56C206.534 158.12 206.281 158.72 206.121 159.36C205.961 160 205.881 160.6 205.881 161.16V162.04C205.881 162.547 205.948 163.053 206.081 163.56C206.214 164.067 206.414 164.56 206.681 165.04C206.948 165.493 207.268 165.907 207.641 166.28C208.014 166.653 208.441 166.947 208.921 167.16C209.428 167.373 209.974 167.48 210.561 167.48ZM233.618 172.52C231.138 172.52 229.312 171.867 228.138 170.56C226.965 169.227 226.378 167.107 226.378 164.2V155.92H223.378L223.498 150.92H225.658C226.512 150.893 227.152 150.76 227.578 150.52C228.032 150.28 228.312 149.827 228.418 149.16L228.938 146.2H232.578V150.88H237.658V156.12H232.578V163.92C232.578 164.827 232.792 165.493 233.218 165.92C233.672 166.347 234.352 166.56 235.258 166.56C235.765 166.56 236.245 166.507 236.698 166.4C237.152 166.293 237.525 166.147 237.818 165.96V171.92C236.965 172.187 236.178 172.347 235.458 172.4C234.765 172.48 234.152 172.52 233.618 172.52Z" fill="white"/>
</svg>
