<svg width="262" height="197" viewBox="0 0 262 197" fill="none" xmlns="http://www.w3.org/2000/svg">
<path d="M0 16C0 7.16345 7.16344 0 16 0H246C254.837 0 262 7.16344 262 16V181C262 189.837 254.837 197 246 197H16C7.16345 197 0 189.837 0 181V16Z" fill="#14042D"/>
<path d="M16 0.5H246C254.56 0.5 261.5 7.43959 261.5 16V181C261.5 189.56 254.56 196.5 246 196.5H16C7.43959 196.5 0.5 189.56 0.5 181V16C0.500003 7.43959 7.43959 0.5 16 0.5Z" stroke="#0000FF" stroke-opacity="0.7"/>
<path d="M126.93 16.1095C129.508 14.6335 132.867 14.6268 135.444 16.1095C148.406 23.4338 161.372 30.7466 174.332 38.0753C176.77 39.4484 178.4 42.1612 178.375 44.97V89.0357C178.393 91.9607 176.602 94.7383 174.03 96.0803C161.11 103.364 148.198 110.657 135.28 117.941C132.648 119.446 129.222 119.33 126.672 117.702C122.799 115.456 118.919 113.222 115.045 110.979C114.254 110.507 113.362 110.131 112.803 109.364C113.297 108.698 114.18 108.615 114.898 108.324C116.515 107.81 118 106.985 119.485 106.184C119.861 105.927 120.319 106.026 120.679 106.256C123.991 108.155 127.274 110.109 130.597 111.99C131.306 112.399 132.024 111.856 132.63 111.518C145.308 104.352 158.002 97.2141 170.678 90.0465C171.147 89.8205 171.407 89.322 171.369 88.8075C171.378 74.2712 171.371 59.7322 171.373 45.1959C171.427 44.6122 171.089 44.0754 170.561 43.8365C157.687 36.586 144.818 29.3243 131.946 22.0719C131.723 21.9185 131.459 21.8363 131.188 21.8359C130.917 21.8355 130.653 21.917 130.43 22.0696C117.557 29.3243 104.691 36.5926 91.8187 43.8428C91.2927 44.0821 90.9398 44.6099 91.0024 45.1959C91.0046 59.7322 91.0024 74.2712 91.0024 88.8097C90.98 89.0608 91.0352 89.3126 91.1603 89.5313C91.2855 89.7501 91.4747 89.9252 91.7024 90.0332C95.1375 91.9811 98.577 93.9153 102.014 95.8566C103.951 96.8989 106.328 97.5182 108.462 96.7196C110.345 96.0444 111.664 94.1231 111.628 92.1241C111.646 77.6725 111.62 63.2188 111.642 48.7695C111.595 48.128 112.203 47.5979 112.827 47.6583C114.478 47.6472 116.13 47.6361 117.781 47.6628C118.47 47.6472 118.944 48.338 118.859 48.9844C118.852 63.5274 118.876 78.0707 118.848 92.6137C118.852 96.4896 117.26 100.707 113.675 102.603C109.258 104.891 103.799 104.406 99.4356 102.212C95.6583 100.327 92.0535 98.1019 88.3433 96.0821C85.7649 94.7476 83.9822 91.9589 84.0003 89.036V44.97C83.9733 42.1031 85.6686 39.341 88.1821 37.9879C101.099 30.6981 114.015 23.4027 126.93 16.1095Z" fill="#8CC84B"/>
<path d="M138.199 46.6341C143.832 46.2715 149.864 46.4193 154.933 49.1947C158.858 51.3215 161.035 55.7852 161.104 60.1459C160.994 60.7341 160.379 61.0586 159.818 61.0182C158.183 61.016 156.548 61.0404 154.914 61.0071C154.22 61.0338 153.817 60.3945 153.73 59.7814C153.261 57.695 152.123 55.6285 150.159 54.6222C147.144 53.1128 143.649 53.1887 140.361 53.2202C137.962 53.3476 135.381 53.5554 133.348 54.9666C131.787 56.0356 131.313 58.1935 131.87 59.9315C132.395 61.1793 133.836 61.582 135.014 61.9531C141.804 63.7288 148.998 63.5521 155.658 65.889C158.415 66.8416 161.113 68.6936 162.057 71.5805C163.291 75.4497 162.75 80.0745 159.997 83.1807C157.765 85.7368 154.513 87.1281 151.27 87.8837C146.956 88.8456 142.479 88.87 138.098 88.443C133.979 87.9733 129.692 86.891 126.511 84.0841C123.792 81.7228 122.464 78.0436 122.596 74.4926C122.627 73.8929 123.224 73.4748 123.799 73.524C125.445 73.5107 127.091 73.5062 128.737 73.5262C129.394 73.4792 129.882 74.0474 129.915 74.6671C130.219 76.655 130.966 78.7415 132.7 79.9201C136.045 82.0784 140.243 81.9306 144.074 81.991C147.247 81.8502 150.81 81.8076 153.4 79.7101C154.766 78.5137 155.171 76.512 154.801 74.79C154.401 73.3362 152.881 72.6588 151.575 72.2158C144.872 70.0956 137.597 70.8649 130.96 68.4673C128.265 67.515 125.659 65.7145 124.624 62.9461C123.179 59.0281 123.841 54.1817 126.883 51.1804C129.848 48.195 134.129 47.0456 138.199 46.6341Z" fill="#8CC84B"/>
<path d="M59.76 172V145.6H68.12L79.44 163.32H79.92L79.52 145.6H85.8V172H78.24L66.12 153.28H65.68L66.04 172H59.76ZM100.802 172.56C98.6682 172.56 96.7749 172.147 95.1216 171.32C93.4949 170.493 92.2149 169.253 91.2816 167.6C90.3482 165.947 89.8816 163.88 89.8816 161.4C89.8816 158.92 90.3482 156.867 91.2816 155.24C92.2149 153.587 93.5082 152.36 95.1616 151.56C96.8149 150.733 98.7082 150.32 100.842 150.32C102.975 150.32 104.868 150.733 106.522 151.56C108.175 152.387 109.468 153.627 110.402 155.28C111.335 156.907 111.802 158.96 111.802 161.44C111.802 163.973 111.322 166.067 110.362 167.72C109.402 169.373 108.082 170.6 106.402 171.4C104.748 172.173 102.882 172.56 100.802 172.56ZM101.002 167.88C101.962 167.88 102.762 167.667 103.402 167.24C104.042 166.787 104.522 166.107 104.842 165.2C105.162 164.293 105.322 163.173 105.322 161.84C105.322 160.427 105.148 159.24 104.802 158.28C104.455 157.293 103.935 156.547 103.242 156.04C102.575 155.507 101.708 155.24 100.642 155.24C99.7349 155.24 98.9482 155.467 98.2816 155.92C97.6416 156.347 97.1616 157.013 96.8416 157.92C96.5216 158.827 96.3616 159.96 96.3616 161.32C96.3616 163.507 96.7616 165.147 97.5616 166.24C98.3882 167.333 99.5349 167.88 101.002 167.88ZM123.294 172.56C121.534 172.56 119.987 172.12 118.654 171.24C117.347 170.333 116.32 169.053 115.574 167.4C114.827 165.72 114.454 163.72 114.454 161.4C114.454 159.267 114.774 157.373 115.414 155.72C116.054 154.067 117 152.773 118.254 151.84C119.534 150.88 121.107 150.4 122.974 150.4C124.307 150.4 125.427 150.64 126.334 151.12C127.267 151.6 128.04 152.32 128.654 153.28C129.267 154.24 129.76 155.453 130.134 156.92H131.134C130.947 156.013 130.774 155.16 130.614 154.36C130.454 153.533 130.32 152.773 130.214 152.08C130.134 151.36 130.094 150.733 130.094 150.2V143.2H136.574V161.68V172H131.294L131.214 165.76H130.334C130.04 167.36 129.574 168.667 128.934 169.68C128.32 170.667 127.534 171.4 126.574 171.88C125.64 172.333 124.547 172.56 123.294 172.56ZM125.614 167.36C126.44 167.36 127.134 167.187 127.694 166.84C128.28 166.467 128.747 166 129.094 165.44C129.44 164.88 129.694 164.28 129.854 163.64C130.014 163 130.094 162.4 130.094 161.84V161C130.094 160.493 130.027 159.987 129.894 159.48C129.76 158.973 129.56 158.48 129.294 158C129.054 157.52 128.747 157.093 128.374 156.72C128 156.347 127.56 156.053 127.054 155.84C126.574 155.627 126.04 155.52 125.454 155.52C124.574 155.52 123.814 155.76 123.174 156.24C122.56 156.72 122.08 157.4 121.734 158.28C121.414 159.16 121.254 160.2 121.254 161.4C121.254 162.6 121.427 163.653 121.774 164.56C122.12 165.44 122.627 166.133 123.294 166.64C123.96 167.12 124.734 167.36 125.614 167.36ZM151.59 172.56C149.83 172.56 148.257 172.333 146.87 171.88C145.484 171.4 144.297 170.707 143.31 169.8C142.35 168.893 141.617 167.773 141.11 166.44C140.604 165.107 140.35 163.573 140.35 161.84C140.35 160.16 140.59 158.613 141.07 157.2C141.577 155.787 142.284 154.573 143.19 153.56C144.124 152.52 145.257 151.72 146.59 151.16C147.95 150.6 149.47 150.32 151.15 150.32C152.857 150.32 154.35 150.6 155.63 151.16C156.937 151.693 158.004 152.493 158.83 153.56C159.684 154.627 160.31 155.933 160.71 157.48C161.11 159 161.244 160.747 161.11 162.72L144.59 162.84V159.48L157.43 159.36L155.15 160.92C155.337 159.587 155.257 158.507 154.91 157.68C154.564 156.827 154.057 156.213 153.39 155.84C152.724 155.44 152.004 155.24 151.23 155.24C150.297 155.24 149.47 155.493 148.75 156C148.057 156.507 147.51 157.24 147.11 158.2C146.71 159.16 146.51 160.333 146.51 161.72C146.51 163.907 146.977 165.493 147.91 166.48C148.87 167.467 150.084 167.96 151.55 167.96C152.27 167.96 152.87 167.867 153.35 167.68C153.83 167.467 154.217 167.213 154.51 166.92C154.83 166.6 155.07 166.253 155.23 165.88C155.417 165.507 155.564 165.147 155.67 164.8L161.27 166C161.057 166.987 160.71 167.88 160.23 168.68C159.777 169.48 159.15 170.173 158.35 170.76C157.577 171.347 156.63 171.787 155.51 172.08C154.417 172.4 153.11 172.56 151.59 172.56ZM163.544 172.28L163.264 166.36C163.557 166.413 163.851 166.453 164.144 166.48C164.464 166.507 164.717 166.52 164.904 166.52C165.917 166.52 166.691 166.387 167.224 166.12C167.784 165.827 168.171 165.373 168.384 164.76C168.624 164.147 168.744 163.32 168.744 162.28V145.6H175.224V162.32C175.224 164.56 174.891 166.427 174.224 167.92C173.557 169.413 172.544 170.547 171.184 171.32C169.824 172.067 168.091 172.44 165.984 172.44C165.717 172.44 165.397 172.427 165.024 172.4C164.651 172.373 164.157 172.333 163.544 172.28ZM191.178 172.56C189.471 172.56 187.924 172.4 186.538 172.08C185.151 171.76 183.951 171.28 182.938 170.64C181.924 169.973 181.124 169.133 180.538 168.12C179.951 167.107 179.604 165.933 179.498 164.6L185.138 162.72C185.218 163.84 185.538 164.773 186.098 165.52C186.658 166.267 187.404 166.827 188.338 167.2C189.298 167.547 190.364 167.72 191.538 167.72C192.658 167.72 193.591 167.587 194.338 167.32C195.111 167.027 195.684 166.667 196.058 166.24C196.458 165.787 196.658 165.307 196.658 164.8C196.658 164.213 196.404 163.733 195.898 163.36C195.391 162.96 194.698 162.627 193.818 162.36C192.938 162.067 191.911 161.787 190.738 161.52C189.404 161.2 188.098 160.853 186.818 160.48C185.538 160.107 184.378 159.627 183.338 159.04C182.298 158.427 181.471 157.653 180.858 156.72C180.271 155.76 179.978 154.56 179.978 153.12C179.978 151.493 180.391 150.08 181.218 148.88C182.044 147.68 183.258 146.747 184.858 146.08C186.458 145.387 188.431 145.04 190.778 145.04C193.098 145.04 195.071 145.373 196.698 146.04C198.324 146.707 199.578 147.64 200.458 148.84C201.338 150.013 201.818 151.387 201.898 152.96L196.138 154.6C196.138 153.827 196.004 153.147 195.738 152.56C195.498 151.973 195.151 151.493 194.698 151.12C194.244 150.72 193.684 150.427 193.018 150.24C192.351 150.027 191.591 149.92 190.738 149.92C189.724 149.92 188.858 150.04 188.138 150.28C187.444 150.52 186.924 150.84 186.578 151.24C186.231 151.613 186.058 152.053 186.058 152.56C186.058 153.2 186.324 153.733 186.858 154.16C187.418 154.56 188.164 154.907 189.098 155.2C190.058 155.467 191.111 155.733 192.258 156C193.404 156.24 194.591 156.547 195.818 156.92C197.044 157.267 198.191 157.733 199.258 158.32C200.324 158.907 201.178 159.707 201.818 160.72C202.484 161.707 202.818 162.96 202.818 164.48C202.818 166.107 202.378 167.533 201.498 168.76C200.644 169.96 199.351 170.893 197.618 171.56C195.884 172.227 193.738 172.56 191.178 172.56Z" fill="white"/>
</svg>
