<svg width="319" height="245" viewBox="0 0 319 245" fill="none" xmlns="http://www.w3.org/2000/svg">
<g clip-path="url(#clip0_63_37)">
<path d="M29 40C29 31.1634 36.1634 24 45 24H275C283.837 24 291 31.1634 291 40V205C291 213.837 283.837 221 275 221H45C36.1634 221 29 213.837 29 205V40Z" fill="#14042D"/>
<path d="M45 24.5H275C283.56 24.5 290.5 31.4396 290.5 40V205C290.5 213.56 283.56 220.5 275 220.5H45C36.4396 220.5 29.5 213.56 29.5 205V40C29.5 31.4396 36.4396 24.5 45 24.5Z" stroke="#0000FF" stroke-opacity="0.7"/>
<path d="M155.93 40.1095C158.508 38.6335 161.867 38.6268 164.444 40.1095C177.406 47.4338 190.372 54.7466 203.332 62.0753C205.77 63.4484 207.4 66.1612 207.375 68.97V113.036C207.393 115.961 205.602 118.738 203.03 120.08C190.11 127.364 177.198 134.657 164.28 141.941C161.648 143.446 158.222 143.33 155.672 141.702C151.799 139.456 147.919 137.222 144.045 134.979C143.254 134.507 142.362 134.131 141.803 133.364C142.297 132.698 143.18 132.615 143.898 132.324C145.515 131.81 147 130.985 148.485 130.184C148.861 129.927 149.319 130.026 149.679 130.256C152.991 132.155 156.274 134.109 159.597 135.99C160.306 136.399 161.024 135.856 161.63 135.518C174.308 128.352 187.002 121.214 199.678 114.046C200.147 113.821 200.407 113.322 200.369 112.808C200.378 98.2712 200.371 83.7322 200.373 69.1959C200.427 68.6122 200.089 68.0754 199.561 67.8365C186.687 60.586 173.818 53.3243 160.946 46.0719C160.723 45.9185 160.459 45.8363 160.188 45.8359C159.917 45.8355 159.653 45.917 159.43 46.0696C146.557 53.3243 133.691 60.5926 120.819 67.8428C120.293 68.0821 119.94 68.6099 120.002 69.1959C120.005 83.7322 120.002 98.2712 120.002 112.81C119.98 113.061 120.035 113.313 120.16 113.531C120.285 113.75 120.475 113.925 120.702 114.033C124.137 115.981 127.577 117.915 131.014 119.857C132.951 120.899 135.328 121.518 137.462 120.72C139.345 120.044 140.664 118.123 140.628 116.124C140.646 101.673 140.62 87.2188 140.642 72.7695C140.595 72.128 141.203 71.5979 141.827 71.6583C143.478 71.6472 145.13 71.6361 146.781 71.6628C147.47 71.6472 147.944 72.338 147.859 72.9844C147.852 87.5274 147.876 102.071 147.848 116.614C147.852 120.49 146.26 124.707 142.675 126.603C138.258 128.891 132.799 128.406 128.436 126.212C124.658 124.327 121.054 122.102 117.343 120.082C114.765 118.748 112.982 115.959 113 113.036V68.97C112.973 66.1031 114.669 63.341 117.182 61.9879C130.099 54.6981 143.015 47.4027 155.93 40.1095Z" fill="#8CC84B"/>
<path d="M167.199 70.6341C172.832 70.2715 178.864 70.4193 183.933 73.1947C187.858 75.3215 190.035 79.7852 190.104 84.1459C189.994 84.7341 189.379 85.0586 188.818 85.0182C187.183 85.016 185.548 85.0404 183.914 85.0071C183.22 85.0338 182.817 84.3945 182.73 83.7814C182.261 81.695 181.123 79.6285 179.159 78.6222C176.144 77.1128 172.649 77.1887 169.361 77.2202C166.962 77.3476 164.381 77.5554 162.348 78.9666C160.787 80.0356 160.313 82.1935 160.87 83.9315C161.395 85.1793 162.836 85.582 164.014 85.9531C170.804 87.7288 177.998 87.5521 184.658 89.889C187.415 90.8416 190.113 92.6936 191.057 95.5805C192.291 99.4497 191.75 104.075 188.997 107.181C186.765 109.737 183.513 111.128 180.27 111.884C175.956 112.846 171.479 112.87 167.098 112.443C162.979 111.973 158.692 110.891 155.511 108.084C152.792 105.723 151.464 102.044 151.596 98.4926C151.627 97.8929 152.224 97.4748 152.799 97.524C154.445 97.5107 156.091 97.5062 157.737 97.5262C158.394 97.4792 158.882 98.0474 158.915 98.6671C159.219 100.655 159.966 102.741 161.7 103.92C165.045 106.078 169.243 105.931 173.074 105.991C176.247 105.85 179.81 105.808 182.4 103.71C183.766 102.514 184.171 100.512 183.801 98.79C183.401 97.3362 181.881 96.6588 180.575 96.2158C173.872 94.0956 166.597 94.8649 159.96 92.4673C157.265 91.515 154.659 89.7145 153.624 86.9461C152.179 83.0281 152.841 78.1817 155.883 75.1804C158.848 72.195 163.129 71.0456 167.199 70.6341Z" fill="#8CC84B"/>
<path d="M88.76 196V169.6H97.12L108.44 187.32H108.92L108.52 169.6H114.8V196H107.24L95.12 177.28H94.68L95.04 196H88.76ZM129.802 196.56C127.668 196.56 125.775 196.147 124.122 195.32C122.495 194.493 121.215 193.253 120.282 191.6C119.348 189.947 118.882 187.88 118.882 185.4C118.882 182.92 119.348 180.867 120.282 179.24C121.215 177.587 122.508 176.36 124.162 175.56C125.815 174.733 127.708 174.32 129.842 174.32C131.975 174.32 133.868 174.733 135.522 175.56C137.175 176.387 138.468 177.627 139.402 179.28C140.335 180.907 140.802 182.96 140.802 185.44C140.802 187.973 140.322 190.067 139.362 191.72C138.402 193.373 137.082 194.6 135.402 195.4C133.748 196.173 131.882 196.56 129.802 196.56ZM130.002 191.88C130.962 191.88 131.762 191.667 132.402 191.24C133.042 190.787 133.522 190.107 133.842 189.2C134.162 188.293 134.322 187.173 134.322 185.84C134.322 184.427 134.148 183.24 133.802 182.28C133.455 181.293 132.935 180.547 132.242 180.04C131.575 179.507 130.708 179.24 129.642 179.24C128.735 179.24 127.948 179.467 127.282 179.92C126.642 180.347 126.162 181.013 125.842 181.92C125.522 182.827 125.362 183.96 125.362 185.32C125.362 187.507 125.762 189.147 126.562 190.24C127.388 191.333 128.535 191.88 130.002 191.88ZM152.294 196.56C150.534 196.56 148.987 196.12 147.654 195.24C146.347 194.333 145.32 193.053 144.574 191.4C143.827 189.72 143.454 187.72 143.454 185.4C143.454 183.267 143.774 181.373 144.414 179.72C145.054 178.067 146 176.773 147.254 175.84C148.534 174.88 150.107 174.4 151.974 174.4C153.307 174.4 154.427 174.64 155.334 175.12C156.267 175.6 157.04 176.32 157.654 177.28C158.267 178.24 158.76 179.453 159.134 180.92H160.134C159.947 180.013 159.774 179.16 159.614 178.36C159.454 177.533 159.32 176.773 159.214 176.08C159.134 175.36 159.094 174.733 159.094 174.2V167.2H165.574V185.68V196H160.294L160.214 189.76H159.334C159.04 191.36 158.574 192.667 157.934 193.68C157.32 194.667 156.534 195.4 155.574 195.88C154.64 196.333 153.547 196.56 152.294 196.56ZM154.614 191.36C155.44 191.36 156.134 191.187 156.694 190.84C157.28 190.467 157.747 190 158.094 189.44C158.44 188.88 158.694 188.28 158.854 187.64C159.014 187 159.094 186.4 159.094 185.84V185C159.094 184.493 159.027 183.987 158.894 183.48C158.76 182.973 158.56 182.48 158.294 182C158.054 181.52 157.747 181.093 157.374 180.72C157 180.347 156.56 180.053 156.054 179.84C155.574 179.627 155.04 179.52 154.454 179.52C153.574 179.52 152.814 179.76 152.174 180.24C151.56 180.72 151.08 181.4 150.734 182.28C150.414 183.16 150.254 184.2 150.254 185.4C150.254 186.6 150.427 187.653 150.774 188.56C151.12 189.44 151.627 190.133 152.294 190.64C152.96 191.12 153.734 191.36 154.614 191.36ZM180.59 196.56C178.83 196.56 177.257 196.333 175.87 195.88C174.484 195.4 173.297 194.707 172.31 193.8C171.35 192.893 170.617 191.773 170.11 190.44C169.604 189.107 169.35 187.573 169.35 185.84C169.35 184.16 169.59 182.613 170.07 181.2C170.577 179.787 171.284 178.573 172.19 177.56C173.124 176.52 174.257 175.72 175.59 175.16C176.95 174.6 178.47 174.32 180.15 174.32C181.857 174.32 183.35 174.6 184.63 175.16C185.937 175.693 187.004 176.493 187.83 177.56C188.684 178.627 189.31 179.933 189.71 181.48C190.11 183 190.244 184.747 190.11 186.72L173.59 186.84V183.48L186.43 183.36L184.15 184.92C184.337 183.587 184.257 182.507 183.91 181.68C183.564 180.827 183.057 180.213 182.39 179.84C181.724 179.44 181.004 179.24 180.23 179.24C179.297 179.24 178.47 179.493 177.75 180C177.057 180.507 176.51 181.24 176.11 182.2C175.71 183.16 175.51 184.333 175.51 185.72C175.51 187.907 175.977 189.493 176.91 190.48C177.87 191.467 179.084 191.96 180.55 191.96C181.27 191.96 181.87 191.867 182.35 191.68C182.83 191.467 183.217 191.213 183.51 190.92C183.83 190.6 184.07 190.253 184.23 189.88C184.417 189.507 184.564 189.147 184.67 188.8L190.27 190C190.057 190.987 189.71 191.88 189.23 192.68C188.777 193.48 188.15 194.173 187.35 194.76C186.577 195.347 185.63 195.787 184.51 196.08C183.417 196.4 182.11 196.56 180.59 196.56ZM192.544 196.28L192.264 190.36C192.557 190.413 192.851 190.453 193.144 190.48C193.464 190.507 193.717 190.52 193.904 190.52C194.917 190.52 195.691 190.387 196.224 190.12C196.784 189.827 197.171 189.373 197.384 188.76C197.624 188.147 197.744 187.32 197.744 186.28V169.6H204.224V186.32C204.224 188.56 203.891 190.427 203.224 191.92C202.557 193.413 201.544 194.547 200.184 195.32C198.824 196.067 197.091 196.44 194.984 196.44C194.717 196.44 194.397 196.427 194.024 196.4C193.651 196.373 193.157 196.333 192.544 196.28ZM220.178 196.56C218.471 196.56 216.924 196.4 215.538 196.08C214.151 195.76 212.951 195.28 211.938 194.64C210.924 193.973 210.124 193.133 209.538 192.12C208.951 191.107 208.604 189.933 208.498 188.6L214.138 186.72C214.218 187.84 214.538 188.773 215.098 189.52C215.658 190.267 216.404 190.827 217.338 191.2C218.298 191.547 219.364 191.72 220.538 191.72C221.658 191.72 222.591 191.587 223.338 191.32C224.111 191.027 224.684 190.667 225.058 190.24C225.458 189.787 225.658 189.307 225.658 188.8C225.658 188.213 225.404 187.733 224.898 187.36C224.391 186.96 223.698 186.627 222.818 186.36C221.938 186.067 220.911 185.787 219.738 185.52C218.404 185.2 217.098 184.853 215.818 184.48C214.538 184.107 213.378 183.627 212.338 183.04C211.298 182.427 210.471 181.653 209.858 180.72C209.271 179.76 208.978 178.56 208.978 177.12C208.978 175.493 209.391 174.08 210.218 172.88C211.044 171.68 212.258 170.747 213.858 170.08C215.458 169.387 217.431 169.04 219.778 169.04C222.098 169.04 224.071 169.373 225.698 170.04C227.324 170.707 228.578 171.64 229.458 172.84C230.338 174.013 230.818 175.387 230.898 176.96L225.138 178.6C225.138 177.827 225.004 177.147 224.738 176.56C224.498 175.973 224.151 175.493 223.698 175.12C223.244 174.72 222.684 174.427 222.018 174.24C221.351 174.027 220.591 173.92 219.738 173.92C218.724 173.92 217.858 174.04 217.138 174.28C216.444 174.52 215.924 174.84 215.578 175.24C215.231 175.613 215.058 176.053 215.058 176.56C215.058 177.2 215.324 177.733 215.858 178.16C216.418 178.56 217.164 178.907 218.098 179.2C219.058 179.467 220.111 179.733 221.258 180C222.404 180.24 223.591 180.547 224.818 180.92C226.044 181.267 227.191 181.733 228.258 182.32C229.324 182.907 230.178 183.707 230.818 184.72C231.484 185.707 231.818 186.96 231.818 188.48C231.818 190.107 231.378 191.533 230.498 192.76C229.644 193.96 228.351 194.893 226.618 195.56C224.884 196.227 222.738 196.56 220.178 196.56Z" fill="white"/>
</g>
<defs>
<clipPath id="clip0_63_37">
<rect width="319" height="245" fill="white"/>
</clipPath>
</defs>
</svg>
