<svg width="319" height="245" viewBox="0 0 319 245" fill="none" xmlns="http://www.w3.org/2000/svg">
<g clip-path="url(#clip0_63_59)">
<path d="M29 40C29 31.1634 36.1634 24 45 24H275C283.837 24 291 31.1634 291 40V205C291 213.837 283.837 221 275 221H45C36.1634 221 29 213.837 29 205V40Z" fill="#14042D"/>
<path d="M45 24.5H275C283.56 24.5 290.5 31.4396 290.5 40V205C290.5 213.56 283.56 220.5 275 220.5H45C36.4396 220.5 29.5 213.56 29.5 205V40C29.5 31.4396 36.4396 24.5 45 24.5Z" stroke="#0000FF" stroke-opacity="0.7"/>
<path d="M108 91V39H212V143H108" fill="#007ACC"/>
<path d="M130.802 91.182V95.42H144.322V133.9H153.916V95.42H167.436V91.26C167.436 88.92 167.436 87.022 167.332 86.97C167.332 86.892 159.09 86.866 149.08 86.866L130.88 86.944V91.208L130.802 91.182ZM191.564 86.84C194.216 87.464 196.244 88.66 198.064 90.558C199.026 91.598 200.456 93.418 200.56 93.886C200.56 94.042 196.062 97.084 193.332 98.774C193.228 98.852 192.812 98.41 192.396 97.734C191.044 95.81 189.666 94.978 187.508 94.822C184.388 94.614 182.308 96.252 182.308 98.982C182.308 99.814 182.464 100.282 182.776 100.958C183.478 102.388 184.778 103.246 188.808 105.014C196.244 108.212 199.468 110.318 201.418 113.334C203.628 116.714 204.122 122.018 202.64 125.996C200.976 130.338 196.92 133.276 191.122 134.238C189.302 134.55 185.142 134.498 183.192 134.16C179.032 133.38 175.054 131.3 172.61 128.622C171.648 127.582 169.802 124.8 169.906 124.618L170.894 123.994L174.794 121.732L177.732 120.016L178.408 120.926C179.266 122.278 181.19 124.098 182.308 124.722C185.688 126.464 190.212 126.23 192.448 124.202C193.41 123.318 193.826 122.382 193.826 121.082C193.826 119.886 193.644 119.34 193.046 118.43C192.214 117.286 190.55 116.35 185.87 114.27C180.488 111.982 178.2 110.526 176.068 108.29C174.846 106.938 173.728 104.832 173.208 103.09C172.818 101.582 172.688 97.89 173.052 96.408C174.17 91.208 178.096 87.568 183.712 86.528C185.532 86.164 189.822 86.32 191.616 86.788L191.564 86.84Z" fill="white"/>
<path d="M59.32 196V169.6H65.8V196H59.32ZM51.64 174.96V169.6H73.56V174.96H51.64ZM84.2563 203.36C83.1896 203.36 82.0963 203.267 80.9763 203.08C79.8563 202.893 78.7896 202.613 77.7763 202.24C76.7896 201.893 75.9363 201.427 75.2163 200.84L76.7763 195.12C77.7096 196 78.8296 196.653 80.1363 197.08C81.4696 197.507 82.7496 197.72 83.9763 197.72C85.3896 197.72 86.5496 197.44 87.4563 196.88C88.3896 196.347 89.0963 195.52 89.5763 194.4C90.0829 193.253 90.3763 191.84 90.4563 190.16L90.6563 186.68H89.6963C89.4563 188.413 89.0296 189.827 88.4163 190.92C87.8296 192.013 87.0696 192.827 86.1363 193.36C85.2296 193.867 84.1496 194.12 82.8963 194.12C81.3496 194.12 80.0563 193.733 79.0163 192.96C77.9763 192.187 77.1896 191.027 76.6563 189.48C76.1496 187.907 75.8963 185.96 75.8963 183.64V174.88H82.3763V182.04C82.3763 184.493 82.6163 186.253 83.0963 187.32C83.6029 188.36 84.3896 188.88 85.4563 188.88C86.0163 188.88 86.5229 188.72 86.9763 188.4C87.4296 188.08 87.8163 187.627 88.1363 187.04C88.4563 186.453 88.6963 185.747 88.8563 184.92C89.0429 184.067 89.1363 183.12 89.1363 182.08V174.88H95.5763V190.4C95.5763 192.08 95.4163 193.613 95.0963 195C94.8029 196.387 94.3496 197.6 93.7363 198.64C93.1496 199.68 92.4029 200.547 91.4963 201.24C90.5896 201.96 89.5363 202.493 88.3363 202.84C87.1363 203.187 85.7763 203.36 84.2563 203.36ZM100.472 202.76V185.68V174.88H105.752L105.832 180.88L106.552 180.96C106.792 179.467 107.219 178.227 107.832 177.24C108.446 176.253 109.232 175.52 110.192 175.04C111.179 174.56 112.299 174.32 113.552 174.32C115.419 174.32 117.019 174.773 118.352 175.68C119.712 176.587 120.752 177.88 121.472 179.56C122.192 181.24 122.552 183.253 122.552 185.6C122.552 187.68 122.232 189.547 121.592 191.2C120.979 192.853 120.032 194.16 118.752 195.12C117.499 196.08 115.899 196.56 113.952 196.56C112.646 196.56 111.539 196.333 110.632 195.88C109.726 195.4 108.952 194.707 108.312 193.8C107.699 192.893 107.179 191.76 106.752 190.4H105.992C106.152 191.12 106.299 191.853 106.432 192.6C106.566 193.347 106.672 194.067 106.752 194.76C106.859 195.453 106.912 196.12 106.912 196.76V202.76H100.472ZM111.592 191.48C112.472 191.48 113.219 191.24 113.832 190.76C114.472 190.28 114.966 189.6 115.312 188.72C115.659 187.84 115.832 186.813 115.832 185.64C115.832 184.387 115.646 183.32 115.272 182.44C114.926 181.533 114.419 180.84 113.752 180.36C113.086 179.853 112.312 179.6 111.432 179.6C110.606 179.6 109.899 179.787 109.312 180.16C108.752 180.507 108.286 180.973 107.912 181.56C107.566 182.12 107.312 182.72 107.152 183.36C106.992 184 106.912 184.6 106.912 185.16V186.04C106.912 186.547 106.979 187.053 107.112 187.56C107.246 188.067 107.446 188.56 107.712 189.04C107.979 189.493 108.299 189.907 108.672 190.28C109.046 190.653 109.472 190.947 109.952 191.16C110.459 191.373 111.006 191.48 111.592 191.48ZM136.528 196.56C134.768 196.56 133.194 196.333 131.808 195.88C130.421 195.4 129.234 194.707 128.248 193.8C127.288 192.893 126.554 191.773 126.048 190.44C125.541 189.107 125.288 187.573 125.288 185.84C125.288 184.16 125.528 182.613 126.008 181.2C126.514 179.787 127.221 178.573 128.128 177.56C129.061 176.52 130.194 175.72 131.528 175.16C132.888 174.6 134.408 174.32 136.088 174.32C137.794 174.32 139.288 174.6 140.568 175.16C141.874 175.693 142.941 176.493 143.768 177.56C144.621 178.627 145.248 179.933 145.648 181.48C146.048 183 146.181 184.747 146.048 186.72L129.528 186.84V183.48L142.368 183.36L140.088 184.92C140.274 183.587 140.194 182.507 139.848 181.68C139.501 180.827 138.994 180.213 138.328 179.84C137.661 179.44 136.941 179.24 136.168 179.24C135.234 179.24 134.408 179.493 133.688 180C132.994 180.507 132.448 181.24 132.048 182.2C131.648 183.16 131.448 184.333 131.448 185.72C131.448 187.907 131.914 189.493 132.848 190.48C133.808 191.467 135.021 191.96 136.488 191.96C137.208 191.96 137.808 191.867 138.288 191.68C138.768 191.467 139.154 191.213 139.448 190.92C139.768 190.6 140.008 190.253 140.168 189.88C140.354 189.507 140.501 189.147 140.608 188.8L146.208 190C145.994 190.987 145.648 191.88 145.168 192.68C144.714 193.48 144.088 194.173 143.288 194.76C142.514 195.347 141.568 195.787 140.448 196.08C139.354 196.4 138.048 196.56 136.528 196.56ZM160.724 196.56C159.018 196.56 157.471 196.4 156.084 196.08C154.698 195.76 153.498 195.28 152.484 194.64C151.471 193.973 150.671 193.133 150.084 192.12C149.498 191.107 149.151 189.933 149.044 188.6L154.684 186.72C154.764 187.84 155.084 188.773 155.644 189.52C156.204 190.267 156.951 190.827 157.884 191.2C158.844 191.547 159.911 191.72 161.084 191.72C162.204 191.72 163.138 191.587 163.884 191.32C164.658 191.027 165.231 190.667 165.604 190.24C166.004 189.787 166.204 189.307 166.204 188.8C166.204 188.213 165.951 187.733 165.444 187.36C164.938 186.96 164.244 186.627 163.364 186.36C162.484 186.067 161.458 185.787 160.284 185.52C158.951 185.2 157.644 184.853 156.364 184.48C155.084 184.107 153.924 183.627 152.884 183.04C151.844 182.427 151.018 181.653 150.404 180.72C149.818 179.76 149.524 178.56 149.524 177.12C149.524 175.493 149.938 174.08 150.764 172.88C151.591 171.68 152.804 170.747 154.404 170.08C156.004 169.387 157.978 169.04 160.324 169.04C162.644 169.04 164.618 169.373 166.244 170.04C167.871 170.707 169.124 171.64 170.004 172.84C170.884 174.013 171.364 175.387 171.444 176.96L165.684 178.6C165.684 177.827 165.551 177.147 165.284 176.56C165.044 175.973 164.698 175.493 164.244 175.12C163.791 174.72 163.231 174.427 162.564 174.24C161.898 174.027 161.138 173.92 160.284 173.92C159.271 173.92 158.404 174.04 157.684 174.28C156.991 174.52 156.471 174.84 156.124 175.24C155.778 175.613 155.604 176.053 155.604 176.56C155.604 177.2 155.871 177.733 156.404 178.16C156.964 178.56 157.711 178.907 158.644 179.2C159.604 179.467 160.658 179.733 161.804 180C162.951 180.24 164.138 180.547 165.364 180.92C166.591 181.267 167.738 181.733 168.804 182.32C169.871 182.907 170.724 183.707 171.364 184.72C172.031 185.707 172.364 186.96 172.364 188.48C172.364 190.107 171.924 191.533 171.044 192.76C170.191 193.96 168.898 194.893 167.164 195.56C165.431 196.227 163.284 196.56 160.724 196.56ZM186.253 196.56C184.439 196.56 182.839 196.307 181.453 195.8C180.066 195.293 178.906 194.573 177.973 193.64C177.039 192.68 176.319 191.533 175.813 190.2C175.333 188.867 175.093 187.373 175.093 185.72C175.093 184.013 175.333 182.467 175.813 181.08C176.319 179.693 177.039 178.493 177.973 177.48C178.906 176.467 180.053 175.693 181.413 175.16C182.773 174.6 184.333 174.32 186.093 174.32C187.853 174.32 189.373 174.6 190.653 175.16C191.933 175.72 192.973 176.507 193.773 177.52C194.599 178.533 195.159 179.707 195.453 181.04L189.493 183.04C189.413 182.16 189.199 181.44 188.853 180.88C188.506 180.32 188.053 179.92 187.493 179.68C186.959 179.413 186.373 179.28 185.733 179.28C185.066 179.28 184.479 179.413 183.973 179.68C183.466 179.947 183.039 180.347 182.693 180.88C182.346 181.413 182.079 182.067 181.893 182.84C181.706 183.587 181.613 184.453 181.613 185.44C181.613 186.853 181.786 188.04 182.133 189C182.506 189.933 183.039 190.64 183.733 191.12C184.453 191.6 185.319 191.84 186.333 191.84C187.373 191.84 188.186 191.627 188.773 191.2C189.359 190.773 189.786 190.253 190.053 189.64C190.319 189 190.479 188.373 190.533 187.76L196.133 189C196.026 189.987 195.759 190.947 195.333 191.88C194.933 192.787 194.333 193.6 193.533 194.32C192.733 195.013 191.733 195.56 190.533 195.96C189.359 196.36 187.933 196.56 186.253 196.56ZM199.144 196V186.2V174.88H204.424L204.544 182.04H205.344C205.531 180.173 205.877 178.693 206.384 177.6C206.917 176.48 207.664 175.667 208.624 175.16C209.611 174.653 210.824 174.4 212.264 174.4C212.477 174.4 212.717 174.413 212.984 174.44C213.251 174.44 213.557 174.467 213.904 174.52L213.664 181.4C213.237 181.187 212.771 181.053 212.264 181C211.784 180.92 211.357 180.88 210.984 180.88C209.944 180.88 209.037 181.08 208.264 181.48C207.517 181.88 206.917 182.493 206.464 183.32C206.037 184.147 205.757 185.187 205.624 186.44V196H199.144ZM216.996 196V174.88H223.436V196H216.996ZM220.236 171.92C219.009 171.92 218.062 171.667 217.396 171.16C216.756 170.627 216.436 169.88 216.436 168.92C216.436 167.907 216.756 167.147 217.396 166.64C218.062 166.107 219.009 165.84 220.236 165.84C221.489 165.84 222.436 166.107 223.076 166.64C223.742 167.147 224.076 167.893 224.076 168.88C224.076 169.867 223.742 170.627 223.076 171.16C222.436 171.667 221.489 171.92 220.236 171.92ZM228.441 202.76V185.68V174.88H233.721L233.801 180.88L234.521 180.96C234.761 179.467 235.188 178.227 235.801 177.24C236.414 176.253 237.201 175.52 238.161 175.04C239.148 174.56 240.268 174.32 241.521 174.32C243.388 174.32 244.988 174.773 246.321 175.68C247.681 176.587 248.721 177.88 249.441 179.56C250.161 181.24 250.521 183.253 250.521 185.6C250.521 187.68 250.201 189.547 249.561 191.2C248.948 192.853 248.001 194.16 246.721 195.12C245.468 196.08 243.868 196.56 241.921 196.56C240.614 196.56 239.508 196.333 238.601 195.88C237.694 195.4 236.921 194.707 236.281 193.8C235.668 192.893 235.148 191.76 234.721 190.4H233.961C234.121 191.12 234.268 191.853 234.401 192.6C234.534 193.347 234.641 194.067 234.721 194.76C234.828 195.453 234.881 196.12 234.881 196.76V202.76H228.441ZM239.561 191.48C240.441 191.48 241.188 191.24 241.801 190.76C242.441 190.28 242.934 189.6 243.281 188.72C243.628 187.84 243.801 186.813 243.801 185.64C243.801 184.387 243.614 183.32 243.241 182.44C242.894 181.533 242.388 180.84 241.721 180.36C241.054 179.853 240.281 179.6 239.401 179.6C238.574 179.6 237.868 179.787 237.281 180.16C236.721 180.507 236.254 180.973 235.881 181.56C235.534 182.12 235.281 182.72 235.121 183.36C234.961 184 234.881 184.6 234.881 185.16V186.04C234.881 186.547 234.948 187.053 235.081 187.56C235.214 188.067 235.414 188.56 235.681 189.04C235.948 189.493 236.268 189.907 236.641 190.28C237.014 190.653 237.441 190.947 237.921 191.16C238.428 191.373 238.974 191.48 239.561 191.48ZM262.618 196.52C260.138 196.52 258.312 195.867 257.138 194.56C255.965 193.227 255.378 191.107 255.378 188.2V179.92H252.378L252.498 174.92H254.658C255.512 174.893 256.152 174.76 256.578 174.52C257.032 174.28 257.312 173.827 257.418 173.16L257.938 170.2H261.578V174.88H266.658V180.12H261.578V187.92C261.578 188.827 261.792 189.493 262.218 189.92C262.672 190.347 263.352 190.56 264.258 190.56C264.765 190.56 265.245 190.507 265.698 190.4C266.152 190.293 266.525 190.147 266.818 189.96V195.92C265.965 196.187 265.178 196.347 264.458 196.4C263.765 196.48 263.152 196.52 262.618 196.52Z" fill="white"/>
</g>
<defs>
<clipPath id="clip0_63_59">
<rect width="319" height="245" fill="white"/>
</clipPath>
</defs>
</svg>
