<svg width="319" height="245" viewBox="0 0 319 245" fill="none" xmlns="http://www.w3.org/2000/svg">
<g clip-path="url(#clip0_63_149)">
<path d="M29 40C29 31.1634 36.1634 24 45 24H275C283.837 24 291 31.1634 291 40V205C291 213.837 283.837 221 275 221H45C36.1634 221 29 213.837 29 205V40Z" fill="#14042D"/>
<path d="M45 24.5H275C283.56 24.5 290.5 31.4396 290.5 40V205C290.5 213.56 283.56 220.5 275 220.5H45C36.4396 220.5 29.5 213.56 29.5 205V40C29.5 31.4396 36.4396 24.5 45 24.5Z" stroke="#0000FF" stroke-opacity="0.7"/>
<path d="M108 75.2664C108 75.2664 105.44 73.4208 108.512 70.9563L115.671 64.5552C115.671 64.5552 117.719 62.4002 119.885 64.2779L185.944 114.292V138.275C185.944 138.275 185.912 142.041 181.079 141.625L108 75.2664Z" fill="#2489CA"/>
<path d="M125.027 90.725L108 106.205C108 106.205 106.251 107.507 108 109.832L115.906 117.023C115.906 117.023 117.783 119.039 120.557 116.745L138.608 103.058L125.027 90.725Z" fill="#1070B3"/>
<path d="M154.92 90.853L186.147 67.0089L185.944 43.1541C185.944 43.1541 184.611 37.9479 180.162 40.6577L138.608 78.4776L154.92 90.853Z" fill="#0877B9"/>
<path d="M181.079 141.657C182.893 143.513 185.091 142.905 185.091 142.905L209.426 130.913C212.541 128.79 212.103 126.155 212.103 126.155V54.5481C212.103 51.4009 208.881 50.3127 208.881 50.3127L187.79 40.1456C183.181 37.2971 180.162 40.6577 180.162 40.6577C180.162 40.6577 184.045 37.8626 185.944 43.1541V137.837C185.944 138.488 185.806 139.128 185.528 139.704C184.973 140.824 183.768 141.87 180.877 141.432L181.079 141.657Z" fill="#3C99D4"/>
<path d="M87.16 196L78.56 169.6H85.6L91.4 190.6H91.96L97.76 169.6H104.72L96.12 196H87.16ZM118.154 196.56C116.447 196.56 114.901 196.4 113.514 196.08C112.127 195.76 110.927 195.28 109.914 194.64C108.901 193.973 108.101 193.133 107.514 192.12C106.927 191.107 106.581 189.933 106.474 188.6L112.114 186.72C112.194 187.84 112.514 188.773 113.074 189.52C113.634 190.267 114.381 190.827 115.314 191.2C116.274 191.547 117.341 191.72 118.514 191.72C119.634 191.72 120.567 191.587 121.314 191.32C122.087 191.027 122.661 190.667 123.034 190.24C123.434 189.787 123.634 189.307 123.634 188.8C123.634 188.213 123.381 187.733 122.874 187.36C122.367 186.96 121.674 186.627 120.794 186.36C119.914 186.067 118.887 185.787 117.714 185.52C116.381 185.2 115.074 184.853 113.794 184.48C112.514 184.107 111.354 183.627 110.314 183.04C109.274 182.427 108.447 181.653 107.834 180.72C107.247 179.76 106.954 178.56 106.954 177.12C106.954 175.493 107.367 174.08 108.194 172.88C109.021 171.68 110.234 170.747 111.834 170.08C113.434 169.387 115.407 169.04 117.754 169.04C120.074 169.04 122.047 169.373 123.674 170.04C125.301 170.707 126.554 171.64 127.434 172.84C128.314 174.013 128.794 175.387 128.874 176.96L123.114 178.6C123.114 177.827 122.981 177.147 122.714 176.56C122.474 175.973 122.127 175.493 121.674 175.12C121.221 174.72 120.661 174.427 119.994 174.24C119.327 174.027 118.567 173.92 117.714 173.92C116.701 173.92 115.834 174.04 115.114 174.28C114.421 174.52 113.901 174.84 113.554 175.24C113.207 175.613 113.034 176.053 113.034 176.56C113.034 177.2 113.301 177.733 113.834 178.16C114.394 178.56 115.141 178.907 116.074 179.2C117.034 179.467 118.087 179.733 119.234 180C120.381 180.24 121.567 180.547 122.794 180.92C124.021 181.267 125.167 181.733 126.234 182.32C127.301 182.907 128.154 183.707 128.794 184.72C129.461 185.707 129.794 186.96 129.794 188.48C129.794 190.107 129.354 191.533 128.474 192.76C127.621 193.96 126.327 194.893 124.594 195.56C122.861 196.227 120.714 196.56 118.154 196.56ZM155.308 196.56C153.228 196.56 151.362 196.28 149.708 195.72C148.055 195.16 146.642 194.307 145.468 193.16C144.322 192.013 143.442 190.613 142.828 188.96C142.242 187.28 141.948 185.32 141.948 183.08C141.948 180.787 142.255 178.773 142.868 177.04C143.482 175.307 144.362 173.84 145.508 172.64C146.682 171.44 148.055 170.547 149.628 169.96C151.202 169.347 152.948 169.04 154.868 169.04C156.388 169.04 157.775 169.227 159.028 169.6C160.308 169.973 161.415 170.533 162.348 171.28C163.282 172 164.002 172.88 164.508 173.92C165.042 174.933 165.322 176.093 165.348 177.4L159.388 179.04C159.388 177.947 159.148 177.053 158.668 176.36C158.215 175.667 157.628 175.147 156.908 174.8C156.215 174.427 155.455 174.24 154.628 174.24C153.962 174.24 153.268 174.387 152.548 174.68C151.855 174.947 151.215 175.413 150.628 176.08C150.042 176.72 149.575 177.573 149.228 178.64C148.882 179.707 148.708 181.04 148.708 182.64C148.708 184.72 149.002 186.4 149.588 187.68C150.175 188.96 150.988 189.907 152.028 190.52C153.068 191.107 154.215 191.4 155.468 191.4C156.855 191.4 157.922 191.107 158.668 190.52C159.442 189.907 159.988 189.147 160.308 188.24C160.628 187.333 160.802 186.413 160.828 185.48L166.428 186.36C166.402 187.8 166.188 189.147 165.788 190.4C165.388 191.653 164.748 192.747 163.868 193.68C163.015 194.587 161.882 195.293 160.468 195.8C159.055 196.307 157.335 196.56 155.308 196.56ZM179.731 196.56C177.598 196.56 175.705 196.147 174.051 195.32C172.425 194.493 171.145 193.253 170.211 191.6C169.278 189.947 168.811 187.88 168.811 185.4C168.811 182.92 169.278 180.867 170.211 179.24C171.145 177.587 172.438 176.36 174.091 175.56C175.745 174.733 177.638 174.32 179.771 174.32C181.905 174.32 183.798 174.733 185.451 175.56C187.105 176.387 188.398 177.627 189.331 179.28C190.265 180.907 190.731 182.96 190.731 185.44C190.731 187.973 190.251 190.067 189.291 191.72C188.331 193.373 187.011 194.6 185.331 195.4C183.678 196.173 181.811 196.56 179.731 196.56ZM179.931 191.88C180.891 191.88 181.691 191.667 182.331 191.24C182.971 190.787 183.451 190.107 183.771 189.2C184.091 188.293 184.251 187.173 184.251 185.84C184.251 184.427 184.078 183.24 183.731 182.28C183.385 181.293 182.865 180.547 182.171 180.04C181.505 179.507 180.638 179.24 179.571 179.24C178.665 179.24 177.878 179.467 177.211 179.92C176.571 180.347 176.091 181.013 175.771 181.92C175.451 182.827 175.291 183.96 175.291 185.32C175.291 187.507 175.691 189.147 176.491 190.24C177.318 191.333 178.465 191.88 179.931 191.88ZM202.223 196.56C200.463 196.56 198.917 196.12 197.583 195.24C196.277 194.333 195.25 193.053 194.503 191.4C193.757 189.72 193.383 187.72 193.383 185.4C193.383 183.267 193.703 181.373 194.343 179.72C194.983 178.067 195.93 176.773 197.183 175.84C198.463 174.88 200.037 174.4 201.903 174.4C203.237 174.4 204.357 174.64 205.263 175.12C206.197 175.6 206.97 176.32 207.583 177.28C208.197 178.24 208.69 179.453 209.063 180.92H210.063C209.877 180.013 209.703 179.16 209.543 178.36C209.383 177.533 209.25 176.773 209.143 176.08C209.063 175.36 209.023 174.733 209.023 174.2V167.2H215.503V185.68V196H210.223L210.143 189.76H209.263C208.97 191.36 208.503 192.667 207.863 193.68C207.25 194.667 206.463 195.4 205.503 195.88C204.57 196.333 203.477 196.56 202.223 196.56ZM204.543 191.36C205.37 191.36 206.063 191.187 206.623 190.84C207.21 190.467 207.677 190 208.023 189.44C208.37 188.88 208.623 188.28 208.783 187.64C208.943 187 209.023 186.4 209.023 185.84V185C209.023 184.493 208.957 183.987 208.823 183.48C208.69 182.973 208.49 182.48 208.223 182C207.983 181.52 207.677 181.093 207.303 180.72C206.93 180.347 206.49 180.053 205.983 179.84C205.503 179.627 204.97 179.52 204.383 179.52C203.503 179.52 202.743 179.76 202.103 180.24C201.49 180.72 201.01 181.4 200.663 182.28C200.343 183.16 200.183 184.2 200.183 185.4C200.183 186.6 200.357 187.653 200.703 188.56C201.05 189.44 201.557 190.133 202.223 190.64C202.89 191.12 203.663 191.36 204.543 191.36ZM230.52 196.56C228.76 196.56 227.187 196.333 225.8 195.88C224.413 195.4 223.227 194.707 222.24 193.8C221.28 192.893 220.547 191.773 220.04 190.44C219.533 189.107 219.28 187.573 219.28 185.84C219.28 184.16 219.52 182.613 220 181.2C220.507 179.787 221.213 178.573 222.12 177.56C223.053 176.52 224.187 175.72 225.52 175.16C226.88 174.6 228.4 174.32 230.08 174.32C231.787 174.32 233.28 174.6 234.56 175.16C235.867 175.693 236.933 176.493 237.76 177.56C238.613 178.627 239.24 179.933 239.64 181.48C240.04 183 240.173 184.747 240.04 186.72L223.52 186.84V183.48L236.36 183.36L234.08 184.92C234.267 183.587 234.187 182.507 233.84 181.68C233.493 180.827 232.987 180.213 232.32 179.84C231.653 179.44 230.933 179.24 230.16 179.24C229.227 179.24 228.4 179.493 227.68 180C226.987 180.507 226.44 181.24 226.04 182.2C225.64 183.16 225.44 184.333 225.44 185.72C225.44 187.907 225.907 189.493 226.84 190.48C227.8 191.467 229.013 191.96 230.48 191.96C231.2 191.96 231.8 191.867 232.28 191.68C232.76 191.467 233.147 191.213 233.44 190.92C233.76 190.6 234 190.253 234.16 189.88C234.347 189.507 234.493 189.147 234.6 188.8L240.2 190C239.987 190.987 239.64 191.88 239.16 192.68C238.707 193.48 238.08 194.173 237.28 194.76C236.507 195.347 235.56 195.787 234.44 196.08C233.347 196.4 232.04 196.56 230.52 196.56Z" fill="white"/>
</g>
<defs>
<clipPath id="clip0_63_149">
<rect width="319" height="245" fill="white"/>
</clipPath>
</defs>
</svg>
