<svg width="319" height="245" viewBox="0 0 319 245" fill="none" xmlns="http://www.w3.org/2000/svg">
<g clip-path="url(#clip0_63_101)">
<path d="M29 40C29 31.1634 36.1634 24 45 24H275C283.837 24 291 31.1634 291 40V205C291 213.837 283.837 221 275 221H45C36.1634 221 29 213.837 29 205V40Z" fill="#14042D"/>
<path d="M45 24.5H275C283.56 24.5 290.5 31.4396 290.5 40V205C290.5 213.56 283.56 220.5 275 220.5H45C36.4396 220.5 29.5 213.56 29.5 205V40C29.5 31.4396 36.4396 24.5 45 24.5Z" stroke="#0000FF" stroke-opacity="0.7"/>
<path d="M144.891 127.561C140.225 123.32 138.783 114.243 140.734 107.711C144.127 111.868 148.878 113.14 153.798 113.904C161.347 115.007 168.727 114.582 175.768 111.189L178.143 109.747C179.058 112.857 178.959 116.178 177.861 119.228C176.763 122.278 174.723 124.9 172.036 126.713L167.37 129.936C162.62 133.16 161.263 136.892 163.129 142.406L163.298 143C160.977 142.048 159.017 140.385 157.7 138.25C156.274 136.083 155.508 133.548 155.494 130.954C155.494 129.682 155.494 128.41 155.325 127.137C154.9 123.998 153.458 122.641 150.659 122.556C147.86 122.471 145.654 124.253 145.06 126.967L144.891 127.561Z" fill="black"/>
<path d="M118 106.608C118 106.608 131.997 99.8222 145.993 99.8222L156.512 67.3328C156.936 65.6362 158.039 64.6183 159.312 64.6183C160.669 64.6183 161.856 65.721 162.196 67.3328L172.715 99.8222C189.341 99.8222 200.708 106.608 200.708 106.608L176.956 42.1387C176.277 40.1876 175.09 39 173.563 39H145.145C143.618 39 142.515 40.1876 141.752 42.1387L118 106.608Z" fill="white"/>
<path d="M144.891 127.561C140.225 123.32 138.783 114.243 140.734 107.711C144.127 111.868 148.878 113.14 153.798 113.904C161.347 115.007 168.727 114.582 175.768 111.189L178.143 109.747C179.058 112.857 178.959 116.178 177.861 119.228C176.763 122.278 174.723 124.9 172.036 126.713L167.37 129.936C162.62 133.16 161.263 136.892 163.129 142.406L163.298 143C160.977 142.048 159.017 140.385 157.7 138.25C156.274 136.083 155.508 133.548 155.494 130.954C155.494 129.682 155.494 128.41 155.325 127.137C154.9 123.998 153.458 122.641 150.659 122.556C147.86 122.471 145.654 124.253 145.06 126.967L144.891 127.561Z" fill="url(#paint0_linear_63_101)"/>
<path d="M105.56 196L114.52 169.6H123.96L132.92 196H125.88L119.56 174.64H118.92L112.6 196H105.56ZM110.88 191.04V186.72H128.56V191.04H110.88ZM144.518 196.56C143.105 196.56 141.825 196.427 140.678 196.16C139.532 195.92 138.532 195.56 137.678 195.08C136.825 194.6 136.118 194.027 135.558 193.36C135.025 192.667 134.652 191.907 134.438 191.08L139.238 188.96C139.425 189.413 139.745 189.88 140.198 190.36C140.678 190.813 141.305 191.187 142.078 191.48C142.878 191.773 143.838 191.92 144.958 191.92C146.025 191.92 146.852 191.773 147.438 191.48C148.052 191.16 148.358 190.707 148.358 190.12C148.358 189.693 148.185 189.36 147.838 189.12C147.518 188.853 147.025 188.627 146.358 188.44C145.692 188.227 144.865 188.027 143.878 187.84C142.865 187.627 141.838 187.387 140.798 187.12C139.758 186.827 138.785 186.44 137.878 185.96C136.972 185.453 136.238 184.8 135.678 184C135.145 183.173 134.878 182.133 134.878 180.88C134.878 179.573 135.225 178.44 135.918 177.48C136.612 176.493 137.638 175.72 138.998 175.16C140.385 174.6 142.065 174.32 144.038 174.32C145.798 174.32 147.345 174.547 148.678 175C150.012 175.453 151.118 176.107 151.998 176.96C152.905 177.787 153.532 178.787 153.878 179.96L148.718 181.8C148.585 181.213 148.305 180.707 147.878 180.28C147.478 179.853 146.958 179.533 146.318 179.32C145.705 179.08 144.972 178.96 144.118 178.96C143.078 178.96 142.265 179.12 141.678 179.44C141.118 179.76 140.838 180.187 140.838 180.72C140.838 181.147 141.025 181.507 141.398 181.8C141.798 182.067 142.358 182.293 143.078 182.48C143.798 182.667 144.652 182.867 145.638 183.08C146.678 183.293 147.705 183.547 148.718 183.84C149.758 184.107 150.692 184.48 151.518 184.96C152.372 185.413 153.038 186.027 153.518 186.8C154.025 187.547 154.278 188.52 154.278 189.72C154.278 191.133 153.905 192.36 153.158 193.4C152.412 194.413 151.305 195.2 149.838 195.76C148.398 196.293 146.625 196.56 144.518 196.56ZM166.072 196.52C163.592 196.52 161.765 195.867 160.592 194.56C159.418 193.227 158.832 191.107 158.832 188.2V179.92H155.832L155.952 174.92H158.112C158.965 174.893 159.605 174.76 160.032 174.52C160.485 174.28 160.765 173.827 160.872 173.16L161.392 170.2H165.032V174.88H170.112V180.12H165.032V187.92C165.032 188.827 165.245 189.493 165.672 189.92C166.125 190.347 166.805 190.56 167.712 190.56C168.218 190.56 168.698 190.507 169.152 190.4C169.605 190.293 169.978 190.147 170.272 189.96V195.92C169.418 196.187 168.632 196.347 167.912 196.4C167.218 196.48 166.605 196.52 166.072 196.52ZM174.082 196V186.2V174.88H179.362L179.482 182.04H180.282C180.468 180.173 180.815 178.693 181.322 177.6C181.855 176.48 182.602 175.667 183.562 175.16C184.548 174.653 185.762 174.4 187.202 174.4C187.415 174.4 187.655 174.413 187.922 174.44C188.188 174.44 188.495 174.467 188.842 174.52L188.602 181.4C188.175 181.187 187.708 181.053 187.202 181C186.722 180.92 186.295 180.88 185.922 180.88C184.882 180.88 183.975 181.08 183.202 181.48C182.455 181.88 181.855 182.493 181.402 183.32C180.975 184.147 180.695 185.187 180.562 186.44V196H174.082ZM201.653 196.56C199.52 196.56 197.626 196.147 195.973 195.32C194.346 194.493 193.066 193.253 192.133 191.6C191.2 189.947 190.733 187.88 190.733 185.4C190.733 182.92 191.2 180.867 192.133 179.24C193.066 177.587 194.36 176.36 196.013 175.56C197.666 174.733 199.56 174.32 201.693 174.32C203.826 174.32 205.72 174.733 207.373 175.56C209.026 176.387 210.32 177.627 211.253 179.28C212.186 180.907 212.653 182.96 212.653 185.44C212.653 187.973 212.173 190.067 211.213 191.72C210.253 193.373 208.933 194.6 207.253 195.4C205.6 196.173 203.733 196.56 201.653 196.56ZM201.853 191.88C202.813 191.88 203.613 191.667 204.253 191.24C204.893 190.787 205.373 190.107 205.693 189.2C206.013 188.293 206.173 187.173 206.173 185.84C206.173 184.427 206 183.24 205.653 182.28C205.306 181.293 204.786 180.547 204.093 180.04C203.426 179.507 202.56 179.24 201.493 179.24C200.586 179.24 199.8 179.467 199.133 179.92C198.493 180.347 198.013 181.013 197.693 181.92C197.373 182.827 197.213 183.96 197.213 185.32C197.213 187.507 197.613 189.147 198.413 190.24C199.24 191.333 200.386 191.88 201.853 191.88Z" fill="white"/>
</g>
<defs>
<linearGradient id="paint0_linear_63_101" x1="159.312" y1="137.825" x2="170.085" y2="102.367" gradientUnits="userSpaceOnUse">
<stop stop-color="#D83333"/>
<stop offset="1" stop-color="#F041FF"/>
</linearGradient>
<clipPath id="clip0_63_101">
<rect width="319" height="245" fill="white"/>
</clipPath>
</defs>
</svg>
