<svg width="319" height="245" viewBox="0 0 319 245" fill="none" xmlns="http://www.w3.org/2000/svg">
<g clip-path="url(#clip0_63_23)">
<path d="M29 40C29 31.1634 36.1634 24 45 24H275C283.837 24 291 31.1634 291 40V205C291 213.837 283.837 221 275 221H45C36.1634 221 29 213.837 29 205V40Z" fill="#14042D"/>
<path d="M45 24.5H275C283.56 24.5 290.5 31.4396 290.5 40V205C290.5 213.56 283.56 220.5 275 220.5H45C36.4396 220.5 29.5 213.56 29.5 205V40C29.5 31.4396 36.4396 24.5 45 24.5Z" stroke="#0000FF" stroke-opacity="0.7"/>
<path d="M217.783 91.0119C217.783 83.2756 208.095 75.9439 193.241 71.3973C196.669 56.258 195.145 44.2131 188.432 40.3568C186.885 39.4523 185.076 39.0238 183.1 39.0238V44.3321C184.195 44.3321 185.076 44.5463 185.814 44.951C189.051 46.8077 190.456 53.8775 189.361 62.9707C189.099 65.2083 188.67 67.5649 188.147 69.9691C183.481 68.8265 178.387 67.9458 173.031 67.3745C169.818 62.9707 166.485 58.9716 163.129 55.4724C170.889 48.2598 178.173 44.3083 183.124 44.3083V39C176.578 39 168.008 43.6656 159.344 51.759C150.679 43.7132 142.11 39.0952 135.564 39.0952V44.4035C140.491 44.4035 147.799 48.3312 155.559 55.4962C152.226 58.9954 148.894 62.9707 145.728 67.3745C140.348 67.9458 135.254 68.8265 130.588 69.9929C130.041 67.6125 129.636 65.3035 129.351 63.0897C128.232 53.9966 129.612 46.9268 132.826 45.0462C133.54 44.6178 134.469 44.4273 135.564 44.4273V39.119C133.564 39.119 131.755 39.5475 130.184 40.452C123.495 44.3083 121.995 56.3294 125.447 71.4211C110.641 75.9915 101 83.2994 101 91.0119C101 98.7482 110.688 106.08 125.542 110.626C122.114 125.766 123.638 137.811 130.35 141.667C131.898 142.572 133.707 143 135.706 143C142.252 143 150.822 138.334 159.487 130.241C168.151 138.287 176.721 142.905 183.267 142.905C185.266 142.905 187.076 142.476 188.647 141.572C195.336 137.715 196.835 125.694 193.384 110.603C208.142 106.056 217.783 98.7244 217.783 91.0119ZM186.79 75.1346C185.909 78.2053 184.814 81.3712 183.576 84.5372C182.6 82.6329 181.577 80.7285 180.458 78.8242C179.363 76.9199 178.197 75.0632 177.03 73.2541C180.41 73.7539 183.672 74.3729 186.79 75.1346ZM175.888 100.486C174.031 103.699 172.127 106.746 170.151 109.579C166.604 109.889 163.01 110.055 159.391 110.055C155.797 110.055 152.203 109.889 148.68 109.603C146.704 106.77 144.776 103.747 142.919 100.557C141.11 97.439 139.467 94.2731 137.968 91.0833C139.444 87.8936 141.11 84.7038 142.895 81.5855C144.752 78.3719 146.656 75.325 148.632 72.4923C152.179 72.1829 155.773 72.0162 159.391 72.0162C162.986 72.0162 166.58 72.1829 170.103 72.4685C172.079 75.3012 174.007 78.3243 175.864 81.5141C177.673 84.6324 179.315 87.7983 180.815 90.9881C179.315 94.1778 177.673 97.3676 175.888 100.486ZM183.576 97.3914C184.862 100.581 185.957 103.771 186.861 106.865C183.743 107.627 180.458 108.27 177.054 108.77C178.22 106.937 179.387 105.056 180.482 103.128C181.577 101.224 182.6 99.2957 183.576 97.3914ZM159.439 122.79C157.225 120.505 155.011 117.958 152.821 115.173C154.964 115.268 157.154 115.34 159.368 115.34C161.605 115.34 163.819 115.292 165.985 115.173C163.843 117.958 161.629 120.505 159.439 122.79ZM141.729 108.77C138.349 108.27 135.087 107.651 131.969 106.889C132.85 103.818 133.945 100.653 135.183 97.4866C136.159 99.3909 137.182 101.295 138.301 103.2C139.42 105.104 140.562 106.961 141.729 108.77ZM159.32 59.2335C161.534 61.5187 163.748 64.0657 165.938 66.8508C163.795 66.7555 161.605 66.6841 159.391 66.6841C157.154 66.6841 154.94 66.7317 152.774 66.8508C154.916 64.0657 157.13 61.5187 159.32 59.2335ZM141.705 73.2541C140.539 75.087 139.372 76.9675 138.277 78.8956C137.182 80.8 136.159 82.7043 135.183 84.6086C133.897 81.4189 132.802 78.2291 131.898 75.1346C135.016 74.3967 138.301 73.7539 141.705 73.2541ZM120.162 103.057C111.736 99.4623 106.285 94.7491 106.285 91.0119C106.285 87.2747 111.736 82.5376 120.162 78.967C122.209 78.0863 124.447 77.3008 126.756 76.5628C128.113 81.2284 129.898 86.0845 132.112 91.0595C129.922 96.0108 128.16 100.843 126.827 105.485C124.471 104.747 122.233 103.938 120.162 103.057ZM132.969 137.073C129.732 135.216 128.327 128.146 129.422 119.053C129.684 116.816 130.112 114.459 130.636 112.055C135.302 113.197 140.396 114.078 145.752 114.649C148.965 119.053 152.298 123.052 155.654 126.551C147.894 133.764 140.61 137.715 135.659 137.715C134.588 137.692 133.683 137.477 132.969 137.073ZM189.432 118.934C190.551 128.027 189.17 135.097 185.957 136.978C185.243 137.406 184.314 137.596 183.219 137.596C178.292 137.596 170.984 133.669 163.224 126.504C166.556 123.005 169.889 119.029 173.055 114.626C178.435 114.054 183.529 113.173 188.194 112.007C188.742 114.411 189.17 116.72 189.432 118.934ZM198.597 103.057C196.55 103.938 194.312 104.723 192.003 105.461C190.646 100.795 188.861 95.9393 186.647 90.9643C188.837 86.013 190.599 81.1808 191.932 76.539C194.288 77.2769 196.526 78.0863 198.621 78.967C207.047 82.5615 212.498 87.2747 212.498 91.0119C212.474 94.7491 207.023 99.4862 198.597 103.057Z" fill="#61DAFB"/>
<path d="M159.368 101.89C165.376 101.89 170.246 97.0199 170.246 91.0119C170.246 85.0039 165.376 80.1334 159.368 80.1334C153.36 80.1334 148.489 85.0039 148.489 91.0119C148.489 97.0199 153.36 101.89 159.368 101.89Z" fill="#61DAFB"/>
<path d="M104.76 196V169.6H116C117.467 169.6 118.8 169.72 120 169.96C121.2 170.173 122.253 170.507 123.16 170.96C124.093 171.387 124.88 171.92 125.52 172.56C126.16 173.173 126.64 173.893 126.96 174.72C127.28 175.52 127.44 176.413 127.44 177.4C127.44 178.333 127.293 179.173 127 179.92C126.707 180.667 126.253 181.32 125.64 181.88C125.053 182.44 124.307 182.893 123.4 183.24C122.493 183.587 121.44 183.84 120.24 184V184.6C121.76 184.76 122.933 185.107 123.76 185.64C124.613 186.147 125.267 186.827 125.72 187.68C126.173 188.533 126.573 189.56 126.92 190.76L128.44 196H121.28L120.12 191.16C119.88 190.093 119.547 189.267 119.12 188.68C118.72 188.093 118.2 187.693 117.56 187.48C116.92 187.24 116.12 187.12 115.16 187.12H111.2V196H104.76ZM111.2 182.36H115.56C117.187 182.36 118.453 182.04 119.36 181.4C120.267 180.76 120.72 179.76 120.72 178.4C120.72 177.067 120.307 176.08 119.48 175.44C118.653 174.8 117.4 174.48 115.72 174.48H111.2V182.36ZM142.02 196.56C140.26 196.56 138.687 196.333 137.3 195.88C135.913 195.4 134.727 194.707 133.74 193.8C132.78 192.893 132.047 191.773 131.54 190.44C131.033 189.107 130.78 187.573 130.78 185.84C130.78 184.16 131.02 182.613 131.5 181.2C132.007 179.787 132.713 178.573 133.62 177.56C134.553 176.52 135.687 175.72 137.02 175.16C138.38 174.6 139.9 174.32 141.58 174.32C143.287 174.32 144.78 174.6 146.06 175.16C147.367 175.693 148.433 176.493 149.26 177.56C150.113 178.627 150.74 179.933 151.14 181.48C151.54 183 151.673 184.747 151.54 186.72L135.02 186.84V183.48L147.86 183.36L145.58 184.92C145.767 183.587 145.687 182.507 145.34 181.68C144.993 180.827 144.487 180.213 143.82 179.84C143.153 179.44 142.433 179.24 141.66 179.24C140.727 179.24 139.9 179.493 139.18 180C138.487 180.507 137.94 181.24 137.54 182.2C137.14 183.16 136.94 184.333 136.94 185.72C136.94 187.907 137.407 189.493 138.34 190.48C139.3 191.467 140.513 191.96 141.98 191.96C142.7 191.96 143.3 191.867 143.78 191.68C144.26 191.467 144.647 191.213 144.94 190.92C145.26 190.6 145.5 190.253 145.66 189.88C145.847 189.507 145.993 189.147 146.1 188.8L151.7 190C151.487 190.987 151.14 191.88 150.66 192.68C150.207 193.48 149.58 194.173 148.78 194.76C148.007 195.347 147.06 195.787 145.94 196.08C144.847 196.4 143.54 196.56 142.02 196.56ZM160.417 196.56C159.243 196.56 158.203 196.333 157.297 195.88C156.39 195.4 155.683 194.72 155.177 193.84C154.67 192.933 154.417 191.84 154.417 190.56C154.417 189.36 154.643 188.373 155.097 187.6C155.577 186.8 156.257 186.173 157.137 185.72C158.043 185.24 159.123 184.853 160.377 184.56C161.63 184.24 163.057 183.96 164.657 183.72C165.43 183.587 166.07 183.467 166.577 183.36C167.11 183.227 167.51 183.027 167.777 182.76C168.043 182.493 168.177 182.107 168.177 181.6C168.177 180.933 167.937 180.36 167.457 179.88C166.977 179.4 166.203 179.16 165.137 179.16C164.39 179.16 163.71 179.293 163.097 179.56C162.51 179.827 162.003 180.213 161.577 180.72C161.15 181.227 160.83 181.84 160.617 182.56L154.937 180.88C155.283 179.76 155.763 178.787 156.377 177.96C157.017 177.133 157.777 176.453 158.657 175.92C159.537 175.36 160.537 174.96 161.657 174.72C162.803 174.453 164.017 174.32 165.297 174.32C167.43 174.32 169.163 174.667 170.497 175.36C171.857 176.027 172.857 177.08 173.497 178.52C174.163 179.933 174.497 181.76 174.497 184V187.24C174.497 188.2 174.51 189.173 174.537 190.16C174.59 191.12 174.643 192.093 174.697 193.08C174.777 194.04 174.87 195.013 174.977 196H169.297C169.19 195.387 169.083 194.653 168.977 193.8C168.87 192.92 168.79 192.027 168.737 191.12H167.977C167.603 192.133 167.057 193.067 166.337 193.92C165.643 194.747 164.79 195.4 163.777 195.88C162.79 196.333 161.67 196.56 160.417 196.56ZM163.337 192C163.817 192 164.297 191.92 164.777 191.76C165.283 191.573 165.763 191.333 166.217 191.04C166.67 190.72 167.083 190.333 167.457 189.88C167.83 189.427 168.11 188.933 168.297 188.4L168.217 185.24L169.097 185.44C168.59 185.76 168.03 186.013 167.417 186.2C166.803 186.387 166.177 186.533 165.537 186.64C164.923 186.747 164.31 186.867 163.697 187C163.11 187.107 162.577 187.253 162.097 187.44C161.643 187.627 161.283 187.88 161.017 188.2C160.75 188.52 160.617 188.96 160.617 189.52C160.617 190.267 160.87 190.867 161.377 191.32C161.883 191.773 162.537 192 163.337 192ZM189.206 196.56C187.392 196.56 185.792 196.307 184.406 195.8C183.019 195.293 181.859 194.573 180.926 193.64C179.992 192.68 179.272 191.533 178.766 190.2C178.286 188.867 178.046 187.373 178.046 185.72C178.046 184.013 178.286 182.467 178.766 181.08C179.272 179.693 179.992 178.493 180.926 177.48C181.859 176.467 183.006 175.693 184.366 175.16C185.726 174.6 187.286 174.32 189.046 174.32C190.806 174.32 192.326 174.6 193.606 175.16C194.886 175.72 195.926 176.507 196.726 177.52C197.552 178.533 198.112 179.707 198.406 181.04L192.446 183.04C192.366 182.16 192.152 181.44 191.806 180.88C191.459 180.32 191.006 179.92 190.446 179.68C189.912 179.413 189.326 179.28 188.686 179.28C188.019 179.28 187.432 179.413 186.926 179.68C186.419 179.947 185.992 180.347 185.646 180.88C185.299 181.413 185.032 182.067 184.846 182.84C184.659 183.587 184.566 184.453 184.566 185.44C184.566 186.853 184.739 188.04 185.086 189C185.459 189.933 185.992 190.64 186.686 191.12C187.406 191.6 188.272 191.84 189.286 191.84C190.326 191.84 191.139 191.627 191.726 191.2C192.312 190.773 192.739 190.253 193.006 189.64C193.272 189 193.432 188.373 193.486 187.76L199.086 189C198.979 189.987 198.712 190.947 198.286 191.88C197.886 192.787 197.286 193.6 196.486 194.32C195.686 195.013 194.686 195.56 193.486 195.96C192.312 196.36 190.886 196.56 189.206 196.56ZM210.337 196.52C207.857 196.52 206.031 195.867 204.857 194.56C203.684 193.227 203.097 191.107 203.097 188.2V179.92H200.097L200.217 174.92H202.377C203.231 174.893 203.871 174.76 204.297 174.52C204.751 174.28 205.031 173.827 205.137 173.16L205.657 170.2H209.297V174.88H214.377V180.12H209.297V187.92C209.297 188.827 209.511 189.493 209.937 189.92C210.391 190.347 211.071 190.56 211.977 190.56C212.484 190.56 212.964 190.507 213.417 190.4C213.871 190.293 214.244 190.147 214.537 189.96V195.92C213.684 196.187 212.897 196.347 212.177 196.4C211.484 196.48 210.871 196.52 210.337 196.52Z" fill="white"/>
</g>
<defs>
<clipPath id="clip0_63_23">
<rect width="319" height="245" fill="white"/>
</clipPath>
</defs>
</svg>
