<svg width="262" height="197" viewBox="0 0 262 197" fill="none" xmlns="http://www.w3.org/2000/svg">
<path d="M0 16C0 7.16345 7.16344 0 16 0H246C254.837 0 262 7.16344 262 16V181C262 189.837 254.837 197 246 197H16C7.16345 197 0 189.837 0 181V16Z" fill="#14042D"/>
<path d="M16 0.5H246C254.56 0.5 261.5 7.43959 261.5 16V181C261.5 189.56 254.56 196.5 246 196.5H16C7.43959 196.5 0.5 189.56 0.5 181V16C0.500003 7.43959 7.43959 0.5 16 0.5Z" stroke="#0000FF" stroke-opacity="0.7"/>
<path d="M109.8 77.4L120.2 46.2L167 93L151.4 119L130.6 98.2H120.2" fill="#00E8FF"/>
<path fill-rule="evenodd" clip-rule="evenodd" d="M130.6 98.2V56.6L151.4 35.8V77.4M99.4 77.4H109.8L120.2 98.2L109.8 119L89 98.2L99.4 77.4Z" fill="#283198"/>
<path d="M109.8 77.4V35.8L130.6 15V56.6M151.4 119V77.4L172.2 56.6V98.2M89 98.2V56.6L109.8 77.4" fill="#324FFF"/>
<path d="M109.8 119V77.4L130.6 98.2" fill="#00FFFF"/>
<path d="M108.76 172V145.6H115.2V172H108.76ZM109.92 172V166.6H125.96V172H109.92ZM128.832 172V150.88H135.272V172H128.832ZM132.072 147.92C130.845 147.92 129.898 147.667 129.232 147.16C128.592 146.627 128.272 145.88 128.272 144.92C128.272 143.907 128.592 143.147 129.232 142.64C129.898 142.107 130.845 141.84 132.072 141.84C133.325 141.84 134.272 142.107 134.912 142.64C135.578 143.147 135.912 143.893 135.912 144.88C135.912 145.867 135.578 146.627 134.912 147.16C134.272 147.667 133.325 147.92 132.072 147.92ZM148.517 172.52C146.037 172.52 144.21 171.867 143.037 170.56C141.864 169.227 141.277 167.107 141.277 164.2V155.92H138.277L138.397 150.92H140.557C141.41 150.893 142.05 150.76 142.477 150.52C142.93 150.28 143.21 149.827 143.317 149.16L143.837 146.2H147.477V150.88H152.557V156.12H147.477V163.92C147.477 164.827 147.69 165.493 148.117 165.92C148.57 166.347 149.25 166.56 150.157 166.56C150.664 166.56 151.144 166.507 151.597 166.4C152.05 166.293 152.424 166.147 152.717 165.96V171.92C151.864 172.187 151.077 172.347 150.357 172.4C149.664 172.48 149.05 172.52 148.517 172.52Z" fill="white"/>
</svg>
