<svg width="319" height="245" viewBox="0 0 319 245" fill="none" xmlns="http://www.w3.org/2000/svg">
<g clip-path="url(#clip0_63_183)">
<mask id="mask0_63_183" style="mask-type:luminance" maskUnits="userSpaceOnUse" x="0" y="0" width="319" height="245">
<path d="M317.857 14.3526C318.427 14.3526 318.923 13.9186 318.923 13.3485V9.33203C318.923 8.76175 318.427 8.32795 317.857 8.32795C313.612 8.32795 310.035 5.47919 308.929 1.59306C308.676 0.706043 307.922 0 306.999 0H305.234C305.216 0 305.201 0.0144294 305.201 0.0322289C305.201 0.0500285 305.187 0.0644579 305.169 0.0644579H302.612C302.041 0.0644579 301.608 0.560079 301.608 1.13016C301.608 6.25241 297.455 10.4078 292.327 10.4078C287.199 10.4078 283.046 6.25671 283.046 1.13016C283.046 0.560331 282.612 0.0644579 282.043 0.0644579H278.552C277.982 0.0644579 277.548 0.56008 277.548 1.13016C277.548 6.25241 273.396 10.4078 268.268 10.4078C263.14 10.4078 258.987 6.25671 258.987 1.13016C258.987 0.56033 258.553 0.0644579 257.983 0.0644579H253.908C253.338 0.0644579 252.905 0.560079 252.905 1.13016C252.905 6.25241 248.752 10.4078 243.624 10.4078C238.496 10.4078 234.343 6.25671 234.343 1.13016C234.343 0.560331 233.909 0.0644579 233.339 0.0644579H229.797C229.227 0.0644579 228.794 0.56008 228.794 1.13016C228.794 6.25241 224.641 10.4078 219.513 10.4078C214.385 10.4078 210.232 6.25671 210.232 1.13016C210.232 0.560331 209.798 0.0644579 209.228 0.0644579H205.209C204.639 0.0644579 204.206 0.560079 204.206 1.13016C204.206 6.25241 200.053 10.4078 194.925 10.4078C189.797 10.4078 185.644 6.25671 185.644 1.13016C185.644 0.56033 185.21 0.0644579 184.64 0.0644579H181.042C180.472 0.0644579 180.039 0.560079 180.039 1.13016C180.039 6.25241 175.886 10.4078 170.758 10.4078C165.63 10.4078 161.477 6.25671 161.477 1.13016C161.477 0.560331 161.043 0.0644579 160.474 0.0644579H156.983C156.413 0.0644579 155.979 0.560079 155.979 1.13016C155.979 6.25241 151.827 10.4078 146.699 10.4078C141.57 10.4078 137.418 6.25671 137.418 1.13016C137.418 0.560331 136.984 0.0644579 136.414 0.0644579H132.339C131.769 0.0644579 131.335 0.560079 131.335 1.13016C131.335 6.25241 127.183 10.4078 122.055 10.4078C116.927 10.4078 112.774 6.25671 112.774 1.13016C112.774 0.560331 112.34 0.0644579 111.77 0.0644579H108.512C107.942 0.0644579 107.508 0.560079 107.508 1.13016C107.508 6.25241 103.356 10.4078 98.2276 10.4078C93.0993 10.4078 88.9469 6.25671 88.9469 1.13016C88.9469 0.560331 88.513 0.0644579 87.9432 0.0644579H83.9239C83.3539 0.0644579 82.9202 0.560079 82.9202 1.13016C82.9202 6.25241 78.7678 10.4078 73.6395 10.4078C68.5113 10.4078 64.3588 6.25671 64.3588 1.13016C64.3588 0.560331 63.9249 0.0644579 63.3551 0.0644579H59.7571C59.1871 0.0644579 58.7534 0.560079 58.7534 1.13016C58.7534 6.25241 54.601 10.4078 49.4727 10.4078C44.3445 10.4078 40.192 6.25671 40.192 1.13016C40.192 0.560331 39.7581 0.0644579 39.1883 0.0644579H35.6978C35.1277 0.0644579 34.6941 0.560079 34.6941 1.13016C34.6941 6.25241 30.5416 10.4078 25.4134 10.4078C20.2851 10.4078 16.2058 6.26101 16.2058 1.13446C16.2058 0.564628 15.7719 0.068755 15.202 0.068755H11.1269C10.5569 0.068755 10.1232 0.564376 10.1232 1.13446C10.1232 1.49542 10.1017 1.81771 10.0631 2.15289C9.06147 6.19225 5.41625 9.19169 1.06606 9.19169C0.496025 9.19169 0 9.62575 0 10.1958V14.2123C0 14.7825 0.495774 15.2163 1.06606 15.2163C6.19 15.2163 10.3468 19.3674 10.3468 24.494C10.3468 29.6205 6.1943 33.7716 1.06606 33.7716C0.496025 33.7716 0 34.2057 0 34.7757V38.0316C0 38.6019 0.495773 39.0357 1.06606 39.0357C6.19 39.0357 10.3468 43.1868 10.3468 48.3133C10.3468 53.4399 6.1943 57.5909 1.06606 57.5909C0.496025 57.5909 0 58.025 0 58.595V62.6674C0 63.2377 0.495774 63.6715 1.06606 63.6715C6.19 63.6715 10.3468 67.8225 10.3468 72.9491C10.3468 78.0756 6.1943 82.2267 1.06606 82.2267C0.496025 82.2267 0 82.6608 0 83.2308V86.7188C0 87.289 0.495774 87.7228 1.06606 87.7228C6.19 87.7228 10.3468 91.8739 10.3468 97.0005C10.3468 102.127 6.1943 106.278 1.06606 106.278C0.496025 106.278 0 106.712 0 107.282V110.878C0 111.448 0.495774 111.882 1.06606 111.882C6.19 111.882 10.3468 116.033 10.3468 121.159C10.3468 126.286 6.1943 130.437 1.06606 130.437C0.496025 130.437 0 130.871 0 131.441V135.457C0 136.028 0.495773 136.462 1.06606 136.462C6.19 136.462 10.3468 140.613 10.3468 145.739C10.3468 150.866 6.1943 155.017 1.06606 155.017C0.496024 155.017 0 155.451 0 156.021V159.56C0 160.131 0.495774 160.565 1.06606 160.565C6.19 160.565 10.3468 164.716 10.3468 169.842C10.3468 174.969 6.1943 179.12 1.06606 179.12C0.496025 179.12 0 179.554 0 180.124V184.196C0 184.766 0.495774 185.2 1.06606 185.2C6.19 185.2 10.3468 189.351 10.3468 194.478C10.3468 199.604 6.1943 203.756 1.06606 203.756C0.496025 203.756 0 204.19 0 204.76V208.248C0 208.818 0.495774 209.252 1.06606 209.252C6.19 209.252 10.3468 213.403 10.3468 218.529C10.3468 223.656 6.1943 227.807 1.06606 227.807C0.496024 227.807 0 228.241 0 228.811V233.119C0 233.309 0.165304 233.456 0.354464 233.442C0.426904 233.436 0.499533 233.432 0.571941 233.428C0.632834 233.425 0.683479 233.474 0.683479 233.535C0.683479 233.594 0.731556 233.641 0.790775 233.636C0.808132 233.635 0.82533 233.634 0.842528 233.634C5.96647 233.634 10.1232 237.785 10.1232 242.912C10.1232 243.24 10.1019 243.565 10.0689 243.883C10.0637 243.933 10.103 243.977 10.1537 243.977C10.2056 243.977 10.2454 244.023 10.2374 244.075C10.217 244.206 10.1946 244.335 10.1698 244.464C10.1171 244.737 10.321 245 10.5993 245H13.2141C13.4965 245 13.7255 244.771 13.7255 244.489C13.7255 244.206 13.9544 243.977 14.2368 243.977H15.2064C15.7764 243.977 16.2101 243.482 16.2101 242.912C16.2101 237.789 20.3625 233.634 25.4908 233.634C30.619 233.634 34.7715 237.785 34.7715 242.912C34.7715 243.481 35.2054 243.977 35.7752 243.977H39.2657C39.8358 243.977 40.2694 243.482 40.2694 242.912C40.2694 237.789 44.4219 233.634 49.5501 233.634C54.6783 233.634 58.8308 237.785 58.8308 242.912C58.8308 243.481 59.2647 243.977 59.8345 243.977H63.4325C64.0026 243.977 64.4362 243.482 64.4362 242.912C64.4362 237.789 68.5886 233.634 73.7169 233.634C78.8451 233.634 82.9976 237.785 82.9976 242.912C82.9976 243.481 83.4315 243.977 84.0013 243.977H88.0205C88.5906 243.977 89.0242 243.482 89.0242 242.912C89.0242 237.789 93.1767 233.634 98.3049 233.634C103.433 233.634 107.586 237.785 107.586 242.912C107.586 243.481 108.02 243.977 108.589 243.977H111.848C112.418 243.977 112.851 243.482 112.851 242.912C112.851 237.789 117.004 233.634 122.132 233.634C127.26 233.634 131.413 237.785 131.413 242.912C131.413 243.481 131.847 243.977 132.417 243.977H136.492C137.062 243.977 137.495 243.482 137.495 242.912C137.495 237.789 141.648 233.634 146.776 233.634C151.904 233.634 156.057 237.785 156.057 242.912C156.057 243.481 156.491 243.977 157.061 243.977H160.551C161.121 243.977 161.555 243.482 161.555 242.912C161.555 237.789 165.707 233.634 170.835 233.634C175.964 233.634 180.116 237.785 180.116 242.912C180.116 243.481 180.55 243.977 181.12 243.977H184.718C185.288 243.977 185.722 243.482 185.722 242.912C185.722 237.789 189.874 233.634 195.002 233.634C200.13 233.634 204.283 237.785 204.283 242.912C204.283 243.481 204.717 243.977 205.287 243.977H209.306C209.876 243.977 210.31 243.482 210.31 242.912C210.31 237.789 214.462 233.634 219.59 233.634C224.719 233.634 228.871 237.785 228.871 242.912C228.871 243.481 229.305 243.977 229.875 243.977H233.417C233.987 243.977 234.421 243.482 234.421 242.912C234.421 237.789 238.573 233.634 243.701 233.634C248.829 233.634 252.982 237.785 252.982 242.912C252.982 243.481 253.416 243.977 253.986 243.977H258.061C258.631 243.977 259.064 243.482 259.064 242.912C259.064 237.789 263.217 233.634 268.345 233.634C273.473 233.634 277.626 237.785 277.626 242.912C277.626 243.481 278.06 243.977 278.63 243.977H282.12C282.69 243.977 283.124 243.482 283.124 242.912C283.124 237.789 287.276 233.634 292.404 233.634C297.533 233.634 301.685 237.785 301.685 242.912C301.685 243.481 302.119 243.977 302.689 243.977H305.197C305.242 243.977 305.279 244.014 305.279 244.059C305.279 244.104 305.315 244.141 305.36 244.141H306.885C307.934 244.141 308.69 243.145 308.657 242.097C308.655 242.008 308.653 241.918 308.653 241.829C308.653 239.326 309.647 237.063 311.257 235.395C311.432 235.215 311.629 235.059 311.845 234.931C313.229 234.111 314.841 233.634 316.567 233.634C317.108 233.634 317.635 233.685 318.15 233.777C318.523 233.843 318.88 233.567 318.88 233.188V232.664C318.88 232.633 318.905 232.607 318.936 232.611C318.97 232.616 319 232.59 319 232.556V227.956C319 227.386 318.504 226.952 317.934 226.952C312.81 226.952 308.653 222.801 308.653 217.674C308.653 212.548 312.806 208.397 317.934 208.397C318.504 208.397 319 207.962 319 207.392V203.905C319 203.334 318.504 202.9 317.934 202.9C312.81 202.9 308.653 198.749 308.653 193.623C308.653 188.496 312.806 184.345 317.934 184.345C318.504 184.345 319 183.911 319 183.341V179.269C319 178.698 318.504 178.265 317.934 178.265C312.81 178.265 308.653 174.114 308.653 168.987C308.653 163.86 312.806 159.709 317.934 159.709C318.504 159.709 319 159.275 319 158.705V155.166C319 154.596 318.504 154.162 317.934 154.162C312.81 154.162 308.653 150.011 308.653 144.884C308.653 139.758 312.806 135.606 317.934 135.606C318.504 135.606 319 135.172 319 134.602V130.586C319 130.016 318.504 129.582 317.934 129.582C312.81 129.582 308.653 125.431 308.653 120.304C308.653 115.178 312.806 111.026 317.934 111.026C318.504 111.026 319 110.592 319 110.022V106.427C319 105.857 318.504 105.423 317.934 105.423C312.81 105.423 308.653 101.272 308.653 96.1453C308.653 91.0188 312.806 86.8677 317.934 86.8677C318.504 86.8677 319 86.4336 319 85.8636V82.3757C319 81.8054 318.504 81.3716 317.934 81.3716C312.81 81.3716 308.653 77.2205 308.653 72.0939C308.653 66.9674 312.806 62.8163 317.934 62.8163C318.504 62.8163 319 62.3823 319 61.8122V57.7399C319 57.1696 318.504 56.7358 317.934 56.7358C312.81 56.7358 308.653 52.5847 308.653 47.4582C308.653 42.3316 312.806 38.1805 317.934 38.1805C318.504 38.1805 319 37.7465 319 37.1764V33.9206C319 33.3503 318.504 32.9165 317.934 32.9165C312.81 32.9165 308.653 28.7654 308.653 23.6388C308.653 18.5123 312.806 14.3612 317.934 14.3612L317.857 14.3526Z" fill="white"/>
</mask>
<g mask="url(#mask0_63_183)">
<path d="M317.857 14.3526C318.427 14.3526 318.923 13.9186 318.923 13.3485V9.33203C318.923 8.76175 318.427 8.32795 317.857 8.32795C313.612 8.32795 310.035 5.47919 308.929 1.59306C308.676 0.706043 307.922 0 306.999 0H305.234C305.216 0 305.201 0.0144294 305.201 0.0322289C305.201 0.0500285 305.187 0.0644579 305.169 0.0644579H302.612C302.041 0.0644579 301.608 0.560079 301.608 1.13016C301.608 6.25241 297.455 10.4078 292.327 10.4078C287.199 10.4078 283.046 6.25671 283.046 1.13016C283.046 0.560331 282.612 0.0644579 282.043 0.0644579H278.552C277.982 0.0644579 277.548 0.56008 277.548 1.13016C277.548 6.25241 273.396 10.4078 268.268 10.4078C263.14 10.4078 258.987 6.25671 258.987 1.13016C258.987 0.56033 258.553 0.0644579 257.983 0.0644579H253.908C253.338 0.0644579 252.905 0.560079 252.905 1.13016C252.905 6.25241 248.752 10.4078 243.624 10.4078C238.496 10.4078 234.343 6.25671 234.343 1.13016C234.343 0.560331 233.909 0.0644579 233.339 0.0644579H229.797C229.227 0.0644579 228.794 0.56008 228.794 1.13016C228.794 6.25241 224.641 10.4078 219.513 10.4078C214.385 10.4078 210.232 6.25671 210.232 1.13016C210.232 0.560331 209.798 0.0644579 209.228 0.0644579H205.209C204.639 0.0644579 204.206 0.560079 204.206 1.13016C204.206 6.25241 200.053 10.4078 194.925 10.4078C189.797 10.4078 185.644 6.25671 185.644 1.13016C185.644 0.56033 185.21 0.0644579 184.64 0.0644579H181.042C180.472 0.0644579 180.039 0.560079 180.039 1.13016C180.039 6.25241 175.886 10.4078 170.758 10.4078C165.63 10.4078 161.477 6.25671 161.477 1.13016C161.477 0.560331 161.043 0.0644579 160.474 0.0644579H156.983C156.413 0.0644579 155.979 0.560079 155.979 1.13016C155.979 6.25241 151.827 10.4078 146.699 10.4078C141.57 10.4078 137.418 6.25671 137.418 1.13016C137.418 0.560331 136.984 0.0644579 136.414 0.0644579H132.339C131.769 0.0644579 131.335 0.560079 131.335 1.13016C131.335 6.25241 127.183 10.4078 122.055 10.4078C116.927 10.4078 112.774 6.25671 112.774 1.13016C112.774 0.560331 112.34 0.0644579 111.77 0.0644579H108.512C107.942 0.0644579 107.508 0.560079 107.508 1.13016C107.508 6.25241 103.356 10.4078 98.2276 10.4078C93.0993 10.4078 88.9469 6.25671 88.9469 1.13016C88.9469 0.560331 88.513 0.0644579 87.9432 0.0644579H83.9239C83.3539 0.0644579 82.9202 0.560079 82.9202 1.13016C82.9202 6.25241 78.7678 10.4078 73.6395 10.4078C68.5113 10.4078 64.3588 6.25671 64.3588 1.13016C64.3588 0.560331 63.9249 0.0644579 63.3551 0.0644579H59.7571C59.1871 0.0644579 58.7534 0.560079 58.7534 1.13016C58.7534 6.25241 54.601 10.4078 49.4727 10.4078C44.3445 10.4078 40.192 6.25671 40.192 1.13016C40.192 0.560331 39.7581 0.0644579 39.1883 0.0644579H35.6978C35.1277 0.0644579 34.6941 0.560079 34.6941 1.13016C34.6941 6.25241 30.5416 10.4078 25.4134 10.4078C20.2851 10.4078 16.2058 6.26101 16.2058 1.13446C16.2058 0.564628 15.7719 0.068755 15.202 0.068755H11.1269C10.5569 0.068755 10.1232 0.564376 10.1232 1.13446C10.1232 1.49542 10.1017 1.81771 10.0631 2.15289C9.06147 6.19225 5.41625 9.19169 1.06606 9.19169C0.496025 9.19169 0 9.62575 0 10.1958V14.2123C0 14.7825 0.495774 15.2163 1.06606 15.2163C6.19 15.2163 10.3468 19.3674 10.3468 24.494C10.3468 29.6205 6.1943 33.7716 1.06606 33.7716C0.496025 33.7716 0 34.2057 0 34.7757V38.0316C0 38.6019 0.495773 39.0357 1.06606 39.0357C6.19 39.0357 10.3468 43.1868 10.3468 48.3133C10.3468 53.4399 6.1943 57.5909 1.06606 57.5909C0.496025 57.5909 0 58.025 0 58.595V62.6674C0 63.2377 0.495774 63.6715 1.06606 63.6715C6.19 63.6715 10.3468 67.8225 10.3468 72.9491C10.3468 78.0756 6.1943 82.2267 1.06606 82.2267C0.496025 82.2267 0 82.6608 0 83.2308V86.7188C0 87.289 0.495774 87.7228 1.06606 87.7228C6.19 87.7228 10.3468 91.8739 10.3468 97.0005C10.3468 102.127 6.1943 106.278 1.06606 106.278C0.496025 106.278 0 106.712 0 107.282V110.878C0 111.448 0.495774 111.882 1.06606 111.882C6.19 111.882 10.3468 116.033 10.3468 121.159C10.3468 126.286 6.1943 130.437 1.06606 130.437C0.496025 130.437 0 130.871 0 131.441V135.457C0 136.028 0.495773 136.462 1.06606 136.462C6.19 136.462 10.3468 140.613 10.3468 145.739C10.3468 150.866 6.1943 155.017 1.06606 155.017C0.496024 155.017 0 155.451 0 156.021V159.56C0 160.131 0.495774 160.565 1.06606 160.565C6.19 160.565 10.3468 164.716 10.3468 169.842C10.3468 174.969 6.1943 179.12 1.06606 179.12C0.496025 179.12 0 179.554 0 180.124V184.196C0 184.766 0.495774 185.2 1.06606 185.2C6.19 185.2 10.3468 189.351 10.3468 194.478C10.3468 199.604 6.1943 203.756 1.06606 203.756C0.496025 203.756 0 204.19 0 204.76V208.248C0 208.818 0.495774 209.252 1.06606 209.252C6.19 209.252 10.3468 213.403 10.3468 218.529C10.3468 223.656 6.1943 227.807 1.06606 227.807C0.496024 227.807 0 228.241 0 228.811V233.119C0 233.309 0.165304 233.456 0.354464 233.442C0.426904 233.436 0.499533 233.432 0.571941 233.428C0.632834 233.425 0.683479 233.474 0.683479 233.535C0.683479 233.594 0.731556 233.641 0.790775 233.636C0.808132 233.635 0.82533 233.634 0.842528 233.634C5.96647 233.634 10.1232 237.785 10.1232 242.912C10.1232 243.24 10.1019 243.565 10.0689 243.883C10.0637 243.933 10.103 243.977 10.1537 243.977C10.2056 243.977 10.2454 244.023 10.2374 244.075C10.217 244.206 10.1946 244.335 10.1698 244.464C10.1171 244.737 10.321 245 10.5993 245H13.2141C13.4965 245 13.7255 244.771 13.7255 244.489C13.7255 244.206 13.9544 243.977 14.2368 243.977H15.2064C15.7764 243.977 16.2101 243.482 16.2101 242.912C16.2101 237.789 20.3625 233.634 25.4908 233.634C30.619 233.634 34.7715 237.785 34.7715 242.912C34.7715 243.481 35.2054 243.977 35.7752 243.977H39.2657C39.8358 243.977 40.2694 243.482 40.2694 242.912C40.2694 237.789 44.4219 233.634 49.5501 233.634C54.6783 233.634 58.8308 237.785 58.8308 242.912C58.8308 243.481 59.2647 243.977 59.8345 243.977H63.4325C64.0026 243.977 64.4362 243.482 64.4362 242.912C64.4362 237.789 68.5886 233.634 73.7169 233.634C78.8451 233.634 82.9976 237.785 82.9976 242.912C82.9976 243.481 83.4315 243.977 84.0013 243.977H88.0205C88.5906 243.977 89.0242 243.482 89.0242 242.912C89.0242 237.789 93.1767 233.634 98.3049 233.634C103.433 233.634 107.586 237.785 107.586 242.912C107.586 243.481 108.02 243.977 108.589 243.977H111.848C112.418 243.977 112.851 243.482 112.851 242.912C112.851 237.789 117.004 233.634 122.132 233.634C127.26 233.634 131.413 237.785 131.413 242.912C131.413 243.481 131.847 243.977 132.417 243.977H136.492C137.062 243.977 137.495 243.482 137.495 242.912C137.495 237.789 141.648 233.634 146.776 233.634C151.904 233.634 156.057 237.785 156.057 242.912C156.057 243.481 156.491 243.977 157.061 243.977H160.551C161.121 243.977 161.555 243.482 161.555 242.912C161.555 237.789 165.707 233.634 170.835 233.634C175.964 233.634 180.116 237.785 180.116 242.912C180.116 243.481 180.55 243.977 181.12 243.977H184.718C185.288 243.977 185.722 243.482 185.722 242.912C185.722 237.789 189.874 233.634 195.002 233.634C200.13 233.634 204.283 237.785 204.283 242.912C204.283 243.481 204.717 243.977 205.287 243.977H209.306C209.876 243.977 210.31 243.482 210.31 242.912C210.31 237.789 214.462 233.634 219.59 233.634C224.719 233.634 228.871 237.785 228.871 242.912C228.871 243.481 229.305 243.977 229.875 243.977H233.417C233.987 243.977 234.421 243.482 234.421 242.912C234.421 237.789 238.573 233.634 243.701 233.634C248.829 233.634 252.982 237.785 252.982 242.912C252.982 243.481 253.416 243.977 253.986 243.977H258.061C258.631 243.977 259.064 243.482 259.064 242.912C259.064 237.789 263.217 233.634 268.345 233.634C273.473 233.634 277.626 237.785 277.626 242.912C277.626 243.481 278.06 243.977 278.63 243.977H282.12C282.69 243.977 283.124 243.482 283.124 242.912C283.124 237.789 287.276 233.634 292.404 233.634C297.533 233.634 301.685 237.785 301.685 242.912C301.685 243.481 302.119 243.977 302.689 243.977H305.197C305.242 243.977 305.279 244.014 305.279 244.059C305.279 244.104 305.315 244.141 305.36 244.141H306.885C307.934 244.141 308.69 243.145 308.657 242.097C308.655 242.008 308.653 241.918 308.653 241.829C308.653 239.326 309.647 237.063 311.257 235.395C311.432 235.215 311.629 235.059 311.845 234.931C313.229 234.111 314.841 233.634 316.567 233.634C317.108 233.634 317.635 233.685 318.15 233.777C318.523 233.843 318.88 233.567 318.88 233.188V232.664C318.88 232.633 318.905 232.607 318.936 232.611C318.97 232.616 319 232.59 319 232.556V227.956C319 227.386 318.504 226.952 317.934 226.952C312.81 226.952 308.653 222.801 308.653 217.674C308.653 212.548 312.806 208.397 317.934 208.397C318.504 208.397 319 207.962 319 207.392V203.905C319 203.334 318.504 202.9 317.934 202.9C312.81 202.9 308.653 198.749 308.653 193.623C308.653 188.496 312.806 184.345 317.934 184.345C318.504 184.345 319 183.911 319 183.341V179.269C319 178.698 318.504 178.265 317.934 178.265C312.81 178.265 308.653 174.114 308.653 168.987C308.653 163.86 312.806 159.709 317.934 159.709C318.504 159.709 319 159.275 319 158.705V155.166C319 154.596 318.504 154.162 317.934 154.162C312.81 154.162 308.653 150.011 308.653 144.884C308.653 139.758 312.806 135.606 317.934 135.606C318.504 135.606 319 135.172 319 134.602V130.586C319 130.016 318.504 129.582 317.934 129.582C312.81 129.582 308.653 125.431 308.653 120.304C308.653 115.178 312.806 111.026 317.934 111.026C318.504 111.026 319 110.592 319 110.022V106.427C319 105.857 318.504 105.423 317.934 105.423C312.81 105.423 308.653 101.272 308.653 96.1453C308.653 91.0188 312.806 86.8677 317.934 86.8677C318.504 86.8677 319 86.4336 319 85.8636V82.3757C319 81.8054 318.504 81.3716 317.934 81.3716C312.81 81.3716 308.653 77.2205 308.653 72.0939C308.653 66.9674 312.806 62.8163 317.934 62.8163C318.504 62.8163 319 62.3823 319 61.8122V57.7399C319 57.1696 318.504 56.7358 317.934 56.7358C312.81 56.7358 308.653 52.5847 308.653 47.4582C308.653 42.3316 312.806 38.1805 317.934 38.1805C318.504 38.1805 319 37.7465 319 37.1764V33.9206C319 33.3503 318.504 32.9165 317.934 32.9165C312.81 32.9165 308.653 28.7654 308.653 23.6388C308.653 18.5123 312.806 14.3612 317.934 14.3612L317.857 14.3526Z" fill="#EEEEEC" stroke="black" stroke-width="2"/>
</g>
<path d="M45 24.5H275C283.56 24.5 290.5 31.4396 290.5 40V205C290.5 213.56 283.56 220.5 275 220.5H45C36.4396 220.5 29.5 213.56 29.5 205V40L29.5049 39.5996C29.7172 31.2242 36.5735 24.5 45 24.5Z" fill="white" stroke="black"/>
<path d="M211.467 58.2265L160.43 43H159.857L109.393 83.221L79 88.3923V91.2652L115.701 92.4144L139.786 79.1989H141.506L159.283 91.8398V110.227L185.089 147H194.264L194.837 146.138L176.773 111.95V109.939L186.522 94.7127L219.782 78.0497H221.216L230.391 84.6575H240.427L241 83.221L216.628 45.8729H214.908L211.467 58.2265Z" fill="black" stroke="black" stroke-linejoin="round"/>
<path d="M68.76 192V165.6H80C81.4667 165.6 82.8 165.72 84 165.96C85.2 166.173 86.2533 166.507 87.16 166.96C88.0933 167.387 88.88 167.92 89.52 168.56C90.16 169.173 90.64 169.893 90.96 170.72C91.28 171.52 91.44 172.413 91.44 173.4C91.44 174.333 91.2933 175.173 91 175.92C90.7067 176.667 90.2533 177.32 89.64 177.88C89.0533 178.44 88.3067 178.893 87.4 179.24C86.4933 179.587 85.44 179.84 84.24 180V180.6C85.76 180.76 86.9333 181.107 87.76 181.64C88.6133 182.147 89.2667 182.827 89.72 183.68C90.1733 184.533 90.5733 185.56 90.92 186.76L92.44 192H85.28L84.12 187.16C83.88 186.093 83.5467 185.267 83.12 184.68C82.72 184.093 82.2 183.693 81.56 183.48C80.92 183.24 80.12 183.12 79.16 183.12H75.2V192H68.76ZM75.2 178.36H79.56C81.1867 178.36 82.4533 178.04 83.36 177.4C84.2667 176.76 84.72 175.76 84.72 174.4C84.72 173.067 84.3067 172.08 83.48 171.44C82.6533 170.8 81.4 170.48 79.72 170.48H75.2V178.36ZM105.622 192.56C103.489 192.56 101.595 192.147 99.9419 191.32C98.3152 190.493 97.0352 189.253 96.1019 187.6C95.1685 185.947 94.7019 183.88 94.7019 181.4C94.7019 178.92 95.1685 176.867 96.1019 175.24C97.0352 173.587 98.3285 172.36 99.9819 171.56C101.635 170.733 103.529 170.32 105.662 170.32C107.795 170.32 109.689 170.733 111.342 171.56C112.995 172.387 114.289 173.627 115.222 175.28C116.155 176.907 116.622 178.96 116.622 181.44C116.622 183.973 116.142 186.067 115.182 187.72C114.222 189.373 112.902 190.6 111.222 191.4C109.569 192.173 107.702 192.56 105.622 192.56ZM105.822 187.88C106.782 187.88 107.582 187.667 108.222 187.24C108.862 186.787 109.342 186.107 109.662 185.2C109.982 184.293 110.142 183.173 110.142 181.84C110.142 180.427 109.969 179.24 109.622 178.28C109.275 177.293 108.755 176.547 108.062 176.04C107.395 175.507 106.529 175.24 105.462 175.24C104.555 175.24 103.769 175.467 103.102 175.92C102.462 176.347 101.982 177.013 101.662 177.92C101.342 178.827 101.182 179.96 101.182 181.32C101.182 183.507 101.582 185.147 102.382 186.24C103.209 187.333 104.355 187.88 105.822 187.88ZM130.114 192.56C127.981 192.56 126.087 192.147 124.434 191.32C122.807 190.493 121.527 189.253 120.594 187.6C119.661 185.947 119.194 183.88 119.194 181.4C119.194 178.92 119.661 176.867 120.594 175.24C121.527 173.587 122.821 172.36 124.474 171.56C126.127 170.733 128.021 170.32 130.154 170.32C132.287 170.32 134.181 170.733 135.834 171.56C137.487 172.387 138.781 173.627 139.714 175.28C140.647 176.907 141.114 178.96 141.114 181.44C141.114 183.973 140.634 186.067 139.674 187.72C138.714 189.373 137.394 190.6 135.714 191.4C134.061 192.173 132.194 192.56 130.114 192.56ZM130.314 187.88C131.274 187.88 132.074 187.667 132.714 187.24C133.354 186.787 133.834 186.107 134.154 185.2C134.474 184.293 134.634 183.173 134.634 181.84C134.634 180.427 134.461 179.24 134.114 178.28C133.767 177.293 133.247 176.547 132.554 176.04C131.887 175.507 131.021 175.24 129.954 175.24C129.047 175.24 128.261 175.467 127.594 175.92C126.954 176.347 126.474 177.013 126.154 177.92C125.834 178.827 125.674 179.96 125.674 181.32C125.674 183.507 126.074 185.147 126.874 186.24C127.701 187.333 128.847 187.88 130.314 187.88ZM166.473 192.56C164.393 192.56 162.526 192.28 160.873 191.72C159.219 191.16 157.806 190.307 156.633 189.16C155.486 188.013 154.606 186.613 153.993 184.96C153.406 183.28 153.113 181.32 153.113 179.08C153.113 176.787 153.419 174.773 154.033 173.04C154.646 171.307 155.526 169.84 156.673 168.64C157.846 167.44 159.219 166.547 160.793 165.96C162.366 165.347 164.113 165.04 166.033 165.04C167.553 165.04 168.939 165.227 170.193 165.6C171.473 165.973 172.579 166.533 173.513 167.28C174.446 168 175.166 168.88 175.673 169.92C176.206 170.933 176.486 172.093 176.513 173.4L170.553 175.04C170.553 173.947 170.313 173.053 169.833 172.36C169.379 171.667 168.793 171.147 168.073 170.8C167.379 170.427 166.619 170.24 165.793 170.24C165.126 170.24 164.433 170.387 163.713 170.68C163.019 170.947 162.379 171.413 161.793 172.08C161.206 172.72 160.739 173.573 160.393 174.64C160.046 175.707 159.873 177.04 159.873 178.64C159.873 180.72 160.166 182.4 160.753 183.68C161.339 184.96 162.153 185.907 163.193 186.52C164.233 187.107 165.379 187.4 166.633 187.4C168.019 187.4 169.086 187.107 169.833 186.52C170.606 185.907 171.153 185.147 171.473 184.24C171.793 183.333 171.966 182.413 171.993 181.48L177.593 182.36C177.566 183.8 177.353 185.147 176.953 186.4C176.553 187.653 175.913 188.747 175.033 189.68C174.179 190.587 173.046 191.293 171.633 191.8C170.219 192.307 168.499 192.56 166.473 192.56ZM190.895 192.56C188.762 192.56 186.869 192.147 185.215 191.32C183.589 190.493 182.309 189.253 181.375 187.6C180.442 185.947 179.975 183.88 179.975 181.4C179.975 178.92 180.442 176.867 181.375 175.24C182.309 173.587 183.602 172.36 185.255 171.56C186.909 170.733 188.802 170.32 190.935 170.32C193.069 170.32 194.962 170.733 196.615 171.56C198.269 172.387 199.562 173.627 200.495 175.28C201.429 176.907 201.895 178.96 201.895 181.44C201.895 183.973 201.415 186.067 200.455 187.72C199.495 189.373 198.175 190.6 196.495 191.4C194.842 192.173 192.975 192.56 190.895 192.56ZM191.095 187.88C192.055 187.88 192.855 187.667 193.495 187.24C194.135 186.787 194.615 186.107 194.935 185.2C195.255 184.293 195.415 183.173 195.415 181.84C195.415 180.427 195.242 179.24 194.895 178.28C194.549 177.293 194.029 176.547 193.335 176.04C192.669 175.507 191.802 175.24 190.735 175.24C189.829 175.24 189.042 175.467 188.375 175.92C187.735 176.347 187.255 177.013 186.935 177.92C186.615 178.827 186.455 179.96 186.455 181.32C186.455 183.507 186.855 185.147 187.655 186.24C188.482 187.333 189.629 187.88 191.095 187.88ZM213.388 192.56C211.628 192.56 210.081 192.12 208.748 191.24C207.441 190.333 206.414 189.053 205.668 187.4C204.921 185.72 204.548 183.72 204.548 181.4C204.548 179.267 204.868 177.373 205.508 175.72C206.148 174.067 207.094 172.773 208.348 171.84C209.628 170.88 211.201 170.4 213.068 170.4C214.401 170.4 215.521 170.64 216.428 171.12C217.361 171.6 218.134 172.32 218.748 173.28C219.361 174.24 219.854 175.453 220.228 176.92H221.228C221.041 176.013 220.868 175.16 220.708 174.36C220.548 173.533 220.414 172.773 220.308 172.08C220.228 171.36 220.188 170.733 220.188 170.2V163.2H226.668V181.68V192H221.388L221.308 185.76H220.428C220.134 187.36 219.668 188.667 219.028 189.68C218.414 190.667 217.628 191.4 216.668 191.88C215.734 192.333 214.641 192.56 213.388 192.56ZM215.708 187.36C216.534 187.36 217.228 187.187 217.788 186.84C218.374 186.467 218.841 186 219.188 185.44C219.534 184.88 219.788 184.28 219.948 183.64C220.108 183 220.188 182.4 220.188 181.84V181C220.188 180.493 220.121 179.987 219.988 179.48C219.854 178.973 219.654 178.48 219.388 178C219.148 177.52 218.841 177.093 218.468 176.72C218.094 176.347 217.654 176.053 217.148 175.84C216.668 175.627 216.134 175.52 215.548 175.52C214.668 175.52 213.908 175.76 213.268 176.24C212.654 176.72 212.174 177.4 211.828 178.28C211.508 179.16 211.348 180.2 211.348 181.4C211.348 182.6 211.521 183.653 211.868 184.56C212.214 185.44 212.721 186.133 213.388 186.64C214.054 187.12 214.828 187.36 215.708 187.36ZM241.684 192.56C239.924 192.56 238.351 192.333 236.964 191.88C235.577 191.4 234.391 190.707 233.404 189.8C232.444 188.893 231.711 187.773 231.204 186.44C230.697 185.107 230.444 183.573 230.444 181.84C230.444 180.16 230.684 178.613 231.164 177.2C231.671 175.787 232.377 174.573 233.284 173.56C234.217 172.52 235.351 171.72 236.684 171.16C238.044 170.6 239.564 170.32 241.244 170.32C242.951 170.32 244.444 170.6 245.724 171.16C247.031 171.693 248.097 172.493 248.924 173.56C249.777 174.627 250.404 175.933 250.804 177.48C251.204 179 251.337 180.747 251.204 182.72L234.684 182.84V179.48L247.524 179.36L245.244 180.92C245.431 179.587 245.351 178.507 245.004 177.68C244.657 176.827 244.151 176.213 243.484 175.84C242.817 175.44 242.097 175.24 241.324 175.24C240.391 175.24 239.564 175.493 238.844 176C238.151 176.507 237.604 177.24 237.204 178.2C236.804 179.16 236.604 180.333 236.604 181.72C236.604 183.907 237.071 185.493 238.004 186.48C238.964 187.467 240.177 187.96 241.644 187.96C242.364 187.96 242.964 187.867 243.444 187.68C243.924 187.467 244.311 187.213 244.604 186.92C244.924 186.6 245.164 186.253 245.324 185.88C245.511 185.507 245.657 185.147 245.764 184.8L251.364 186C251.151 186.987 250.804 187.88 250.324 188.68C249.871 189.48 249.244 190.173 248.444 190.76C247.671 191.347 246.724 191.787 245.604 192.08C244.511 192.4 243.204 192.56 241.684 192.56Z" fill="black"/>
</g>
<defs>
<clipPath id="clip0_63_183">
<rect width="319" height="245" fill="white"/>
</clipPath>
</defs>
</svg>
