<svg width="319" height="245" viewBox="0 0 319 245" fill="none" xmlns="http://www.w3.org/2000/svg">
<g clip-path="url(#clip0_63_59)">
<mask id="mask0_63_59" style="mask-type:luminance" maskUnits="userSpaceOnUse" x="0" y="0" width="319" height="245">
<path d="M317.857 14.3526C318.427 14.3526 318.923 13.9186 318.923 13.3485V9.33203C318.923 8.76175 318.427 8.32795 317.857 8.32795C313.612 8.32795 310.035 5.47919 308.929 1.59306C308.676 0.706043 307.922 0 306.999 0H305.234C305.216 0 305.201 0.0144294 305.201 0.0322289C305.201 0.0500285 305.187 0.0644579 305.169 0.0644579H302.612C302.041 0.0644579 301.608 0.560079 301.608 1.13016C301.608 6.25241 297.455 10.4078 292.327 10.4078C287.199 10.4078 283.046 6.25671 283.046 1.13016C283.046 0.560331 282.612 0.0644579 282.043 0.0644579H278.552C277.982 0.0644579 277.548 0.56008 277.548 1.13016C277.548 6.25241 273.396 10.4078 268.268 10.4078C263.14 10.4078 258.987 6.25671 258.987 1.13016C258.987 0.56033 258.553 0.0644579 257.983 0.0644579H253.908C253.338 0.0644579 252.905 0.560079 252.905 1.13016C252.905 6.25241 248.752 10.4078 243.624 10.4078C238.496 10.4078 234.343 6.25671 234.343 1.13016C234.343 0.560331 233.909 0.0644579 233.339 0.0644579H229.797C229.227 0.0644579 228.794 0.56008 228.794 1.13016C228.794 6.25241 224.641 10.4078 219.513 10.4078C214.385 10.4078 210.232 6.25671 210.232 1.13016C210.232 0.560331 209.798 0.0644579 209.228 0.0644579H205.209C204.639 0.0644579 204.206 0.560079 204.206 1.13016C204.206 6.25241 200.053 10.4078 194.925 10.4078C189.797 10.4078 185.644 6.25671 185.644 1.13016C185.644 0.56033 185.21 0.0644579 184.64 0.0644579H181.042C180.472 0.0644579 180.039 0.560079 180.039 1.13016C180.039 6.25241 175.886 10.4078 170.758 10.4078C165.63 10.4078 161.477 6.25671 161.477 1.13016C161.477 0.560331 161.043 0.0644579 160.474 0.0644579H156.983C156.413 0.0644579 155.979 0.560079 155.979 1.13016C155.979 6.25241 151.827 10.4078 146.699 10.4078C141.57 10.4078 137.418 6.25671 137.418 1.13016C137.418 0.560331 136.984 0.0644579 136.414 0.0644579H132.339C131.769 0.0644579 131.335 0.560079 131.335 1.13016C131.335 6.25241 127.183 10.4078 122.055 10.4078C116.927 10.4078 112.774 6.25671 112.774 1.13016C112.774 0.560331 112.34 0.0644579 111.77 0.0644579H108.512C107.942 0.0644579 107.508 0.560079 107.508 1.13016C107.508 6.25241 103.356 10.4078 98.2276 10.4078C93.0993 10.4078 88.9469 6.25671 88.9469 1.13016C88.9469 0.560331 88.513 0.0644579 87.9432 0.0644579H83.9239C83.3539 0.0644579 82.9202 0.560079 82.9202 1.13016C82.9202 6.25241 78.7678 10.4078 73.6395 10.4078C68.5113 10.4078 64.3588 6.25671 64.3588 1.13016C64.3588 0.560331 63.9249 0.0644579 63.3551 0.0644579H59.7571C59.1871 0.0644579 58.7534 0.560079 58.7534 1.13016C58.7534 6.25241 54.601 10.4078 49.4727 10.4078C44.3445 10.4078 40.192 6.25671 40.192 1.13016C40.192 0.560331 39.7581 0.0644579 39.1883 0.0644579H35.6978C35.1277 0.0644579 34.6941 0.560079 34.6941 1.13016C34.6941 6.25241 30.5416 10.4078 25.4134 10.4078C20.2851 10.4078 16.2058 6.26101 16.2058 1.13446C16.2058 0.564628 15.7719 0.068755 15.202 0.068755H11.1269C10.5569 0.068755 10.1232 0.564376 10.1232 1.13446C10.1232 1.49542 10.1017 1.81771 10.0631 2.15289C9.06147 6.19225 5.41625 9.19169 1.06606 9.19169C0.496025 9.19169 0 9.62575 0 10.1958V14.2123C0 14.7825 0.495774 15.2163 1.06606 15.2163C6.19 15.2163 10.3468 19.3674 10.3468 24.494C10.3468 29.6205 6.1943 33.7716 1.06606 33.7716C0.496025 33.7716 0 34.2057 0 34.7757V38.0316C0 38.6019 0.495773 39.0357 1.06606 39.0357C6.19 39.0357 10.3468 43.1868 10.3468 48.3133C10.3468 53.4399 6.1943 57.5909 1.06606 57.5909C0.496025 57.5909 0 58.025 0 58.595V62.6674C0 63.2377 0.495774 63.6715 1.06606 63.6715C6.19 63.6715 10.3468 67.8225 10.3468 72.9491C10.3468 78.0756 6.1943 82.2267 1.06606 82.2267C0.496025 82.2267 0 82.6608 0 83.2308V86.7188C0 87.289 0.495774 87.7228 1.06606 87.7228C6.19 87.7228 10.3468 91.8739 10.3468 97.0005C10.3468 102.127 6.1943 106.278 1.06606 106.278C0.496025 106.278 0 106.712 0 107.282V110.878C0 111.448 0.495774 111.882 1.06606 111.882C6.19 111.882 10.3468 116.033 10.3468 121.159C10.3468 126.286 6.1943 130.437 1.06606 130.437C0.496025 130.437 0 130.871 0 131.441V135.457C0 136.028 0.495773 136.462 1.06606 136.462C6.19 136.462 10.3468 140.613 10.3468 145.739C10.3468 150.866 6.1943 155.017 1.06606 155.017C0.496024 155.017 0 155.451 0 156.021V159.56C0 160.131 0.495774 160.565 1.06606 160.565C6.19 160.565 10.3468 164.716 10.3468 169.842C10.3468 174.969 6.1943 179.12 1.06606 179.12C0.496025 179.12 0 179.554 0 180.124V184.196C0 184.766 0.495774 185.2 1.06606 185.2C6.19 185.2 10.3468 189.351 10.3468 194.478C10.3468 199.604 6.1943 203.756 1.06606 203.756C0.496025 203.756 0 204.19 0 204.76V208.248C0 208.818 0.495774 209.252 1.06606 209.252C6.19 209.252 10.3468 213.403 10.3468 218.529C10.3468 223.656 6.1943 227.807 1.06606 227.807C0.496024 227.807 0 228.241 0 228.811V233.119C0 233.309 0.165304 233.456 0.354464 233.442C0.426904 233.436 0.499533 233.432 0.571941 233.428C0.632834 233.425 0.683479 233.474 0.683479 233.535C0.683479 233.594 0.731556 233.641 0.790775 233.636C0.808132 233.635 0.82533 233.634 0.842528 233.634C5.96647 233.634 10.1232 237.785 10.1232 242.912C10.1232 243.24 10.1019 243.565 10.0689 243.883C10.0637 243.933 10.103 243.977 10.1537 243.977C10.2056 243.977 10.2454 244.023 10.2374 244.075C10.217 244.206 10.1946 244.335 10.1698 244.464C10.1171 244.737 10.321 245 10.5993 245H13.2141C13.4965 245 13.7255 244.771 13.7255 244.489C13.7255 244.206 13.9544 243.977 14.2368 243.977H15.2064C15.7764 243.977 16.2101 243.482 16.2101 242.912C16.2101 237.789 20.3625 233.634 25.4908 233.634C30.619 233.634 34.7715 237.785 34.7715 242.912C34.7715 243.481 35.2054 243.977 35.7752 243.977H39.2657C39.8358 243.977 40.2694 243.482 40.2694 242.912C40.2694 237.789 44.4219 233.634 49.5501 233.634C54.6783 233.634 58.8308 237.785 58.8308 242.912C58.8308 243.481 59.2647 243.977 59.8345 243.977H63.4325C64.0026 243.977 64.4362 243.482 64.4362 242.912C64.4362 237.789 68.5886 233.634 73.7169 233.634C78.8451 233.634 82.9976 237.785 82.9976 242.912C82.9976 243.481 83.4315 243.977 84.0013 243.977H88.0205C88.5906 243.977 89.0242 243.482 89.0242 242.912C89.0242 237.789 93.1767 233.634 98.3049 233.634C103.433 233.634 107.586 237.785 107.586 242.912C107.586 243.481 108.02 243.977 108.589 243.977H111.848C112.418 243.977 112.851 243.482 112.851 242.912C112.851 237.789 117.004 233.634 122.132 233.634C127.26 233.634 131.413 237.785 131.413 242.912C131.413 243.481 131.847 243.977 132.417 243.977H136.492C137.062 243.977 137.495 243.482 137.495 242.912C137.495 237.789 141.648 233.634 146.776 233.634C151.904 233.634 156.057 237.785 156.057 242.912C156.057 243.481 156.491 243.977 157.061 243.977H160.551C161.121 243.977 161.555 243.482 161.555 242.912C161.555 237.789 165.707 233.634 170.835 233.634C175.964 233.634 180.116 237.785 180.116 242.912C180.116 243.481 180.55 243.977 181.12 243.977H184.718C185.288 243.977 185.722 243.482 185.722 242.912C185.722 237.789 189.874 233.634 195.002 233.634C200.13 233.634 204.283 237.785 204.283 242.912C204.283 243.481 204.717 243.977 205.287 243.977H209.306C209.876 243.977 210.31 243.482 210.31 242.912C210.31 237.789 214.462 233.634 219.59 233.634C224.719 233.634 228.871 237.785 228.871 242.912C228.871 243.481 229.305 243.977 229.875 243.977H233.417C233.987 243.977 234.421 243.482 234.421 242.912C234.421 237.789 238.573 233.634 243.701 233.634C248.829 233.634 252.982 237.785 252.982 242.912C252.982 243.481 253.416 243.977 253.986 243.977H258.061C258.631 243.977 259.064 243.482 259.064 242.912C259.064 237.789 263.217 233.634 268.345 233.634C273.473 233.634 277.626 237.785 277.626 242.912C277.626 243.481 278.06 243.977 278.63 243.977H282.12C282.69 243.977 283.124 243.482 283.124 242.912C283.124 237.789 287.276 233.634 292.404 233.634C297.533 233.634 301.685 237.785 301.685 242.912C301.685 243.481 302.119 243.977 302.689 243.977H305.197C305.242 243.977 305.279 244.014 305.279 244.059C305.279 244.104 305.315 244.141 305.36 244.141H306.885C307.934 244.141 308.69 243.145 308.657 242.097C308.655 242.008 308.653 241.918 308.653 241.829C308.653 239.326 309.647 237.063 311.257 235.395C311.432 235.215 311.629 235.059 311.845 234.931C313.229 234.111 314.841 233.634 316.567 233.634C317.108 233.634 317.635 233.685 318.15 233.777C318.523 233.843 318.88 233.567 318.88 233.188V232.664C318.88 232.633 318.905 232.607 318.936 232.611C318.97 232.616 319 232.59 319 232.556V227.956C319 227.386 318.504 226.952 317.934 226.952C312.81 226.952 308.653 222.801 308.653 217.674C308.653 212.548 312.806 208.397 317.934 208.397C318.504 208.397 319 207.962 319 207.392V203.905C319 203.334 318.504 202.9 317.934 202.9C312.81 202.9 308.653 198.749 308.653 193.623C308.653 188.496 312.806 184.345 317.934 184.345C318.504 184.345 319 183.911 319 183.341V179.269C319 178.698 318.504 178.265 317.934 178.265C312.81 178.265 308.653 174.114 308.653 168.987C308.653 163.86 312.806 159.709 317.934 159.709C318.504 159.709 319 159.275 319 158.705V155.166C319 154.596 318.504 154.162 317.934 154.162C312.81 154.162 308.653 150.011 308.653 144.884C308.653 139.758 312.806 135.606 317.934 135.606C318.504 135.606 319 135.172 319 134.602V130.586C319 130.016 318.504 129.582 317.934 129.582C312.81 129.582 308.653 125.431 308.653 120.304C308.653 115.178 312.806 111.026 317.934 111.026C318.504 111.026 319 110.592 319 110.022V106.427C319 105.857 318.504 105.423 317.934 105.423C312.81 105.423 308.653 101.272 308.653 96.1453C308.653 91.0188 312.806 86.8677 317.934 86.8677C318.504 86.8677 319 86.4336 319 85.8636V82.3757C319 81.8054 318.504 81.3716 317.934 81.3716C312.81 81.3716 308.653 77.2205 308.653 72.0939C308.653 66.9674 312.806 62.8163 317.934 62.8163C318.504 62.8163 319 62.3823 319 61.8122V57.7399C319 57.1696 318.504 56.7358 317.934 56.7358C312.81 56.7358 308.653 52.5847 308.653 47.4582C308.653 42.3316 312.806 38.1805 317.934 38.1805C318.504 38.1805 319 37.7465 319 37.1764V33.9206C319 33.3503 318.504 32.9165 317.934 32.9165C312.81 32.9165 308.653 28.7654 308.653 23.6388C308.653 18.5123 312.806 14.3612 317.934 14.3612L317.857 14.3526Z" fill="white"/>
</mask>
<g mask="url(#mask0_63_59)">
<path d="M317.857 14.3526C318.427 14.3526 318.923 13.9186 318.923 13.3485V9.33203C318.923 8.76175 318.427 8.32795 317.857 8.32795C313.612 8.32795 310.035 5.47919 308.929 1.59306C308.676 0.706043 307.922 0 306.999 0H305.234C305.216 0 305.201 0.0144294 305.201 0.0322289C305.201 0.0500285 305.187 0.0644579 305.169 0.0644579H302.612C302.041 0.0644579 301.608 0.560079 301.608 1.13016C301.608 6.25241 297.455 10.4078 292.327 10.4078C287.199 10.4078 283.046 6.25671 283.046 1.13016C283.046 0.560331 282.612 0.0644579 282.043 0.0644579H278.552C277.982 0.0644579 277.548 0.56008 277.548 1.13016C277.548 6.25241 273.396 10.4078 268.268 10.4078C263.14 10.4078 258.987 6.25671 258.987 1.13016C258.987 0.56033 258.553 0.0644579 257.983 0.0644579H253.908C253.338 0.0644579 252.905 0.560079 252.905 1.13016C252.905 6.25241 248.752 10.4078 243.624 10.4078C238.496 10.4078 234.343 6.25671 234.343 1.13016C234.343 0.560331 233.909 0.0644579 233.339 0.0644579H229.797C229.227 0.0644579 228.794 0.56008 228.794 1.13016C228.794 6.25241 224.641 10.4078 219.513 10.4078C214.385 10.4078 210.232 6.25671 210.232 1.13016C210.232 0.560331 209.798 0.0644579 209.228 0.0644579H205.209C204.639 0.0644579 204.206 0.560079 204.206 1.13016C204.206 6.25241 200.053 10.4078 194.925 10.4078C189.797 10.4078 185.644 6.25671 185.644 1.13016C185.644 0.56033 185.21 0.0644579 184.64 0.0644579H181.042C180.472 0.0644579 180.039 0.560079 180.039 1.13016C180.039 6.25241 175.886 10.4078 170.758 10.4078C165.63 10.4078 161.477 6.25671 161.477 1.13016C161.477 0.560331 161.043 0.0644579 160.474 0.0644579H156.983C156.413 0.0644579 155.979 0.560079 155.979 1.13016C155.979 6.25241 151.827 10.4078 146.699 10.4078C141.57 10.4078 137.418 6.25671 137.418 1.13016C137.418 0.560331 136.984 0.0644579 136.414 0.0644579H132.339C131.769 0.0644579 131.335 0.560079 131.335 1.13016C131.335 6.25241 127.183 10.4078 122.055 10.4078C116.927 10.4078 112.774 6.25671 112.774 1.13016C112.774 0.560331 112.34 0.0644579 111.77 0.0644579H108.512C107.942 0.0644579 107.508 0.560079 107.508 1.13016C107.508 6.25241 103.356 10.4078 98.2276 10.4078C93.0993 10.4078 88.9469 6.25671 88.9469 1.13016C88.9469 0.560331 88.513 0.0644579 87.9432 0.0644579H83.9239C83.3539 0.0644579 82.9202 0.560079 82.9202 1.13016C82.9202 6.25241 78.7678 10.4078 73.6395 10.4078C68.5113 10.4078 64.3588 6.25671 64.3588 1.13016C64.3588 0.560331 63.9249 0.0644579 63.3551 0.0644579H59.7571C59.1871 0.0644579 58.7534 0.560079 58.7534 1.13016C58.7534 6.25241 54.601 10.4078 49.4727 10.4078C44.3445 10.4078 40.192 6.25671 40.192 1.13016C40.192 0.560331 39.7581 0.0644579 39.1883 0.0644579H35.6978C35.1277 0.0644579 34.6941 0.560079 34.6941 1.13016C34.6941 6.25241 30.5416 10.4078 25.4134 10.4078C20.2851 10.4078 16.2058 6.26101 16.2058 1.13446C16.2058 0.564628 15.7719 0.068755 15.202 0.068755H11.1269C10.5569 0.068755 10.1232 0.564376 10.1232 1.13446C10.1232 1.49542 10.1017 1.81771 10.0631 2.15289C9.06147 6.19225 5.41625 9.19169 1.06606 9.19169C0.496025 9.19169 0 9.62575 0 10.1958V14.2123C0 14.7825 0.495774 15.2163 1.06606 15.2163C6.19 15.2163 10.3468 19.3674 10.3468 24.494C10.3468 29.6205 6.1943 33.7716 1.06606 33.7716C0.496025 33.7716 0 34.2057 0 34.7757V38.0316C0 38.6019 0.495773 39.0357 1.06606 39.0357C6.19 39.0357 10.3468 43.1868 10.3468 48.3133C10.3468 53.4399 6.1943 57.5909 1.06606 57.5909C0.496025 57.5909 0 58.025 0 58.595V62.6674C0 63.2377 0.495774 63.6715 1.06606 63.6715C6.19 63.6715 10.3468 67.8225 10.3468 72.9491C10.3468 78.0756 6.1943 82.2267 1.06606 82.2267C0.496025 82.2267 0 82.6608 0 83.2308V86.7188C0 87.289 0.495774 87.7228 1.06606 87.7228C6.19 87.7228 10.3468 91.8739 10.3468 97.0005C10.3468 102.127 6.1943 106.278 1.06606 106.278C0.496025 106.278 0 106.712 0 107.282V110.878C0 111.448 0.495774 111.882 1.06606 111.882C6.19 111.882 10.3468 116.033 10.3468 121.159C10.3468 126.286 6.1943 130.437 1.06606 130.437C0.496025 130.437 0 130.871 0 131.441V135.457C0 136.028 0.495773 136.462 1.06606 136.462C6.19 136.462 10.3468 140.613 10.3468 145.739C10.3468 150.866 6.1943 155.017 1.06606 155.017C0.496024 155.017 0 155.451 0 156.021V159.56C0 160.131 0.495774 160.565 1.06606 160.565C6.19 160.565 10.3468 164.716 10.3468 169.842C10.3468 174.969 6.1943 179.12 1.06606 179.12C0.496025 179.12 0 179.554 0 180.124V184.196C0 184.766 0.495774 185.2 1.06606 185.2C6.19 185.2 10.3468 189.351 10.3468 194.478C10.3468 199.604 6.1943 203.756 1.06606 203.756C0.496025 203.756 0 204.19 0 204.76V208.248C0 208.818 0.495774 209.252 1.06606 209.252C6.19 209.252 10.3468 213.403 10.3468 218.529C10.3468 223.656 6.1943 227.807 1.06606 227.807C0.496024 227.807 0 228.241 0 228.811V233.119C0 233.309 0.165304 233.456 0.354464 233.442C0.426904 233.436 0.499533 233.432 0.571941 233.428C0.632834 233.425 0.683479 233.474 0.683479 233.535C0.683479 233.594 0.731556 233.641 0.790775 233.636C0.808132 233.635 0.82533 233.634 0.842528 233.634C5.96647 233.634 10.1232 237.785 10.1232 242.912C10.1232 243.24 10.1019 243.565 10.0689 243.883C10.0637 243.933 10.103 243.977 10.1537 243.977C10.2056 243.977 10.2454 244.023 10.2374 244.075C10.217 244.206 10.1946 244.335 10.1698 244.464C10.1171 244.737 10.321 245 10.5993 245H13.2141C13.4965 245 13.7255 244.771 13.7255 244.489C13.7255 244.206 13.9544 243.977 14.2368 243.977H15.2064C15.7764 243.977 16.2101 243.482 16.2101 242.912C16.2101 237.789 20.3625 233.634 25.4908 233.634C30.619 233.634 34.7715 237.785 34.7715 242.912C34.7715 243.481 35.2054 243.977 35.7752 243.977H39.2657C39.8358 243.977 40.2694 243.482 40.2694 242.912C40.2694 237.789 44.4219 233.634 49.5501 233.634C54.6783 233.634 58.8308 237.785 58.8308 242.912C58.8308 243.481 59.2647 243.977 59.8345 243.977H63.4325C64.0026 243.977 64.4362 243.482 64.4362 242.912C64.4362 237.789 68.5886 233.634 73.7169 233.634C78.8451 233.634 82.9976 237.785 82.9976 242.912C82.9976 243.481 83.4315 243.977 84.0013 243.977H88.0205C88.5906 243.977 89.0242 243.482 89.0242 242.912C89.0242 237.789 93.1767 233.634 98.3049 233.634C103.433 233.634 107.586 237.785 107.586 242.912C107.586 243.481 108.02 243.977 108.589 243.977H111.848C112.418 243.977 112.851 243.482 112.851 242.912C112.851 237.789 117.004 233.634 122.132 233.634C127.26 233.634 131.413 237.785 131.413 242.912C131.413 243.481 131.847 243.977 132.417 243.977H136.492C137.062 243.977 137.495 243.482 137.495 242.912C137.495 237.789 141.648 233.634 146.776 233.634C151.904 233.634 156.057 237.785 156.057 242.912C156.057 243.481 156.491 243.977 157.061 243.977H160.551C161.121 243.977 161.555 243.482 161.555 242.912C161.555 237.789 165.707 233.634 170.835 233.634C175.964 233.634 180.116 237.785 180.116 242.912C180.116 243.481 180.55 243.977 181.12 243.977H184.718C185.288 243.977 185.722 243.482 185.722 242.912C185.722 237.789 189.874 233.634 195.002 233.634C200.13 233.634 204.283 237.785 204.283 242.912C204.283 243.481 204.717 243.977 205.287 243.977H209.306C209.876 243.977 210.31 243.482 210.31 242.912C210.31 237.789 214.462 233.634 219.59 233.634C224.719 233.634 228.871 237.785 228.871 242.912C228.871 243.481 229.305 243.977 229.875 243.977H233.417C233.987 243.977 234.421 243.482 234.421 242.912C234.421 237.789 238.573 233.634 243.701 233.634C248.829 233.634 252.982 237.785 252.982 242.912C252.982 243.481 253.416 243.977 253.986 243.977H258.061C258.631 243.977 259.064 243.482 259.064 242.912C259.064 237.789 263.217 233.634 268.345 233.634C273.473 233.634 277.626 237.785 277.626 242.912C277.626 243.481 278.06 243.977 278.63 243.977H282.12C282.69 243.977 283.124 243.482 283.124 242.912C283.124 237.789 287.276 233.634 292.404 233.634C297.533 233.634 301.685 237.785 301.685 242.912C301.685 243.481 302.119 243.977 302.689 243.977H305.197C305.242 243.977 305.279 244.014 305.279 244.059C305.279 244.104 305.315 244.141 305.36 244.141H306.885C307.934 244.141 308.69 243.145 308.657 242.097C308.655 242.008 308.653 241.918 308.653 241.829C308.653 239.326 309.647 237.063 311.257 235.395C311.432 235.215 311.629 235.059 311.845 234.931C313.229 234.111 314.841 233.634 316.567 233.634C317.108 233.634 317.635 233.685 318.15 233.777C318.523 233.843 318.88 233.567 318.88 233.188V232.664C318.88 232.633 318.905 232.607 318.936 232.611C318.97 232.616 319 232.59 319 232.556V227.956C319 227.386 318.504 226.952 317.934 226.952C312.81 226.952 308.653 222.801 308.653 217.674C308.653 212.548 312.806 208.397 317.934 208.397C318.504 208.397 319 207.962 319 207.392V203.905C319 203.334 318.504 202.9 317.934 202.9C312.81 202.9 308.653 198.749 308.653 193.623C308.653 188.496 312.806 184.345 317.934 184.345C318.504 184.345 319 183.911 319 183.341V179.269C319 178.698 318.504 178.265 317.934 178.265C312.81 178.265 308.653 174.114 308.653 168.987C308.653 163.86 312.806 159.709 317.934 159.709C318.504 159.709 319 159.275 319 158.705V155.166C319 154.596 318.504 154.162 317.934 154.162C312.81 154.162 308.653 150.011 308.653 144.884C308.653 139.758 312.806 135.606 317.934 135.606C318.504 135.606 319 135.172 319 134.602V130.586C319 130.016 318.504 129.582 317.934 129.582C312.81 129.582 308.653 125.431 308.653 120.304C308.653 115.178 312.806 111.026 317.934 111.026C318.504 111.026 319 110.592 319 110.022V106.427C319 105.857 318.504 105.423 317.934 105.423C312.81 105.423 308.653 101.272 308.653 96.1453C308.653 91.0188 312.806 86.8677 317.934 86.8677C318.504 86.8677 319 86.4336 319 85.8636V82.3757C319 81.8054 318.504 81.3716 317.934 81.3716C312.81 81.3716 308.653 77.2205 308.653 72.0939C308.653 66.9674 312.806 62.8163 317.934 62.8163C318.504 62.8163 319 62.3823 319 61.8122V57.7399C319 57.1696 318.504 56.7358 317.934 56.7358C312.81 56.7358 308.653 52.5847 308.653 47.4582C308.653 42.3316 312.806 38.1805 317.934 38.1805C318.504 38.1805 319 37.7465 319 37.1764V33.9206C319 33.3503 318.504 32.9165 317.934 32.9165C312.81 32.9165 308.653 28.7654 308.653 23.6388C308.653 18.5123 312.806 14.3612 317.934 14.3612L317.857 14.3526Z" fill="#EEEEEC" stroke="black" stroke-width="2"/>
</g>
<path d="M45 24.5H275C283.56 24.5 290.5 31.4396 290.5 40V205C290.5 213.56 283.56 220.5 275 220.5H45C36.4396 220.5 29.5 213.56 29.5 205V40L29.5049 39.5996C29.7172 31.2242 36.5735 24.5 45 24.5Z" fill="white" stroke="black"/>
<path d="M108 95V43H212V147H108" fill="#007ACC"/>
<path d="M130.802 95.182V99.42H144.322V137.9H153.916V99.42H167.436V95.26C167.436 92.92 167.436 91.022 167.332 90.97C167.332 90.892 159.09 90.866 149.08 90.866L130.88 90.944V95.208L130.802 95.182ZM191.564 90.84C194.216 91.464 196.244 92.66 198.064 94.558C199.026 95.598 200.456 97.418 200.56 97.886C200.56 98.042 196.062 101.084 193.332 102.774C193.228 102.852 192.812 102.41 192.396 101.734C191.044 99.81 189.666 98.978 187.508 98.822C184.388 98.614 182.308 100.252 182.308 102.982C182.308 103.814 182.464 104.282 182.776 104.958C183.478 106.388 184.778 107.246 188.808 109.014C196.244 112.212 199.468 114.318 201.418 117.334C203.628 120.714 204.122 126.018 202.64 129.996C200.976 134.338 196.92 137.276 191.122 138.238C189.302 138.55 185.142 138.498 183.192 138.16C179.032 137.38 175.054 135.3 172.61 132.622C171.648 131.582 169.802 128.8 169.906 128.618L170.894 127.994L174.794 125.732L177.732 124.016L178.408 124.926C179.266 126.278 181.19 128.098 182.308 128.722C185.688 130.464 190.212 130.23 192.448 128.202C193.41 127.318 193.826 126.382 193.826 125.082C193.826 123.886 193.644 123.34 193.046 122.43C192.214 121.286 190.55 120.35 185.87 118.27C180.488 115.982 178.2 114.526 176.068 112.29C174.846 110.938 173.728 108.832 173.208 107.09C172.818 105.582 172.688 101.89 173.052 100.408C174.17 95.208 178.096 91.568 183.712 90.528C185.532 90.164 189.822 90.32 191.616 90.788L191.564 90.84Z" fill="white"/>
<path d="M59.32 192V165.6H65.8V192H59.32ZM51.64 170.96V165.6H73.56V170.96H51.64ZM84.2563 199.36C83.1896 199.36 82.0963 199.267 80.9763 199.08C79.8563 198.893 78.7896 198.613 77.7763 198.24C76.7896 197.893 75.9363 197.427 75.2163 196.84L76.7763 191.12C77.7096 192 78.8296 192.653 80.1363 193.08C81.4696 193.507 82.7496 193.72 83.9763 193.72C85.3896 193.72 86.5496 193.44 87.4563 192.88C88.3896 192.347 89.0963 191.52 89.5763 190.4C90.0829 189.253 90.3763 187.84 90.4563 186.16L90.6563 182.68H89.6963C89.4563 184.413 89.0296 185.827 88.4163 186.92C87.8296 188.013 87.0696 188.827 86.1363 189.36C85.2296 189.867 84.1496 190.12 82.8963 190.12C81.3496 190.12 80.0563 189.733 79.0163 188.96C77.9763 188.187 77.1896 187.027 76.6563 185.48C76.1496 183.907 75.8963 181.96 75.8963 179.64V170.88H82.3763V178.04C82.3763 180.493 82.6163 182.253 83.0963 183.32C83.6029 184.36 84.3896 184.88 85.4563 184.88C86.0163 184.88 86.5229 184.72 86.9763 184.4C87.4296 184.08 87.8163 183.627 88.1363 183.04C88.4563 182.453 88.6963 181.747 88.8563 180.92C89.0429 180.067 89.1363 179.12 89.1363 178.08V170.88H95.5763V186.4C95.5763 188.08 95.4163 189.613 95.0963 191C94.8029 192.387 94.3496 193.6 93.7363 194.64C93.1496 195.68 92.4029 196.547 91.4963 197.24C90.5896 197.96 89.5363 198.493 88.3363 198.84C87.1363 199.187 85.7763 199.36 84.2563 199.36ZM100.472 198.76V181.68V170.88H105.752L105.832 176.88L106.552 176.96C106.792 175.467 107.219 174.227 107.832 173.24C108.446 172.253 109.232 171.52 110.192 171.04C111.179 170.56 112.299 170.32 113.552 170.32C115.419 170.32 117.019 170.773 118.352 171.68C119.712 172.587 120.752 173.88 121.472 175.56C122.192 177.24 122.552 179.253 122.552 181.6C122.552 183.68 122.232 185.547 121.592 187.2C120.979 188.853 120.032 190.16 118.752 191.12C117.499 192.08 115.899 192.56 113.952 192.56C112.646 192.56 111.539 192.333 110.632 191.88C109.726 191.4 108.952 190.707 108.312 189.8C107.699 188.893 107.179 187.76 106.752 186.4H105.992C106.152 187.12 106.299 187.853 106.432 188.6C106.566 189.347 106.672 190.067 106.752 190.76C106.859 191.453 106.912 192.12 106.912 192.76V198.76H100.472ZM111.592 187.48C112.472 187.48 113.219 187.24 113.832 186.76C114.472 186.28 114.966 185.6 115.312 184.72C115.659 183.84 115.832 182.813 115.832 181.64C115.832 180.387 115.646 179.32 115.272 178.44C114.926 177.533 114.419 176.84 113.752 176.36C113.086 175.853 112.312 175.6 111.432 175.6C110.606 175.6 109.899 175.787 109.312 176.16C108.752 176.507 108.286 176.973 107.912 177.56C107.566 178.12 107.312 178.72 107.152 179.36C106.992 180 106.912 180.6 106.912 181.16V182.04C106.912 182.547 106.979 183.053 107.112 183.56C107.246 184.067 107.446 184.56 107.712 185.04C107.979 185.493 108.299 185.907 108.672 186.28C109.046 186.653 109.472 186.947 109.952 187.16C110.459 187.373 111.006 187.48 111.592 187.48ZM136.528 192.56C134.768 192.56 133.194 192.333 131.808 191.88C130.421 191.4 129.234 190.707 128.248 189.8C127.288 188.893 126.554 187.773 126.048 186.44C125.541 185.107 125.288 183.573 125.288 181.84C125.288 180.16 125.528 178.613 126.008 177.2C126.514 175.787 127.221 174.573 128.128 173.56C129.061 172.52 130.194 171.72 131.528 171.16C132.888 170.6 134.408 170.32 136.088 170.32C137.794 170.32 139.288 170.6 140.568 171.16C141.874 171.693 142.941 172.493 143.768 173.56C144.621 174.627 145.248 175.933 145.648 177.48C146.048 179 146.181 180.747 146.048 182.72L129.528 182.84V179.48L142.368 179.36L140.088 180.92C140.274 179.587 140.194 178.507 139.848 177.68C139.501 176.827 138.994 176.213 138.328 175.84C137.661 175.44 136.941 175.24 136.168 175.24C135.234 175.24 134.408 175.493 133.688 176C132.994 176.507 132.448 177.24 132.048 178.2C131.648 179.16 131.448 180.333 131.448 181.72C131.448 183.907 131.914 185.493 132.848 186.48C133.808 187.467 135.021 187.96 136.488 187.96C137.208 187.96 137.808 187.867 138.288 187.68C138.768 187.467 139.154 187.213 139.448 186.92C139.768 186.6 140.008 186.253 140.168 185.88C140.354 185.507 140.501 185.147 140.608 184.8L146.208 186C145.994 186.987 145.648 187.88 145.168 188.68C144.714 189.48 144.088 190.173 143.288 190.76C142.514 191.347 141.568 191.787 140.448 192.08C139.354 192.4 138.048 192.56 136.528 192.56ZM160.724 192.56C159.018 192.56 157.471 192.4 156.084 192.08C154.698 191.76 153.498 191.28 152.484 190.64C151.471 189.973 150.671 189.133 150.084 188.12C149.498 187.107 149.151 185.933 149.044 184.6L154.684 182.72C154.764 183.84 155.084 184.773 155.644 185.52C156.204 186.267 156.951 186.827 157.884 187.2C158.844 187.547 159.911 187.72 161.084 187.72C162.204 187.72 163.138 187.587 163.884 187.32C164.658 187.027 165.231 186.667 165.604 186.24C166.004 185.787 166.204 185.307 166.204 184.8C166.204 184.213 165.951 183.733 165.444 183.36C164.938 182.96 164.244 182.627 163.364 182.36C162.484 182.067 161.458 181.787 160.284 181.52C158.951 181.2 157.644 180.853 156.364 180.48C155.084 180.107 153.924 179.627 152.884 179.04C151.844 178.427 151.018 177.653 150.404 176.72C149.818 175.76 149.524 174.56 149.524 173.12C149.524 171.493 149.938 170.08 150.764 168.88C151.591 167.68 152.804 166.747 154.404 166.08C156.004 165.387 157.978 165.04 160.324 165.04C162.644 165.04 164.618 165.373 166.244 166.04C167.871 166.707 169.124 167.64 170.004 168.84C170.884 170.013 171.364 171.387 171.444 172.96L165.684 174.6C165.684 173.827 165.551 173.147 165.284 172.56C165.044 171.973 164.698 171.493 164.244 171.12C163.791 170.72 163.231 170.427 162.564 170.24C161.898 170.027 161.138 169.92 160.284 169.92C159.271 169.92 158.404 170.04 157.684 170.28C156.991 170.52 156.471 170.84 156.124 171.24C155.778 171.613 155.604 172.053 155.604 172.56C155.604 173.2 155.871 173.733 156.404 174.16C156.964 174.56 157.711 174.907 158.644 175.2C159.604 175.467 160.658 175.733 161.804 176C162.951 176.24 164.138 176.547 165.364 176.92C166.591 177.267 167.738 177.733 168.804 178.32C169.871 178.907 170.724 179.707 171.364 180.72C172.031 181.707 172.364 182.96 172.364 184.48C172.364 186.107 171.924 187.533 171.044 188.76C170.191 189.96 168.898 190.893 167.164 191.56C165.431 192.227 163.284 192.56 160.724 192.56ZM186.253 192.56C184.439 192.56 182.839 192.307 181.453 191.8C180.066 191.293 178.906 190.573 177.973 189.64C177.039 188.68 176.319 187.533 175.813 186.2C175.333 184.867 175.093 183.373 175.093 181.72C175.093 180.013 175.333 178.467 175.813 177.08C176.319 175.693 177.039 174.493 177.973 173.48C178.906 172.467 180.053 171.693 181.413 171.16C182.773 170.6 184.333 170.32 186.093 170.32C187.853 170.32 189.373 170.6 190.653 171.16C191.933 171.72 192.973 172.507 193.773 173.52C194.599 174.533 195.159 175.707 195.453 177.04L189.493 179.04C189.413 178.16 189.199 177.44 188.853 176.88C188.506 176.32 188.053 175.92 187.493 175.68C186.959 175.413 186.373 175.28 185.733 175.28C185.066 175.28 184.479 175.413 183.973 175.68C183.466 175.947 183.039 176.347 182.693 176.88C182.346 177.413 182.079 178.067 181.893 178.84C181.706 179.587 181.613 180.453 181.613 181.44C181.613 182.853 181.786 184.04 182.133 185C182.506 185.933 183.039 186.64 183.733 187.12C184.453 187.6 185.319 187.84 186.333 187.84C187.373 187.84 188.186 187.627 188.773 187.2C189.359 186.773 189.786 186.253 190.053 185.64C190.319 185 190.479 184.373 190.533 183.76L196.133 185C196.026 185.987 195.759 186.947 195.333 187.88C194.933 188.787 194.333 189.6 193.533 190.32C192.733 191.013 191.733 191.56 190.533 191.96C189.359 192.36 187.933 192.56 186.253 192.56ZM199.144 192V182.2V170.88H204.424L204.544 178.04H205.344C205.531 176.173 205.877 174.693 206.384 173.6C206.917 172.48 207.664 171.667 208.624 171.16C209.611 170.653 210.824 170.4 212.264 170.4C212.477 170.4 212.717 170.413 212.984 170.44C213.251 170.44 213.557 170.467 213.904 170.52L213.664 177.4C213.237 177.187 212.771 177.053 212.264 177C211.784 176.92 211.357 176.88 210.984 176.88C209.944 176.88 209.037 177.08 208.264 177.48C207.517 177.88 206.917 178.493 206.464 179.32C206.037 180.147 205.757 181.187 205.624 182.44V192H199.144ZM216.996 192V170.88H223.436V192H216.996ZM220.236 167.92C219.009 167.92 218.062 167.667 217.396 167.16C216.756 166.627 216.436 165.88 216.436 164.92C216.436 163.907 216.756 163.147 217.396 162.64C218.062 162.107 219.009 161.84 220.236 161.84C221.489 161.84 222.436 162.107 223.076 162.64C223.742 163.147 224.076 163.893 224.076 164.88C224.076 165.867 223.742 166.627 223.076 167.16C222.436 167.667 221.489 167.92 220.236 167.92ZM228.441 198.76V181.68V170.88H233.721L233.801 176.88L234.521 176.96C234.761 175.467 235.188 174.227 235.801 173.24C236.414 172.253 237.201 171.52 238.161 171.04C239.148 170.56 240.268 170.32 241.521 170.32C243.388 170.32 244.988 170.773 246.321 171.68C247.681 172.587 248.721 173.88 249.441 175.56C250.161 177.24 250.521 179.253 250.521 181.6C250.521 183.68 250.201 185.547 249.561 187.2C248.948 188.853 248.001 190.16 246.721 191.12C245.468 192.08 243.868 192.56 241.921 192.56C240.614 192.56 239.508 192.333 238.601 191.88C237.694 191.4 236.921 190.707 236.281 189.8C235.668 188.893 235.148 187.76 234.721 186.4H233.961C234.121 187.12 234.268 187.853 234.401 188.6C234.534 189.347 234.641 190.067 234.721 190.76C234.828 191.453 234.881 192.12 234.881 192.76V198.76H228.441ZM239.561 187.48C240.441 187.48 241.188 187.24 241.801 186.76C242.441 186.28 242.934 185.6 243.281 184.72C243.628 183.84 243.801 182.813 243.801 181.64C243.801 180.387 243.614 179.32 243.241 178.44C242.894 177.533 242.388 176.84 241.721 176.36C241.054 175.853 240.281 175.6 239.401 175.6C238.574 175.6 237.868 175.787 237.281 176.16C236.721 176.507 236.254 176.973 235.881 177.56C235.534 178.12 235.281 178.72 235.121 179.36C234.961 180 234.881 180.6 234.881 181.16V182.04C234.881 182.547 234.948 183.053 235.081 183.56C235.214 184.067 235.414 184.56 235.681 185.04C235.948 185.493 236.268 185.907 236.641 186.28C237.014 186.653 237.441 186.947 237.921 187.16C238.428 187.373 238.974 187.48 239.561 187.48ZM262.618 192.52C260.138 192.52 258.312 191.867 257.138 190.56C255.965 189.227 255.378 187.107 255.378 184.2V175.92H252.378L252.498 170.92H254.658C255.512 170.893 256.152 170.76 256.578 170.52C257.032 170.28 257.312 169.827 257.418 169.16L257.938 166.2H261.578V170.88H266.658V176.12H261.578V183.92C261.578 184.827 261.792 185.493 262.218 185.92C262.672 186.347 263.352 186.56 264.258 186.56C264.765 186.56 265.245 186.507 265.698 186.4C266.152 186.293 266.525 186.147 266.818 185.96V191.92C265.965 192.187 265.178 192.347 264.458 192.4C263.765 192.48 263.152 192.52 262.618 192.52Z" fill="black"/>
</g>
<defs>
<clipPath id="clip0_63_59">
<rect width="319" height="245" fill="white"/>
</clipPath>
</defs>
</svg>
